<svg width="726" height="228" viewBox="0 0 726 228" fill="none" xmlns="http://www.w3.org/2000/svg">
<g id="Frame">
<g id="FISH__TROUT">
<g id="BODY">
<g id="XMLID 49">
<g id="Group">
<path id="Vector" d="M557.703 141.459C557.933 142.107 557.352 142.718 556.723 142.718C556.105 142.712 555.5 142.095 555.748 141.459C555.911 141.042 556.25 140.775 556.686 140.8C556.656 140.806 556.62 140.818 556.583 140.824C556.141 140.951 555.784 141.477 555.954 141.944C555.954 141.956 555.96 141.962 555.966 141.974C555.966 141.816 555.966 141.671 555.966 141.514C556.045 141.387 556.111 141.254 556.19 141.126C556.547 141.12 556.904 141.12 557.255 141.12C557.334 141.247 557.407 141.381 557.485 141.508C557.485 141.659 557.485 141.823 557.485 141.974C557.491 141.962 557.491 141.956 557.497 141.944C557.673 141.496 557.31 140.927 556.862 140.824C556.819 140.818 556.783 140.806 556.747 140.8C557.183 140.763 557.552 141.048 557.703 141.459Z" fill="white"/>
<path id="Vector_2" d="M687.308 145.104C693.476 146.242 699.009 148.748 703.059 153.433C704.172 158.669 705.68 163.869 706.188 169.178C706.261 169.941 705.383 170.201 704.826 169.959C699.62 167.707 694.85 164.608 690.77 160.661C686.999 157.011 683.597 152.755 678.736 151.03V151.024L678.772 150.927C680.425 151.514 682.162 152.023 683.433 151.284C685.364 150.152 686.678 147.289 687.308 145.104Z" fill="#82AD87"/>
<path id="Vector_3" d="M687.459 144.546C687.756 143.366 687.895 142.161 687.883 140.957C687.865 139.425 687.61 137.9 687.132 136.435C685.806 132.385 682.822 130.297 678.621 130C678.355 129.982 678.094 129.964 677.834 129.952C683.561 128.208 688.906 125.545 693.712 121.949C698.301 118.523 702.441 114.648 707.841 112.512C708.501 112.251 709.136 113.02 708.955 113.631C707.526 118.547 706.091 123.468 704.663 128.384C703.355 132.857 701.884 137.343 701.757 142.04C701.648 145.89 702.254 149.674 703.059 153.433C699.009 148.747 693.476 146.241 687.308 145.103C687.362 144.91 687.417 144.722 687.459 144.546Z" fill="#95C59C"/>
<path id="Vector_4" d="M556.723 142.718C557.352 142.718 557.933 142.107 557.703 141.459C557.552 141.047 557.183 140.763 556.747 140.799C556.735 140.799 556.729 140.799 556.723 140.799C556.717 140.799 556.711 140.799 556.699 140.799C556.692 140.799 556.692 140.799 556.686 140.799C556.251 140.775 555.912 141.041 555.748 141.459C555.5 142.095 556.105 142.712 556.723 142.718ZM545.136 154.413C543.575 154.171 542.013 153.663 540.451 152.827L539.937 152.482L539.93 152.476C539.815 152.283 539.658 152.21 539.434 152.149C539.15 152.065 538.762 151.986 538.229 151.683C537.897 151.496 537.551 151.29 537.255 151.036C536.613 150.479 536.159 149.746 535.905 148.941C535.457 147.512 535.82 146.114 536.522 144.837C538.387 141.441 542.025 138.965 545.155 136.846C553.914 130.914 563.539 126.017 573.569 122.669C578.37 121.071 583.261 119.8 588.213 118.801C597.19 116.991 606.355 116.059 615.49 115.635C619.685 115.441 623.819 115.314 627.935 115.623C630.52 115.817 633.093 116.186 635.666 116.815C642.331 118.45 648.638 121.228 654.91 123.965C658.863 125.696 662.834 127.433 666.992 128.62C667.446 128.747 667.894 128.862 668.336 128.959C671.514 129.679 674.589 129.746 677.834 129.951C678.094 129.963 678.355 129.982 678.621 130C682.822 130.296 685.806 132.385 687.132 136.435C687.61 137.9 687.865 139.425 687.883 140.957L686.279 140.987C673.548 138.232 660.672 136.247 647.7 135.115C636.755 134.159 625.472 133.359 614.497 134.122C609.006 134.504 603.855 136.677 598.395 137.016C596.252 137.155 593.243 136.053 591.185 136.725C589.581 137.252 589.078 139.201 587.389 139.619C586.167 139.921 584.823 139.461 583.721 138.977C582.323 138.36 581.348 137.567 579.762 137.748C578.303 137.912 577.426 138.765 576.287 139.637C572.335 142.658 568.061 145.206 563.926 147.966C558.333 151.695 551.777 155.442 545.136 154.413Z" fill="#489680"/>
<path id="Vector_5" d="M687.308 145.103C686.678 147.288 685.364 150.152 683.433 151.284C682.162 152.022 680.425 151.514 678.772 150.927C677.707 150.545 676.678 150.134 675.824 150.006C671.738 149.383 667.585 149.897 663.608 150.939C662.398 151.26 661.199 151.629 660.025 152.04C654.389 153.99 649.098 156.841 643.626 159.196C640.69 160.461 637.736 161.484 634.721 162.253C631.628 163.033 628.474 163.542 625.187 163.766C620.998 164.056 616.888 164.329 612.796 164.771C612.517 164.801 612.245 164.831 611.966 164.862C611.016 164.668 610.132 164.468 610.308 164.293C607.063 163.409 603.51 161.163 599.975 159.849C617.191 156.635 634.394 151.253 651.774 147.646C662.035 145.593 675.77 142.966 687.308 145.103Z" fill="#6DA898"/>
<path id="Vector_6" d="M660.025 152.041C662.198 155.013 662.567 158.778 660.787 162.059C659.752 163.978 658.202 165.413 655.987 165.564C654.352 165.679 652.585 165.443 650.963 165.304C645.448 164.838 640.042 163.724 634.721 162.253C637.736 161.484 640.69 160.461 643.626 159.196C649.098 156.841 654.389 153.99 660.025 152.041Z" fill="#82AD87"/>
<path id="Vector_7" d="M626.918 114.606L627.052 114.467C630.938 113.595 634.624 112.106 637.924 109.854C639.407 108.837 639.964 108.05 642.094 108.226C643.063 108.311 644.147 108.795 645.073 109.073C647.046 109.66 649.014 110.302 650.932 111.065C659.032 114.261 666.599 120.036 668.336 128.959C667.894 128.862 667.446 128.747 666.992 128.62C662.834 127.433 658.862 125.696 654.91 123.965C648.638 121.229 642.331 118.45 635.666 116.816C633.093 116.186 630.52 115.817 627.935 115.623C627.609 115.272 627.27 114.933 626.918 114.606Z" fill="#95C59C"/>
<path id="Vector_8" d="M626.918 114.606C627.269 114.933 627.608 115.272 627.935 115.623C623.819 115.314 619.684 115.441 615.489 115.635C606.355 116.059 597.19 116.991 588.212 118.801C591.045 115.556 593.878 112.312 596.705 109.067C598.57 106.93 600.011 104.224 603.104 104.43C604.859 104.551 606.796 105.229 608.504 105.665C615.241 107.366 621.888 109.824 626.918 114.606Z" fill="#95C59C"/>
<path id="Vector_9" d="M611.966 164.862C608.697 165.237 605.441 165.727 602.147 166.424C595.477 167.834 588.739 169.36 581.868 169.105C581.862 169.105 581.862 169.105 581.856 169.105C578.109 168.96 574.405 168.349 570.67 168.028C570.506 168.016 570.343 168.004 570.179 167.991C571.626 167.574 572.921 166.381 574.15 165.461C575.428 164.499 576.681 163.506 577.897 162.471C585.27 162.192 592.619 161.218 599.974 159.85C603.509 161.163 607.063 163.409 610.308 164.293C610.132 164.468 611.016 164.668 611.966 164.862Z" fill="#95C59C"/>
<path id="Vector_10" d="M594.242 158.887C594.115 158.857 594.296 158.857 594.242 158.887V158.887Z" fill="#95C59C"/>
<path id="Vector_11" d="M594.314 158.899C596.155 158.693 598.061 159.135 599.974 159.849C592.619 161.218 585.271 162.192 577.897 162.471C578.878 161.635 579.835 160.782 580.749 159.88C582.783 157.882 584.647 155.685 586.179 153.275C586.844 152.228 587.395 151.114 587.983 150.031C590.779 152.271 593.104 155.533 593.981 158.96C594.145 158.929 594.218 158.905 594.242 158.887C594.26 158.893 594.284 158.893 594.314 158.899Z" fill="#95C59C"/>
<path id="Vector_12" d="M581.869 169.105C588.739 169.36 595.477 167.834 602.148 166.424C605.441 165.727 608.697 165.237 611.966 164.862C612.245 164.832 612.517 164.801 612.796 164.771C614.763 165.794 616.567 166.787 617.626 167.519L617.529 167.659C610.774 168.343 588.437 170.818 581.856 169.136V169.105C581.862 169.105 581.862 169.105 581.869 169.105Z" fill="#82AD87"/>
<path id="Vector_13" d="M557.255 141.12C556.904 141.12 556.547 141.12 556.19 141.126C556.111 141.253 556.044 141.386 555.966 141.513C555.966 141.671 555.966 141.816 555.966 141.973C555.96 141.961 555.954 141.955 555.954 141.943C555.784 141.477 556.141 140.95 556.583 140.823C556.62 140.817 556.656 140.805 556.686 140.799C556.692 140.799 556.692 140.799 556.698 140.799C556.71 140.799 556.716 140.799 556.722 140.799C556.728 140.799 556.735 140.799 556.747 140.799C556.783 140.805 556.819 140.817 556.862 140.823C557.31 140.926 557.673 141.495 557.497 141.943C557.491 141.955 557.491 141.961 557.485 141.973C557.485 141.822 557.485 141.658 557.485 141.507C557.406 141.38 557.334 141.247 557.255 141.12Z" fill="white"/>
<path id="Vector_14" d="M548.072 157.307C544.537 156.841 540.457 159.595 536.928 156.278C537.37 156.084 537.818 155.884 538.259 155.685C539.712 155.037 540.293 155.309 540.16 153.578C540.118 153.003 540.045 152.682 539.936 152.482L540.451 152.827C542.013 153.663 543.574 154.171 545.136 154.413C546.286 155.206 547.237 156.211 548.072 157.307Z" fill="#CC9999"/>
<path id="Vector_15" d="M548.072 157.307C547.237 156.211 546.287 155.206 545.136 154.413C551.777 155.442 558.333 151.695 563.926 147.966C568.061 145.206 572.334 142.657 576.287 139.637C577.425 138.765 578.303 137.911 579.762 137.748C581.348 137.566 582.323 138.359 583.721 138.977C584.823 139.461 586.167 139.921 587.389 139.619C589.078 139.201 589.581 137.252 591.185 136.725C593.243 136.053 596.252 137.155 598.395 137.016C603.855 136.677 609.006 134.503 614.497 134.122C625.472 133.359 636.755 134.158 647.7 135.115C660.672 136.247 673.548 138.232 686.278 140.987L687.883 140.956C687.895 142.161 687.756 143.366 687.459 144.546C687.417 144.722 687.362 144.909 687.308 145.103C675.77 142.966 662.034 145.593 651.774 147.645C634.394 151.253 617.19 156.635 599.975 159.849C598.062 159.135 596.155 158.693 594.315 158.899C594.284 158.893 594.26 158.893 594.242 158.887C594.296 158.856 594.115 158.856 594.242 158.887C594.218 158.905 594.145 158.929 593.982 158.959C593.104 155.533 590.779 152.27 587.983 150.031C587.395 151.114 586.845 152.228 586.179 153.275C584.647 155.684 582.783 157.882 580.749 159.879C579.835 160.781 578.878 161.635 577.898 162.47C570.664 162.737 563.412 162.337 556.129 160.963C547.594 159.825 536.377 168.851 531.044 160.878C531.153 160.037 531.649 159.268 532.333 158.651C532.781 158.245 533.308 157.918 533.865 157.64C534.967 158.881 539.961 159.02 541.292 158.917C543.629 158.741 545.869 158.185 548.072 157.404L548.121 157.367C548.103 157.349 548.084 157.325 548.072 157.307Z" fill="#84C1B1"/>
<path id="Vector_16" d="M544.882 164.547C541.486 164.856 533.193 166.641 531.28 162.38C531.044 161.859 530.983 161.357 531.044 160.879C536.377 168.851 547.594 159.825 556.129 160.963C563.412 162.337 570.664 162.737 577.898 162.471C576.681 163.506 575.428 164.499 574.15 165.461C572.922 166.381 571.626 167.574 570.179 167.991C567.328 167.786 564.447 167.925 561.614 167.525C559.114 167.174 556.783 166.302 554.416 165.461C551.226 164.317 548.23 164.238 544.882 164.547Z" fill="#6DA898"/>
<path id="Vector_17" d="M536.928 156.278C540.457 159.595 544.537 156.841 548.072 157.307C548.084 157.325 548.102 157.349 548.121 157.367L548.072 157.404C545.869 158.185 543.629 158.742 541.292 158.917C539.961 159.02 534.966 158.881 533.865 157.64C534.652 157.24 535.499 156.919 536.268 156.574C536.486 156.478 536.71 156.381 536.928 156.278Z" fill="#AD8282"/>
</g>
</g>
</g>
<g id="BUBBLES">
<g id="Group_2">
<g id="Group_3">
<path id="Vector_18" d="M520.483 140.942C522.435 142.234 522.839 145.468 521.064 147.122C520.022 148.093 518.417 148.234 517.126 147.722C512.552 145.908 516.122 138.593 520.483 140.942C520.791 141.108 521.067 140.638 520.758 140.471C515.862 137.835 511.687 145.868 516.719 148.138C518.393 148.893 520.539 148.641 521.752 147.182C523.433 145.161 522.911 141.897 520.758 140.471C520.465 140.277 520.191 140.749 520.483 140.942Z" fill="white"/>
</g>
</g>
<g id="Group_4">
<g id="Group_5">
<path id="Vector_19" d="M514.032 121.05C513.795 122.909 514.873 124.64 516.811 124.886C518.978 125.16 520.647 123.327 520.942 121.301C521.209 119.476 520.053 117.812 518.205 117.539C515.985 117.213 514.464 118.966 514.042 120.978C513.97 121.32 514.495 121.466 514.568 121.123C514.922 119.434 516.098 117.867 517.994 118.062C519.623 118.23 520.629 119.643 520.398 121.233C520.153 122.912 518.836 124.494 517.021 124.363C515.273 124.236 514.37 122.676 514.577 121.05C514.622 120.704 514.076 120.707 514.032 121.05Z" fill="white"/>
</g>
</g>
<g id="Group_6">
<g id="Group_7">
<path id="Vector_20" d="M531.963 104.467C534.038 105.964 537.906 104.258 537.801 101.541C537.749 100.217 536.495 99.1895 535.244 99.0282C533.868 98.8507 532.406 99.5283 531.531 100.58C530.476 101.848 530.649 103.388 531.908 104.424C532.177 104.645 532.564 104.262 532.293 104.039C529.423 101.677 534.191 98.1159 536.548 100.206C537.703 101.23 537.248 102.674 536.2 103.574C535.098 104.521 533.476 104.889 532.238 103.997C531.953 103.791 531.681 104.263 531.963 104.467Z" fill="white"/>
</g>
</g>
<g id="Group_8">
<g id="Group_9">
<g id="Group_10">
<path id="Vector_21" d="M581.343 183.579C583.43 184.715 586.012 184.037 587.398 182.131C588.448 180.688 588.191 178.883 586.728 177.838C585.169 176.724 583.015 176.896 581.572 178.119C579.818 179.603 579.208 182.194 581.343 183.579C581.54 183.707 581.722 183.392 581.527 183.266C579.325 181.837 580.518 179.026 582.455 177.942C583.751 177.217 585.421 177.292 586.608 178.204C587.941 179.228 587.984 180.87 586.938 182.133C585.613 183.731 583.37 184.269 581.527 183.266C581.321 183.154 581.138 183.467 581.343 183.579Z" fill="white"/>
</g>
</g>
<g id="Group_11">
<g id="Group_12">
<path id="Vector_22" d="M587.18 192.328C587.937 190.118 590.541 189.446 592.435 190.726C594.021 191.798 594.583 194.428 593.051 195.787C592.005 196.715 590.346 196.842 589.07 196.377C587.287 195.726 586.715 194.084 587.18 192.328C587.24 192.102 586.889 192.005 586.83 192.231C586.326 194.135 586.952 195.953 588.874 196.691C590.477 197.307 592.68 197.036 593.741 195.565C595.018 193.795 594.082 191.169 592.257 190.199C590.147 189.078 587.609 189.957 586.83 192.231C586.754 192.453 587.104 192.548 587.18 192.328Z" fill="white"/>
</g>
</g>
</g>
</g>
</g>
<g id="FISH__ORANGE">
<g id="BODY_2">
<g id="XMLID 47">
<g id="Group_13">
<path id="Vector_23" d="M189.982 117.102C194.198 122.417 201.506 129.055 194.62 135.387C194.016 135.941 193.371 136.421 192.718 136.892C184.956 139.752 176.905 141.794 168.713 142.959C164.018 137.793 165.423 129.138 169.787 123.649C172.532 120.194 176.318 117.466 180.17 115.35C181.658 114.531 182.989 114.06 184.229 113.969C184.882 113.92 185.51 113.986 186.122 114.159C187.478 114.548 188.734 115.515 189.982 117.102ZM185.684 125.592C187.279 125.592 187.279 123.112 185.684 123.112C184.088 123.112 184.08 125.592 185.684 125.592Z" fill="#F55C00"/>
<path id="Vector_24" d="M192.718 136.892C191.594 137.685 190.429 138.413 189.296 139.19C187.279 140.578 185.576 142.298 183.642 143.786C181.336 145.571 178.781 146.671 176.111 146.572C174.88 146.53 173.623 146.224 172.35 145.621C170.87 144.918 169.672 144.009 168.713 142.959C176.905 141.794 184.956 139.752 192.718 136.892Z" fill="#D84800"/>
<path id="Vector_25" d="M173.342 99.8501C177.938 102.702 187.503 107.496 186.122 114.159C185.51 113.986 184.882 113.919 184.229 113.969L184.188 113.192C168.969 98.3373 143.74 93.2782 123.571 99.7839C121 100.619 118.363 101.727 116.189 103.38C108.782 103.603 100.97 104.57 94.0844 102.925C91.8029 101.396 89.5131 99.8831 88.3558 97.2048C88.1078 96.651 88.1656 96.188 88.5459 95.7086C90.8026 92.8649 94.4564 93.1956 97.7712 93.1956C103.516 93.1956 109.261 93.1956 115.007 93.1956C125.951 93.1956 136.904 93.1708 147.849 93.1873C157.297 93.2121 165.233 94.8159 173.342 99.8501Z" fill="#F14E00"/>
<path id="Vector_26" d="M185.684 123.112C187.279 123.112 187.279 125.592 185.684 125.592C184.08 125.592 184.089 123.112 185.684 123.112Z" fill="white"/>
<path id="Vector_27" d="M116.189 103.38C118.363 101.727 121 100.619 123.571 99.784C143.74 93.2784 168.969 98.3374 184.188 113.192L184.229 113.969C182.989 114.06 181.658 114.531 180.17 115.35C176.318 117.466 172.532 120.194 169.788 123.649C165.423 129.138 164.018 137.793 168.713 142.959C149.047 145.753 128.613 143.447 109.815 135.09C108.393 134.461 106.98 133.8 105.583 133.098C98.4738 129.543 90.1413 133.329 81.6353 135.503C81.3294 134.776 81.255 134.04 81.4947 133.37C81.5278 133.279 81.5691 133.188 81.6105 133.098C82.4371 131.444 84.917 129.791 87.3969 128.138C82.6851 124.211 80.9657 117.309 83.6357 111.663C87.2316 112.142 90.9515 113.432 93.8199 114.911C94.506 115.259 95.1921 115.647 95.8865 116.027C98.9368 117.722 102.012 119.417 104.814 118.483H104.822C105.013 118.416 105.194 118.35 105.376 118.259C106.376 117.788 107.335 116.953 108.245 115.614C110.328 112.556 111.353 108.885 113.601 105.918C114.337 104.942 115.222 104.116 116.189 103.38ZM161.53 139.289C162.398 139.132 162.778 137.776 162.075 137.214C160.1 135.652 157.826 135.255 155.404 134.784C151.213 133.966 143.021 130.527 143.021 130.527C137.582 129.593 140.988 137.685 142.93 139.752C147.402 144.505 156.305 140.215 161.53 139.289Z" fill="#F39100"/>
<path id="Vector_28" d="M176.112 146.571C175.979 146.844 175.74 147.067 175.376 147.183C169.912 148.894 164.357 149.613 158.769 149.704C152.437 149.812 146.072 149.117 139.756 148.183C139.483 148.142 139.211 148.101 138.938 148.059C137.5 147.853 136.036 147.654 134.573 147.439C130.2 146.794 125.794 146.001 121.76 144.339C118.768 143.108 116.123 141.314 113.403 139.628C112.485 139.057 111.551 138.495 110.601 137.974C110.311 137.817 110.022 137.66 109.733 137.528C109.452 137.387 109.162 137.263 108.881 137.139L109.815 135.089C128.613 143.447 149.048 145.753 168.713 142.959C169.672 144.009 170.871 144.918 172.351 145.621C173.624 146.224 174.88 146.53 176.112 146.571Z" fill="#DD7E00"/>
<path id="Vector_29" d="M162.075 137.214C162.778 137.776 162.398 139.132 161.53 139.289C156.305 140.215 147.403 144.505 142.93 139.752C140.988 137.685 137.582 129.592 143.021 130.526C143.021 130.526 151.213 133.965 155.404 134.784C157.826 135.255 160.1 135.651 162.075 137.214Z" fill="#F55C00"/>
<path id="Vector_30" d="M139.756 148.184C146.071 149.118 152.437 149.812 158.769 149.705C153.842 154.111 147.006 158.293 140.293 158.773C138.979 158.864 137.491 158.665 137.243 157.086C137.102 156.227 137.805 155.26 138.119 154.549C139.045 152.408 139.293 150.3 138.938 148.06C139.21 148.101 139.483 148.142 139.756 148.184Z" fill="#D84800"/>
<path id="Vector_31" d="M134.573 147.44C134.532 147.481 134.482 147.514 134.432 147.547C132.076 149.118 129.679 149.399 126.927 149.68C122.802 150.093 119.578 151.151 115.924 153.11C111.807 155.326 105.955 159.145 101.061 157.161C95.9194 155.078 100.499 149.572 102.169 146.555C103.698 143.794 104.855 141.579 106.442 139.892C107.352 138.925 108.393 138.14 109.732 137.528L113.403 139.628C116.122 141.314 118.768 143.108 121.76 144.34C125.794 146.001 130.2 146.795 134.573 147.44Z" fill="#D84800"/>
<path id="Vector_32" d="M94.0845 102.925C100.97 104.57 108.782 103.603 116.189 103.38C115.222 104.116 114.337 104.942 113.601 105.918C111.353 108.885 110.328 112.556 108.245 115.614C107.335 116.953 106.377 117.788 105.376 118.259C105.194 118.35 105.013 118.416 104.822 118.483H104.814C101.838 115.937 101.309 111.729 99.5403 108.208C98.3334 105.794 96.2089 104.355 94.0845 102.925Z" fill="#F14E00"/>
<path id="Vector_33" d="M113.403 139.628L109.732 137.528C110.022 137.661 110.311 137.818 110.6 137.975C111.551 138.496 112.485 139.058 113.403 139.628Z" fill="#F14E00"/>
<path id="Vector_34" d="M109.815 135.09L108.881 137.14C103.954 135.056 99.1682 135.701 94.2415 138.396C93.0428 139.049 91.8525 139.818 90.6456 140.545C87.4465 141.141 82.8091 138.33 81.6353 135.503C90.1413 133.329 98.4738 129.543 105.583 133.097C106.98 133.8 108.393 134.461 109.815 135.09Z" fill="#DD7E00"/>
<path id="Vector_35" d="M90.6456 140.546C90.6621 140.546 90.6869 140.538 90.7034 140.538C89.0502 142.191 83.6688 143.571 81.4947 143.241C78.4361 142.778 75.6504 140.628 75.3115 137.405C75.3032 137.297 75.3032 137.19 75.2949 137.082C76.0472 136.826 76.7829 136.578 77.4772 136.404C78.7255 136.198 79.9737 135.925 81.2219 135.611C81.5691 138.421 84.2391 141.166 87.3969 140.538C87.3969 141.232 87.4051 141.769 87.5291 142.232C88.5955 141.753 89.6288 141.166 90.6456 140.546Z" fill="#D84800"/>
<path id="Vector_36" d="M81.635 135.503C82.8088 138.33 87.4463 141.141 90.6453 140.545C89.6286 141.165 88.5953 141.752 87.5289 142.232C87.4049 141.769 87.3967 141.231 87.3967 140.537C84.2389 141.165 81.5689 138.421 81.2217 135.61C81.3622 135.577 81.4945 135.544 81.635 135.503Z" fill="#D84800"/>
<path id="Vector_37" d="M87.3968 128.138C84.9169 129.791 82.437 131.444 81.6104 133.097C81.569 133.188 81.5277 133.279 81.4946 133.37C81.1971 134.073 81.1309 134.842 81.2219 135.602V135.61C79.9736 135.924 78.7254 136.197 77.4772 136.404C76.7828 136.577 76.0471 136.826 75.2949 137.082C75.0055 132.775 78.5849 129.832 82.0154 127.947C82.065 127.947 82.0898 127.931 82.0981 127.898C82.0733 127.914 82.0402 127.931 82.0154 127.947C81.0813 127.914 72.7654 122.235 73.0051 117.085C73.1621 113.754 75.8404 111.927 78.9486 111.572C80.4283 111.398 82.0154 111.448 83.6356 111.663C80.9656 117.309 82.685 124.211 87.3968 128.138Z" fill="#F14E00"/>
<path id="Vector_38" d="M82.0156 127.948C82.0404 127.931 82.0735 127.914 82.0983 127.898C82.09 127.931 82.0652 127.948 82.0156 127.948Z" fill="white"/>
<path id="Vector_39" d="M81.635 135.503C81.4945 135.544 81.3622 135.577 81.2217 135.61V135.602C81.3622 135.577 81.4945 135.536 81.635 135.503Z" fill="#F14E00"/>
<path id="Vector_40" d="M81.6352 135.503C81.4947 135.536 81.3625 135.577 81.2219 135.602C81.131 134.842 81.1971 134.073 81.4947 133.37C81.255 134.04 81.3294 134.775 81.6352 135.503Z" fill="#F14E00"/>
</g>
</g>
</g>
<g id="BUBBLES_2">
<g id="Group_14">
<g id="Group_15">
<path id="Vector_41" d="M210.363 101.536C207.755 104.467 206.665 109.215 209.344 112.507C212.181 115.993 217.186 114.283 219.668 111.251C221.848 108.588 222.508 104.268 220.396 101.364C217.944 97.9922 213.034 98.9974 210.363 101.536C210.131 101.756 210.482 102.107 210.714 101.887C213.327 99.4023 218.204 98.5319 220.299 102.118C221.85 104.772 221.247 108.37 219.439 110.729C217.198 113.653 212.427 115.491 209.726 112.168C207.224 109.089 208.276 104.626 210.714 101.887C210.925 101.649 210.576 101.297 210.363 101.536Z" fill="white"/>
</g>
</g>
<g id="Group_16">
<g id="Group_17">
<path id="Vector_42" d="M216.62 57.1268C210.617 62.0159 219.241 70.9399 224.234 65.2392C226.003 63.2193 225.529 60.1616 223.991 58.1567C222.119 55.7156 219.153 55.3288 216.67 57.088C216.412 57.2711 216.659 57.7013 216.92 57.5163C219.057 56.0027 221.564 56.1273 223.335 58.1368C224.788 59.7863 225.488 62.4631 224.231 64.4234C222.579 66.9972 218.863 67.1147 216.741 65.1159C214.404 62.914 214.491 59.4967 216.97 57.4775C217.218 57.2758 216.865 56.9268 216.62 57.1268Z" fill="white"/>
</g>
</g>
<g id="Group_18">
<g id="Group_19">
<path id="Vector_43" d="M243.239 82.2443C243.627 87.3168 236.133 90.5149 232.549 86.9328C226.637 81.0249 241.698 73.0949 243.252 82.3432C243.331 82.8144 244.048 82.6146 243.969 82.1454C242.515 73.4902 227.946 78.136 230.812 85.5808C233.314 92.0828 244.495 88.9268 243.983 82.2443C243.946 81.7701 243.202 81.766 243.239 82.2443Z" fill="white"/>
</g>
</g>
</g>
</g>
</g>
</svg>
