<svg width="300" height="203" viewBox="0 0 300 203" fill="none" xmlns="http://www.w3.org/2000/svg">
<path d="M177.174 142.393C172.624 145.603 170.274 148.143 172.924 153.663C175.754 159.063 178.754 164.673 182.674 169.443C193.024 169.413 202.754 165.533 211.344 159.383C212.294 155.333 211.864 150.783 210.304 146.663C209.624 144.853 212.524 144.073 213.204 145.863C214.544 149.413 215.074 153.173 214.774 156.763C225.034 148.413 233.454 136.903 239.064 125.223C238.874 125.143 238.674 125.083 238.474 125.003C231.504 122.213 224.214 119.273 216.554 119.683C209.254 120.073 203.574 123.973 197.764 128.033C197.744 128.043 197.724 128.063 197.704 128.073C190.864 132.843 183.994 137.593 177.174 142.393ZM176.324 158.873C174.484 158.303 175.274 155.403 177.124 155.983C178.824 156.503 180.514 156.853 182.204 157.043C184.224 157.263 186.244 157.253 188.264 157.053C189.934 156.883 191.614 156.583 193.304 156.173C195.174 155.703 195.974 158.593 194.094 159.063C192.234 159.523 190.374 159.853 188.504 160.033C186.314 160.253 184.114 160.263 181.934 160.023C180.054 159.823 178.184 159.443 176.324 158.873ZM186.804 147.503C184.874 147.503 184.864 144.503 186.804 144.503C188.734 144.503 188.734 147.503 186.804 147.503Z" fill="#EF5830"/>
<path d="M177.125 155.983C175.275 155.403 174.485 158.303 176.325 158.873C178.185 159.443 180.055 159.823 181.935 160.023L182.205 157.043C180.515 156.853 178.825 156.503 177.125 155.983Z" fill="white"/>
<path d="M182.204 157.043L181.934 160.023C184.114 160.263 186.314 160.253 188.504 160.033L188.264 157.053C186.244 157.253 184.224 157.263 182.204 157.043Z" fill="white"/>
<path d="M182.675 169.443C183.105 169.973 183.555 170.493 184.005 170.993L184.375 170.663C190.155 172.103 196.015 173.213 201.885 173.873L201.985 173.033C200.515 173.033 200.025 170.603 201.675 170.063C207.175 168.263 210.225 164.173 211.345 159.383C202.755 165.533 193.025 169.413 182.675 169.443Z" fill="#DF4616"/>
<path d="M184.374 170.663L184.004 170.993C186.044 173.263 188.324 175.293 190.944 176.963C192.954 178.243 195.114 179.223 197.364 179.983C205.144 182.593 214.054 182.543 221.984 183.063C223.414 183.153 224.874 183.263 226.344 183.353C229.584 183.563 232.894 183.713 236.134 183.533C241.794 183.223 247.274 181.933 251.844 178.253C256.244 174.703 259.544 168.973 264.874 166.703C265.474 166.443 266.104 166.233 266.764 166.073C273.034 164.543 278.414 168.663 283.574 171.523C284.574 172.073 285.824 171.373 285.834 170.223C285.864 167.953 286.004 165.173 286.004 162.283C281.334 160.343 276.584 158.863 272.374 157.663C261.374 153.663 253.374 164.663 244.374 168.663C230.864 174.353 216.344 175.493 201.884 173.873C196.014 173.213 190.154 172.103 184.374 170.663Z" fill="#BF3A16"/>
<path d="M186.804 144.503C184.864 144.503 184.874 147.503 186.804 147.503C188.734 147.503 188.734 144.503 186.804 144.503Z" fill="white"/>
<path d="M188.265 157.053L188.505 160.033C190.375 159.853 192.235 159.523 194.095 159.063C195.975 158.593 195.175 155.703 193.305 156.173C191.615 156.583 189.935 156.883 188.265 157.053Z" fill="white"/>
<path d="M197.765 127.503C197.735 127.693 197.735 127.863 197.765 128.033C203.575 123.973 209.255 120.073 216.555 119.683C224.215 119.273 231.505 122.213 238.475 125.003C238.675 125.083 238.875 125.143 239.065 125.223C240.025 123.243 240.895 121.253 241.685 119.283C240.225 118.703 238.785 118.103 237.365 117.413C231.895 114.773 227.355 111.893 221.035 112.653C213.115 113.613 199.315 118.293 197.765 127.503Z" fill="#FCA360"/>
<path d="M201.674 170.063C200.024 170.603 200.514 173.033 201.984 173.033C202.134 173.033 202.304 173.013 202.474 172.953C210.224 170.403 214.184 163.943 214.774 156.763C213.654 157.673 212.514 158.543 211.344 159.383C210.224 164.173 207.174 168.263 201.674 170.063Z" fill="#F48F3B"/>
<path d="M201.985 173.033L201.885 173.873C216.345 175.493 230.865 174.353 244.375 168.663C253.375 164.663 261.375 153.663 272.375 157.663C276.585 158.863 281.335 160.343 286.005 162.283C286.015 157.063 285.555 151.473 283.105 147.853C282.375 146.783 281.665 146.243 280.605 146.083C280.385 146.033 280.145 146.023 279.885 146.013C275.355 145.923 272.145 149.363 268.305 144.893C268.225 144.803 268.145 144.703 268.065 144.603C265.845 141.853 265.595 137.943 263.325 135.143C262.545 134.193 261.695 133.473 260.755 132.883C260.055 132.423 259.295 132.033 258.495 131.663C252.395 128.813 245.435 127.673 239.065 125.223C233.455 136.903 225.035 148.413 214.775 156.763C214.185 163.943 210.225 170.403 202.475 172.953C202.305 173.013 202.135 173.033 201.985 173.033Z" fill="#DF4616"/>
<path d="M197.365 179.983C202.405 184.483 205.125 190.443 208.305 196.283C210.415 200.143 211.645 203.533 216.455 202.033C224.755 199.433 230.175 191.183 226.345 183.353C224.875 183.263 223.415 183.153 221.985 183.063C214.055 182.543 205.145 182.593 197.365 179.983Z" fill="#961F04"/>
<path d="M213.205 145.863C212.525 144.073 209.624 144.853 210.305 146.663C211.865 150.783 212.295 155.333 211.345 159.383C212.515 158.543 213.655 157.673 214.775 156.763C215.075 153.173 214.545 149.413 213.205 145.863Z" fill="#F48F3B"/>
<path d="M236.134 183.533C236.214 183.693 236.324 183.843 236.484 183.993C240.314 187.543 243.224 188.873 248.124 186.963C251.024 185.823 252.404 184.933 255.474 185.993C256.814 186.453 258.044 187.163 259.364 187.653C261.214 188.343 263.194 188.923 265.194 188.473C268.994 187.633 271.264 183.843 271.494 180.143C271.824 174.873 268.144 170.523 264.914 166.803L264.874 166.703C259.544 168.973 256.244 174.703 251.844 178.253C247.274 181.933 241.794 183.223 236.134 183.533Z" fill="#961F04"/>
<path d="M241.685 119.283C240.895 121.253 240.025 123.243 239.065 125.223C245.435 127.673 252.395 128.813 258.495 131.663C259.295 132.033 260.055 132.423 260.755 132.883C262.445 130.433 261.935 127.573 260.915 124.543C260.685 123.873 260.165 123.503 259.465 123.443C256.775 123.193 254.105 122.793 251.485 122.223C248.145 121.513 244.875 120.523 241.685 119.283Z" fill="#F48F3B"/>
<path d="M266.815 122.143C262.705 122.323 255.725 122.273 251.485 122.223C254.105 122.793 256.775 123.193 259.465 123.443C260.165 123.503 260.685 123.873 260.915 124.543C261.935 127.573 262.445 130.433 260.755 132.883C261.695 133.473 262.545 134.193 263.325 135.143C265.595 137.943 265.845 141.853 268.065 144.603C268.145 144.703 268.225 144.803 268.305 144.893C274.125 142.083 278.515 132.003 275.645 126.213C273.935 122.753 270.395 121.993 266.815 122.143Z" fill="#BC2800"/>
<path d="M280.605 146.083C281.665 146.243 282.375 146.783 283.105 147.853C285.555 151.473 286.015 157.063 286.005 162.283C290.785 164.263 295.455 166.723 299.395 169.863C300.035 166.513 300.065 162.893 299.945 160.513C299.795 157.543 299.335 154.553 298.575 151.683C297.585 147.953 295.515 144.503 295.685 140.553C295.735 139.373 294.385 138.743 293.425 139.253C289.165 141.533 284.875 143.803 280.605 146.083Z" fill="#F48F3B"/>
<path d="M285.835 170.223C285.825 171.373 284.575 172.073 283.575 171.523C284.645 172.933 288.875 175.163 290.255 176.093C291.065 176.643 291.695 177.283 292.665 177.593C294.085 178.043 294.835 177.903 295.885 177.093C297.765 175.613 298.815 172.843 299.395 169.863C295.455 166.723 290.785 164.263 286.005 162.283C286.005 165.173 285.865 167.953 285.835 170.223Z" fill="#D87C36"/>
<path d="M161.504 109.344C158.85 100.275 163.215 90.8267 172.885 88.9854C181.177 87.4064 189.099 92.7066 190.604 101.077C193.561 117.523 167.613 125.268 161.504 109.344C161.365 108.984 161.945 108.828 162.082 109.185C167.841 124.196 192.281 117.182 190.073 101.683C188.897 93.4296 181.181 88.0337 173.044 89.564C163.701 91.3211 159.519 100.425 162.082 109.185C162.191 109.556 161.612 109.715 161.504 109.344Z" fill="white"/>
<path d="M209.794 75.1207C197.624 67.0271 211.648 50.9569 222.222 59.3697C226.454 62.7358 227.261 69.4049 223.98 73.7426C220.575 78.2445 214.198 77.6199 209.794 75.1207C209.458 74.9302 209.76 74.4116 210.096 74.6026C213.831 76.7218 219.039 77.5619 222.526 74.4521C226.331 71.0586 226.272 64.3835 222.871 60.7714C219.915 57.6315 214.95 56.6984 211.061 58.5663C208.992 59.5602 207.323 61.3334 206.305 63.3792C204.077 67.8554 206.231 72.0317 210.096 74.6026C210.416 74.8155 210.116 75.3353 209.794 75.1207Z" fill="white"/>
<path d="M193.099 31.4611C192.515 21.5987 179.656 19.6205 175.362 28.2385C172.889 33.2031 174.89 38.8804 180.258 40.6389C186.409 42.6532 192.86 37.9246 193.099 31.4611C193.12 30.8837 194.02 30.8809 193.999 31.4611C193.765 37.799 187.942 42.9022 181.612 41.8829C175.93 40.968 172.275 35.8338 173.698 30.1901C176.553 18.8695 193.278 19.2767 193.999 31.4611C194.033 32.0397 193.133 32.0377 193.099 31.4611Z" fill="white"/>
<path d="M223.313 13.3218C219.389 13.3549 215.828 10.8011 215.181 6.80262C214.601 3.21833 216.947 0.460154 220.481 0.0509135C228.974 -0.932416 233.117 12.6459 223.313 13.3218C222.735 13.3617 222.738 12.4615 223.313 12.4218C232.006 11.8225 227.718 -0.156973 220.297 0.986827C217.096 1.48024 215.366 4.21394 216.213 7.32539C217.094 10.562 220.051 12.4493 223.313 12.4218C223.892 12.4169 223.893 13.317 223.313 13.3218Z" fill="white"/>
<path d="M102.942 156.034C102.947 156.264 102.93 156.488 102.886 156.713L102.101 156.875C99.6443 157.066 97.6592 158.44 95.3151 158.737C95.1077 158.765 94.9058 158.776 94.7151 158.776C93.7842 158.776 93.0216 158.462 92.2757 157.817C91.457 157.105 92.6515 155.922 93.4646 156.629C94.8217 157.801 96.79 156.376 98.2368 155.9C99.4985 155.479 100.783 155.294 102.101 155.193C102.308 155.176 102.493 155.26 102.633 155.389C102.818 155.552 102.93 155.799 102.942 156.034Z" fill="white"/>
<path d="M102.1 156.875L102.885 156.713C102.341 159.561 97.9058 161.586 95.8926 163.038C95.5841 163.263 95.2813 163.481 94.9729 163.694C89.4717 165.208 83.7574 165.618 78.0711 165.281C77.0841 162.231 79.3441 158.726 81.1273 156.337C83.1181 153.679 85.6416 151.525 88.4847 149.832C89.41 149.277 88.5688 147.824 87.6323 148.38C85.5406 149.63 82.7984 151.75 80.5105 154.29L80.4768 154.262C77.6954 151.391 61.8647 136.368 60.1655 147.157C59.5374 151.139 62.4703 156.634 65.5153 159.102C68.9473 161.877 72.5138 161.233 76.5458 160.554L76.5626 160.56C76.0467 162.091 75.9009 163.644 76.2598 165.147C71.7399 164.76 67.2593 163.93 62.9414 162.853C50.7501 159.444 38.985 151.783 26.1657 151.688C24.2422 151.677 22.2963 151.834 20.3224 152.198C13.666 153.084 7.00955 155.726 0.0727539 155.4C0.0895772 155.372 0.100793 155.344 0.117616 155.316C3.87482 149.95 6.77964 144.897 13.9912 145.29C13.8735 145.189 9.46575 144.46 8.71431 140.932C8.26009 138.785 8.42832 136.446 8.06381 134.265C7.67127 131.921 7.05442 129.644 6.29737 127.395C6.08988 126.773 6.74038 126.201 7.3292 126.363C11.4453 127.479 15.7969 128.657 19.1616 131.41C21.7299 133.502 23.115 136.57 25.4198 138.902C27.1526 140.652 29.0032 141.235 30.8986 141.129C35.211 140.888 39.7533 137.085 43.6507 135.398C46.7686 134.046 50.2734 133.401 53.8568 133.138C58.3654 132.801 63.0087 133.065 67.1752 133.289C75.1719 133.71 83.3088 135.246 90.2231 139.469C95.6963 142.8 101.646 148.733 102.633 155.389C102.493 155.26 102.308 155.176 102.1 155.193C100.783 155.294 99.4984 155.479 98.2366 155.9C96.7898 156.376 94.8215 157.801 93.4644 156.629C92.6513 155.922 91.4568 157.105 92.2756 157.817C93.0214 158.462 93.784 158.776 94.7149 158.776C94.9056 158.776 95.1075 158.765 95.315 158.737C97.659 158.44 99.6442 157.066 102.1 156.875ZM94.9112 152.731C95.943 152.412 95.5 150.785 94.4626 151.111C93.8401 151.301 93.2177 151.497 92.5952 151.688C91.5634 152.008 92.0008 153.634 93.0438 153.309C93.6663 153.118 94.2887 152.922 94.9112 152.731Z" fill="#263991"/>
<path d="M94.4625 151.11C95.4999 150.785 95.9429 152.411 94.9111 152.731C94.2886 152.922 93.6662 153.118 93.0437 153.309C92.0007 153.634 91.5633 152.008 92.5951 151.688C93.2175 151.497 93.84 151.301 94.4625 151.11Z" fill="white"/>
<path d="M94.9728 163.695C91.9278 165.848 89.0567 167.547 85.1873 168.052C82.7255 168.371 80.2244 168.54 77.7122 168.562L77.7065 167.491C78.2841 167.491 78.8617 166.885 78.486 166.235C78.3066 165.926 78.1776 165.607 78.0711 165.282C83.7573 165.618 89.4716 165.209 94.9728 163.695Z" fill="#24377F"/>
<path d="M87.6325 148.38C88.569 147.824 89.4102 149.277 88.4849 149.832C85.6417 151.526 83.1182 153.679 81.1275 156.337C79.3442 158.726 77.0843 162.231 78.0713 165.281C77.4656 165.248 76.8656 165.197 76.2599 165.147C75.9011 163.644 76.0469 162.091 76.5628 160.56C77.303 158.361 78.7778 156.208 80.5106 154.29C82.7986 151.75 85.5408 149.63 87.6325 148.38Z" fill="#222B75"/>
<path d="M80.477 154.262L80.5106 154.29C78.7778 156.208 77.303 158.361 76.5628 160.56L76.546 160.554C72.514 161.232 68.9474 161.877 65.5155 159.101C62.4705 156.634 59.5376 151.138 60.1657 147.157C61.8648 136.368 77.6956 151.391 80.477 154.262Z" fill="#222B75"/>
<path d="M78.486 166.235C78.8618 166.885 78.2842 167.491 77.7066 167.491C77.4542 167.491 77.2019 167.373 77.0336 167.087C76.6635 166.453 76.4168 165.803 76.2598 165.147C76.8654 165.197 77.4654 165.248 78.0711 165.281C78.1776 165.607 78.3066 165.926 78.486 166.235Z" fill="#222B75"/>
<path d="M77.7067 167.491L77.7123 168.562C67.551 168.635 57.1374 166.319 47.722 162.41C44.9125 161.255 42.1983 159.948 39.602 158.524C36.0466 156.573 32.71 153.757 28.8294 152.49C28.5322 152.395 28.2406 152.316 27.9546 152.26C27.3434 152.126 26.749 152.07 26.1602 152.07L26.1658 151.688C38.9851 151.784 50.7502 159.444 62.9415 162.853C67.2594 163.93 71.74 164.76 76.2599 165.147C76.4169 165.803 76.6637 166.453 77.0338 167.087C77.202 167.373 77.4543 167.491 77.7067 167.491Z" fill="#24377F"/>
<path d="M53.857 133.138C50.2736 133.401 46.7687 134.046 43.6508 135.397C39.7534 137.085 35.2112 140.887 30.8988 141.129C27.8874 139.788 24.7358 137.108 26.2387 134.029C27.3827 131.691 30.8259 131.337 33.0802 131.152C39.8712 130.58 47.1893 131.629 53.857 133.138Z" fill="#222B75"/>
<path d="M47.7218 162.41C43.1627 162.724 38.6036 162.848 34.0613 162.293C31.2967 161.962 27.6909 161.715 25.5319 159.724C22.2906 156.741 24.9207 153.769 27.9545 152.26C28.2404 152.316 28.5321 152.395 28.8293 152.49C32.7098 153.758 36.0465 156.573 39.6018 158.524C42.1982 159.949 44.9123 161.255 47.7218 162.41Z" fill="#1C265E"/>
<path d="M26.1657 151.688L26.1601 152.07C22.7674 152.07 19.7392 154.077 16.6325 155.563C11.8715 157.846 5.15905 159.73 0.420495 156.466C0.0896372 156.242 -0.117851 155.782 0.0728134 155.401C7.00961 155.726 13.666 153.085 20.3224 152.199C22.2964 151.834 24.2423 151.677 26.1657 151.688Z" fill="#24377F"/>
<path d="M120.389 140.208C115.13 142.032 114.255 130.786 120.195 131.672C122.107 131.957 122.991 133.804 123.047 135.577C123.111 137.635 122.195 139.326 120.329 140.234C120.037 140.376 120.293 140.811 120.584 140.669C122.876 139.555 123.908 137.157 123.46 134.661C123.072 132.5 121.414 130.805 119.102 131.179C113.532 132.081 115.036 142.598 120.523 140.695C120.828 140.589 120.697 140.101 120.389 140.208Z" fill="white"/>
<path d="M113.949 121.836C113.366 124.574 108.178 124.326 108.17 121.357C108.159 117.294 114.165 117.942 113.943 121.881C113.93 122.097 114.267 122.096 114.279 121.881C114.387 119.972 112.823 118.156 110.87 118.169C109.215 118.179 107.957 119.456 107.843 121.081C107.592 124.631 113.581 125.177 114.273 121.925C114.318 121.714 113.994 121.624 113.949 121.836Z" fill="white"/>
<path d="M122.068 109.285C122.398 108.022 123.478 107.022 124.851 107.425C126.068 107.783 126.774 109.062 126.657 110.282C126.552 111.382 125.841 112.708 124.675 112.954C122.639 113.383 121.778 110.832 122.068 109.285C122.108 109.074 121.784 108.983 121.744 109.196C121.427 110.879 122.159 113.17 124.169 113.321C125.694 113.435 126.752 111.877 126.962 110.532C127.188 109.089 126.403 107.523 124.941 107.101C123.393 106.654 122.12 107.755 121.744 109.196C121.689 109.405 122.013 109.495 122.068 109.285Z" fill="white"/>
</svg>
