<svg width="433" height="168" viewBox="0 0 433 168" fill="none" xmlns="http://www.w3.org/2000/svg">
<path d="M94.944 32.736C94.132 32.4 93.236 32.764 92.9 33.548L87.44 46.512L83.828 37.916C83.548 37.3 82.96 36.964 82.372 36.964C81.756 36.964 81.168 37.3 80.916 37.916L77.304 46.512L71.816 33.548C71.508 32.764 70.584 32.4 69.828 32.736C69.016 33.044 68.68 33.968 68.988 34.724L75.876 51.048C75.932 51.132 75.96 51.244 76.016 51.3V51.328C76.072 51.384 76.1 51.44 76.156 51.496C76.184 51.552 76.184 51.552 76.212 51.58C76.296 51.608 76.324 51.664 76.408 51.72C76.408 51.72 76.408 51.72 76.436 51.72C76.492 51.776 76.604 51.86 76.688 51.888C76.716 51.888 76.716 51.888 76.744 51.916C76.8 51.916 76.856 51.944 76.94 51.972C76.968 51.972 76.996 51.972 77.024 51.972C77.108 52 77.22 52 77.304 52C77.388 52 77.472 52 77.556 51.972C77.584 51.972 77.612 51.972 77.64 51.972C77.696 51.944 77.752 51.916 77.864 51.916C77.864 51.888 77.892 51.888 77.892 51.888C77.892 51.888 77.892 51.888 77.92 51.888C77.976 51.86 78.06 51.776 78.144 51.72C78.144 51.72 78.144 51.72 78.2 51.72C78.256 51.664 78.312 51.608 78.368 51.58C78.368 51.552 78.396 51.552 78.396 51.496C78.452 51.44 78.508 51.384 78.564 51.328C78.564 51.328 78.564 51.3 78.592 51.3C78.62 51.244 78.676 51.132 78.704 51.048L82.372 42.368L86.04 51.048C86.068 51.132 86.096 51.244 86.152 51.3C86.152 51.3 86.152 51.328 86.208 51.328C86.236 51.384 86.292 51.44 86.32 51.496C86.348 51.552 86.348 51.552 86.376 51.58C86.432 51.608 86.488 51.664 86.572 51.72C86.572 51.72 86.572 51.72 86.6 51.72C86.656 51.776 86.74 51.86 86.852 51.888C86.88 51.888 86.88 51.888 86.908 51.916C86.964 51.916 87.02 51.944 87.104 51.972C87.104 51.972 87.132 51.972 87.188 51.972C87.272 52 87.356 52 87.44 52C87.552 52 87.636 52 87.72 51.972C87.72 51.972 87.748 51.972 87.776 51.972C87.86 51.944 87.944 51.916 88 51.916C88 51.888 88.028 51.888 88.028 51.888H88.056C88.168 51.86 88.224 51.776 88.308 51.72H88.336C88.392 51.664 88.476 51.608 88.532 51.58C88.532 51.552 88.56 51.552 88.56 51.496C88.616 51.44 88.672 51.384 88.7 51.328L88.728 51.3C88.784 51.244 88.84 51.132 88.868 51.048L95.728 34.724C96.064 33.968 95.7 33.044 94.944 32.736ZM112.735 31.84C110.047 31.84 107.583 32.988 105.875 34.836C104.139 36.684 103.103 39.148 103.103 41.92C103.103 44.692 104.139 47.184 105.875 49.004C107.583 50.824 110.047 52 112.735 52C115.311 52 117.775 50.824 119.427 49.004C121.163 47.184 122.255 44.692 122.255 41.92C122.255 39.148 121.163 36.684 119.427 34.836C117.775 32.988 115.311 31.84 112.735 31.84ZM117.159 46.792C115.983 48.052 114.415 48.808 112.735 48.808C110.943 48.808 109.375 48.052 108.199 46.792C107.023 45.588 106.295 43.824 106.295 41.92C106.295 40.016 107.023 38.252 108.199 37.02C109.375 35.76 110.943 35.032 112.735 35.032C114.415 35.032 115.983 35.76 117.159 37.02C118.307 38.252 119.063 40.016 119.063 41.92C119.063 43.824 118.307 45.588 117.159 46.792ZM146.127 32.4C146.099 32.4 146.099 32.4 146.099 32.4C145.595 32.4 145.147 32.624 144.839 33.044L139.267 40.772L133.695 33.044C133.415 32.624 132.911 32.4 132.463 32.4C132.407 32.4 132.407 32.4 132.379 32.4C131.539 32.4 130.839 33.1 130.839 33.94V50.46C130.839 51.3 131.539 52 132.379 52C133.247 52 133.947 51.3 133.947 50.46V38.672L137.951 44.272C138.259 44.692 138.735 44.916 139.239 44.916H139.267H139.295C139.799 44.916 140.247 44.692 140.555 44.272L144.587 38.672V50.46C144.587 51.3 145.259 52 146.127 52C146.967 52 147.695 51.3 147.695 50.46V33.94C147.695 33.1 146.967 32.428 146.127 32.4ZM158.81 52L158.838 51.972C158.838 51.972 158.838 52 158.894 52H167.966C168.778 52 169.506 51.3 169.506 50.46C169.506 49.592 168.778 48.892 167.966 48.892H160.378V43.74H166.902C167.742 43.74 168.442 43.04 168.442 42.172C168.442 41.36 167.742 40.632 166.902 40.632H160.378V35.508H167.966C168.778 35.508 169.506 34.808 169.506 33.94C169.506 33.072 168.778 32.4 167.966 32.4H158.894C158.838 32.4 158.838 32.4 158.838 32.4H158.81C157.942 32.4 157.27 33.072 157.27 33.94V50.46C157.27 51.3 157.942 52 158.81 52ZM181.147 38.84L190.107 51.272C190.135 51.328 190.191 51.384 190.247 51.44C190.527 51.776 190.947 52 191.395 52C192.235 52 192.935 51.3 192.935 50.46V34.192C192.935 33.38 192.235 32.68 191.395 32.68C190.555 32.68 189.883 33.38 189.883 34.192V45.728L180.839 33.212C180.363 32.54 179.411 32.4 178.711 32.876C178.291 33.184 178.067 33.688 178.095 34.164C178.095 34.192 178.095 34.192 178.095 34.192V50.46C178.095 51.3 178.767 52 179.635 52C180.447 52 181.147 51.3 181.147 50.46V38.84ZM204.457 45.084H209.721C210.617 45.084 211.373 44.328 211.373 43.432C211.373 42.508 210.617 41.752 209.721 41.752H204.457C203.561 41.752 202.805 42.508 202.805 43.432C202.805 44.328 203.561 45.084 204.457 45.084ZM228.907 52C231.371 52 233.611 51.188 235.375 49.816C236.047 49.284 236.159 48.276 235.655 47.576C235.095 46.904 234.059 46.792 233.415 47.268C232.155 48.276 230.643 48.808 228.907 48.808C226.975 48.808 225.183 48.024 223.867 46.792C222.607 45.56 221.823 43.824 221.823 41.92C221.823 40.016 222.607 38.336 223.867 37.048C225.183 35.816 226.975 35.032 228.907 35.032C230.643 35.032 232.183 35.564 233.415 36.572C234.059 37.076 235.095 36.964 235.655 36.264C236.159 35.564 236.047 34.584 235.375 34.024C233.611 32.652 231.371 31.84 228.907 31.84C223.307 31.868 218.659 36.376 218.631 41.92C218.659 47.492 223.307 52 228.907 52ZM246.84 52L246.868 51.972C246.868 51.972 246.868 52 246.924 52H255.996C256.808 52 257.536 51.3 257.536 50.46C257.536 49.592 256.808 48.892 255.996 48.892H248.408V43.74H254.932C255.772 43.74 256.472 43.04 256.472 42.172C256.472 41.36 255.772 40.632 254.932 40.632H248.408V35.508H255.996C256.808 35.508 257.536 34.808 257.536 33.94C257.536 33.072 256.808 32.4 255.996 32.4H246.924C246.868 32.4 246.868 32.4 246.868 32.4H246.84C245.972 32.4 245.3 33.072 245.3 33.94V50.46C245.3 51.3 245.972 52 246.84 52ZM269.178 38.84L278.138 51.272C278.166 51.328 278.222 51.384 278.278 51.44C278.558 51.776 278.978 52 279.426 52C280.266 52 280.966 51.3 280.966 50.46V34.192C280.966 33.38 280.266 32.68 279.426 32.68C278.586 32.68 277.914 33.38 277.914 34.192V45.728L268.87 33.212C268.394 32.54 267.442 32.4 266.742 32.876C266.322 33.184 266.098 33.688 266.126 34.164C266.126 34.192 266.126 34.192 266.126 34.192V50.46C266.126 51.3 266.798 52 267.666 52C268.478 52 269.178 51.3 269.178 50.46V38.84ZM305.15 33.94C305.15 33.072 304.45 32.4 303.61 32.4H291.654C290.786 32.4 290.114 33.072 290.114 33.94C290.114 34.78 290.786 35.508 291.654 35.508H296.078V50.46C296.078 51.328 296.778 52 297.618 52C298.486 52 299.158 51.328 299.158 50.46V35.508H303.61C304.45 35.508 305.15 34.78 305.15 33.94ZM325.966 48.724C325.91 48.444 325.826 47.912 325.854 47.072C325.854 45.896 325.49 44.86 324.93 44.048C324.65 43.628 324.314 43.292 323.95 43.012C325.294 41.892 326.134 40.268 326.134 38.42C326.134 35.088 323.474 32.4 320.142 32.4H315.158C315.13 32.4 315.13 32.4 315.13 32.4C314.262 32.4 313.59 33.072 313.59 33.94V50.46C313.59 51.3 314.262 52 315.13 52C315.998 52 316.698 51.3 316.698 50.46V44.384H320.002C320.254 44.44 320.982 44.664 321.57 45.056C321.906 45.28 322.242 45.56 322.41 45.868C322.606 46.176 322.718 46.54 322.746 47.072C322.746 48.612 322.942 49.62 323.334 50.432C323.558 50.824 323.866 51.188 324.23 51.412C324.622 51.664 325.042 51.72 325.322 51.72C325.35 51.72 325.35 51.72 325.35 51.72C325.63 51.72 325.854 51.664 325.966 51.636C326.778 51.356 327.226 50.488 326.946 49.676C326.778 49.2 326.414 48.864 325.966 48.724ZM320.142 41.276H316.698V35.508H320.142C321.738 35.508 323.026 36.796 323.026 38.42C323.026 39.988 321.738 41.276 320.142 41.276ZM335.878 50.46C335.878 51.328 336.55 52 337.418 52C338.258 52 338.986 51.328 338.986 50.46V33.94C338.986 33.072 338.258 32.4 337.418 32.4C336.55 32.4 335.878 33.072 335.878 33.94V50.46ZM357.822 52C360.286 52 362.526 51.188 364.29 49.816C364.962 49.284 365.074 48.276 364.57 47.576C364.01 46.904 362.974 46.792 362.33 47.268C361.07 48.276 359.558 48.808 357.822 48.808C355.89 48.808 354.098 48.024 352.782 46.792C351.522 45.56 350.738 43.824 350.738 41.92C350.738 40.016 351.522 38.336 352.782 37.048C354.098 35.816 355.89 35.032 357.822 35.032C359.558 35.032 361.098 35.564 362.33 36.572C362.974 37.076 364.01 36.964 364.57 36.264C365.074 35.564 364.962 34.584 364.29 34.024C362.526 32.652 360.286 31.84 357.822 31.84C352.222 31.868 347.574 36.376 347.546 41.92C347.574 47.492 352.222 52 357.822 52ZM73.36 136C74.6 136 75.6 135.04 75.6 133.8V124.2H85.96V133.8C85.96 135.04 86.92 136 88.16 136C89.4 136 90.4 135.04 90.4 133.8V110.2C90.4 108.96 89.4 108 88.16 108C86.92 108 85.96 108.96 85.96 110.2V119.8H75.6V110.2C75.6 108.96 74.6 108 73.36 108C72.12 108 71.16 108.96 71.16 110.2V133.8C71.16 135.04 72.12 136 73.36 136ZM119.542 134.6C119.862 135.48 120.702 136 121.582 136C121.862 136 122.142 135.96 122.342 135.88C123.502 135.44 124.062 134.16 123.662 133L114.822 109.44C114.462 108.56 113.622 108 112.702 108.04C111.822 108 110.942 108.56 110.582 109.44L101.742 133C101.342 134.16 101.902 135.44 103.062 135.88C103.302 135.96 103.542 136 103.822 136C104.702 136 105.542 135.48 105.902 134.6L107.862 129.4H117.582L119.542 134.6ZM109.462 125L112.702 116.4L115.942 125H109.462ZM147.4 136C150.92 136 154.12 134.84 156.64 132.88C157.6 132.12 157.76 130.68 157.04 129.68C156.24 128.72 154.76 128.56 153.84 129.24C152.04 130.68 149.88 131.44 147.4 131.44C144.64 131.44 142.08 130.32 140.2 128.56C138.4 126.8 137.28 124.32 137.28 121.6C137.28 118.88 138.4 116.48 140.2 114.64C142.08 112.88 144.64 111.76 147.4 111.76C149.88 111.76 152.08 112.52 153.84 113.96C154.76 114.68 156.24 114.52 157.04 113.52C157.76 112.52 157.6 111.12 156.64 110.32C154.12 108.36 150.92 107.2 147.4 107.2C139.4 107.24 132.76 113.68 132.72 121.6C132.76 129.56 139.4 136 147.4 136ZM173.419 136C174.659 136 175.619 135 175.619 133.8V128.12L179.779 123.88L188.419 135.2C188.859 135.72 189.459 136 190.059 136C190.579 136 191.059 135.84 191.459 135.48C192.419 134.72 192.579 133.32 191.779 132.4L182.899 120.76L191.699 112C192.539 111.12 192.539 109.72 191.699 108.88C190.819 108 189.459 108 188.579 108.88L175.619 121.88V110.4C175.619 109.24 174.659 108.2 173.419 108.2C172.179 108.2 171.219 109.24 171.219 110.4V133.8C171.219 135 172.179 136 173.419 136ZM222.453 134.6C222.773 135.48 223.613 136 224.493 136C224.773 136 225.053 135.96 225.253 135.88C226.413 135.44 226.973 134.16 226.573 133L217.733 109.44C217.373 108.56 216.533 108 215.613 108.04C214.733 108 213.853 108.56 213.493 109.44L204.653 133C204.253 134.16 204.813 135.44 205.973 135.88C206.213 135.96 206.453 136 206.733 136C207.613 136 208.453 135.48 208.813 134.6L210.773 129.4H220.493L222.453 134.6ZM212.373 125L215.613 116.4L218.853 125H212.373ZM253.808 110.2C253.808 108.96 252.808 108 251.608 108H234.528C233.288 108 232.328 108.96 232.328 110.2C232.328 111.4 233.288 112.44 234.528 112.44H240.848V133.8C240.848 135.04 241.848 136 243.048 136C244.288 136 245.248 135.04 245.248 133.8V112.44H251.608C252.808 112.44 253.808 111.4 253.808 110.2ZM269.026 136C270.266 136 271.266 135.04 271.266 133.8V124.2H281.626V133.8C281.626 135.04 282.586 136 283.826 136C285.066 136 286.066 135.04 286.066 133.8V110.2C286.066 108.96 285.066 108 283.826 108C282.586 108 281.626 108.96 281.626 110.2V119.8H271.266V110.2C271.266 108.96 270.266 108 269.026 108C267.786 108 266.826 108.96 266.826 110.2V133.8C266.826 135.04 267.786 136 269.026 136ZM312.894 107.2C309.054 107.2 305.534 108.84 303.094 111.48C300.614 114.12 299.134 117.64 299.134 121.6C299.134 125.56 300.614 129.12 303.094 131.72C305.534 134.32 309.054 136 312.894 136C316.574 136 320.094 134.32 322.454 131.72C324.934 129.12 326.494 125.56 326.494 121.6C326.494 117.64 324.934 114.12 322.454 111.48C320.094 108.84 316.574 107.2 312.894 107.2ZM319.214 128.56C317.534 130.36 315.294 131.44 312.894 131.44C310.334 131.44 308.094 130.36 306.414 128.56C304.734 126.84 303.694 124.32 303.694 121.6C303.694 118.88 304.734 116.36 306.414 114.6C308.094 112.8 310.334 111.76 312.894 111.76C315.294 111.76 317.534 112.8 319.214 114.6C320.854 116.36 321.934 118.88 321.934 121.6C321.934 124.32 320.854 126.84 319.214 128.56ZM344.104 117.2L356.904 134.96C356.944 135.04 357.024 135.12 357.104 135.2C357.504 135.68 358.104 136 358.744 136C359.944 136 360.944 135 360.944 133.8V110.56C360.944 109.4 359.944 108.4 358.744 108.4C357.544 108.4 356.584 109.4 356.584 110.56V127.04L343.664 109.16C342.984 108.2 341.624 108 340.624 108.68C340.024 109.12 339.704 109.84 339.744 110.52C339.744 110.56 339.744 110.56 339.744 110.56V133.8C339.744 135 340.704 136 341.944 136C343.104 136 344.104 135 344.104 133.8V117.2Z" fill="#AEF9D6"/>
<path d="M82.872 73.008C83.32 73.008 83.6827 73.1573 83.96 73.456C84.2587 73.7333 84.408 74.1067 84.408 74.576V88.464C84.408 88.8907 84.2587 89.2533 83.96 89.552C83.6827 89.8507 83.32 90 82.872 90C82.424 90 82.0613 89.8613 81.784 89.584C81.5067 89.2853 81.368 88.912 81.368 88.464V87.632C80.8133 88.3787 80.056 89.0187 79.096 89.552C78.136 90.064 77.1013 90.32 75.992 90.32C74.5413 90.32 73.2187 89.9467 72.024 89.2C70.8507 88.4533 69.9227 87.4187 69.24 86.096C68.5787 84.752 68.248 83.248 68.248 81.584C68.248 79.92 68.5787 78.4267 69.24 77.104C69.9227 75.76 70.8507 74.7147 72.024 73.968C73.1973 73.2213 74.488 72.848 75.896 72.848C77.0267 72.848 78.072 73.0827 79.032 73.552C80.0133 74.0213 80.792 74.6187 81.368 75.344V74.576C81.368 74.128 81.5067 73.7547 81.784 73.456C82.0613 73.1573 82.424 73.008 82.872 73.008ZM76.344 87.504C77.3467 87.504 78.232 87.248 79 86.736C79.7893 86.224 80.3973 85.52 80.824 84.624C81.272 83.728 81.496 82.7147 81.496 81.584C81.496 80.4747 81.272 79.472 80.824 78.576C80.3973 77.68 79.7893 76.976 79 76.464C78.232 75.9307 77.3467 75.664 76.344 75.664C75.3413 75.664 74.4453 75.92 73.656 76.432C72.888 76.944 72.28 77.648 71.832 78.544C71.4053 79.44 71.192 80.4533 71.192 81.584C71.192 82.7147 71.4053 83.728 71.832 84.624C72.28 85.52 72.888 86.224 73.656 86.736C74.4453 87.248 75.3413 87.504 76.344 87.504ZM102.144 88.464C102.144 88.8907 101.995 89.2533 101.696 89.552C101.398 89.8507 101.035 90 100.608 90C100.182 90 99.8189 89.8507 99.5203 89.552C99.2429 89.2533 99.1043 88.8907 99.1043 88.464V67.856C99.1043 67.4293 99.2536 67.0667 99.5523 66.768C99.8509 66.4693 100.214 66.32 100.64 66.32C101.067 66.32 101.419 66.4693 101.696 66.768C101.995 67.0667 102.144 67.4293 102.144 67.856V88.464ZM120.158 88.464C120.158 88.8907 120.009 89.2533 119.71 89.552C119.411 89.8507 119.049 90 118.622 90C118.195 90 117.833 89.8507 117.534 89.552C117.257 89.2533 117.118 88.8907 117.118 88.464V67.856C117.118 67.4293 117.267 67.0667 117.566 66.768C117.865 66.4693 118.227 66.32 118.654 66.32C119.081 66.32 119.433 66.4693 119.71 66.768C120.009 67.0667 120.158 67.4293 120.158 67.856V88.464ZM135.836 82.32C135.409 82.32 135.046 82.1813 134.748 81.904C134.449 81.6053 134.3 81.232 134.3 80.784C134.3 80.3573 134.449 80.0053 134.748 79.728C135.046 79.4507 135.409 79.312 135.836 79.312H141.98C142.406 79.312 142.758 79.4613 143.036 79.76C143.334 80.0373 143.484 80.4 143.484 80.848C143.484 81.2747 143.334 81.6267 143.036 81.904C142.758 82.1813 142.406 82.32 141.98 82.32H135.836ZM160.27 88.464C160.27 88.8907 160.12 89.2533 159.822 89.552C159.544 89.8507 159.182 90 158.734 90C158.307 90 157.944 89.8507 157.646 89.552C157.368 89.2533 157.23 88.8907 157.23 88.464V74.608C157.23 74.1813 157.368 73.8187 157.646 73.52C157.944 73.2213 158.307 73.072 158.734 73.072C159.182 73.072 159.544 73.2213 159.822 73.52C160.12 73.8187 160.27 74.1813 160.27 74.608V88.464ZM158.734 70.96C158.115 70.96 157.667 70.8533 157.39 70.64C157.134 70.4053 157.006 70.0427 157.006 69.552V69.04C157.006 68.528 157.144 68.1653 157.422 67.952C157.72 67.7387 158.168 67.632 158.766 67.632C159.363 67.632 159.79 67.7493 160.046 67.984C160.323 68.1973 160.462 68.5493 160.462 69.04V69.552C160.462 70.064 160.323 70.4267 160.046 70.64C159.768 70.8533 159.331 70.96 158.734 70.96ZM183.103 72.848C186.943 72.848 188.863 75.152 188.863 79.76V88.464C188.863 88.8907 188.714 89.2533 188.415 89.552C188.138 89.8507 187.775 90 187.327 90C186.901 90 186.538 89.8507 186.239 89.552C185.962 89.2533 185.823 88.8907 185.823 88.464V79.792C185.823 78.5333 185.535 77.5307 184.959 76.784C184.383 76.0373 183.445 75.664 182.143 75.664C181.29 75.664 180.511 75.856 179.807 76.24C179.125 76.6027 178.581 77.104 178.175 77.744C177.791 78.3627 177.599 79.0453 177.599 79.792V88.464C177.599 88.8907 177.45 89.2533 177.151 89.552C176.874 89.8507 176.511 90 176.063 90C175.615 90 175.253 89.8613 174.975 89.584C174.698 89.2853 174.559 88.912 174.559 88.464V74.768C174.559 74.3413 174.698 73.9787 174.975 73.68C175.274 73.3813 175.637 73.232 176.063 73.232C176.511 73.232 176.874 73.3813 177.151 73.68C177.45 73.9787 177.599 74.3413 177.599 74.768V75.888C178.154 75.0347 178.922 74.32 179.903 73.744C180.906 73.1467 181.973 72.848 183.103 72.848ZM210.619 72.848C212.305 72.848 213.702 73.1147 214.811 73.648C215.942 74.1813 216.507 74.864 216.507 75.696C216.507 76.0587 216.39 76.3893 216.155 76.688C215.921 76.9653 215.622 77.104 215.259 77.104C214.982 77.104 214.758 77.0613 214.587 76.976C214.438 76.8907 214.225 76.752 213.947 76.56C213.819 76.432 213.617 76.2827 213.339 76.112C213.083 75.984 212.721 75.8773 212.251 75.792C211.782 75.7067 211.355 75.664 210.971 75.664C209.862 75.664 208.881 75.92 208.027 76.432C207.174 76.944 206.513 77.6587 206.043 78.576C205.574 79.472 205.339 80.4747 205.339 81.584C205.339 82.7147 205.563 83.728 206.011 84.624C206.481 85.52 207.131 86.224 207.963 86.736C208.795 87.248 209.745 87.504 210.811 87.504C211.921 87.504 212.817 87.3333 213.499 86.992C213.649 86.9067 213.851 86.768 214.107 86.576C214.321 86.4053 214.502 86.2773 214.651 86.192C214.822 86.1067 215.025 86.064 215.259 86.064C215.686 86.064 216.017 86.2027 216.251 86.48C216.507 86.736 216.635 87.0773 216.635 87.504C216.635 87.952 216.347 88.4 215.771 88.848C215.217 89.2747 214.459 89.6267 213.499 89.904C212.561 90.1813 211.547 90.32 210.459 90.32C208.838 90.32 207.409 89.9467 206.171 89.2C204.934 88.432 203.974 87.3867 203.291 86.064C202.63 84.72 202.299 83.2267 202.299 81.584C202.299 79.9413 202.651 78.4587 203.355 77.136C204.059 75.792 205.041 74.7467 206.299 74C207.558 73.232 208.998 72.848 210.619 72.848ZM232.977 88.464C232.977 88.8907 232.827 89.2533 232.529 89.552C232.23 89.8507 231.867 90 231.441 90C231.014 90 230.651 89.8507 230.353 89.552C230.075 89.2533 229.937 88.8907 229.937 88.464V67.856C229.937 67.4293 230.086 67.0667 230.385 66.768C230.683 66.4693 231.046 66.32 231.473 66.32C231.899 66.32 232.251 66.4693 232.529 66.768C232.827 67.0667 232.977 67.4293 232.977 67.856V88.464ZM260.018 73.232C260.466 73.232 260.829 73.3813 261.106 73.68C261.405 73.9787 261.554 74.3413 261.554 74.768V83.28C261.554 85.4987 260.936 87.2267 259.698 88.464C258.482 89.68 256.754 90.288 254.514 90.288C252.296 90.288 250.578 89.68 249.362 88.464C248.146 87.2267 247.538 85.4987 247.538 83.28V74.768C247.538 74.3413 247.677 73.9787 247.954 73.68C248.253 73.3813 248.616 73.232 249.042 73.232C249.49 73.232 249.853 73.3813 250.13 73.68C250.429 73.9787 250.578 74.3413 250.578 74.768V83.28C250.578 86.0747 251.89 87.472 254.514 87.472C255.816 87.472 256.808 87.12 257.49 86.416C258.173 85.712 258.514 84.6667 258.514 83.28V74.768C258.514 74.3413 258.653 73.9787 258.93 73.68C259.229 73.3813 259.592 73.232 260.018 73.232ZM275.061 87.376C274.869 87.0773 274.773 86.7893 274.773 86.512C274.773 86.0853 274.997 85.7227 275.445 85.424C275.658 85.2747 275.903 85.2 276.181 85.2C276.565 85.2 276.917 85.36 277.237 85.68C277.877 86.4053 278.559 86.9493 279.285 87.312C280.031 87.6747 280.917 87.856 281.941 87.856C282.751 87.8347 283.466 87.6533 284.085 87.312C284.703 86.9493 285.013 86.3733 285.013 85.584C285.013 84.8587 284.693 84.304 284.053 83.92C283.434 83.536 282.517 83.184 281.301 82.864C280.106 82.544 279.114 82.2133 278.325 81.872C277.535 81.5093 276.863 80.9973 276.309 80.336C275.775 79.6533 275.509 78.768 275.509 77.68C275.509 76.72 275.775 75.8773 276.309 75.152C276.863 74.4267 277.589 73.8613 278.485 73.456C279.402 73.0507 280.394 72.848 281.461 72.848C282.485 72.848 283.498 73.04 284.501 73.424C285.525 73.808 286.357 74.3947 286.997 75.184C287.253 75.4827 287.381 75.792 287.381 76.112C287.381 76.4533 287.21 76.784 286.869 77.104C286.655 77.296 286.389 77.392 286.069 77.392C285.685 77.392 285.375 77.264 285.141 77.008C284.693 76.496 284.138 76.1013 283.477 75.824C282.837 75.5467 282.122 75.408 281.333 75.408C280.522 75.408 279.829 75.5787 279.253 75.92C278.698 76.24 278.421 76.7947 278.421 77.584C278.442 78.3307 278.762 78.8853 279.381 79.248C280.021 79.6107 280.991 79.9627 282.293 80.304C283.423 80.6027 284.362 80.9227 285.109 81.264C285.855 81.6053 286.485 82.1173 286.997 82.8C287.509 83.4613 287.765 84.336 287.765 85.424C287.765 86.4267 287.477 87.3013 286.901 88.048C286.325 88.7733 285.567 89.3387 284.629 89.744C283.711 90.128 282.73 90.32 281.685 90.32C280.341 90.32 279.093 90.0853 277.941 89.616C276.81 89.1467 275.85 88.4 275.061 87.376ZM304.071 88.464C304.071 88.8907 303.921 89.2533 303.623 89.552C303.345 89.8507 302.983 90 302.535 90C302.108 90 301.745 89.8507 301.447 89.552C301.169 89.2533 301.031 88.8907 301.031 88.464V74.608C301.031 74.1813 301.169 73.8187 301.447 73.52C301.745 73.2213 302.108 73.072 302.535 73.072C302.983 73.072 303.345 73.2213 303.623 73.52C303.921 73.8187 304.071 74.1813 304.071 74.608V88.464ZM302.535 70.96C301.916 70.96 301.468 70.8533 301.191 70.64C300.935 70.4053 300.807 70.0427 300.807 69.552V69.04C300.807 68.528 300.945 68.1653 301.223 67.952C301.521 67.7387 301.969 67.632 302.567 67.632C303.164 67.632 303.591 67.7493 303.847 67.984C304.124 68.1973 304.263 68.5493 304.263 69.04V69.552C304.263 70.064 304.124 70.4267 303.847 70.64C303.569 70.8533 303.132 70.96 302.535 70.96ZM331.161 73.072C331.566 73.072 331.907 73.2107 332.185 73.488C332.462 73.744 332.601 74.0533 332.601 74.416C332.601 74.608 332.526 74.8747 332.377 75.216L326.297 89.04C326.169 89.3173 325.987 89.5413 325.753 89.712C325.518 89.8827 325.262 89.9787 324.985 90C324.643 90.0427 324.323 89.9787 324.025 89.808C323.747 89.6373 323.534 89.3813 323.385 89.04L317.305 75.216C317.198 74.896 317.145 74.6293 317.145 74.416C317.145 74.0747 317.283 73.7653 317.561 73.488C317.838 73.2107 318.201 73.072 318.649 73.072C318.969 73.072 319.257 73.1573 319.513 73.328C319.769 73.4773 319.971 73.712 320.121 74.032L324.953 85.264L329.785 74.032C330.083 73.392 330.542 73.072 331.161 73.072ZM360.376 80.976C360.354 81.36 360.194 81.6907 359.896 81.968C359.597 82.224 359.245 82.352 358.84 82.352H347.576C347.725 83.9093 348.312 85.1573 349.336 86.096C350.381 87.0347 351.65 87.504 353.144 87.504C354.168 87.504 355 87.3547 355.64 87.056C356.28 86.7573 356.845 86.3733 357.336 85.904C357.656 85.712 357.965 85.616 358.264 85.616C358.626 85.616 358.925 85.744 359.16 86C359.416 86.256 359.544 86.5547 359.544 86.896C359.544 87.344 359.33 87.7493 358.904 88.112C358.285 88.7307 357.464 89.2533 356.44 89.68C355.416 90.1067 354.37 90.32 353.304 90.32C351.576 90.32 350.05 89.9573 348.728 89.232C347.426 88.5067 346.413 87.4933 345.688 86.192C344.984 84.8907 344.632 83.4187 344.632 81.776C344.632 79.984 344.994 78.416 345.72 77.072C346.466 75.7067 347.437 74.6613 348.632 73.936C349.848 73.2107 351.149 72.848 352.536 72.848C353.901 72.848 355.181 73.2 356.376 73.904C357.57 74.608 358.53 75.5787 359.256 76.816C359.981 78.0533 360.354 79.44 360.376 80.976ZM352.536 75.664C351.341 75.664 350.306 76.0053 349.432 76.688C348.557 77.3493 347.981 78.384 347.704 79.792H357.144V79.536C357.037 78.4053 356.525 77.4773 355.608 76.752C354.712 76.0267 353.688 75.664 352.536 75.664Z" fill="white"/>
<path d="M50.75 136.375C52.125 136.625 53.375 135.875 53.375 134.375C53.375 133.375 52.625 132.625 51.875 132.375C33.75 127.625 31.75 122.875 31.75 110.5V101.125C31.75 90 27.125 85.875 18.75 83.125C26.625 80.75 31.75 76.25 31.75 65.125V55.75C31.75 43.375 33.75 38.625 51.875 33.875C52.625 33.625 53.375 32.875 53.375 31.875C53.375 30.375 52.125 29.625 50.75 29.875C29.625 34.125 25.625 42.125 25.625 55V64.875C25.625 74.625 22.75 80.75 9.875 80.75C7.875 80.75 6.875 81.75 6.875 83.125C6.875 84.5 7.875 85.5 9.875 85.5C22.75 85.5 25.625 91.625 25.625 101.375V111.25C25.625 124.125 29.625 132.125 50.75 136.375Z" fill="#AEF9D6"/>
<path d="M378.25 29.875C376.875 29.625 375.625 30.375 375.625 31.875C375.625 32.875 376.375 33.625 377.125 33.875C395.25 38.625 397.25 43.375 397.25 55.75V65.125C397.25 76.25 401.875 80.375 410.25 83.125C402.375 85.5 397.25 90 397.25 101.125V110.5C397.25 122.875 395.25 127.625 377.125 132.375C376.375 132.625 375.625 133.375 375.625 134.375C375.625 135.875 376.875 136.625 378.25 136.375C399.375 132.125 403.375 124.125 403.375 111.25V101.375C403.375 91.625 406.25 85.5 419.125 85.5C421.125 85.5 422.125 84.5 422.125 83.125C422.125 81.75 421.125 80.75 419.125 80.75C406.25 80.75 403.375 74.625 403.375 64.875V55C403.375 42.125 399.375 34.125 378.25 29.875Z" fill="#AEF9D6"/>
</svg>
