<svg viewBox="0 0 428 180" fill="none" xmlns="http://www.w3.org/2000/svg">
<g id="TYPOGRAPHY">
<g id="AN ALL-INCLUSIVE women-centric &#38; nonbinary HACKATHON">
<path d="M85.72 64.66C85.82 64.92 85.87 65.16 85.87 65.38C85.87 65.9 85.7 66.33 85.36 66.67C85.02 66.99 84.63 67.15 84.19 67.15C83.83 67.15 83.5 67.04 83.2 66.82C82.92 66.6 82.7 66.3 82.54 65.92L80.98 62.29H72.04L70.48 65.95C70.34 66.33 70.12 66.63 69.82 66.85C69.54 67.05 69.23 67.15 68.89 67.15C68.37 67.15 67.97 67.01 67.69 66.73C67.43 66.45 67.3 66.07 67.3 65.59C67.3 65.41 67.33 65.22 67.39 65.02L74.86 47.08C75.02 46.68 75.26 46.37 75.58 46.15C75.9 45.93 76.26 45.84 76.66 45.88C77.02 45.88 77.35 45.99 77.65 46.21C77.97 46.41 78.2 46.7 78.34 47.08L85.72 64.66ZM73.51 58.84H79.51L76.48 51.82L73.51 58.84ZM106.14 46C106.62 46 107.01 46.16 107.31 46.48C107.61 46.8 107.76 47.2 107.76 47.68V65.17C107.76 65.69 107.58 66.13 107.22 66.49C106.88 66.83 106.45 67 105.93 67C105.65 67 105.37 66.96 105.09 66.88C104.83 66.78 104.64 66.65 104.52 66.49L93.5102 52.51V65.32C93.5102 65.8 93.3502 66.2 93.0302 66.52C92.7302 66.84 92.3302 67 91.8302 67C91.3502 67 90.9602 66.84 90.6602 66.52C90.3602 66.2 90.2102 65.8 90.2102 65.32V47.83C90.2102 47.31 90.3802 46.88 90.7202 46.54C91.0802 46.18 91.5202 46 92.0402 46C92.3402 46 92.6302 46.06 92.9102 46.18C93.2102 46.3 93.4302 46.46 93.5702 46.66L104.49 60.58V47.68C104.49 47.2 104.64 46.8 104.94 46.48C105.26 46.16 105.66 46 106.14 46ZM140.749 64.66C140.849 64.92 140.899 65.16 140.899 65.38C140.899 65.9 140.729 66.33 140.389 66.67C140.049 66.99 139.659 67.15 139.219 67.15C138.859 67.15 138.529 67.04 138.229 66.82C137.949 66.6 137.729 66.3 137.569 65.92L136.009 62.29H127.069L125.509 65.95C125.369 66.33 125.149 66.63 124.849 66.85C124.569 67.05 124.259 67.15 123.919 67.15C123.399 67.15 122.999 67.01 122.719 66.73C122.459 66.45 122.329 66.07 122.329 65.59C122.329 65.41 122.359 65.22 122.419 65.02L129.889 47.08C130.049 46.68 130.289 46.37 130.609 46.15C130.929 45.93 131.289 45.84 131.689 45.88C132.049 45.88 132.379 45.99 132.679 46.21C132.999 46.41 133.229 46.7 133.369 47.08L140.749 64.66ZM128.539 58.84H134.539L131.509 51.82L128.539 58.84ZM156.819 63.49C157.339 63.49 157.769 63.66 158.109 64C158.469 64.32 158.649 64.74 158.649 65.26C158.649 65.76 158.469 66.18 158.109 66.52C157.769 66.84 157.339 67 156.819 67H147.069C146.549 67 146.109 66.83 145.749 66.49C145.409 66.13 145.239 65.69 145.239 65.17V47.83C145.239 47.31 145.419 46.88 145.779 46.54C146.139 46.18 146.599 46 147.159 46C147.659 46 148.089 46.18 148.449 46.54C148.809 46.88 148.989 47.31 148.989 47.83V63.49H156.819ZM175.465 63.49C175.985 63.49 176.415 63.66 176.755 64C177.115 64.32 177.295 64.74 177.295 65.26C177.295 65.76 177.115 66.18 176.755 66.52C176.415 66.84 175.985 67 175.465 67H165.715C165.195 67 164.755 66.83 164.395 66.49C164.055 66.13 163.885 65.69 163.885 65.17V47.83C163.885 47.31 164.065 46.88 164.425 46.54C164.785 46.18 165.245 46 165.805 46C166.305 46 166.735 46.18 167.095 46.54C167.455 46.88 167.635 47.31 167.635 47.83V63.49H175.465ZM183.61 59.59C183.09 59.59 182.65 59.42 182.29 59.08C181.95 58.74 181.78 58.31 181.78 57.79C181.78 57.29 181.95 56.87 182.29 56.53C182.65 56.19 183.09 56.02 183.61 56.02H188.83C189.35 56.02 189.78 56.2 190.12 56.56C190.48 56.9 190.66 57.33 190.66 57.85C190.66 58.35 190.48 58.77 190.12 59.11C189.78 59.43 189.35 59.59 188.83 59.59H183.61ZM199.975 65.17C199.975 65.69 199.785 66.13 199.405 66.49C199.025 66.83 198.585 67 198.085 67C197.545 67 197.095 66.83 196.735 66.49C196.395 66.13 196.225 65.69 196.225 65.17V47.83C196.225 47.31 196.405 46.88 196.765 46.54C197.125 46.18 197.585 46 198.145 46C198.645 46 199.075 46.18 199.435 46.54C199.795 46.88 199.975 47.31 199.975 47.83V65.17ZM222.217 46C222.697 46 223.087 46.16 223.387 46.48C223.687 46.8 223.837 47.2 223.837 47.68V65.17C223.837 65.69 223.657 66.13 223.297 66.49C222.957 66.83 222.527 67 222.007 67C221.727 67 221.447 66.96 221.167 66.88C220.907 66.78 220.717 66.65 220.597 66.49L209.587 52.51V65.32C209.587 65.8 209.427 66.2 209.107 66.52C208.807 66.84 208.407 67 207.907 67C207.427 67 207.037 66.84 206.737 66.52C206.437 66.2 206.287 65.8 206.287 65.32V47.83C206.287 47.31 206.457 46.88 206.797 46.54C207.157 46.18 207.597 46 208.117 46C208.417 46 208.707 46.06 208.987 46.18C209.287 46.3 209.507 46.46 209.647 46.66L220.567 60.58V47.68C220.567 47.2 220.717 46.8 221.017 46.48C221.337 46.16 221.737 46 222.217 46ZM244.847 47.02C245.467 47.34 245.777 47.85 245.777 48.55C245.777 48.97 245.627 49.38 245.327 49.78C245.007 50.2 244.597 50.41 244.097 50.41C243.757 50.41 243.417 50.32 243.077 50.14C242.097 49.68 241.037 49.45 239.897 49.45C238.497 49.45 237.277 49.75 236.237 50.35C235.197 50.93 234.397 51.76 233.837 52.84C233.277 53.9 232.997 55.12 232.997 56.5C232.997 58.86 233.627 60.65 234.887 61.87C236.167 63.09 237.837 63.7 239.897 63.7C241.117 63.7 242.177 63.47 243.077 63.01C243.437 62.85 243.757 62.77 244.037 62.77C244.557 62.77 244.997 62.99 245.357 63.43C245.657 63.81 245.807 64.22 245.807 64.66C245.807 64.98 245.727 65.27 245.567 65.53C245.407 65.79 245.177 65.99 244.877 66.13C243.317 66.91 241.657 67.3 239.897 67.3C237.937 67.3 236.137 66.89 234.497 66.07C232.857 65.23 231.547 64 230.567 62.38C229.587 60.76 229.097 58.8 229.097 56.5C229.097 54.46 229.557 52.63 230.477 51.01C231.417 49.39 232.707 48.13 234.347 47.23C235.987 46.31 237.837 45.85 239.897 45.85C241.677 45.85 243.327 46.24 244.847 47.02ZM262.336 63.49C262.856 63.49 263.286 63.66 263.626 64C263.986 64.32 264.166 64.74 264.166 65.26C264.166 65.76 263.986 66.18 263.626 66.52C263.286 66.84 262.856 67 262.336 67H252.586C252.066 67 251.626 66.83 251.266 66.49C250.926 66.13 250.756 65.69 250.756 65.17V47.83C250.756 47.31 250.936 46.88 251.296 46.54C251.656 46.18 252.116 46 252.676 46C253.176 46 253.606 46.18 253.966 46.54C254.326 46.88 254.506 47.31 254.506 47.83V63.49H262.336ZM283.726 45.97C284.246 45.97 284.666 46.14 284.986 46.48C285.306 46.82 285.466 47.26 285.466 47.8V58.66C285.466 60.32 285.116 61.79 284.416 63.07C283.716 64.35 282.736 65.35 281.476 66.07C280.216 66.79 278.776 67.15 277.156 67.15C275.536 67.15 274.086 66.79 272.806 66.07C271.546 65.35 270.566 64.35 269.866 63.07C269.166 61.79 268.816 60.32 268.816 58.66V47.8C268.816 47.28 268.996 46.85 269.356 46.51C269.716 46.15 270.176 45.97 270.736 45.97C271.216 45.97 271.636 46.15 271.996 46.51C272.356 46.85 272.536 47.28 272.536 47.8V58.66C272.536 59.62 272.746 60.48 273.166 61.24C273.586 61.98 274.146 62.55 274.846 62.95C275.566 63.35 276.336 63.55 277.156 63.55C278.016 63.55 278.816 63.35 279.556 62.95C280.316 62.55 280.916 61.98 281.356 61.24C281.816 60.48 282.046 59.62 282.046 58.66V47.8C282.046 47.26 282.196 46.82 282.496 46.48C282.796 46.14 283.206 45.97 283.726 45.97ZM298.225 67.3C296.785 67.3 295.505 67.12 294.385 66.76C293.265 66.4 292.215 65.79 291.235 64.93C290.695 64.45 290.425 63.92 290.425 63.34C290.425 62.88 290.595 62.48 290.935 62.14C291.275 61.78 291.685 61.6 292.165 61.6C292.545 61.6 292.885 61.72 293.185 61.96C293.985 62.62 294.765 63.1 295.525 63.4C296.285 63.7 297.185 63.85 298.225 63.85C299.345 63.85 300.305 63.6 301.105 63.1C301.925 62.6 302.335 61.98 302.335 61.24C302.335 60.34 301.935 59.64 301.135 59.14C300.335 58.62 299.065 58.23 297.325 57.97C292.945 57.33 290.755 55.29 290.755 51.85C290.755 50.59 291.085 49.5 291.745 48.58C292.405 47.64 293.305 46.93 294.445 46.45C295.585 45.95 296.855 45.7 298.255 45.7C299.515 45.7 300.695 45.89 301.795 46.27C302.915 46.65 303.845 47.15 304.585 47.77C305.165 48.23 305.455 48.76 305.455 49.36C305.455 49.82 305.285 50.23 304.945 50.59C304.605 50.93 304.205 51.1 303.745 51.1C303.445 51.1 303.175 51.01 302.935 50.83C302.415 50.41 301.685 50.03 300.745 49.69C299.825 49.33 298.995 49.15 298.255 49.15C296.995 49.15 296.015 49.39 295.315 49.87C294.635 50.33 294.295 50.94 294.295 51.7C294.295 52.56 294.645 53.21 295.345 53.65C296.065 54.09 297.185 54.45 298.705 54.73C300.425 55.03 301.795 55.42 302.815 55.9C303.855 56.36 304.635 57 305.155 57.82C305.675 58.62 305.935 59.69 305.935 61.03C305.935 62.29 305.575 63.4 304.855 64.36C304.155 65.3 303.215 66.03 302.035 66.55C300.855 67.05 299.585 67.3 298.225 67.3ZM314.925 65.17C314.925 65.69 314.735 66.13 314.355 66.49C313.975 66.83 313.535 67 313.035 67C312.495 67 312.045 66.83 311.685 66.49C311.345 66.13 311.175 65.69 311.175 65.17V47.83C311.175 47.31 311.355 46.88 311.715 46.54C312.075 46.18 312.535 46 313.095 46C313.595 46 314.025 46.18 314.385 46.54C314.745 46.88 314.925 47.31 314.925 47.83V65.17ZM336.567 45.94C337.067 45.94 337.497 46.11 337.857 46.45C338.237 46.79 338.427 47.2 338.427 47.68C338.427 47.94 338.367 48.21 338.247 48.49L330.837 65.83C330.657 66.21 330.407 66.5 330.087 66.7C329.767 66.9 329.427 67 329.067 67C328.727 66.98 328.407 66.88 328.107 66.7C327.827 66.5 327.607 66.22 327.447 65.86L320.037 48.46C319.937 48.26 319.887 48.01 319.887 47.71C319.887 47.17 320.087 46.74 320.487 46.42C320.887 46.08 321.297 45.91 321.717 45.91C322.057 45.91 322.377 46.01 322.677 46.21C322.977 46.41 323.207 46.7 323.367 47.08L329.397 61.27L334.917 47.08C335.077 46.72 335.307 46.44 335.607 46.24C335.907 46.04 336.227 45.94 336.567 45.94ZM355.249 63.55C355.769 63.55 356.199 63.73 356.539 64.09C356.899 64.43 357.079 64.83 357.079 65.29C357.079 65.79 356.899 66.2 356.539 66.52C356.199 66.84 355.769 67 355.249 67H345.199C344.679 67 344.239 66.83 343.879 66.49C343.539 66.13 343.369 65.69 343.369 65.17V47.83C343.369 47.31 343.539 46.88 343.879 46.54C344.239 46.18 344.679 46 345.199 46H355.249C355.769 46 356.199 46.17 356.539 46.51C356.899 46.83 357.079 47.25 357.079 47.77C357.079 48.27 356.909 48.68 356.569 49C356.229 49.3 355.789 49.45 355.249 49.45H347.119V54.55H353.899C354.419 54.55 354.849 54.72 355.189 55.06C355.549 55.38 355.729 55.8 355.729 56.32C355.729 56.82 355.559 57.23 355.219 57.55C354.879 57.85 354.439 58 353.899 58H347.119V63.55H355.249ZM90.28 114C91.0267 114 91.6267 114.227 92.08 114.68C92.5333 115.133 92.76 115.72 92.76 116.44V139.56C92.76 140.253 92.52 140.84 92.04 141.32C91.56 141.773 90.9467 142 90.2 142C89.5333 142 88.96 141.773 88.48 141.32C88 140.84 87.76 140.253 87.76 139.56V130.24H75V139.56C75 140.253 74.7467 140.84 74.24 141.32C73.7333 141.773 73.1467 142 72.48 142C71.76 142 71.16 141.773 70.68 141.32C70.2267 140.84 70 140.253 70 139.56V116.44C70 115.747 70.24 115.173 70.72 114.72C71.2 114.24 71.8133 114 72.56 114C73.2267 114 73.8 114.24 74.28 114.72C74.76 115.173 75 115.747 75 116.44V125.64H87.76V116.44C87.76 115.747 88.0133 115.173 88.52 114.72C89.0267 114.24 89.6133 114 90.28 114ZM127.11 138.88C127.243 139.227 127.31 139.547 127.31 139.84C127.31 140.533 127.083 141.107 126.63 141.56C126.177 141.987 125.657 142.2 125.07 142.2C124.59 142.2 124.15 142.053 123.75 141.76C123.377 141.467 123.083 141.067 122.87 140.56L120.79 135.72H108.87L106.79 140.6C106.603 141.107 106.31 141.507 105.91 141.8C105.537 142.067 105.123 142.2 104.67 142.2C103.977 142.2 103.443 142.013 103.07 141.64C102.723 141.267 102.55 140.76 102.55 140.12C102.55 139.88 102.59 139.627 102.67 139.36L112.63 115.44C112.843 114.907 113.163 114.493 113.59 114.2C114.017 113.907 114.497 113.787 115.03 113.84C115.51 113.84 115.95 113.987 116.35 114.28C116.777 114.547 117.083 114.933 117.27 115.44L127.11 138.88ZM110.83 131.12H118.83L114.79 121.76L110.83 131.12ZM156.502 115.36C157.328 115.787 157.742 116.467 157.742 117.4C157.742 117.96 157.542 118.507 157.142 119.04C156.715 119.6 156.168 119.88 155.502 119.88C155.048 119.88 154.595 119.76 154.142 119.52C152.835 118.907 151.422 118.6 149.902 118.6C148.035 118.6 146.408 119 145.022 119.8C143.635 120.573 142.568 121.68 141.822 123.12C141.075 124.533 140.702 126.16 140.702 128C140.702 131.147 141.542 133.533 143.222 135.16C144.928 136.787 147.155 137.6 149.902 137.6C151.528 137.6 152.942 137.293 154.142 136.68C154.622 136.467 155.048 136.36 155.422 136.36C156.115 136.36 156.702 136.653 157.182 137.24C157.582 137.747 157.782 138.293 157.782 138.88C157.782 139.307 157.675 139.693 157.462 140.04C157.248 140.387 156.942 140.653 156.542 140.84C154.462 141.88 152.248 142.4 149.902 142.4C147.288 142.4 144.888 141.853 142.702 140.76C140.515 139.64 138.768 138 137.462 135.84C136.155 133.68 135.502 131.067 135.502 128C135.502 125.28 136.115 122.84 137.342 120.68C138.595 118.52 140.315 116.84 142.502 115.64C144.688 114.413 147.155 113.8 149.902 113.8C152.275 113.8 154.475 114.32 156.502 115.36ZM189.82 137.84C189.98 138.053 190.113 138.32 190.22 138.64C190.326 138.933 190.38 139.213 190.38 139.48C190.38 140.2 190.1 140.8 189.54 141.28C189.006 141.76 188.38 142 187.66 142C187.313 142 186.98 141.92 186.66 141.76C186.34 141.6 186.073 141.373 185.86 141.08L177.18 129.64L173.38 133.28V139.56C173.38 140.28 173.14 140.867 172.66 141.32C172.206 141.773 171.606 142 170.86 142C170.14 142 169.54 141.773 169.06 141.32C168.606 140.84 168.38 140.253 168.38 139.56V116.44C168.38 115.747 168.62 115.173 169.1 114.72C169.58 114.24 170.193 114 170.94 114C171.66 114 172.246 114.227 172.7 114.68C173.153 115.133 173.38 115.72 173.38 116.44V127.32L186.18 114.72C186.793 114.107 187.446 113.8 188.14 113.8C188.753 113.8 189.273 114.053 189.7 114.56C190.126 115.067 190.34 115.6 190.34 116.16C190.34 116.72 190.1 117.24 189.62 117.72L180.9 126.04L189.82 137.84ZM222.951 138.88C223.084 139.227 223.151 139.547 223.151 139.84C223.151 140.533 222.924 141.107 222.471 141.56C222.017 141.987 221.497 142.2 220.911 142.2C220.431 142.2 219.991 142.053 219.591 141.76C219.217 141.467 218.924 141.067 218.711 140.56L216.631 135.72H204.711L202.631 140.6C202.444 141.107 202.151 141.507 201.751 141.8C201.377 142.067 200.964 142.2 200.511 142.2C199.817 142.2 199.284 142.013 198.911 141.64C198.564 141.267 198.391 140.76 198.391 140.12C198.391 139.88 198.431 139.627 198.511 139.36L208.471 115.44C208.684 114.907 209.004 114.493 209.431 114.2C209.857 113.907 210.337 113.787 210.871 113.84C211.351 113.84 211.791 113.987 212.191 114.28C212.617 114.547 212.924 114.933 213.111 115.44L222.951 138.88ZM206.671 131.12H214.671L210.631 121.76L206.671 131.12ZM249.345 114C250.065 114 250.652 114.213 251.105 114.64C251.559 115.067 251.785 115.627 251.785 116.32C251.785 117.013 251.559 117.573 251.105 118C250.652 118.4 250.065 118.6 249.345 118.6H243.065V139.56C243.065 140.253 242.812 140.84 242.305 141.32C241.799 141.773 241.172 142 240.425 142C239.679 142 239.065 141.773 238.585 141.32C238.105 140.84 237.865 140.253 237.865 139.56V118.6H231.585C230.865 118.6 230.279 118.387 229.825 117.96C229.372 117.533 229.145 116.973 229.145 116.28C229.145 115.613 229.372 115.067 229.825 114.64C230.305 114.213 230.892 114 231.585 114H249.345ZM282.664 114C283.411 114 284.011 114.227 284.464 114.68C284.918 115.133 285.144 115.72 285.144 116.44V139.56C285.144 140.253 284.904 140.84 284.424 141.32C283.944 141.773 283.331 142 282.584 142C281.918 142 281.344 141.773 280.864 141.32C280.384 140.84 280.144 140.253 280.144 139.56V130.24H267.384V139.56C267.384 140.253 267.131 140.84 266.624 141.32C266.118 141.773 265.531 142 264.864 142C264.144 142 263.544 141.773 263.064 141.32C262.611 140.84 262.384 140.253 262.384 139.56V116.44C262.384 115.747 262.624 115.173 263.104 114.72C263.584 114.24 264.198 114 264.944 114C265.611 114 266.184 114.24 266.664 114.72C267.144 115.173 267.384 115.747 267.384 116.44V125.64H280.144V116.44C280.144 115.747 280.398 115.173 280.904 114.72C281.411 114.24 281.998 114 282.664 114ZM323.294 128C323.294 130.64 322.708 133.067 321.534 135.28C320.361 137.467 318.734 139.2 316.654 140.48C314.601 141.76 312.281 142.4 309.694 142.4C307.108 142.4 304.774 141.76 302.694 140.48C300.641 139.2 299.028 137.467 297.854 135.28C296.708 133.067 296.134 130.64 296.134 128C296.134 125.36 296.708 122.947 297.854 120.76C299.028 118.547 300.641 116.8 302.694 115.52C304.774 114.24 307.108 113.6 309.694 113.6C312.281 113.6 314.601 114.24 316.654 115.52C318.734 116.8 320.361 118.547 321.534 120.76C322.708 122.947 323.294 125.36 323.294 128ZM318.094 128C318.094 126.213 317.734 124.6 317.014 123.16C316.294 121.693 315.294 120.533 314.014 119.68C312.734 118.827 311.294 118.4 309.694 118.4C308.068 118.4 306.614 118.827 305.334 119.68C304.081 120.507 303.094 121.653 302.374 123.12C301.681 124.587 301.334 126.213 301.334 128C301.334 129.787 301.681 131.413 302.374 132.88C303.094 134.347 304.081 135.507 305.334 136.36C306.614 137.187 308.068 137.6 309.694 137.6C311.294 137.6 312.734 137.173 314.014 136.32C315.294 135.467 316.294 134.32 317.014 132.88C317.734 131.413 318.094 129.787 318.094 128ZM355.526 114C356.166 114 356.686 114.213 357.086 114.64C357.486 115.067 357.686 115.6 357.686 116.24V139.56C357.686 140.253 357.446 140.84 356.966 141.32C356.513 141.773 355.939 142 355.246 142C354.873 142 354.499 141.947 354.126 141.84C353.779 141.707 353.526 141.533 353.366 141.32L338.686 122.68V139.76C338.686 140.4 338.473 140.933 338.046 141.36C337.646 141.787 337.113 142 336.446 142C335.806 142 335.286 141.787 334.886 141.36C334.486 140.933 334.286 140.4 334.286 139.76V116.44C334.286 115.747 334.513 115.173 334.966 114.72C335.446 114.24 336.033 114 336.726 114C337.126 114 337.513 114.08 337.886 114.24C338.286 114.4 338.579 114.613 338.766 114.88L353.326 133.44V116.24C353.326 115.6 353.526 115.067 353.926 114.64C354.353 114.213 354.886 114 355.526 114Z" fill="#AEF9D6"/>
<path d="M82.026 85.362C82.3047 85.362 82.5393 85.4647 82.73 85.67C82.9353 85.8607 83.038 86.11 83.038 86.418C83.038 86.5207 83.0087 86.66 82.95 86.836L79.584 96.34C79.496 96.5747 79.3493 96.7507 79.144 96.868C78.9387 96.9853 78.7187 97.0293 78.484 97C78.088 96.9707 77.7873 96.7507 77.582 96.34L75.294 90.356L73.182 96.34C73.094 96.5453 72.9693 96.7067 72.808 96.824C72.6467 96.9267 72.4707 96.9853 72.28 97C72.06 97.0293 71.84 96.9853 71.62 96.868C71.4147 96.736 71.2753 96.56 71.202 96.34L67.792 86.836C67.748 86.704 67.726 86.5647 67.726 86.418C67.726 86.1247 67.8213 85.8753 68.012 85.67C68.2027 85.4647 68.452 85.362 68.76 85.362C69.2587 85.362 69.5813 85.582 69.728 86.022L72.346 93.436L74.436 87.958C74.612 87.518 74.9347 87.298 75.404 87.298C75.844 87.298 76.1447 87.518 76.306 87.958L78.44 93.348L81.014 86.022C81.1753 85.582 81.5127 85.362 82.026 85.362ZM96.4303 91.236C96.4303 92.38 96.1737 93.4067 95.6603 94.316C95.147 95.2253 94.443 95.9367 93.5483 96.45C92.6683 96.9633 91.693 97.22 90.6223 97.22C89.5517 97.22 88.569 96.9633 87.6743 96.45C86.7943 95.9367 86.0977 95.2253 85.5843 94.316C85.071 93.4067 84.8143 92.38 84.8143 91.236C84.8143 90.092 85.071 89.058 85.5843 88.134C86.0977 87.21 86.7943 86.4913 87.6743 85.978C88.569 85.4647 89.5517 85.208 90.6223 85.208C91.693 85.208 92.6683 85.4647 93.5483 85.978C94.443 86.4913 95.147 87.21 95.6603 88.134C96.1737 89.058 96.4303 90.092 96.4303 91.236ZM94.3403 91.236C94.3403 90.444 94.1717 89.74 93.8343 89.124C93.5117 88.4933 93.0643 88.0093 92.4923 87.672C91.935 87.32 91.3117 87.144 90.6223 87.144C89.933 87.144 89.3023 87.32 88.7303 87.672C88.173 88.0093 87.7257 88.4933 87.3883 89.124C87.0657 89.74 86.9043 90.444 86.9043 91.236C86.9043 92.0133 87.0657 92.71 87.3883 93.326C87.7257 93.942 88.173 94.426 88.7303 94.778C89.3023 95.1153 89.933 95.284 90.6223 95.284C91.3117 95.284 91.935 95.1153 92.4923 94.778C93.0643 94.426 93.5117 93.942 93.8343 93.326C94.1717 92.71 94.3403 92.0133 94.3403 91.236ZM112.302 85.274C114.869 85.274 116.152 86.8727 116.152 90.07V95.944C116.152 96.252 116.057 96.5087 115.866 96.714C115.675 96.9047 115.426 97 115.118 97C114.81 97 114.553 96.8973 114.348 96.692C114.157 96.4867 114.062 96.2373 114.062 95.944V90.092C114.062 88.1707 113.255 87.21 111.642 87.21C111.07 87.21 110.549 87.342 110.08 87.606C109.625 87.8553 109.266 88.2 109.002 88.64C108.753 89.08 108.628 89.564 108.628 90.092V95.944C108.628 96.2373 108.525 96.4867 108.32 96.692C108.129 96.8973 107.88 97 107.572 97C107.264 97 107.015 96.9047 106.824 96.714C106.633 96.5087 106.538 96.252 106.538 95.944V90.07C106.538 89.2047 106.355 88.5153 105.988 88.002C105.621 87.474 105.013 87.21 104.162 87.21C103.297 87.21 102.578 87.4887 102.006 88.046C101.449 88.5887 101.17 89.2633 101.17 90.07V95.944C101.17 96.2373 101.067 96.4867 100.862 96.692C100.671 96.8973 100.422 97 100.114 97C99.8061 97 99.5568 96.9047 99.3661 96.714C99.1755 96.5087 99.0801 96.252 99.0801 95.944V86.528C99.0801 86.2347 99.1755 85.9853 99.3661 85.78C99.5715 85.5747 99.8208 85.472 100.114 85.472C100.422 85.472 100.671 85.5747 100.862 85.78C101.067 85.9853 101.17 86.2347 101.17 86.528V87.298C101.551 86.726 102.057 86.2493 102.688 85.868C103.333 85.472 104.03 85.274 104.778 85.274C106.597 85.274 107.777 86.0807 108.32 87.694C108.643 87.078 109.178 86.5207 109.926 86.022C110.674 85.5233 111.466 85.274 112.302 85.274ZM129.615 90.796C129.601 91.06 129.491 91.2873 129.285 91.478C129.08 91.654 128.838 91.742 128.559 91.742H120.815C120.918 92.8127 121.321 93.6707 122.025 94.316C122.744 94.9613 123.617 95.284 124.643 95.284C125.347 95.284 125.919 95.1813 126.359 94.976C126.799 94.7707 127.188 94.5067 127.525 94.184C127.745 94.052 127.958 93.986 128.163 93.986C128.413 93.986 128.618 94.074 128.779 94.25C128.955 94.426 129.043 94.6313 129.043 94.866C129.043 95.174 128.897 95.4527 128.603 95.702C128.178 96.1273 127.613 96.4867 126.909 96.78C126.205 97.0733 125.487 97.22 124.753 97.22C123.565 97.22 122.517 96.9707 121.607 96.472C120.713 95.9733 120.016 95.2767 119.517 94.382C119.033 93.4873 118.791 92.4753 118.791 91.346C118.791 90.114 119.041 89.036 119.539 88.112C120.053 87.1733 120.72 86.4547 121.541 85.956C122.377 85.4573 123.272 85.208 124.225 85.208C125.164 85.208 126.044 85.45 126.865 85.934C127.687 86.418 128.347 87.0853 128.845 87.936C129.344 88.7867 129.601 89.74 129.615 90.796ZM124.225 87.144C123.404 87.144 122.693 87.3787 122.091 87.848C121.49 88.3027 121.094 89.014 120.903 89.982H127.393V89.806C127.32 89.0287 126.968 88.3907 126.337 87.892C125.721 87.3933 125.017 87.144 124.225 87.144ZM138.136 85.208C140.776 85.208 142.096 86.792 142.096 89.96V95.944C142.096 96.2373 141.994 96.4867 141.788 96.692C141.598 96.8973 141.348 97 141.04 97C140.747 97 140.498 96.8973 140.292 96.692C140.102 96.4867 140.006 96.2373 140.006 95.944V89.982C140.006 89.1167 139.808 88.4273 139.412 87.914C139.016 87.4007 138.371 87.144 137.476 87.144C136.89 87.144 136.354 87.276 135.87 87.54C135.401 87.7893 135.027 88.134 134.748 88.574C134.484 88.9993 134.352 89.4687 134.352 89.982V95.944C134.352 96.2373 134.25 96.4867 134.044 96.692C133.854 96.8973 133.604 97 133.296 97C132.988 97 132.739 96.9047 132.548 96.714C132.358 96.5087 132.262 96.252 132.262 95.944V86.528C132.262 86.2347 132.358 85.9853 132.548 85.78C132.754 85.5747 133.003 85.472 133.296 85.472C133.604 85.472 133.854 85.5747 134.044 85.78C134.25 85.9853 134.352 86.2347 134.352 86.528V87.298C134.734 86.7113 135.262 86.22 135.936 85.824C136.626 85.4133 137.359 85.208 138.136 85.208ZM146.097 91.72C145.804 91.72 145.555 91.6247 145.349 91.434C145.144 91.2287 145.041 90.972 145.041 90.664C145.041 90.3707 145.144 90.1287 145.349 89.938C145.555 89.7473 145.804 89.652 146.097 89.652H150.321C150.615 89.652 150.857 89.7547 151.047 89.96C151.253 90.1507 151.355 90.4 151.355 90.708C151.355 91.0013 151.253 91.2433 151.047 91.434C150.857 91.6247 150.615 91.72 150.321 91.72H146.097ZM159.332 85.208C160.49 85.208 161.451 85.3913 162.214 85.758C162.991 86.1247 163.38 86.594 163.38 87.166C163.38 87.4153 163.299 87.6427 163.138 87.848C162.976 88.0387 162.771 88.134 162.522 88.134C162.331 88.134 162.177 88.1047 162.06 88.046C161.957 87.9873 161.81 87.892 161.62 87.76C161.532 87.672 161.392 87.5693 161.202 87.452C161.026 87.364 160.776 87.2907 160.454 87.232C160.131 87.1733 159.838 87.144 159.574 87.144C158.811 87.144 158.136 87.32 157.55 87.672C156.963 88.024 156.508 88.5153 156.186 89.146C155.863 89.762 155.702 90.4513 155.702 91.214C155.702 91.9913 155.856 92.688 156.164 93.304C156.486 93.92 156.934 94.404 157.506 94.756C158.078 95.108 158.73 95.284 159.464 95.284C160.226 95.284 160.842 95.1667 161.312 94.932C161.414 94.8733 161.554 94.778 161.73 94.646C161.876 94.5287 162.001 94.4407 162.104 94.382C162.221 94.3233 162.36 94.294 162.522 94.294C162.815 94.294 163.042 94.3893 163.204 94.58C163.38 94.756 163.468 94.9907 163.468 95.284C163.468 95.592 163.27 95.9 162.874 96.208C162.492 96.5013 161.972 96.7433 161.312 96.934C160.666 97.1247 159.97 97.22 159.222 97.22C158.107 97.22 157.124 96.9633 156.274 96.45C155.423 95.922 154.763 95.2033 154.294 94.294C153.839 93.37 153.612 92.3433 153.612 91.214C153.612 90.0847 153.854 89.0653 154.338 88.156C154.822 87.232 155.496 86.5133 156.362 86C157.227 85.472 158.217 85.208 159.332 85.208ZM175.956 90.796C175.942 91.06 175.832 91.2873 175.626 91.478C175.421 91.654 175.179 91.742 174.9 91.742H167.156C167.259 92.8127 167.662 93.6707 168.366 94.316C169.085 94.9613 169.958 95.284 170.984 95.284C171.688 95.284 172.26 95.1813 172.7 94.976C173.14 94.7707 173.529 94.5067 173.866 94.184C174.086 94.052 174.299 93.986 174.504 93.986C174.754 93.986 174.959 94.074 175.12 94.25C175.296 94.426 175.384 94.6313 175.384 94.866C175.384 95.174 175.238 95.4527 174.944 95.702C174.519 96.1273 173.954 96.4867 173.25 96.78C172.546 97.0733 171.828 97.22 171.094 97.22C169.906 97.22 168.858 96.9707 167.948 96.472C167.054 95.9733 166.357 95.2767 165.858 94.382C165.374 93.4873 165.132 92.4753 165.132 91.346C165.132 90.114 165.382 89.036 165.88 88.112C166.394 87.1733 167.061 86.4547 167.882 85.956C168.718 85.4573 169.613 85.208 170.566 85.208C171.505 85.208 172.385 85.45 173.206 85.934C174.028 86.418 174.688 87.0853 175.186 87.936C175.685 88.7867 175.942 89.74 175.956 90.796ZM170.566 87.144C169.745 87.144 169.034 87.3787 168.432 87.848C167.831 88.3027 167.435 89.014 167.244 89.982H173.734V89.806C173.661 89.0287 173.309 88.3907 172.678 87.892C172.062 87.3933 171.358 87.144 170.566 87.144ZM184.477 85.208C187.117 85.208 188.437 86.792 188.437 89.96V95.944C188.437 96.2373 188.335 96.4867 188.129 96.692C187.939 96.8973 187.689 97 187.381 97C187.088 97 186.839 96.8973 186.633 96.692C186.443 96.4867 186.347 96.2373 186.347 95.944V89.982C186.347 89.1167 186.149 88.4273 185.753 87.914C185.357 87.4007 184.712 87.144 183.817 87.144C183.231 87.144 182.695 87.276 182.211 87.54C181.742 87.7893 181.368 88.134 181.089 88.574C180.825 88.9993 180.693 89.4687 180.693 89.982V95.944C180.693 96.2373 180.591 96.4867 180.385 96.692C180.195 96.8973 179.945 97 179.637 97C179.329 97 179.08 96.9047 178.889 96.714C178.699 96.5087 178.603 96.252 178.603 95.944V86.528C178.603 86.2347 178.699 85.9853 178.889 85.78C179.095 85.5747 179.344 85.472 179.637 85.472C179.945 85.472 180.195 85.5747 180.385 85.78C180.591 85.9853 180.693 86.2347 180.693 86.528V87.298C181.075 86.7113 181.603 86.22 182.277 85.824C182.967 85.4133 183.7 85.208 184.477 85.208ZM194.902 87.518V94.074C194.902 94.8073 195.232 95.174 195.892 95.174C195.995 95.174 196.134 95.152 196.31 95.108C196.486 95.0493 196.626 95.02 196.728 95.02C196.919 95.02 197.08 95.1007 197.212 95.262C197.344 95.4233 197.41 95.6287 197.41 95.878C197.41 96.186 197.234 96.45 196.882 96.67C196.53 96.89 196.134 97 195.694 97C195.21 97 194.763 96.9487 194.352 96.846C193.956 96.7433 193.597 96.4867 193.274 96.076C192.966 95.6507 192.812 95.0127 192.812 94.162V87.518H191.536C191.258 87.518 191.023 87.43 190.832 87.254C190.656 87.0633 190.568 86.8287 190.568 86.55C190.568 86.2713 190.656 86.044 190.832 85.868C191.023 85.692 191.258 85.604 191.536 85.604H192.812V83.756C192.812 83.4627 192.908 83.2133 193.098 83.008C193.304 82.8027 193.56 82.7 193.868 82.7C194.162 82.7 194.404 82.8027 194.594 83.008C194.8 83.2133 194.902 83.4627 194.902 83.756V85.604H196.728C197.007 85.604 197.234 85.6993 197.41 85.89C197.601 86.066 197.696 86.2933 197.696 86.572C197.696 86.8507 197.601 87.078 197.41 87.254C197.234 87.43 197.007 87.518 196.728 87.518H194.902ZM206.098 85.208C206.479 85.208 206.809 85.3107 207.088 85.516C207.366 85.7067 207.506 85.9487 207.506 86.242C207.506 86.594 207.41 86.8653 207.22 87.056C207.044 87.232 206.824 87.32 206.56 87.32C206.428 87.32 206.23 87.276 205.966 87.188C205.658 87.0853 205.416 87.034 205.24 87.034C204.785 87.034 204.338 87.1953 203.898 87.518C203.472 87.826 203.12 88.2587 202.842 88.816C202.578 89.3587 202.446 89.9673 202.446 90.642V95.944C202.446 96.2373 202.343 96.4867 202.138 96.692C201.947 96.8973 201.698 97 201.39 97C201.082 97 200.832 96.9047 200.642 96.714C200.451 96.5087 200.356 96.252 200.356 95.944V86.528C200.356 86.2347 200.451 85.9853 200.642 85.78C200.847 85.5747 201.096 85.472 201.39 85.472C201.698 85.472 201.947 85.5747 202.138 85.78C202.343 85.9853 202.446 86.2347 202.446 86.528V87.65C202.768 86.9313 203.252 86.352 203.898 85.912C204.543 85.4573 205.276 85.2227 206.098 85.208ZM211.644 95.944C211.644 96.2373 211.541 96.4867 211.336 96.692C211.145 96.8973 210.896 97 210.588 97C210.294 97 210.045 96.8973 209.84 96.692C209.649 96.4867 209.554 96.2373 209.554 95.944V86.418C209.554 86.1247 209.649 85.8753 209.84 85.67C210.045 85.4647 210.294 85.362 210.588 85.362C210.896 85.362 211.145 85.4647 211.336 85.67C211.541 85.8753 211.644 86.1247 211.644 86.418V95.944ZM210.588 83.91C210.162 83.91 209.854 83.8367 209.664 83.69C209.488 83.5287 209.4 83.2793 209.4 82.942V82.59C209.4 82.238 209.495 81.9887 209.686 81.842C209.891 81.6953 210.199 81.622 210.61 81.622C211.02 81.622 211.314 81.7027 211.49 81.864C211.68 82.0107 211.776 82.2527 211.776 82.59V82.942C211.776 83.294 211.68 83.5433 211.49 83.69C211.299 83.8367 210.998 83.91 210.588 83.91ZM219.884 85.208C221.043 85.208 222.003 85.3913 222.766 85.758C223.543 86.1247 223.932 86.594 223.932 87.166C223.932 87.4153 223.851 87.6427 223.69 87.848C223.529 88.0387 223.323 88.134 223.074 88.134C222.883 88.134 222.729 88.1047 222.612 88.046C222.509 87.9873 222.363 87.892 222.172 87.76C222.084 87.672 221.945 87.5693 221.754 87.452C221.578 87.364 221.329 87.2907 221.006 87.232C220.683 87.1733 220.39 87.144 220.126 87.144C219.363 87.144 218.689 87.32 218.102 87.672C217.515 88.024 217.061 88.5153 216.738 89.146C216.415 89.762 216.254 90.4513 216.254 91.214C216.254 91.9913 216.408 92.688 216.716 93.304C217.039 93.92 217.486 94.404 218.058 94.756C218.63 95.108 219.283 95.284 220.016 95.284C220.779 95.284 221.395 95.1667 221.864 94.932C221.967 94.8733 222.106 94.778 222.282 94.646C222.429 94.5287 222.553 94.4407 222.656 94.382C222.773 94.3233 222.913 94.294 223.074 94.294C223.367 94.294 223.595 94.3893 223.756 94.58C223.932 94.756 224.02 94.9907 224.02 95.284C224.02 95.592 223.822 95.9 223.426 96.208C223.045 96.5013 222.524 96.7433 221.864 96.934C221.219 97.1247 220.522 97.22 219.774 97.22C218.659 97.22 217.677 96.9633 216.826 96.45C215.975 95.922 215.315 95.2033 214.846 94.294C214.391 93.37 214.164 92.3433 214.164 91.214C214.164 90.0847 214.406 89.0653 214.89 88.156C215.374 87.232 216.049 86.5133 216.914 86C217.779 85.472 218.769 85.208 219.884 85.208ZM245.47 95.174C245.778 95.4527 245.932 95.7533 245.932 96.076C245.932 96.2813 245.852 96.4867 245.69 96.692C245.529 96.8973 245.316 97 245.052 97C244.803 97 244.598 96.9413 244.436 96.824L242.412 95.152C241.034 96.5307 239.303 97.22 237.22 97.22C236.208 97.22 235.284 96.9927 234.448 96.538C233.627 96.0687 232.982 95.46 232.512 94.712C232.043 93.9493 231.808 93.15 231.808 92.314C231.808 91.2873 232.08 90.378 232.622 89.586C233.165 88.7793 233.979 88.1487 235.064 87.694C234.771 87.2687 234.551 86.8653 234.404 86.484C234.258 86.1027 234.184 85.7067 234.184 85.296C234.184 84.5773 234.368 83.9247 234.734 83.338C235.101 82.7367 235.629 82.26 236.318 81.908C237.008 81.556 237.807 81.38 238.716 81.38C239.728 81.38 240.616 81.5633 241.378 81.93C242.156 82.282 242.684 82.7367 242.962 83.294C243.065 83.4993 243.116 83.7267 243.116 83.976C243.116 84.2107 243.028 84.4087 242.852 84.57C242.691 84.7313 242.471 84.812 242.192 84.812C241.87 84.812 241.635 84.6947 241.488 84.46C241.18 84.02 240.799 83.6973 240.344 83.492C239.904 83.272 239.362 83.162 238.716 83.162C237.968 83.162 237.389 83.3527 236.978 83.734C236.582 84.1153 236.384 84.6067 236.384 85.208C236.384 85.736 236.575 86.2713 236.956 86.814C237.338 87.3567 237.88 88.0093 238.584 88.772L238.98 89.212C239.831 90.1507 240.872 91.17 242.104 92.27C242.486 91.522 242.75 90.7007 242.896 89.806C242.97 89.3807 243.263 89.168 243.776 89.168C244.07 89.168 244.304 89.2927 244.48 89.542C244.671 89.7767 244.744 90.0553 244.7 90.378C244.51 91.5807 244.143 92.6513 243.6 93.59C244.202 94.118 244.825 94.646 245.47 95.174ZM237.638 95.24C238.929 95.24 240.036 94.7927 240.96 93.898C239.391 92.5193 238.064 91.214 236.978 89.982C236.773 89.762 236.531 89.4833 236.252 89.146C235.416 89.3953 234.822 89.762 234.47 90.246C234.118 90.73 233.942 91.3167 233.942 92.006C233.942 92.578 234.074 93.106 234.338 93.59C234.602 94.074 235.013 94.47 235.57 94.778C236.128 95.086 236.817 95.24 237.638 95.24ZM260.466 85.208C263.106 85.208 264.426 86.792 264.426 89.96V95.944C264.426 96.2373 264.323 96.4867 264.118 96.692C263.927 96.8973 263.678 97 263.37 97C263.076 97 262.827 96.8973 262.622 96.692C262.431 96.4867 262.336 96.2373 262.336 95.944V89.982C262.336 89.1167 262.138 88.4273 261.742 87.914C261.346 87.4007 260.7 87.144 259.806 87.144C259.219 87.144 258.684 87.276 258.2 87.54C257.73 87.7893 257.356 88.134 257.078 88.574C256.814 88.9993 256.682 89.4687 256.682 89.982V95.944C256.682 96.2373 256.579 96.4867 256.374 96.692C256.183 96.8973 255.934 97 255.626 97C255.318 97 255.068 96.9047 254.878 96.714C254.687 96.5087 254.592 96.252 254.592 95.944V86.528C254.592 86.2347 254.687 85.9853 254.878 85.78C255.083 85.5747 255.332 85.472 255.626 85.472C255.934 85.472 256.183 85.5747 256.374 85.78C256.579 85.9853 256.682 86.2347 256.682 86.528V87.298C257.063 86.7113 257.591 86.22 258.266 85.824C258.955 85.4133 259.688 85.208 260.466 85.208ZM278.679 91.236C278.679 92.38 278.422 93.4067 277.909 94.316C277.396 95.2253 276.692 95.9367 275.797 96.45C274.917 96.9633 273.942 97.22 272.871 97.22C271.8 97.22 270.818 96.9633 269.923 96.45C269.043 95.9367 268.346 95.2253 267.833 94.316C267.32 93.4067 267.063 92.38 267.063 91.236C267.063 90.092 267.32 89.058 267.833 88.134C268.346 87.21 269.043 86.4913 269.923 85.978C270.818 85.4647 271.8 85.208 272.871 85.208C273.942 85.208 274.917 85.4647 275.797 85.978C276.692 86.4913 277.396 87.21 277.909 88.134C278.422 89.058 278.679 90.092 278.679 91.236ZM276.589 91.236C276.589 90.444 276.42 89.74 276.083 89.124C275.76 88.4933 275.313 88.0093 274.741 87.672C274.184 87.32 273.56 87.144 272.871 87.144C272.182 87.144 271.551 87.32 270.979 87.672C270.422 88.0093 269.974 88.4933 269.637 89.124C269.314 89.74 269.153 90.444 269.153 91.236C269.153 92.0133 269.314 92.71 269.637 93.326C269.974 93.942 270.422 94.426 270.979 94.778C271.551 95.1153 272.182 95.284 272.871 95.284C273.56 95.284 274.184 95.1153 274.741 94.778C275.313 94.426 275.76 93.942 276.083 93.326C276.42 92.71 276.589 92.0133 276.589 91.236ZM287.203 85.208C289.843 85.208 291.163 86.792 291.163 89.96V95.944C291.163 96.2373 291.06 96.4867 290.855 96.692C290.664 96.8973 290.415 97 290.107 97C289.813 97 289.564 96.8973 289.359 96.692C289.168 96.4867 289.073 96.2373 289.073 95.944V89.982C289.073 89.1167 288.875 88.4273 288.479 87.914C288.083 87.4007 287.437 87.144 286.543 87.144C285.956 87.144 285.421 87.276 284.937 87.54C284.467 87.7893 284.093 88.134 283.815 88.574C283.551 88.9993 283.419 89.4687 283.419 89.982V95.944C283.419 96.2373 283.316 96.4867 283.111 96.692C282.92 96.8973 282.671 97 282.363 97C282.055 97 281.805 96.9047 281.615 96.714C281.424 96.5087 281.329 96.252 281.329 95.944V86.528C281.329 86.2347 281.424 85.9853 281.615 85.78C281.82 85.5747 282.069 85.472 282.363 85.472C282.671 85.472 282.92 85.5747 283.111 85.78C283.316 85.9853 283.419 86.2347 283.419 86.528V87.298C283.8 86.7113 284.328 86.22 285.003 85.824C285.692 85.4133 286.425 85.208 287.203 85.208ZM300.29 85.208C301.287 85.208 302.189 85.4647 302.996 85.978C303.802 86.4913 304.433 87.2027 304.888 88.112C305.357 89.0213 305.592 90.048 305.592 91.192C305.592 92.336 305.357 93.37 304.888 94.294C304.433 95.218 303.802 95.9367 302.996 96.45C302.189 96.9633 301.302 97.22 300.334 97.22C299.571 97.22 298.86 97.0513 298.2 96.714C297.54 96.3767 297.004 95.9587 296.594 95.46V96.098C296.594 96.3913 296.491 96.6407 296.286 96.846C296.095 97.0513 295.846 97.154 295.538 97.154C295.244 97.154 294.995 97.0587 294.79 96.868C294.599 96.6627 294.504 96.406 294.504 96.098V81.776C294.504 81.468 294.599 81.2187 294.79 81.028C294.98 80.8227 295.23 80.72 295.538 80.72C295.846 80.72 296.095 80.8227 296.286 81.028C296.491 81.2333 296.594 81.4827 296.594 81.776V87.144C296.946 86.616 297.459 86.1613 298.134 85.78C298.808 85.3987 299.527 85.208 300.29 85.208ZM300.048 95.284C300.722 95.284 301.331 95.108 301.874 94.756C302.416 94.3893 302.834 93.898 303.128 93.282C303.436 92.6513 303.59 91.9547 303.59 91.192C303.59 90.4293 303.436 89.74 303.128 89.124C302.834 88.508 302.416 88.024 301.874 87.672C301.331 87.32 300.722 87.144 300.048 87.144C299.358 87.144 298.742 87.32 298.2 87.672C297.657 88.024 297.232 88.508 296.924 89.124C296.63 89.7253 296.484 90.4147 296.484 91.192C296.484 91.9693 296.63 92.666 296.924 93.282C297.232 93.898 297.657 94.3893 298.2 94.756C298.742 95.108 299.358 95.284 300.048 95.284ZM310.217 95.944C310.217 96.2373 310.115 96.4867 309.909 96.692C309.719 96.8973 309.469 97 309.161 97C308.868 97 308.619 96.8973 308.413 96.692C308.223 96.4867 308.127 96.2373 308.127 95.944V86.418C308.127 86.1247 308.223 85.8753 308.413 85.67C308.619 85.4647 308.868 85.362 309.161 85.362C309.469 85.362 309.719 85.4647 309.909 85.67C310.115 85.8753 310.217 86.1247 310.217 86.418V95.944ZM309.161 83.91C308.736 83.91 308.428 83.8367 308.237 83.69C308.061 83.5287 307.973 83.2793 307.973 82.942V82.59C307.973 82.238 308.069 81.9887 308.259 81.842C308.465 81.6953 308.773 81.622 309.183 81.622C309.594 81.622 309.887 81.7027 310.063 81.864C310.254 82.0107 310.349 82.2527 310.349 82.59V82.942C310.349 83.294 310.254 83.5433 310.063 83.69C309.873 83.8367 309.572 83.91 309.161 83.91ZM319.316 85.208C321.956 85.208 323.276 86.792 323.276 89.96V95.944C323.276 96.2373 323.173 96.4867 322.968 96.692C322.777 96.8973 322.528 97 322.22 97C321.926 97 321.677 96.8973 321.472 96.692C321.281 96.4867 321.186 96.2373 321.186 95.944V89.982C321.186 89.1167 320.988 88.4273 320.592 87.914C320.196 87.4007 319.55 87.144 318.656 87.144C318.069 87.144 317.534 87.276 317.05 87.54C316.58 87.7893 316.206 88.134 315.928 88.574C315.664 88.9993 315.532 89.4687 315.532 89.982V95.944C315.532 96.2373 315.429 96.4867 315.224 96.692C315.033 96.8973 314.784 97 314.476 97C314.168 97 313.918 96.9047 313.728 96.714C313.537 96.5087 313.442 96.252 313.442 95.944V86.528C313.442 86.2347 313.537 85.9853 313.728 85.78C313.933 85.5747 314.182 85.472 314.476 85.472C314.784 85.472 315.033 85.5747 315.224 85.78C315.429 85.9853 315.532 86.2347 315.532 86.528V87.298C315.913 86.7113 316.441 86.22 317.116 85.824C317.805 85.4133 318.538 85.208 319.316 85.208ZM335.967 85.318C336.275 85.318 336.524 85.4207 336.715 85.626C336.92 85.8167 337.023 86.0733 337.023 86.396V95.944C337.023 96.2373 336.92 96.4867 336.715 96.692C336.524 96.8973 336.275 97 335.967 97C335.659 97 335.41 96.9047 335.219 96.714C335.028 96.5087 334.933 96.252 334.933 95.944V95.372C334.552 95.8853 334.031 96.3253 333.371 96.692C332.711 97.044 332 97.22 331.237 97.22C330.24 97.22 329.33 96.9633 328.509 96.45C327.702 95.9367 327.064 95.2253 326.595 94.316C326.14 93.392 325.913 92.358 325.913 91.214C325.913 90.07 326.14 89.0433 326.595 88.134C327.064 87.21 327.702 86.4913 328.509 85.978C329.316 85.4647 330.203 85.208 331.171 85.208C331.948 85.208 332.667 85.3693 333.327 85.692C334.002 86.0147 334.537 86.4253 334.933 86.924V86.396C334.933 86.088 335.028 85.8313 335.219 85.626C335.41 85.4207 335.659 85.318 335.967 85.318ZM331.479 95.284C332.168 95.284 332.777 95.108 333.305 94.756C333.848 94.404 334.266 93.92 334.559 93.304C334.867 92.688 335.021 91.9913 335.021 91.214C335.021 90.4513 334.867 89.762 334.559 89.146C334.266 88.53 333.848 88.046 333.305 87.694C332.777 87.3273 332.168 87.144 331.479 87.144C330.79 87.144 330.174 87.32 329.631 87.672C329.103 88.024 328.685 88.508 328.377 89.124C328.084 89.74 327.937 90.4367 327.937 91.214C327.937 91.9913 328.084 92.688 328.377 93.304C328.685 93.92 329.103 94.404 329.631 94.756C330.174 95.108 330.79 95.284 331.479 95.284ZM346.093 85.208C346.474 85.208 346.804 85.3107 347.083 85.516C347.361 85.7067 347.501 85.9487 347.501 86.242C347.501 86.594 347.405 86.8653 347.215 87.056C347.039 87.232 346.819 87.32 346.555 87.32C346.423 87.32 346.225 87.276 345.961 87.188C345.653 87.0853 345.411 87.034 345.235 87.034C344.78 87.034 344.333 87.1953 343.893 87.518C343.467 87.826 343.115 88.2587 342.837 88.816C342.573 89.3587 342.441 89.9673 342.441 90.642V95.944C342.441 96.2373 342.338 96.4867 342.133 96.692C341.942 96.8973 341.693 97 341.385 97C341.077 97 340.827 96.9047 340.637 96.714C340.446 96.5087 340.351 96.252 340.351 95.944V86.528C340.351 86.2347 340.446 85.9853 340.637 85.78C340.842 85.5747 341.091 85.472 341.385 85.472C341.693 85.472 341.942 85.5747 342.133 85.78C342.338 85.9853 342.441 86.2347 342.441 86.528V87.65C342.763 86.9313 343.247 86.352 343.893 85.912C344.538 85.4573 345.271 85.2227 346.093 85.208ZM358.238 85.362C358.546 85.362 358.796 85.4647 358.986 85.67C359.192 85.8753 359.294 86.1247 359.294 86.418V95.922C359.294 97.7553 358.788 99.1267 357.776 100.036C356.764 100.945 355.43 101.4 353.772 101.4C353.23 101.4 352.694 101.349 352.166 101.246C351.638 101.143 351.206 101.004 350.868 100.828C350.326 100.579 350.054 100.241 350.054 99.816C350.054 99.7427 350.069 99.6473 350.098 99.53C350.186 99.2807 350.311 99.09 350.472 98.958C350.634 98.826 350.817 98.76 351.022 98.76C351.14 98.76 351.25 98.782 351.352 98.826C351.807 99.0313 352.21 99.1927 352.562 99.31C352.914 99.4273 353.325 99.486 353.794 99.486C356.068 99.486 357.204 98.32 357.204 95.988V95.548C356.808 96.076 356.295 96.4867 355.664 96.78C355.048 97.0733 354.337 97.22 353.53 97.22C352.313 97.22 351.36 96.8313 350.67 96.054C349.996 95.2767 349.658 94.2573 349.658 92.996V86.418C349.658 86.11 349.754 85.8607 349.944 85.67C350.135 85.4647 350.384 85.362 350.692 85.362C351 85.362 351.25 85.4647 351.44 85.67C351.646 85.8753 351.748 86.1247 351.748 86.418V92.446C351.748 93.414 351.961 94.1327 352.386 94.602C352.812 95.0567 353.457 95.284 354.322 95.284C355.158 95.284 355.848 95.02 356.39 94.492C356.933 93.964 357.204 93.282 357.204 92.446V86.418C357.204 86.11 357.3 85.8607 357.49 85.67C357.681 85.4647 357.93 85.362 358.238 85.362Z" fill="white"/>
</g>
<path id="{" d="M45.75 144.25C46.5833 144.5 47.2083 144.917 47.625 145.5C48.0417 146.167 48.2083 146.917 48.125 147.75C48.0417 148.417 47.75 148.958 47.25 149.375C46.75 149.875 46.125 150.125 45.375 150.125L44.25 150C37.9167 148.667 33.0417 146.875 29.625 144.625C26.2083 142.375 23.8333 139.708 22.5 136.625C21.25 133.542 20.625 129.792 20.625 125.375L20.75 114.75C20.75 109.417 19.625 105.083 17.375 101.75C15.125 98.3333 11.5417 96.5833 6.625 96.5H6C5.08333 96.5 4.29167 96.2083 3.625 95.625C2.95833 94.9583 2.625 94.1667 2.625 93.25C2.625 92.4167 2.95833 91.7083 3.625 91.125C4.29167 90.4583 5.08333 90.125 6 90.125H6.75C11.75 90.0417 15.3333 88.375 17.5 85.125C19.6667 81.7917 20.75 77.4167 20.75 72L20.625 61.375C20.625 56.2917 21.5417 52.1667 23.375 49C25.2917 45.8333 27.9167 43.375 31.25 41.625C34.5833 39.7917 38.875 38.2083 44.125 36.875C44.7917 36.7083 45.25 36.625 45.5 36.625C46.4167 36.625 47.0833 36.9167 47.5 37.5C48 38.0833 48.25 38.75 48.25 39.5C48.25 40.1667 48 40.7917 47.5 41.375C47.0833 41.875 46.5 42.25 45.75 42.5C40.6667 44.0833 36.875 45.7083 34.375 47.375C31.875 48.9583 30.1667 50.9167 29.25 53.25C28.3333 55.5 27.875 58.5833 27.875 62.5L28 72.75C28 77.9167 26.9583 82.375 24.875 86.125C22.875 89.7917 20.0833 92.1667 16.5 93.25C20.1667 94.5 23 96.9583 25 100.625C27 104.292 28 108.708 28 113.875L27.875 124.25C27.875 128.167 28.2917 131.25 29.125 133.5C30.0417 135.833 31.75 137.833 34.25 139.5C36.8333 141.167 40.6667 142.75 45.75 144.25Z" fill="#AEF9D6"/>
<path id="}" d="M417.5 90C418.417 90 419.167 90.3333 419.75 91C420.417 91.6667 420.75 92.4583 420.75 93.375C420.75 94.2083 420.417 94.9583 419.75 95.625C419.167 96.2083 418.417 96.5 417.5 96.5H416.75C411.75 96.5833 408.167 98.2917 406 101.625C403.833 104.875 402.75 109.208 402.75 114.625V125.25C402.75 129.417 402.042 132.792 400.625 135.375C399.292 138.042 397 140.417 393.75 142.5C390.5 144.667 385.625 147.125 379.125 149.875C378.958 149.958 378.625 150 378.125 150C377.125 150 376.375 149.708 375.875 149.125C375.375 148.542 375.125 147.875 375.125 147.125C375.125 146.458 375.333 145.833 375.75 145.25C376.25 144.75 376.917 144.375 377.75 144.125C382.833 142.542 386.625 140.917 389.125 139.25C391.625 137.667 393.292 135.708 394.125 133.375C395.042 131.125 395.5 128.042 395.5 124.125V113.875C395.5 108.625 396.5 104.125 398.5 100.375C400.583 96.625 403.458 94.25 407.125 93.25C403.375 92.1667 400.5 89.7917 398.5 86.125C396.5 82.4583 395.5 77.9583 395.5 72.625V62.375C395.5 58.4583 395.042 55.375 394.125 53.125C393.292 50.7917 391.583 48.7917 389 47.125C386.5 45.4583 382.75 43.875 377.75 42.375C376.917 42.125 376.25 41.7083 375.75 41.125C375.333 40.4583 375.167 39.7083 375.25 38.875C375.417 38.2083 375.75 37.6667 376.25 37.25C376.75 36.75 377.333 36.5 378 36.5L379.125 36.625C385.458 37.9583 390.333 39.75 393.75 42C397.25 44.25 399.625 46.9167 400.875 50C402.125 53.0833 402.75 56.8333 402.75 61.25V71.875C402.75 77.2083 403.875 81.5833 406.125 85C408.375 88.3333 411.917 90 416.75 90H417.5Z" fill="#AEF9D6"/>
</g>
</svg>
