<?xml version="1.0" encoding="utf-8"?>
<!-- Generator: Adobe Illustrator 22.0.1, SVG Export Plug-In . SVG Version: 6.00 Build 0)  -->
<svg version="1.1" id="Layer_1" xmlns="http://www.w3.org/2000/svg" xmlns:xlink="http://www.w3.org/1999/xlink" x="0px" y="0px"
	 viewBox="0 0 480 439" style="enable-background:new 0 0 480 439;" xml:space="preserve">
<polygon style="fill:#F16C62;" points="258.1,220.5 378.6,1.1 345.1,1.1 225.6,220.4 "/>
<polygon style="fill:#474DA0;" points="302.3,220.5 422.8,1.1 389.3,1.1 269.9,220.4 "/>
<polygon style="fill:#EB3B4C;" points="213.9,220.5 334.4,1.1 300.8,1.1 181.4,220.4 "/>
<polygon style="fill:#86D3E7;" points="169.7,220.4 290.2,1.1 251.1,1.1 129.5,220.4 "/>
<polygon style="fill:#7E4D9F;" points="346.5,220.5 467.1,1.1 433.5,1.1 314,220.4 "/>
<polygon style="fill:#F16C62;" points="140.1,438.1 192.8,335.3 174.7,301.8 99.6,438.1 "/>
<polygon style="fill:#474DA0;" points="182.9,438.1 213.9,378 194.5,342.6 145.7,438.1 "/>
<polygon style="fill:#EB3B4C;" points="95.6,438.1 170.7,297.1 151.5,262.7 53.4,438.1 "/>
<polygon style="fill:#86D3E7;" points="49.7,438.1 148.1,255.7 127,223 7.7,438.1 "/>
<polygon style="fill:#7E4D9F;" points="225.6,438.1 235.9,413.7 217.8,378.9 186.6,438.1 "/>
<path style="fill:#FFFFFF;" d="M123.5,220.5"/>
<polygon style="fill:#010101;" points="13.4,1.1 1.5,1.1 123.5,220.5 4.2,438.1 15.1,438.1 130.3,229.4 146.1,257.8 47.3,438.1 
	58.5,438.1 151.7,267.6 168.6,298 91.2,438.1 101.9,438.1 173.9,307.7 189.3,335.4 136.9,438.1 147.8,438.1 194.7,345.6 
	211.1,375.3 178.8,438.1 189.4,438.1 216.5,385 233.1,414.8 221.5,438.1 232.8,438.1 238.6,425.4 245.7,438.1 256.6,438.1 
	136.7,220.5 256.6,1.1 245.6,1.1 237.9,15.1 231.1,1.1 220.1,1.1 232.2,24.7 215.7,54.4 187.9,1.1 177.5,1.1 210.1,64.6 194.5,93.7 
	146.6,1.1 135,1.1 188.7,104.5 173,132.5 100.7,1.1 89.1,1.1 167.8,141.8 151.2,172.3 56.9,1.1 45.7,1.1 145.5,182 129.1,211 "/>
<polygon style="fill:#010101;" points="169.7,220.5 290.2,1.1 300.8,1.1 181.4,220.4 302.1,438.1 290.6,438.1 "/>
<polygon style="fill:#010101;" points="213.9,220.5 334.4,1.1 345,1.1 225.6,220.4 346.3,438.1 334.8,438.1 "/>
<polygon style="fill:#010101;" points="258.1,220.5 378.6,1.1 389.3,1.1 269.8,220.4 390.5,438.1 379.1,438.1 "/>
<polygon style="fill:#010101;" points="302.3,220.5 422.8,1.1 433.5,1.1 314,220.4 434.8,438.1 423.3,438.1 "/>
<polygon style="fill:#010101;" points="346.5,220.5 467.1,1.1 477.7,1.1 358.3,220.4 479,438.1 467.5,438.1 "/>
</svg>
