<svg width="298" height="323" viewBox="0 0 298 323" fill="none" xmlns="http://www.w3.org/2000/svg">
<path d="M160.111 137.883L235.342 0.545105H214.41L139.859 137.815L160.111 137.883Z" fill="#F16B62"/>
<path d="M187.77 137.883L262.933 0.545105H242.001L167.45 137.815L187.77 137.883Z" fill="#474C9F"/>
<path d="M132.52 137.883L207.75 0.545105H186.751L112.268 137.815L132.52 137.883Z" fill="#EC384B"/>
<path d="M104.929 137.815L180.159 0.545105H155.762L79.8518 137.815H104.929Z" fill="#85D4E7"/>
<path d="M215.294 137.883L290.524 0.545105H269.593L195.042 137.815L215.294 137.883Z" fill="#7D4C9E"/>
<path d="M86.5114 274.062L119.404 209.722L108.054 188.729L61.2307 274.062H86.5114Z" fill="#F16B62"/>
<path d="M113.22 274.062L132.52 236.507L120.492 214.288L89.978 274.062H113.22Z" fill="#474C9F"/>
<path d="M58.7165 274.062L105.608 185.866L93.5794 164.26L32.3484 274.062H58.7165Z" fill="#EC384B"/>
<path d="M30.038 274.062L91.4728 159.898L78.2888 139.451L3.87378 274.062H30.038Z" fill="#85D4E7"/>
<path d="M139.86 274.063L146.248 258.863L134.967 236.985L115.53 274.063H139.86Z" fill="#7D4C9E"/>
<path d="M7.40752 0.545105H0L76.182 137.883L1.69897 274.062H8.49487L80.3954 143.404L90.1815 161.193L28.5428 274.062H35.5425L93.7833 167.395L104.249 186.412L55.9982 274.062H62.5902L107.579 192.478L117.161 209.858L84.473 274.062H91.2689L120.559 216.197L130.821 234.735L110.637 274.062H117.297L134.151 240.801L144.549 259.477L137.277 274.062H144.345L147.947 266.088L152.364 274.062H159.228L84.3371 137.883L159.228 0.545105H152.296L147.539 9.33747L143.257 0.545105H136.394L144.005 15.3354L133.607 33.9424L116.278 0.545105H109.822L130.209 40.2811L120.491 58.4793L90.5893 0.545105H83.3177L116.821 65.295L107.035 82.8116L61.9106 0.545105H54.639L103.773 88.605L93.3756 107.757L34.5911 0.545105H27.5913L89.8417 113.823L79.5799 131.953L7.40752 0.545105Z" fill="white"/>
<path d="M104.928 137.883L180.159 0.545105H186.819L112.268 137.815L187.566 274.062H180.431L104.928 137.883Z" fill="white"/>
<path d="M132.52 137.883L207.75 0.545105H214.41L139.859 137.815L215.158 274.062H208.022L132.52 137.883Z" fill="white"/>
<path d="M160.111 137.883L235.342 0.545105H242.001L167.451 137.815L242.749 274.062H235.613L160.111 137.883Z" fill="white"/>
<path d="M187.703 137.883L262.933 0.545105H269.593L195.042 137.815L270.409 274.062H263.205L187.703 137.883Z" fill="white"/>
<path d="M215.293 137.883L290.524 0.545105H297.184L222.633 137.815L298 274.062H290.796L215.293 137.883Z" fill="white"/>
<path d="M5.5047 322.113C5.09694 321.704 4.89307 321.159 4.89307 320.613V291.033C4.89307 290.419 5.09694 289.874 5.5047 289.465C5.91245 289.056 6.45612 288.852 6.99979 288.852C7.61142 288.852 8.1551 289.056 8.56285 289.465C8.9706 289.874 9.17448 290.419 9.17448 291.033V303.778H27.2516V291.033C27.2516 290.419 27.4554 289.874 27.8632 289.465C28.2709 289.056 28.8146 288.852 29.3583 288.852C29.9699 288.852 30.5136 289.056 30.9213 289.465C31.3291 289.874 31.533 290.419 31.533 291.033V320.613C31.533 321.227 31.3291 321.704 30.9213 322.113C30.5136 322.522 29.9699 322.726 29.3583 322.726C28.7467 322.726 28.2709 322.522 27.8632 322.113C27.4554 321.704 27.2516 321.159 27.2516 320.613V307.868H9.24244V320.613C9.24244 321.227 9.03856 321.704 8.63081 322.113C8.22305 322.522 7.67938 322.726 7.06775 322.726C6.45612 322.794 5.91245 322.59 5.5047 322.113Z" fill="white"/>
<path d="M58.3087 322.114C57.9009 321.705 57.697 321.16 57.697 320.614C57.697 320.342 57.765 320.069 57.9689 319.66L70.1335 290.829C70.4053 290.284 70.7451 289.807 71.2209 289.398C71.6966 289.057 72.2402 288.853 72.9198 288.853H73.3955C74.0751 288.853 74.6188 289.057 75.0945 289.398C75.5702 289.739 75.91 290.216 76.1819 290.829L88.3465 319.66C88.4824 320.069 88.6183 320.342 88.6183 320.614C88.6183 321.228 88.4145 321.705 88.0067 322.114C87.599 322.523 87.1232 322.727 86.4437 322.727C85.9679 322.727 85.5602 322.591 85.2204 322.387C84.8806 322.114 84.6088 321.841 84.4049 321.432L81.2788 313.935H65.0366L61.9105 321.432C61.7066 321.841 61.4348 322.182 61.095 322.387C60.7552 322.659 60.3474 322.727 59.8717 322.727C59.1921 322.795 58.7164 322.591 58.3087 322.114ZM66.6676 309.982H79.5798L73.1237 294.442L66.6676 309.982Z" fill="white"/>
<path d="M120.083 320.956C117.569 319.592 115.53 317.548 114.103 314.958C112.676 312.368 111.928 309.301 111.928 305.824C111.928 302.348 112.676 299.281 114.103 296.691C115.53 294.101 117.569 292.125 120.083 290.693C122.598 289.33 125.452 288.58 128.646 288.58C130.821 288.58 132.724 288.853 134.423 289.33C136.122 289.875 137.821 290.557 139.52 291.511C140.199 291.92 140.539 292.534 140.539 293.351C140.539 293.829 140.335 294.238 139.995 294.646C139.656 294.987 139.18 295.192 138.636 295.192C138.296 295.192 138.025 295.124 137.753 294.987C136.326 294.238 134.966 293.692 133.675 293.283C132.316 292.874 130.821 292.738 129.054 292.738C126.336 292.738 123.957 293.283 122.054 294.442C120.151 295.601 118.656 297.1 117.705 299.077C116.753 301.053 116.278 303.234 116.278 305.756C116.278 308.278 116.753 310.459 117.705 312.436C118.656 314.412 120.151 315.98 122.054 317.071C123.957 318.229 126.336 318.774 129.054 318.774C130.821 318.774 132.316 318.57 133.675 318.229C135.034 317.82 136.394 317.275 137.753 316.525C138.025 316.389 138.296 316.321 138.636 316.321C139.18 316.321 139.656 316.525 139.995 316.866C140.335 317.207 140.539 317.616 140.539 318.161C140.539 318.979 140.199 319.592 139.52 320.001C137.821 320.956 136.122 321.705 134.423 322.182C132.724 322.659 130.753 322.932 128.646 322.932C125.452 323 122.598 322.319 120.083 320.956Z" fill="white"/>
<path d="M166.703 322.114C166.296 321.705 166.092 321.16 166.092 320.615V291.034C166.092 290.421 166.296 289.875 166.703 289.466C167.111 289.058 167.655 288.853 168.199 288.853C168.81 288.853 169.354 289.058 169.762 289.466C170.169 289.875 170.373 290.421 170.373 291.034V306.233L186.683 289.535C187.159 289.057 187.703 288.785 188.314 288.785C188.858 288.785 189.334 288.989 189.742 289.33C190.149 289.671 190.353 290.148 190.353 290.693C190.353 291.307 190.149 291.852 189.81 292.193L178.868 303.303L191.509 319.32C191.848 319.797 192.052 320.206 192.052 320.683C192.052 321.228 191.916 321.773 191.509 322.182C191.101 322.591 190.557 322.796 190.013 322.796C189.266 322.796 188.722 322.523 188.314 321.91L176.014 306.165L170.577 311.686V320.615C170.577 321.228 170.373 321.705 169.965 322.114C169.558 322.523 169.014 322.728 168.402 322.728C167.655 322.796 167.111 322.591 166.703 322.114Z" fill="white"/>
<path d="M215.294 322.182C214.886 321.773 214.682 321.296 214.682 320.751C214.682 320.274 214.818 319.797 215.09 319.388L226.099 305.756L215.158 292.261C214.886 291.852 214.75 291.443 214.75 290.898C214.75 290.284 214.954 289.807 215.362 289.398C215.769 288.989 216.245 288.785 216.857 288.785C217.196 288.785 217.536 288.853 217.876 289.058C218.216 289.194 218.42 289.398 218.624 289.671L228.682 302.485L238.739 289.535C239.079 289.057 239.623 288.785 240.302 288.785C240.846 288.785 241.39 288.989 241.798 289.398C242.205 289.807 242.409 290.284 242.409 290.83C242.409 291.307 242.273 291.648 242.001 292.056L230.992 305.688L242.001 319.32C242.273 319.66 242.409 320.069 242.409 320.546C242.409 321.16 242.205 321.637 241.798 322.046C241.39 322.455 240.914 322.659 240.235 322.659C239.555 322.659 238.943 322.387 238.536 321.773L228.342 308.891L218.284 321.841C217.808 322.387 217.264 322.727 216.585 322.727C216.109 322.796 215.701 322.591 215.294 322.182Z" fill="#AEF9D6"/>
<path d="M267.623 322.182C267.215 321.773 267.011 321.296 267.011 320.751C267.011 320.274 267.147 319.797 267.419 319.388L278.428 305.756L267.487 292.261C267.215 291.852 267.079 291.443 267.079 290.898C267.079 290.284 267.283 289.807 267.691 289.398C268.098 288.989 268.574 288.785 269.186 288.785C269.526 288.785 269.865 288.853 270.205 289.058C270.545 289.194 270.749 289.398 270.953 289.671L281.011 302.485L291.069 289.535C291.408 289.057 291.952 288.785 292.632 288.785C293.175 288.785 293.719 288.989 294.127 289.398C294.535 289.807 294.738 290.284 294.738 290.83C294.738 291.307 294.603 291.648 294.331 292.056L283.321 305.688L294.331 319.32C294.603 319.66 294.738 320.069 294.738 320.546C294.738 321.16 294.535 321.637 294.127 322.046C293.719 322.455 293.243 322.659 292.564 322.659C291.884 322.659 291.273 322.387 290.865 321.773L280.671 308.891L270.613 321.841C270.137 322.387 269.594 322.727 268.914 322.727C268.506 322.796 268.03 322.591 267.623 322.182Z" fill="#AEF9D6"/>
</svg>
