<svg viewBox="0 0 460 331" fill="none" xmlns="http://www.w3.org/2000/svg">
<path d="M0.972485 177.834C-0.654195 173.661 0.685435 168.264 4.70121 165.91C8.64606 163.597 14.3921 165.056 15.8598 169.587C16.9003 172.8 15.8406 176.65 13.6174 179.123C10.094 183.043 3.42024 182.694 0.957379 177.799C0.870589 177.626 0.611706 177.778 0.698346 177.95C2.87807 182.283 8.57658 183.423 12.472 180.569C15.8755 178.076 17.5551 172.929 15.9542 168.964C14.2961 164.856 9.05379 163.504 5.209 165.304C0.617597 167.454 -1.07951 173.391 0.683209 177.914C0.752569 178.092 1.04277 178.015 0.972485 177.834Z" fill="white"/>
<path d="M12.8726 140.566C15.1716 142.136 18.0827 142.213 20.0871 140.102C21.7447 138.357 22.1248 135.63 20.5056 133.73C18.5318 131.414 14.6204 130.708 12.244 132.777C9.64532 135.039 10.3029 138.58 12.8422 140.543C12.9931 140.659 13.2069 140.449 13.0543 140.331C10.594 138.429 9.98207 135.008 12.578 132.898C14.9386 130.979 19.0195 131.851 20.6289 134.394C21.8073 136.256 21.2072 138.623 19.6779 140.088C17.7556 141.93 15.1148 141.735 13.024 140.307C12.8641 140.198 12.7139 140.458 12.8726 140.566Z" fill="white"/>
<path d="M119.523 160.876C119.069 163.852 117.008 165.847 113.933 165.844C111.412 165.842 108.55 164.509 107.537 162.084C106.136 158.729 109.062 155.042 112.371 154.507C116.36 153.861 119.857 156.855 119.517 160.916C119.501 161.108 119.801 161.107 119.817 160.916C120.156 156.86 116.829 153.795 112.798 154.14C109.474 154.424 106.418 157.605 106.934 161.061C107.377 164.027 110.445 165.848 113.224 166.108C116.675 166.431 119.291 164.37 119.812 160.956C119.841 160.767 119.552 160.685 119.523 160.876Z" fill="white"/>
<path d="M132.359 137.955C131.627 141.477 128.559 144.118 124.858 142.929C122.162 142.063 120.54 139.601 121.445 136.826C123.306 131.119 133.277 130.942 132.354 137.995C132.329 138.186 132.629 138.184 132.654 137.995C133.645 130.427 122.659 130.752 121.047 137.119C120.327 139.962 122.09 142.361 124.779 143.219C128.612 144.441 131.881 141.731 132.649 138.035C132.688 137.847 132.399 137.766 132.359 137.955Z" fill="white"/>
<path d="M20.5325 295.403C22.7454 296.621 25.3668 296.242 26.9231 294.165C28.2582 292.383 28.1768 289.94 26.3663 288.523C21.7291 284.894 15.1841 291.988 20.5325 295.403C20.6957 295.508 20.8463 295.248 20.6839 295.144C15.4406 291.796 22.4768 284.917 26.6074 289.138C28.0328 290.595 27.7173 292.818 26.4581 294.264C24.9502 295.995 22.6464 296.224 20.6839 295.144C20.5147 295.051 20.3631 295.31 20.5325 295.403Z" fill="white"/>
<path d="M35.1392 269.713C35.8613 273.054 38.8278 274.76 41.8968 272.837C44.2238 271.379 46.0475 267.603 44.6355 264.973C43.5036 262.864 40.6673 262.889 38.7255 263.692C36.2432 264.718 34.7228 267.017 35.1392 269.713C35.1686 269.903 35.4577 269.822 35.4285 269.633C35.0593 267.243 36.3307 265.18 38.4666 264.137C40.1288 263.325 42.6413 263.03 43.9993 264.574C45.8082 266.63 44.3233 270.366 42.5812 271.941C39.763 274.49 36.2247 273.316 35.4285 269.633C35.3877 269.444 35.0984 269.524 35.1392 269.713Z" fill="white"/>
<path d="M27.2118 200.641C31.6877 204.369 29.0463 212.665 22.6291 210.817C15.6182 208.798 19.5632 195.301 27.2421 200.665C27.4008 200.775 27.5508 200.515 27.3936 200.406C24.2195 198.188 20.5005 198.944 19.1016 202.73C18.0742 205.511 18.8245 209.242 21.6008 210.72C24.1851 212.097 27.5797 211.155 29.0652 208.654C30.7143 205.878 29.8186 202.424 27.4239 200.429C27.2765 200.306 27.0632 200.517 27.2118 200.641Z" fill="white"/>
<path d="M109.734 261.545C107.021 262.968 103.069 261.679 102.286 258.525C101.619 255.836 104.157 252.928 106.851 252.947C108.829 252.962 110.76 254.246 111.681 255.973C112.876 258.213 111.77 260.321 109.734 261.545C109.568 261.645 109.719 261.904 109.885 261.804C111.534 260.813 112.8 259.242 112.436 257.219C112.107 255.39 110.645 253.854 108.981 253.122C107.288 252.377 105.361 252.518 103.911 253.71C102.031 255.256 101.211 257.935 102.646 260.046C104.228 262.372 107.435 263.089 109.885 261.804C110.056 261.715 109.904 261.456 109.734 261.545Z" fill="white"/>
<path d="M190.391 303.48C188.917 302.094 189.587 299.998 191.054 298.893C192.366 297.903 194.761 297.956 195.392 299.758C196.295 302.34 192.578 305.233 190.391 303.48C190.242 303.36 190.028 303.571 190.179 303.692C192.75 305.754 197.279 302.015 195.439 299.183C193.015 295.451 186.901 300.611 190.179 303.692C190.32 303.824 190.532 303.613 190.391 303.48Z" fill="white"/>
<path d="M204.217 191.098C205.993 195.151 198.486 199.724 196.539 195.542C194.47 191.1 201.611 186.236 204.217 191.098C204.308 191.269 204.568 191.117 204.476 190.947C201.66 185.693 193.82 191.067 196.336 195.836C198.631 200.186 206.365 195.258 204.476 190.947C204.399 190.77 204.14 190.923 204.217 191.098Z" fill="white"/>
<path d="M313.908 239.326C313.84 243.441 307.135 245.457 305.851 240.954C304.416 235.923 313.51 233.27 313.908 239.326C313.921 239.517 314.221 239.519 314.208 239.326C314.046 236.864 312.466 235.17 309.903 235.486C307.534 235.778 305.148 237.755 305.412 240.317C305.973 245.785 314.127 244.207 314.208 239.326C314.211 239.133 313.911 239.132 313.908 239.326Z" fill="white"/>
<path d="M333.433 219.015C336.632 217.195 339.364 221.941 336.949 224.28C335.674 225.515 333.69 225.351 332.65 223.896C331.607 222.438 331.941 220.041 333.433 219.015C333.591 218.906 333.441 218.646 333.281 218.756C331.653 219.876 331.262 222.441 332.391 224.047C333.444 225.547 335.494 225.874 336.921 224.704C339.93 222.235 336.909 216.693 333.281 218.756C333.113 218.851 333.264 219.11 333.433 219.015Z" fill="white"/>
<path d="M337.557 184.496C339.41 183.475 343.062 183.278 343.845 185.809C344.415 187.655 343.181 189.626 341.36 190.042C339.936 190.367 338.229 189.944 337.159 188.936C335.681 187.542 336.336 185.76 337.587 184.473C337.722 184.334 337.51 184.122 337.375 184.261C336.371 185.293 335.55 186.709 336.212 188.15C336.795 189.419 338.222 190.154 339.543 190.372C340.934 190.601 342.476 190.284 343.407 189.156C344.4 187.953 344.63 185.902 343.547 184.691C342.056 183.025 339.191 183.253 337.406 184.237C337.236 184.33 337.388 184.589 337.557 184.496Z" fill="white"/>
<path d="M84.0963 77.9918C82.0611 75.6192 80.878 72.5556 82.422 69.5765C83.5819 67.3384 85.8662 65.7815 88.2855 65.1908C92.4614 64.1712 98.9813 66.0694 99.6946 71.0054C100.192 74.4456 97.5201 77.6606 94.7063 79.2687C91.1281 81.3137 87.0077 81.0092 84.0963 77.9918C83.962 77.8526 83.75 78.0649 83.8841 78.2039C88.7577 83.2548 97.3802 80.4434 99.6441 74.0788C100.707 71.0902 99.5064 68.243 96.9404 66.4998C93.2333 63.9815 88.1094 63.904 84.5061 66.6733C80.4796 69.7679 80.7756 74.58 83.8841 78.2039C84.0101 78.3507 84.2214 78.1377 84.0963 77.9918Z" fill="white"/>
<path d="M228.679 77.2378C216.123 78.8212 218.266 58.7301 229.441 61.5487C236.694 63.3783 235.321 75.6184 228.639 77.2432C228.451 77.2888 228.531 77.5781 228.719 77.5325C236.323 75.6836 236.841 61.6624 228.239 61.0674C217.028 60.2919 216.858 79.0285 228.679 77.5378C228.868 77.514 228.87 77.2137 228.679 77.2378Z" fill="white"/>
<path d="M182.474 13.742C174.333 12.9399 176.608 0.614958 183.748 0.307568C192.643 -0.075472 190.663 13.9545 182.474 13.742C182.281 13.737 182.281 14.037 182.474 14.042C191.062 14.2648 193.006 -0.380222 183.748 0.00756804C176.199 0.323748 173.959 13.2031 182.474 14.042C182.666 14.0609 182.665 13.7608 182.474 13.742Z" fill="white"/>
<path d="M281.613 106.029C281.429 103.213 282.961 100.346 285.539 99.0876C288.582 97.602 291.877 99.8282 292.131 103.114C292.319 105.545 290.962 108.174 288.905 109.473C285.868 111.389 282.133 109.453 281.607 105.989C281.578 105.798 281.289 105.879 281.318 106.068C281.81 109.313 285.11 111.504 288.261 110.152C290.999 108.978 292.823 105.617 292.383 102.683C291.948 99.7847 289.136 97.5997 286.238 98.4855C283.094 99.447 281.106 102.853 281.313 106.029C281.325 106.22 281.625 106.222 281.613 106.029Z" fill="white"/>
<path d="M167.671 321.058C168.981 324.998 165.091 325.858 161.801 325.718C155.641 325.468 150.961 320.958 145.601 318.458C147.041 317.868 147.821 316.798 148.111 315.478C151.241 315.468 154.381 315.428 157.521 315.328C159.101 315.328 160.781 315.228 162.461 315.248C162.601 315.428 162.731 315.598 162.871 315.768C164.251 317.458 166.971 318.938 167.671 321.058Z" fill="#4E5F68"/>
<path d="M166.241 298.028C168.571 300.778 165.941 304.248 164.011 306.468C163.101 307.538 161.731 308.558 161.101 309.808C160.121 311.748 161.201 313.628 162.461 315.248C160.781 315.228 159.101 315.328 157.521 315.328C154.381 315.428 151.241 315.468 148.111 315.478C148.521 313.598 147.931 311.178 146.761 308.808C146.531 308.348 145.961 308.058 145.461 308.068C144.491 308.078 143.511 308.088 142.531 308.088C146.761 306.618 151.591 303.978 155.491 302.038C158.401 300.588 161.571 298.278 164.781 297.648C165.281 297.548 165.881 297.608 166.241 298.028Z" fill="#5A6D7A"/>
<path d="M146.761 308.807C147.931 311.177 148.521 313.597 148.111 315.477C120.241 315.597 92.3813 312.837 64.5213 317.327C64.1813 317.387 63.8413 317.447 63.5013 317.517C64.4013 315.467 64.4113 313.277 63.6413 310.987L63.4913 310.627C62.3413 308.417 60.7213 307.057 58.8213 306.387C71.0013 301.377 84.0113 303.247 96.6813 305.007C96.9713 305.047 97.2513 305.087 97.5413 305.127C105.831 306.267 114.151 307.077 122.491 307.557C129.161 307.947 135.841 308.127 142.531 308.087C143.511 308.087 144.491 308.077 145.461 308.067C145.961 308.057 146.531 308.347 146.761 308.807Z" fill="#CCD8DA"/>
<path d="M64.5213 317.327C92.3813 312.837 120.241 315.597 148.111 315.477C147.821 316.797 147.041 317.867 145.601 318.457C144.911 318.747 144.071 318.927 143.061 318.977C137.721 319.247 132.421 319.687 127.131 320.247C122.911 320.677 118.691 321.187 114.461 321.747C108.651 322.507 102.811 323.227 96.9713 323.667C96.5313 323.697 96.0913 323.727 95.6513 323.757C89.2513 324.197 82.8613 324.277 76.5113 323.687C71.3213 323.217 66.1713 322.307 61.0713 320.777C61.4913 320.447 61.9013 320.017 62.3013 319.507C62.8013 318.857 63.2013 318.197 63.5013 317.517C63.8413 317.447 64.1813 317.387 64.5213 317.327Z" fill="#A4B1B2"/>
<path d="M121.411 300.408C121.541 302.858 121.901 305.198 122.491 307.558C114.151 307.078 105.831 306.268 97.5411 305.128C97.2512 305.088 96.9711 305.048 96.6812 305.008C104.311 304.418 112.241 302.098 119.151 299.108C120.201 298.658 121.351 299.178 121.411 300.408Z" fill="#5A6D7A"/>
<path d="M127.131 320.248C124.221 321.528 121.401 322.988 118.691 324.668C116.361 326.098 113.801 329.138 111.281 329.868C109.551 330.368 108.851 330.088 107.171 329.288C103.701 327.608 100.351 325.568 96.9712 323.718V323.668C102.811 323.228 108.651 322.508 114.461 321.748C118.691 321.188 122.911 320.678 127.131 320.248Z" fill="#4E5F68"/>
<path d="M95.6512 323.757L95.6612 323.917C93.0612 327.037 91.4312 330.438 86.9512 329.878C83.1912 329.397 80.1912 326.927 77.3912 324.567L76.5112 323.688C82.8612 324.277 89.2512 324.197 95.6512 323.757Z" fill="#4E5F68"/>
<path d="M63.6411 310.988C64.4111 313.278 64.4011 315.468 63.5011 317.518C56.8211 318.718 50.1611 319.808 43.7311 318.558C41.6111 317.258 40.1111 315.548 40.2011 313.338C40.3811 308.988 48.8111 307.038 52.2211 306.258C54.6011 305.718 56.8611 305.698 58.8211 306.388C60.7211 307.058 62.3411 308.418 63.4911 310.628L63.6411 310.988ZM51.4511 314.658C53.3811 314.658 53.3911 311.658 51.4511 311.658C49.5211 311.658 49.5211 314.658 51.4511 314.658Z" fill="#5A6D7A"/>
<path d="M63.501 317.518C63.201 318.198 62.801 318.858 62.301 319.508C61.901 320.018 61.491 320.448 61.071 320.778C59.311 322.208 57.341 322.268 54.751 321.958C52.151 321.648 47.141 320.638 43.731 318.558C50.161 319.808 56.821 318.718 63.501 317.518Z" fill="#4E5F68"/>
<path d="M51.4509 311.658C53.3909 311.658 53.3809 314.658 51.4509 314.658C49.5209 314.658 49.5209 311.658 51.4509 311.658Z" fill="white"/>
<path d="M238.571 270.328C240.151 270.328 241.831 270.228 243.511 270.248C243.651 270.428 243.781 270.598 243.921 270.768C245.301 272.458 248.021 273.938 248.721 276.058C250.031 279.998 246.141 280.858 242.851 280.718C236.691 280.468 232.011 275.958 226.651 273.458C228.091 272.868 228.871 271.798 229.161 270.478C232.291 270.468 235.431 270.428 238.571 270.328Z" fill="#4E5F68"/>
<path d="M226.512 263.067C227.012 263.057 227.582 263.347 227.812 263.807C228.982 266.177 229.572 268.597 229.162 270.477C201.292 270.597 173.432 267.837 145.572 272.327C145.232 272.387 144.892 272.447 144.552 272.517C145.452 270.467 145.462 268.277 144.692 265.987L144.542 265.627C143.392 263.417 141.772 262.057 139.872 261.387C152.052 256.377 165.062 258.247 177.732 260.007C178.022 260.047 178.302 260.087 178.592 260.127C186.882 261.267 195.202 262.077 203.542 262.557C210.212 262.947 216.892 263.127 223.582 263.087C224.562 263.087 225.542 263.077 226.512 263.067Z" fill="#CCD8DA"/>
<path d="M145.572 272.327C173.432 267.837 201.292 270.597 229.162 270.477C228.872 271.797 228.092 272.867 226.652 273.457C225.962 273.747 225.122 273.927 224.112 273.977C218.772 274.247 213.472 274.687 208.182 275.247C203.962 275.677 199.742 276.187 195.512 276.747C189.702 277.507 183.862 278.227 178.022 278.667C177.582 278.697 177.142 278.727 176.702 278.757C170.302 279.197 163.912 279.277 157.562 278.687C152.372 278.217 147.222 277.307 142.122 275.777C142.542 275.447 142.952 275.017 143.352 274.507C143.852 273.857 144.252 273.197 144.552 272.517C144.892 272.447 145.232 272.387 145.572 272.327Z" fill="#A4B1B2"/>
<path d="M227.812 263.808C227.582 263.348 227.012 263.058 226.512 263.068C225.542 263.078 224.562 263.088 223.582 263.088C227.812 261.618 232.642 258.978 236.542 257.038C239.452 255.588 242.622 253.278 245.832 252.648C246.332 252.548 246.932 252.608 247.292 253.028C249.622 255.778 246.992 259.248 245.062 261.468C244.152 262.538 242.781 263.558 242.152 264.808C241.172 266.748 242.252 268.628 243.512 270.248C241.832 270.228 240.152 270.328 238.572 270.328C235.432 270.428 232.291 270.468 229.161 270.478C229.572 268.598 228.982 266.178 227.812 263.808Z" fill="#5A6D7A"/>
<path d="M202.461 255.408C202.591 257.858 202.951 260.198 203.541 262.558C195.201 262.078 186.881 261.268 178.591 260.128C178.301 260.088 178.021 260.048 177.731 260.008C185.361 259.418 193.291 257.098 200.201 254.108C201.251 253.658 202.401 254.178 202.461 255.408Z" fill="#5A6D7A"/>
<path d="M178.021 278.668C183.861 278.228 189.701 277.508 195.511 276.748C199.741 276.188 203.961 275.678 208.181 275.248C205.271 276.528 202.451 277.988 199.741 279.668C197.411 281.098 194.851 284.138 192.331 284.868C190.601 285.368 189.901 285.088 188.221 284.288C184.751 282.608 181.401 280.568 178.021 278.718V278.668Z" fill="#4E5F68"/>
<path d="M157.562 278.688C163.912 279.277 170.302 279.197 176.702 278.757L176.712 278.917C174.112 282.037 172.482 285.438 168.002 284.878C164.242 284.397 161.242 281.927 158.442 279.567L157.562 278.688Z" fill="#4E5F68"/>
<path d="M132.501 266.658C130.571 266.658 130.571 269.658 132.501 269.658C134.431 269.658 134.441 266.658 132.501 266.658ZM144.691 265.988C145.461 268.278 145.451 270.468 144.551 272.518C137.871 273.718 131.211 274.808 124.781 273.558C122.661 272.258 121.161 270.548 121.251 268.338C121.431 263.988 129.861 262.038 133.271 261.258C135.651 260.718 137.911 260.698 139.871 261.388C141.771 262.058 143.391 263.418 144.541 265.628L144.691 265.988Z" fill="#5A6D7A"/>
<path d="M132.501 266.658C134.441 266.658 134.431 269.658 132.501 269.658C130.571 269.658 130.571 266.658 132.501 266.658Z" fill="white"/>
<path d="M124.781 273.558C131.211 274.808 137.871 273.718 144.551 272.518C144.251 273.198 143.851 273.858 143.351 274.508C142.951 275.018 142.541 275.448 142.121 275.778C140.361 277.208 138.391 277.268 135.801 276.958C133.201 276.648 128.191 275.638 124.781 273.558Z" fill="#4E5F68"/>
<path d="M320.571 314.328C322.151 314.328 323.831 314.228 325.511 314.248C325.651 314.428 325.781 314.598 325.921 314.768C327.301 316.458 330.021 317.938 330.721 320.058C332.031 323.998 328.141 324.858 324.851 324.718C318.691 324.468 314.011 319.958 308.651 317.458C310.091 316.868 310.871 315.798 311.161 314.478C314.291 314.468 317.431 314.428 320.571 314.328Z" fill="#4E5F68"/>
<path d="M227.572 316.327C227.232 316.387 226.892 316.447 226.552 316.517C227.452 314.467 227.462 312.277 226.692 309.987L226.542 309.627C225.392 307.417 223.772 306.057 221.872 305.387C234.052 300.377 247.062 302.247 259.732 304.007C260.022 304.047 260.302 304.087 260.592 304.127C268.882 305.267 277.202 306.077 285.542 306.557C292.212 306.947 298.892 307.127 305.582 307.087C306.562 307.087 307.542 307.077 308.512 307.067C309.012 307.057 309.582 307.347 309.812 307.807C310.982 310.177 311.572 312.597 311.162 314.477C283.292 314.597 255.432 311.837 227.572 316.327Z" fill="#CCD8DA"/>
<path d="M308.652 317.457C307.962 317.747 307.122 317.927 306.112 317.977C300.772 318.247 295.472 318.687 290.182 319.247C285.962 319.677 281.742 320.187 277.512 320.747C271.702 321.507 265.862 322.227 260.022 322.667C259.582 322.697 259.142 322.727 258.702 322.757C252.302 323.197 245.912 323.277 239.562 322.687C234.372 322.217 229.222 321.307 224.122 319.777C224.542 319.447 224.952 319.017 225.352 318.507C225.852 317.857 226.252 317.197 226.552 316.517C226.892 316.447 227.232 316.387 227.572 316.327C255.432 311.837 283.292 314.597 311.162 314.477C310.872 315.797 310.092 316.867 308.652 317.457Z" fill="#A4B1B2"/>
<path d="M305.582 307.088C309.812 305.618 314.642 302.978 318.542 301.038C321.452 299.588 324.622 297.278 327.832 296.648C328.332 296.548 328.932 296.608 329.292 297.028C331.622 299.778 328.992 303.248 327.062 305.468C326.152 306.538 324.781 307.558 324.152 308.808C323.172 310.748 324.252 312.628 325.512 314.248C323.832 314.228 322.152 314.328 320.572 314.328C317.432 314.428 314.291 314.468 311.161 314.478C311.572 312.598 310.982 310.178 309.812 307.808C309.582 307.348 309.012 307.058 308.512 307.068C307.541 307.078 306.562 307.088 305.582 307.088Z" fill="#5A6D7A"/>
<path d="M285.541 306.558C277.201 306.078 268.881 305.268 260.591 304.128C260.301 304.088 260.021 304.048 259.731 304.008C267.361 303.418 275.291 301.098 282.201 298.108C283.251 297.658 284.401 298.178 284.461 299.408C284.591 301.858 284.951 304.198 285.541 306.558Z" fill="#5A6D7A"/>
<path d="M260.021 322.668C265.861 322.228 271.701 321.508 277.511 320.748C281.741 320.188 285.961 319.678 290.181 319.248C287.271 320.528 284.451 321.988 281.741 323.668C279.411 325.098 276.851 328.138 274.331 328.868C272.601 329.368 271.901 329.088 270.221 328.288C266.751 326.608 263.401 324.568 260.021 322.718V322.668Z" fill="#4E5F68"/>
<path d="M258.712 322.917C256.112 326.037 254.482 329.438 250.002 328.878C246.242 328.397 243.242 325.927 240.442 323.567L239.562 322.688C245.912 323.277 252.302 323.197 258.702 322.757L258.712 322.917Z" fill="#4E5F68"/>
<path d="M226.691 309.988C227.461 312.278 227.451 314.468 226.551 316.518C219.871 317.718 213.211 318.808 206.781 317.558C204.661 316.258 203.161 314.548 203.251 312.338C203.431 307.988 211.861 306.038 215.271 305.258C217.651 304.718 219.911 304.698 221.871 305.388C223.771 306.058 225.391 307.418 226.541 309.628L226.691 309.988ZM214.501 313.658C216.431 313.658 216.441 310.658 214.501 310.658C212.571 310.658 212.571 313.658 214.501 313.658Z" fill="#5A6D7A"/>
<path d="M214.501 313.658C212.571 313.658 212.571 310.658 214.501 310.658C216.441 310.658 216.431 313.658 214.501 313.658Z" fill="white"/>
<path d="M206.781 317.558C213.211 318.808 219.871 317.718 226.551 316.518C226.251 317.198 225.851 317.858 225.351 318.508C224.951 319.018 224.541 319.448 224.121 319.778C222.361 321.208 220.391 321.268 217.801 320.958C215.201 320.648 210.191 319.638 206.781 317.558Z" fill="#4E5F68"/>
<path d="M449.571 245.328C451.151 245.328 452.831 245.228 454.511 245.248C454.651 245.428 454.781 245.598 454.921 245.768C456.301 247.458 459.021 248.938 459.721 251.058C461.031 254.998 457.141 255.858 453.851 255.718C447.691 255.468 443.011 250.958 437.651 248.458C439.091 247.868 439.871 246.798 440.161 245.478C443.291 245.468 446.431 245.428 449.571 245.328Z" fill="#4E5F68"/>
<path d="M437.512 238.067C438.012 238.057 438.582 238.347 438.812 238.807C439.982 241.177 440.572 243.597 440.162 245.477C412.292 245.597 384.432 242.837 356.572 247.327C356.232 247.387 355.892 247.447 355.552 247.517C356.452 245.467 356.462 243.277 355.692 240.987L355.542 240.627C354.392 238.417 352.772 237.057 350.872 236.387C363.052 231.377 376.062 233.247 388.732 235.007C389.022 235.047 389.302 235.087 389.592 235.127C397.882 236.267 406.202 237.077 414.542 237.557C421.212 237.947 427.892 238.127 434.582 238.087C435.562 238.087 436.542 238.077 437.512 238.067Z" fill="#CCD8DA"/>
<path d="M356.572 247.327C384.432 242.837 412.292 245.597 440.162 245.477C439.872 246.797 439.092 247.867 437.652 248.457C436.962 248.747 436.122 248.927 435.112 248.977C429.772 249.247 424.472 249.687 419.182 250.247C414.962 250.677 410.742 251.187 406.512 251.747C400.702 252.507 394.862 253.227 389.022 253.667C388.582 253.697 388.142 253.727 387.702 253.757C381.302 254.197 374.912 254.277 368.562 253.687C363.372 253.217 358.222 252.307 353.122 250.777C353.542 250.447 353.952 250.017 354.352 249.507C354.852 248.857 355.252 248.197 355.552 247.517C355.892 247.447 356.232 247.387 356.572 247.327Z" fill="#A4B1B2"/>
<path d="M434.582 238.088C438.812 236.618 443.642 233.978 447.542 232.038C450.452 230.588 453.622 228.278 456.832 227.648C457.332 227.548 457.932 227.608 458.292 228.028C460.622 230.778 457.992 234.248 456.062 236.468C455.152 237.538 453.781 238.558 453.152 239.808C452.172 241.748 453.252 243.628 454.512 245.248C452.832 245.228 451.152 245.328 449.572 245.328C446.432 245.428 443.291 245.468 440.161 245.478C440.572 243.598 439.982 241.178 438.812 238.808C438.582 238.348 438.012 238.058 437.512 238.068C436.541 238.078 435.562 238.088 434.582 238.088Z" fill="#5A6D7A"/>
<path d="M413.461 230.408C413.591 232.858 413.951 235.198 414.541 237.558C406.201 237.078 397.881 236.268 389.591 235.128C389.301 235.088 389.021 235.048 388.731 235.008C396.361 234.418 404.291 232.098 411.201 229.108C412.251 228.658 413.401 229.178 413.461 230.408Z" fill="#5A6D7A"/>
<path d="M406.511 251.748C410.741 251.188 414.961 250.678 419.181 250.248C416.271 251.528 413.451 252.988 410.741 254.668C408.411 256.098 405.851 259.138 403.331 259.868C401.601 260.368 400.901 260.088 399.221 259.288C395.751 257.608 392.401 255.568 389.021 253.718V253.668C394.861 253.228 400.701 252.508 406.511 251.748Z" fill="#4E5F68"/>
<path d="M369.442 254.568L368.562 253.688C374.912 254.278 381.302 254.198 387.702 253.758L387.712 253.918C385.112 257.037 383.482 260.438 379.002 259.878C375.242 259.397 372.242 256.928 369.442 254.568Z" fill="#4E5F68"/>
<path d="M350.871 236.388C352.771 237.058 354.391 238.418 355.541 240.628L355.691 240.988C356.461 243.278 356.451 245.468 355.551 247.518C348.871 248.718 342.211 249.808 335.781 248.558C333.661 247.258 332.161 245.548 332.251 243.338C332.431 238.988 340.861 237.038 344.271 236.258C346.651 235.718 348.911 235.698 350.871 236.388ZM343.501 244.658C345.431 244.658 345.441 241.658 343.501 241.658C341.571 241.658 341.571 244.658 343.501 244.658Z" fill="#5A6D7A"/>
<path d="M343.501 241.658C345.441 241.658 345.431 244.658 343.501 244.658C341.571 244.658 341.571 241.658 343.501 241.658Z" fill="white"/>
<path d="M353.121 250.778C351.361 252.208 349.391 252.268 346.801 251.958C344.201 251.648 339.191 250.638 335.781 248.558C342.211 249.808 348.871 248.718 355.551 247.518C355.251 248.198 354.851 248.858 354.351 249.508C353.951 250.018 353.541 250.448 353.121 250.778Z" fill="#4E5F68"/>
<path d="M318.921 212.768C320.301 214.458 323.021 215.938 323.721 218.058C325.031 221.998 321.141 222.858 317.851 222.718C311.691 222.468 307.011 217.958 301.651 215.458C303.091 214.868 303.871 213.798 304.161 212.478C307.291 212.468 310.431 212.428 313.571 212.328C315.151 212.328 316.831 212.228 318.511 212.248C318.651 212.428 318.781 212.598 318.921 212.768Z" fill="#4E5F68"/>
<path d="M220.572 214.327C220.232 214.387 219.892 214.447 219.552 214.517C220.452 212.467 220.462 210.277 219.692 207.987L219.542 207.627C218.392 205.417 216.772 204.057 214.872 203.387C227.052 198.377 240.062 200.247 252.732 202.007C253.022 202.047 253.302 202.087 253.592 202.127C261.882 203.267 270.202 204.077 278.542 204.557C285.212 204.947 291.892 205.127 298.582 205.087C299.562 205.087 300.542 205.077 301.512 205.067C302.012 205.057 302.582 205.347 302.812 205.807C303.982 208.177 304.572 210.597 304.162 212.477C276.292 212.597 248.432 209.837 220.572 214.327Z" fill="#CCD8DA"/>
<path d="M301.652 215.457C300.962 215.747 300.122 215.927 299.112 215.977C293.772 216.247 288.472 216.687 283.182 217.247C278.962 217.677 274.742 218.187 270.512 218.747C264.702 219.507 258.862 220.227 253.022 220.667C252.582 220.697 252.142 220.727 251.702 220.757C245.302 221.197 238.912 221.277 232.562 220.687C227.372 220.217 222.222 219.307 217.122 217.777C217.542 217.447 217.952 217.017 218.352 216.507C218.852 215.857 219.252 215.197 219.552 214.517C219.892 214.447 220.232 214.387 220.572 214.327C248.432 209.837 276.292 212.597 304.162 212.477C303.872 213.797 303.092 214.867 301.652 215.457Z" fill="#A4B1B2"/>
<path d="M302.812 205.808C302.582 205.348 302.012 205.058 301.512 205.068C300.542 205.078 299.562 205.088 298.582 205.088C302.812 203.618 307.642 200.978 311.542 199.038C314.452 197.588 317.622 195.278 320.832 194.648C321.332 194.548 321.932 194.608 322.292 195.028C324.622 197.778 321.992 201.248 320.062 203.468C319.152 204.538 317.781 205.558 317.152 206.808C316.172 208.748 317.252 210.628 318.512 212.248C316.832 212.228 315.152 212.328 313.572 212.328C310.432 212.428 307.291 212.468 304.161 212.478C304.572 210.598 303.982 208.178 302.812 205.808Z" fill="#5A6D7A"/>
<path d="M278.541 204.558C270.201 204.078 261.881 203.268 253.591 202.128C253.301 202.088 253.021 202.048 252.731 202.008C260.361 201.418 268.291 199.098 275.201 196.108C276.251 195.658 277.401 196.178 277.461 197.408C277.591 199.858 277.951 202.198 278.541 204.558Z" fill="#5A6D7A"/>
<path d="M270.511 218.748C274.741 218.188 278.961 217.678 283.181 217.248C280.271 218.528 277.451 219.988 274.741 221.668C272.411 223.098 269.851 226.138 267.331 226.868C265.601 227.368 264.901 227.088 263.221 226.288C259.751 224.608 256.401 222.568 253.021 220.718V220.668C258.861 220.228 264.701 219.508 270.511 218.748Z" fill="#4E5F68"/>
<path d="M232.562 220.688C238.912 221.278 245.302 221.198 251.702 220.758L251.712 220.918C249.112 224.038 247.482 227.438 243.002 226.878C239.242 226.398 236.242 223.928 233.442 221.568L232.562 220.688Z" fill="#4E5F68"/>
<path d="M207.501 208.658C205.571 208.658 205.571 211.658 207.501 211.658C209.431 211.658 209.441 208.658 207.501 208.658ZM219.691 207.988C220.461 210.278 220.451 212.468 219.551 214.518C212.871 215.718 206.211 216.808 199.781 215.558C197.661 214.258 196.161 212.548 196.251 210.338C196.431 205.988 204.861 204.038 208.271 203.258C210.651 202.718 212.911 202.698 214.871 203.388C216.771 204.058 218.391 205.418 219.541 207.628L219.691 207.988Z" fill="#5A6D7A"/>
<path d="M207.501 211.658C205.571 211.658 205.571 208.658 207.501 208.658C209.441 208.658 209.431 211.658 207.501 211.658Z" fill="white"/>
<path d="M199.781 215.558C206.211 216.808 212.871 215.718 219.551 214.518C219.251 215.198 218.851 215.858 218.351 216.508C217.951 217.018 217.541 217.448 217.121 217.778C215.361 219.208 213.391 219.268 210.801 218.958C208.201 218.648 203.191 217.638 199.781 215.558Z" fill="#4E5F68"/>
<path d="M265.921 152.768C267.301 154.458 270.021 155.938 270.721 158.058C272.031 161.998 268.141 162.858 264.851 162.718C258.691 162.468 254.011 157.958 248.651 155.458C250.091 154.868 250.871 153.798 251.161 152.478C254.291 152.468 257.431 152.428 260.571 152.328C262.151 152.328 263.831 152.228 265.511 152.248C265.651 152.428 265.781 152.598 265.921 152.768Z" fill="#4E5F68"/>
<path d="M166.552 154.517C167.452 152.467 167.462 150.277 166.692 147.987L166.542 147.627C165.392 145.417 163.772 144.057 161.872 143.387C174.052 138.377 187.062 140.247 199.732 142.007C200.022 142.047 200.302 142.087 200.592 142.127C208.882 143.267 217.202 144.077 225.542 144.557C232.212 144.947 238.892 145.127 245.582 145.087C246.562 145.087 247.542 145.077 248.512 145.067C249.012 145.057 249.582 145.347 249.812 145.807C250.982 148.177 251.572 150.597 251.162 152.477C223.292 152.597 195.432 149.837 167.572 154.327C167.232 154.387 166.892 154.447 166.552 154.517Z" fill="#CCD8DA"/>
<path d="M248.652 155.457C247.962 155.747 247.122 155.927 246.112 155.977C240.772 156.247 235.472 156.687 230.182 157.247C225.962 157.677 221.742 158.187 217.512 158.747C211.702 159.507 205.862 160.227 200.022 160.667C199.582 160.697 199.142 160.727 198.702 160.757C192.302 161.197 185.912 161.277 179.562 160.687C174.372 160.217 169.222 159.307 164.122 157.777C164.542 157.447 164.952 157.017 165.352 156.507C165.852 155.857 166.252 155.197 166.552 154.517C166.892 154.447 167.232 154.387 167.572 154.327C195.432 149.837 223.292 152.597 251.162 152.477C250.872 153.797 250.092 154.867 248.652 155.457Z" fill="#A4B1B2"/>
<path d="M249.812 145.808C249.582 145.348 249.012 145.058 248.512 145.068C247.542 145.078 246.562 145.088 245.582 145.088C249.812 143.618 254.642 140.978 258.542 139.038C261.452 137.588 264.622 135.278 267.832 134.648C268.332 134.548 268.932 134.608 269.292 135.028C271.622 137.778 268.992 141.248 267.062 143.468C266.152 144.538 264.781 145.558 264.152 146.808C263.172 148.748 264.252 150.628 265.512 152.248C263.832 152.228 262.152 152.328 260.572 152.328C257.432 152.428 254.291 152.468 251.161 152.478C251.572 150.598 250.982 148.178 249.812 145.808Z" fill="#5A6D7A"/>
<path d="M224.461 137.408C224.591 139.858 224.951 142.198 225.541 144.558C217.201 144.078 208.881 143.268 200.591 142.128C200.301 142.088 200.021 142.048 199.731 142.008C207.361 141.418 215.291 139.098 222.201 136.108C223.251 135.658 224.401 136.178 224.461 137.408Z" fill="#5A6D7A"/>
<path d="M217.511 158.748C221.741 158.188 225.961 157.678 230.181 157.248C227.271 158.528 224.451 159.988 221.741 161.668C219.411 163.098 216.851 166.138 214.331 166.868C212.601 167.368 211.901 167.088 210.221 166.288C206.751 164.608 203.401 162.568 200.021 160.718V160.668C205.861 160.228 211.701 159.508 217.511 158.748Z" fill="#4E5F68"/>
<path d="M198.712 160.918C196.112 164.038 194.482 167.438 190.002 166.878C186.242 166.398 183.242 163.928 180.442 161.568L179.562 160.688C185.912 161.278 192.302 161.198 198.702 160.758L198.712 160.918Z" fill="#4E5F68"/>
<path d="M161.871 143.388C163.771 144.058 165.391 145.418 166.541 147.628L166.691 147.988C167.461 150.278 167.451 152.468 166.551 154.518C159.871 155.718 153.211 156.808 146.781 155.558C144.661 154.258 143.161 152.548 143.251 150.338C143.431 145.988 151.861 144.038 155.271 143.258C157.651 142.718 159.911 142.698 161.871 143.388ZM154.501 151.658C156.431 151.658 156.441 148.658 154.501 148.658C152.571 148.658 152.571 151.658 154.501 151.658Z" fill="#5A6D7A"/>
<path d="M154.501 148.658C156.441 148.658 156.431 151.658 154.501 151.658C152.571 151.658 152.571 148.658 154.501 148.658Z" fill="white"/>
<path d="M146.781 155.558C153.211 156.808 159.871 155.718 166.551 154.518C166.251 155.198 165.851 155.858 165.351 156.508C164.951 157.018 164.541 157.448 164.121 157.778C162.361 159.208 160.391 159.268 157.801 158.958C155.201 158.648 150.191 157.638 146.781 155.558Z" fill="#4E5F68"/>
<path d="M160.921 220.768C162.301 222.458 165.021 223.938 165.721 226.058C167.031 229.998 163.141 230.858 159.851 230.718C153.691 230.468 149.011 225.958 143.651 223.458C145.091 222.868 145.871 221.798 146.161 220.478C149.291 220.468 152.431 220.428 155.571 220.328C157.151 220.328 158.831 220.228 160.511 220.248C160.651 220.428 160.781 220.598 160.921 220.768Z" fill="#4E5F68"/>
<path d="M61.5516 222.517C62.4516 220.467 62.4616 218.277 61.6916 215.987L61.5416 215.627C60.3916 213.417 58.7716 212.057 56.8716 211.387C69.0516 206.377 82.0616 208.247 94.7316 210.007C95.0216 210.047 95.3016 210.087 95.5916 210.127C103.882 211.267 112.202 212.077 120.542 212.557C127.212 212.947 133.892 213.127 140.582 213.087C141.562 213.087 142.542 213.077 143.512 213.067C144.012 213.057 144.582 213.347 144.812 213.807C145.982 216.177 146.572 218.597 146.162 220.477C118.292 220.597 90.4316 217.837 62.5716 222.327C62.2316 222.387 61.8916 222.447 61.5516 222.517Z" fill="#CCD8DA"/>
<path d="M62.5716 222.327C90.4316 217.837 118.292 220.597 146.162 220.477C145.872 221.797 145.092 222.867 143.652 223.457C142.962 223.747 142.122 223.927 141.112 223.977C135.772 224.247 130.472 224.687 125.182 225.247C120.962 225.677 116.742 226.187 112.512 226.747C106.702 227.507 100.862 228.227 95.0216 228.667C94.5816 228.697 94.1416 228.727 93.7016 228.757C87.3016 229.197 80.9116 229.277 74.5616 228.687C69.3716 228.217 64.2216 227.307 59.1216 225.777C59.5416 225.447 59.9516 225.017 60.3516 224.507C60.8516 223.857 61.2516 223.197 61.5516 222.517C61.8916 222.447 62.2316 222.387 62.5716 222.327Z" fill="#A4B1B2"/>
<path d="M144.812 213.808C144.582 213.348 144.012 213.058 143.512 213.068C142.542 213.078 141.562 213.088 140.582 213.088C144.812 211.618 149.642 208.978 153.542 207.038C156.452 205.588 159.622 203.278 162.832 202.648C163.332 202.548 163.932 202.608 164.292 203.028C166.622 205.778 163.992 209.248 162.062 211.468C161.152 212.538 159.781 213.558 159.152 214.808C158.172 216.748 159.252 218.628 160.512 220.248C158.832 220.228 157.152 220.328 155.572 220.328C152.432 220.428 149.291 220.468 146.161 220.478C146.572 218.598 145.982 216.178 144.812 213.808Z" fill="#5A6D7A"/>
<path d="M120.541 212.558C112.201 212.078 103.881 211.268 95.5914 210.128C95.3015 210.088 95.0215 210.048 94.7314 210.008C102.361 209.418 110.291 207.098 117.201 204.108C118.251 203.658 119.401 204.178 119.461 205.408C119.591 207.858 119.951 210.198 120.541 212.558Z" fill="#5A6D7A"/>
<path d="M95.0215 228.668C100.861 228.228 106.701 227.508 112.511 226.748C116.741 226.188 120.961 225.678 125.181 225.248C122.271 226.528 119.451 227.988 116.741 229.668C114.411 231.098 111.851 234.138 109.331 234.868C107.601 235.368 106.901 235.088 105.221 234.288C101.751 232.608 98.4015 230.568 95.0215 228.718V228.668Z" fill="#4E5F68"/>
<path d="M74.5615 228.688C80.9115 229.278 87.3015 229.198 93.7015 228.758L93.7115 228.918C91.1115 232.038 89.4815 235.438 85.0015 234.878C81.2415 234.398 78.2415 231.928 75.4415 229.568L74.5615 228.688Z" fill="#4E5F68"/>
<path d="M56.8714 211.388C58.7714 212.058 60.3914 213.418 61.5414 215.628L61.6914 215.988C62.4614 218.278 62.4514 220.468 61.5514 222.518C54.8714 223.718 48.2114 224.808 41.7814 223.558C39.6614 222.258 38.1614 220.548 38.2514 218.338C38.4314 213.988 46.8614 212.038 50.2714 211.258C52.6514 210.718 54.9114 210.698 56.8714 211.388ZM49.5014 216.658C47.5714 216.658 47.5714 219.658 49.5014 219.658C51.4314 219.658 51.4414 216.658 49.5014 216.658Z" fill="#5A6D7A"/>
<path d="M49.5012 219.658C47.5712 219.658 47.5712 216.658 49.5012 216.658C51.4412 216.658 51.4312 219.658 49.5012 219.658Z" fill="white"/>
<path d="M41.7812 223.558C48.2112 224.808 54.8712 223.718 61.5512 222.518C61.2512 223.198 60.8513 223.858 60.3513 224.508C59.9512 225.018 59.5413 225.448 59.1212 225.778C57.3612 227.208 55.3912 227.268 52.8012 226.958C50.2012 226.648 45.1913 225.638 41.7812 223.558Z" fill="#4E5F68"/>
</svg>
