<svg width="32" height="33" viewBox="0 0 32 33" fill="none" xmlns="http://www.w3.org/2000/svg">
<path d="M16 33C11.7565 33 7.68687 31.2616 4.68629 28.1673C1.68571 25.0729 0 20.8761 0 16.5C0 12.1239 1.68571 7.92709 4.68629 4.83274C7.68687 1.73839 11.7565 0 16 0C20.2435 0 24.3131 1.73839 27.3137 4.83274C30.3143 7.92709 32 12.1239 32 16.5C32 20.8761 30.3143 25.0729 27.3137 28.1673C24.3131 31.2616 20.2435 33 16 33ZM16 29.7C19.3948 29.7 22.6505 28.3093 25.051 25.8338C27.4514 23.3583 28.8 20.0009 28.8 16.5C28.8 12.9991 27.4514 9.64167 25.051 7.16619C22.6505 4.69071 19.3948 3.3 16 3.3C12.6052 3.3 9.3495 4.69071 6.94903 7.16619C4.54857 9.64167 3.2 12.9991 3.2 16.5C3.2 20.0009 4.54857 23.3583 6.94903 25.8338C9.3495 28.3093 12.6052 29.7 16 29.7ZM17.6 15.8235L21.664 19.998C21.9653 20.3087 22.1345 20.7301 22.1345 21.1695C22.1345 21.6089 21.9653 22.0303 21.664 22.341C21.3627 22.6517 20.9541 22.8263 20.528 22.8263C20.1019 22.8263 19.6933 22.6517 19.392 22.341L14.88 17.655C14.5785 17.3504 14.406 16.9352 14.4 16.5V9.9C14.4 9.46239 14.5686 9.04271 14.8686 8.73327C15.1687 8.42384 15.5757 8.25 16 8.25C16.4243 8.25 16.8313 8.42384 17.1314 8.73327C17.4314 9.04271 17.6 9.46239 17.6 9.9V15.8235Z" fill="white"/>
</svg>
