<svg width="67" height="67" viewBox="0 0 67 67" fill="none" xmlns="http://www.w3.org/2000/svg">
<path d="M33.5 67C52.0015 67 67 52.0015 67 33.5C67 14.9985 52.0015 0 33.5 0C14.9985 0 0 14.9985 0 33.5C0 52.0015 14.9985 67 33.5 67Z" fill="#8E44AD"/>
<path d="M36.694 51V35.0554H42.0222L42.8204 28.8145H36.694V24.8396C36.694 23.0366 37.1905 21.8085 39.7528 21.8085H43V16.2416C42.4349 16.1659 40.496 16 38.241 16C33.5314 16 30.3082 18.899 30.3082 24.2252V28.8153H25V35.0554H30.3082V51H36.694Z" fill="white"/>
</svg>
