<svg width="46" height="50" viewBox="0 0 46 50" fill="none" xmlns="http://www.w3.org/2000/svg">
<g clip-path="url(#clip0)">
<path d="M24.7246 21.1971L36.3331 0.0818176H33.0972L21.5869 21.1889L24.7246 21.1971Z" fill="#F16B62"/>
<path d="M28.9845 21.1971L40.593 0.0818176H37.357L25.855 21.1889L28.9845 21.1971Z" fill="#474C9F"/>
<path d="M20.4643 21.1971L32.0729 0.0818176H28.8369L17.3267 21.1889L20.4643 21.1971Z" fill="#EC384B"/>
<path d="M16.2046 21.1889L27.8131 0.0818176H24.0446L12.3296 21.1889H16.2046Z" fill="#85D4E7"/>
<path d="M33.2446 21.1971L44.8531 0.0818176H41.6172L30.1069 21.1889L33.2446 21.1971Z" fill="#7D4C9E"/>
<path d="M13.3535 42.1324L18.4328 32.2333L16.6878 29.0182L9.4458 42.1324H13.3535Z" fill="#F16B62"/>
<path d="M17.4741 42.1324L20.4643 36.3484L18.5964 32.9451L13.894 42.1324H17.4741Z" fill="#474C9F"/>
<path d="M9.06915 42.1324L16.303 28.5682L14.4433 25.2549L4.99756 42.1324H9.06915Z" fill="#EC384B"/>
<path d="M4.64516 42.1324L14.1237 24.5841L12.0838 21.4344L0.598145 42.1324H4.64516Z" fill="#85D4E7"/>
<path d="M21.5871 42.1324L22.5783 39.7845L20.8334 36.4302L17.835 42.1324H21.5871Z" fill="#7D4C9E"/>
<path d="M1.14693 0.0818176H0L11.756 21.1971L0.262155 42.1324H1.31077L12.4114 22.0479L13.927 24.7804L4.40748 42.1324H5.48887L14.4759 25.7294L16.098 28.65L8.64292 42.1324H9.66696L16.6059 29.5909L18.0887 32.2497L13.0422 42.1324H14.0908L18.613 33.2314L20.1941 36.0866L17.081 42.1324H18.1051L20.7102 37.0193L22.3077 39.8908L21.1936 42.1324H22.2832L22.8402 40.9053L23.5284 42.1324H24.577L13.0258 21.1971L24.577 0.0818176H23.512L22.7747 1.43169L22.1193 0.0818176H21.0543L22.2258 2.35615L20.6283 5.21952L17.9576 0.0818176H16.9581L20.0958 6.19306L18.5966 8.99098L13.9843 0.0818176H12.862L18.0395 10.0382L16.524 12.7297L9.56046 0.0818176H8.43811L16.016 13.6215L14.4185 16.5585L5.34141 0.0818176H4.26002L13.8696 17.4911L12.2885 20.2808L1.14693 0.0818176Z" fill="black"/>
<path d="M16.2046 21.1971L27.8132 0.0818176H28.8372L17.3269 21.1889L28.9601 42.1324H27.8541L16.2046 21.1971Z" fill="black"/>
<path d="M20.4644 21.1971L32.0729 0.0818176H33.0969L21.5867 21.1889L33.2198 42.1324H32.1139L20.4644 21.1971Z" fill="black"/>
<path d="M24.7246 21.1971L36.3332 0.0818176H37.3572L25.847 21.1889L37.4801 42.1324H36.3741L24.7246 21.1971Z" fill="black"/>
<path d="M28.9844 21.1971L40.5929 0.0818176H41.617L30.1067 21.1889L41.7399 42.1324H40.6339L28.9844 21.1971Z" fill="black"/>
<path d="M33.2446 21.1971L44.8532 0.0818176H45.8772L34.367 21.1889L46.0001 42.1324H44.8941L33.2446 21.1971Z" fill="black"/>
<path d="M0.852214 49.5203C0.786676 49.4548 0.753906 49.3812 0.753906 49.283V44.7425C0.753906 44.6525 0.786676 44.5707 0.852214 44.5053C0.917753 44.4398 0.991484 44.4071 1.08979 44.4071C1.17991 44.4071 1.26183 44.4398 1.32737 44.5053C1.39291 44.5707 1.42568 44.6525 1.42568 44.7425V46.6978H4.21927V44.7425C4.21927 44.6525 4.25204 44.5707 4.31757 44.5053C4.38311 44.4398 4.45684 44.4071 4.55515 44.4071C4.64527 44.4071 4.72719 44.4398 4.79273 44.5053C4.85827 44.5707 4.89104 44.6525 4.89104 44.7425V49.283C4.89104 49.373 4.85827 49.4548 4.79273 49.5203C4.72719 49.5857 4.64527 49.6184 4.55515 49.6184C4.46504 49.6184 4.38311 49.5857 4.31757 49.5203C4.25204 49.4548 4.21927 49.3812 4.21927 49.283V47.3277H1.42568V49.283C1.42568 49.373 1.39291 49.4548 1.32737 49.5203C1.26183 49.5857 1.17991 49.6184 1.08979 49.6184C0.991484 49.6184 0.917753 49.5857 0.852214 49.5203Z" fill="black"/>
<path d="M9.00369 49.5199C8.93815 49.4545 8.91357 49.3808 8.91357 49.2827C8.91357 49.2417 8.92177 49.1927 8.94634 49.1354L10.8306 44.7013C10.8715 44.6113 10.9289 44.5376 10.9944 44.4804C11.0682 44.4231 11.1501 44.3986 11.2566 44.3986H11.3303C11.4368 44.3986 11.5187 44.4231 11.5925 44.4804C11.6662 44.5376 11.7154 44.6113 11.7563 44.7013L13.6324 49.1354C13.6569 49.1927 13.6651 49.2417 13.6651 49.2827C13.6651 49.3726 13.6324 49.4545 13.575 49.5199C13.5095 49.5853 13.4357 49.6181 13.3374 49.6181C13.2719 49.6181 13.2064 49.6017 13.149 49.5608C13.0917 49.5199 13.0507 49.4708 13.0179 49.4135L12.5346 48.2682H10.0277L9.55258 49.4135C9.51981 49.479 9.47885 49.5281 9.4215 49.5608C9.36415 49.5935 9.29861 49.6181 9.23307 49.6181C9.14296 49.6181 9.06104 49.5853 9.00369 49.5199ZM10.2981 47.6464H12.2888L11.2975 45.2576L10.2981 47.6464Z" fill="black"/>
<path d="M18.5313 49.3317C18.138 49.119 17.8349 48.8081 17.6137 48.4155C17.3925 48.0146 17.2778 47.5483 17.2778 47.0165C17.2778 46.4847 17.3925 46.0102 17.6137 45.6175C17.8349 45.2167 18.1462 44.914 18.5313 44.7013C18.9245 44.4886 19.3669 44.3822 19.8584 44.3822C20.1943 44.3822 20.4892 44.4231 20.7514 44.4967C21.0135 44.5785 21.2757 44.6849 21.5378 44.8322C21.6444 44.8894 21.7017 44.9876 21.7017 45.1103C21.7017 45.1839 21.6771 45.2494 21.6198 45.3067C21.5624 45.3639 21.4969 45.3885 21.4068 45.3885C21.3576 45.3885 21.3167 45.3803 21.2757 45.3557C21.0627 45.2412 20.8497 45.1594 20.6449 45.1021C20.4401 45.0449 20.2025 45.0121 19.9322 45.0121C19.5061 45.0121 19.1457 45.1021 18.8508 45.2739C18.5558 45.4457 18.3265 45.683 18.179 45.9857C18.0315 46.2884 17.9578 46.632 17.9578 47.0165C17.9578 47.401 18.0315 47.7446 18.179 48.0473C18.3265 48.35 18.5558 48.5873 18.8508 48.7591C19.1457 48.9309 19.5061 49.0209 19.9322 49.0209C20.2025 49.0209 20.4401 48.9881 20.6449 48.9309C20.8497 48.8736 21.0627 48.7836 21.2757 48.6691C21.3167 48.6527 21.3576 48.6363 21.4068 48.6363C21.4969 48.6363 21.5624 48.6609 21.6198 48.7182C21.6771 48.7754 21.7017 48.8409 21.7017 48.9145C21.7017 49.0454 21.6444 49.1354 21.5378 49.1927C21.2757 49.3399 21.0135 49.4545 20.7514 49.5281C20.4892 49.6099 20.1861 49.6426 19.8584 49.6426C19.3669 49.6508 18.9245 49.5444 18.5313 49.3317Z" fill="black"/>
<path d="M25.7404 49.5199C25.6749 49.4544 25.6421 49.3808 25.6421 49.2826V44.7422C25.6421 44.6522 25.6749 44.5704 25.7404 44.5049C25.8059 44.4395 25.8797 44.4067 25.978 44.4067C26.0681 44.4067 26.15 44.4395 26.2156 44.5049C26.2811 44.5704 26.3139 44.6522 26.3139 44.7422V47.0819L28.8371 44.5213C28.9026 44.4395 28.9928 44.4067 29.0911 44.4067C29.173 44.4067 29.2467 44.4313 29.3123 44.4885C29.3696 44.5458 29.4024 44.6113 29.4024 44.7013C29.4024 44.7994 29.3778 44.8731 29.3204 44.9303L27.6083 46.6156L29.5662 49.0781C29.6236 49.1436 29.6481 49.2172 29.6481 49.2908C29.6563 49.3808 29.6236 49.4544 29.558 49.5199C29.4925 49.5853 29.4188 49.6181 29.3204 49.6181C29.2058 49.6181 29.1156 49.5772 29.0583 49.4872L27.1577 47.0656L26.3139 47.9164V49.2908C26.3139 49.3808 26.2811 49.4626 26.2156 49.5281C26.15 49.5935 26.0681 49.6262 25.978 49.6262C25.8797 49.6181 25.8059 49.5853 25.7404 49.5199Z" fill="black"/>
<path d="M33.2366 49.5199C33.1711 49.4545 33.1465 49.389 33.1465 49.299C33.1465 49.2172 33.1711 49.1518 33.212 49.0945L34.916 47.0001L33.2284 44.9221C33.1874 44.8649 33.1629 44.7912 33.1629 44.7176C33.1629 44.6276 33.1956 44.5458 33.253 44.4885C33.3185 44.4231 33.3923 44.3986 33.4824 44.3986C33.5397 44.3986 33.5889 44.4149 33.638 44.4313C33.6872 44.4558 33.7281 44.4885 33.7527 44.5295L35.3093 46.5011L36.8658 44.5131C36.9232 44.4313 36.9969 44.3986 37.1116 44.3986C37.2017 44.3986 37.2754 44.4313 37.341 44.4885C37.4065 44.554 37.4393 44.6276 37.4393 44.7094C37.4393 44.7749 37.4229 44.8403 37.3819 44.8894L35.6779 46.992L37.3819 49.0863C37.4229 49.1354 37.4475 49.2008 37.4475 49.2745C37.4475 49.3645 37.4147 49.4463 37.3574 49.5117C37.2918 49.5772 37.2181 49.6099 37.1198 49.6099C37.0133 49.6099 36.9232 49.5608 36.8576 49.4708L35.2765 47.491L33.72 49.479C33.6462 49.569 33.5561 49.6099 33.466 49.6099C33.3677 49.6181 33.2939 49.5854 33.2366 49.5199Z" fill="#7D4C9E"/>
<path d="M41.3225 49.5199C41.257 49.4545 41.2324 49.389 41.2324 49.299C41.2324 49.2172 41.257 49.1518 41.298 49.0945L43.002 47.0001L41.3143 44.9221C41.2734 44.8649 41.2488 44.7912 41.2488 44.7176C41.2488 44.6276 41.2816 44.5458 41.3389 44.4885C41.4045 44.4231 41.4782 44.3986 41.5683 44.3986C41.6257 44.3986 41.6748 44.4149 41.724 44.4313C41.7731 44.4558 41.8141 44.4885 41.8387 44.5295L43.3952 46.5011L44.9517 44.5131C45.0091 44.4313 45.0828 44.3986 45.1975 44.3986C45.2876 44.3986 45.3614 44.4313 45.4269 44.4885C45.4924 44.554 45.5252 44.6276 45.5252 44.7094C45.5252 44.7749 45.5088 44.8403 45.4679 44.8894L43.7639 46.992L45.4679 49.0863C45.5088 49.1354 45.5334 49.2008 45.5334 49.2745C45.5334 49.3645 45.5006 49.4463 45.4433 49.5117C45.3777 49.5772 45.304 49.6099 45.2057 49.6099C45.0992 49.6099 45.0091 49.5608 44.9436 49.4708L43.3624 47.491L41.8059 49.479C41.7322 49.569 41.642 49.6099 41.5519 49.6099C41.4536 49.6181 41.3799 49.5854 41.3225 49.5199Z" fill="#7D4C9E"/>
</g>
<defs>
<clipPath id="clip0">
<rect width="46" height="49.6508" fill="white"/>
</clipPath>
</defs>
</svg>
