<svg width="67" height="67" viewBox="0 0 67 67" fill="none" xmlns="http://www.w3.org/2000/svg">
<path d="M33.5 67C52.0015 67 67 52.0015 67 33.5C67 14.9985 52.0015 0 33.5 0C14.9985 0 0 14.9985 0 33.5C0 52.0015 14.9985 67 33.5 67Z" fill="#8E44AD"/>
<path d="M33.4931 19.1534C38.1667 19.1534 38.7153 19.1742 40.5625 19.2576C42.2708 19.334 43.1944 19.6188 43.8125 19.8619C44.6319 20.1814 45.2153 20.5565 45.8264 21.1677C46.4375 21.7789 46.8194 22.3624 47.1319 23.182C47.3681 23.8002 47.6597 24.724 47.7361 26.4326C47.8194 28.2802 47.8403 28.8289 47.8403 33.5035C47.8403 38.178 47.8194 38.7267 47.7361 40.5743C47.6597 42.283 47.375 43.2068 47.1319 43.825C46.8125 44.6446 46.4375 45.228 45.8264 45.8393C45.2153 46.4505 44.6319 46.8325 43.8125 47.1451C43.1944 47.3812 42.2708 47.673 40.5625 47.7494C38.7153 47.8327 38.1667 47.8535 33.4931 47.8535C28.8194 47.8535 28.2708 47.8327 26.4236 47.7494C24.7153 47.673 23.7917 47.3882 23.1736 47.1451C22.3542 46.8256 21.7708 46.4505 21.1597 45.8393C20.5486 45.228 20.1667 44.6446 19.8542 43.825C19.6181 43.2068 19.3264 42.283 19.25 40.5743C19.1667 38.7267 19.1458 38.178 19.1458 33.5035C19.1458 28.8289 19.1667 28.2802 19.25 26.4326C19.3264 24.724 19.6111 23.8002 19.8542 23.182C20.1736 22.3624 20.5486 21.7789 21.1597 21.1677C21.7708 20.5565 22.3542 20.1744 23.1736 19.8619C23.7917 19.6257 24.7153 19.334 26.4236 19.2576C28.2708 19.1673 28.8194 19.1534 33.4931 19.1534ZM33.4931 16C28.7431 16 28.1458 16.0208 26.2778 16.1042C24.4167 16.1875 23.1458 16.4862 22.0347 16.9168C20.8819 17.3614 19.9097 17.9657 18.9375 18.9381C17.9653 19.9105 17.3681 20.8899 16.9167 22.0359C16.4861 23.1473 16.1875 24.4183 16.1042 26.2868C16.0208 28.1482 16 28.7456 16 33.4965C16 38.2475 16.0208 38.8448 16.1042 40.7132C16.1875 42.5747 16.4861 43.8458 16.9167 44.9641C17.3611 46.1171 17.9653 47.0895 18.9375 48.0619C19.9097 49.0343 20.8889 49.6317 22.0347 50.0831C23.1458 50.5138 24.4167 50.8125 26.2847 50.8958C28.1528 50.9792 28.7431 51 33.5 51C38.2569 51 38.8472 50.9792 40.7153 50.8958C42.5764 50.8125 43.8472 50.5138 44.9653 50.0831C46.1181 49.6386 47.0903 49.0343 48.0625 48.0619C49.0347 47.0895 49.6319 46.1101 50.0833 44.9641C50.5139 43.8527 50.8125 42.5817 50.8958 40.7132C50.9792 38.8448 51 38.2544 51 33.4965C51 28.7386 50.9792 28.1482 50.8958 26.2798C50.8125 24.4183 50.5139 23.1473 50.0833 22.029C49.6389 20.876 49.0347 19.9036 48.0625 18.9311C47.0903 17.9587 46.1111 17.3614 44.9653 16.9099C43.8542 16.4793 42.5833 16.1806 40.7153 16.0972C38.8403 16.0208 38.2431 16 33.4931 16Z" fill="white"/>
<path d="M33.5 23.875C28.1891 23.875 23.875 28.1817 23.875 33.5C23.875 38.8183 28.1891 43.125 33.5 43.125C38.8109 43.125 43.125 38.8109 43.125 33.5C43.125 28.1891 38.8109 23.875 33.5 23.875ZM33.5 39.7481C30.0487 39.7481 27.2519 36.9513 27.2519 33.5C27.2519 30.0487 30.0487 27.2519 33.5 27.2519C36.9513 27.2519 39.7481 30.0487 39.7481 33.5C39.7481 36.9513 36.9513 39.7481 33.5 39.7481Z" fill="white"/>
<path d="M42.6875 26.5C43.8956 26.5 44.875 25.5206 44.875 24.3125C44.875 23.1044 43.8956 22.125 42.6875 22.125C41.4794 22.125 40.5 23.1044 40.5 24.3125C40.5 25.5206 41.4794 26.5 42.6875 26.5Z" fill="white"/>
</svg>
