<?xml version="1.0" encoding="utf-8"?>
<!-- Generator: Adobe Illustrator 22.1.0, SVG Export Plug-In . SVG Version: 6.00 Build 0)  -->
<svg version="1.1" id="Layer_1" xmlns="http://www.w3.org/2000/svg" xmlns:xlink="http://www.w3.org/1999/xlink" x="0px" y="0px"
	 viewBox="0 0 346 41" style="enable-background:new 0 0 346 41;" xml:space="preserve">
<style type="text/css">
	.st0{fill:#8E44AD;}
</style>
<g>
	<path d="M0.7,40C0.2,39.5,0,38.8,0,38.2V2.9c0-0.7,0.2-1.4,0.7-1.9c0.5-0.5,1.1-0.7,1.8-0.7c0.7,0,1.4,0.2,1.9,0.7
		c0.5,0.5,0.7,1.1,0.7,1.9v15.2h21.5V2.9c0-0.7,0.2-1.4,0.7-1.9c0.5-0.5,1.1-0.7,1.8-0.7c0.7,0,1.4,0.2,1.9,0.7
		c0.5,0.5,0.7,1.1,0.7,1.9v35.3c0,0.7-0.2,1.3-0.7,1.8c-0.5,0.5-1.1,0.7-1.9,0.7s-1.3-0.2-1.8-0.7c-0.5-0.5-0.7-1.1-0.7-1.8V23H5.2
		v15.2c0,0.7-0.2,1.3-0.7,1.8c-0.5,0.5-1.1,0.7-1.9,0.7C1.9,40.8,1.2,40.5,0.7,40z"/>
	<path d="M63.6,40c-0.5-0.5-0.7-1.1-0.7-1.8c0-0.3,0.1-0.7,0.3-1.1L77.7,2.7C78,2,78.4,1.5,79,1c0.6-0.4,1.2-0.6,2-0.6h0.6
		c0.8,0,1.5,0.2,2,0.6c0.6,0.4,1,1,1.3,1.7L99.4,37c0.2,0.5,0.3,0.8,0.3,1.1c0,0.7-0.2,1.3-0.7,1.8c-0.5,0.5-1.1,0.7-1.9,0.7
		c-0.6,0-1.1-0.2-1.5-0.4c-0.4-0.3-0.7-0.6-1-1.1L91,30.2H71.6l-3.7,8.9c-0.2,0.5-0.6,0.9-1,1.1c-0.4,0.3-0.9,0.4-1.5,0.4
		C64.7,40.8,64.1,40.5,63.6,40z M73.6,25.5H89L81.3,7L73.6,25.5z"/>
	<path d="M137.2,38.6c-3-1.6-5.4-4.1-7.1-7.1c-1.7-3.1-2.6-6.7-2.6-10.9c0-4.1,0.9-7.8,2.6-10.9c1.7-3.1,4.1-5.4,7.1-7.1
		c3-1.6,6.4-2.5,10.2-2.5c2.6,0,4.9,0.3,6.9,0.9c2,0.6,4,1.5,6.1,2.6c0.8,0.5,1.2,1.2,1.2,2.2c0,0.6-0.2,1.1-0.6,1.5
		c-0.4,0.4-1,0.6-1.6,0.6c-0.4,0-0.7-0.1-1.1-0.2c-1.7-0.9-3.3-1.5-4.9-2C151.8,5.1,150,5,147.9,5c-3.2,0-6.1,0.6-8.3,2
		c-2.3,1.4-4,3.2-5.2,5.5c-1.1,2.4-1.7,5-1.7,8s0.6,5.6,1.7,8c1.1,2.4,2.9,4.2,5.2,5.5c2.3,1.4,5.1,2,8.3,2c2.1,0,3.9-0.2,5.5-0.7
		c1.6-0.5,3.2-1.1,4.9-2c0.3-0.2,0.6-0.2,1.1-0.2c0.6,0,1.2,0.2,1.6,0.6c0.4,0.4,0.6,0.9,0.6,1.5c0,1-0.4,1.7-1.2,2.2
		c-2,1.1-4,2-6.1,2.6s-4.4,0.9-6.9,0.9C143.6,41,140.2,40.2,137.2,38.6z"/>
	<path d="M192.8,40c-0.5-0.5-0.7-1.1-0.7-1.8V2.9c0-0.7,0.2-1.4,0.7-1.9c0.5-0.5,1.1-0.7,1.8-0.7c0.7,0,1.4,0.2,1.9,0.7
		c0.5,0.5,0.7,1.1,0.7,1.9V21l19.4-19.9c0.6-0.6,1.2-0.9,1.9-0.9c0.6,0,1.2,0.2,1.7,0.6c0.5,0.4,0.7,1,0.7,1.6
		c0,0.7-0.2,1.4-0.6,1.8l-13,13.2l15.1,19.1c0.4,0.6,0.6,1.1,0.6,1.6c0,0.6-0.2,1.3-0.6,1.8c-0.5,0.5-1.1,0.7-1.8,0.7
		c-0.9,0-1.5-0.3-2-1.1L203.9,21l-6.5,6.6v10.6c0,0.7-0.2,1.3-0.7,1.8c-0.5,0.5-1.1,0.7-1.9,0.7C193.9,40.8,193.2,40.5,192.8,40z"/>
	<path class="st0" d="M250.6,40.1c-0.5-0.5-0.7-1.1-0.7-1.7c0-0.6,0.2-1.1,0.5-1.6l13.1-16.2l-13-16.1c-0.3-0.5-0.5-1-0.5-1.6
		c0-0.7,0.2-1.3,0.7-1.8c0.5-0.5,1.1-0.7,1.8-0.7c0.4,0,0.8,0.1,1.2,0.3c0.4,0.2,0.6,0.4,0.9,0.7l12,15.3l12-15.4
		c0.4-0.6,1.1-0.9,1.9-0.9c0.6,0,1.3,0.2,1.8,0.7s0.7,1.1,0.7,1.7c0,0.6-0.2,1-0.5,1.5l-13.1,16.2l13.1,16.2
		c0.3,0.4,0.5,0.9,0.5,1.5c0,0.7-0.2,1.3-0.7,1.8c-0.5,0.5-1.1,0.7-1.9,0.7c-0.8,0-1.5-0.3-2-1.1l-12.1-15.4l-12,15.4
		c-0.6,0.7-1.2,1.1-2,1.1C251.6,40.8,251.1,40.5,250.6,40.1z"/>
	<path class="st0" d="M313,40.1c-0.5-0.5-0.7-1.1-0.7-1.7c0-0.6,0.2-1.1,0.5-1.6l13.1-16.2l-13-16.1c-0.3-0.5-0.5-1-0.5-1.6
		c0-0.7,0.2-1.3,0.7-1.8s1.1-0.7,1.8-0.7c0.4,0,0.8,0.1,1.2,0.3c0.4,0.2,0.6,0.4,0.9,0.7l12,15.3l12-15.4c0.4-0.6,1.1-0.9,1.9-0.9
		c0.6,0,1.3,0.2,1.8,0.7c0.5,0.5,0.7,1.1,0.7,1.7c0,0.6-0.2,1-0.5,1.5l-13.1,16.2l13.1,16.2c0.3,0.4,0.5,0.9,0.5,1.5
		c0,0.7-0.2,1.3-0.7,1.8c-0.5,0.5-1.1,0.7-1.9,0.7c-0.8,0-1.5-0.3-2-1.1l-12.1-15.4l-12,15.4c-0.6,0.6-1.2,1.1-2,1.1
		C314,40.8,313.5,40.5,313,40.1z"/>
</g>
</svg>
