<svg width="327" height="72" viewBox="0 0 327 72" fill="none" xmlns="http://www.w3.org/2000/svg">
<g clip-path="url(#clip0)">
<path d="M124.907 51.7451C134.478 53.3316 145.299 51.3656 154.549 48.5717C159.517 47.071 170.748 44.8936 172.304 38.8861C171.615 39.7825 170.926 40.679 170.236 41.5754C175.921 38.1764 181.128 34.097 187.388 31.7598C192.884 29.7078 198.711 28.4223 204.556 27.9559C210.497 27.4819 216.554 27.661 222.384 28.963C225.063 29.5611 227.738 30.3257 230.259 31.4204C231.294 31.8701 237.167 35.3925 237.354 35.1058C234.176 39.968 241.965 44.4827 245.126 39.6482C252.392 28.5325 230.669 21.4283 223.423 20.0028C211.21 17.5999 198.017 18.5531 186.255 22.6298C180.365 24.6712 175.253 27.6591 170.056 31.0595C168.44 32.1168 166.081 33.0697 164.783 34.5078C164.549 34.8114 164.314 35.115 164.079 35.4186C163.315 37.0227 163.516 36.8748 164.683 34.9749C162.931 35.7145 161.317 36.7292 159.509 37.4135C155.861 38.7937 152.051 40.1644 148.229 40.982C141.636 42.392 134.027 44.1816 127.3 43.0665C121.634 42.1274 119.197 50.7986 124.907 51.7451Z" fill="#35CC1F"/>
<path d="M153.362 42.9407C151.23 48.0577 148.179 52.7795 144.51 56.9193C140.679 61.2401 147.022 67.6282 150.873 63.2833C155.649 57.8965 159.276 51.9675 162.041 45.3333C162.983 43.072 161.022 40.4079 158.898 39.7978C156.317 39.0566 154.292 40.7089 153.362 42.9407Z" fill="#35CC1F"/>
<path d="M164.826 34.1808C158.447 32.8463 152.804 30.2213 147.63 26.2627C145.685 24.7748 142.611 25.9763 141.473 27.8771C140.094 30.1779 141.167 32.565 143.087 34.0339C148.8 38.4042 155.395 41.3868 162.433 42.8593C168.085 44.0416 170.501 35.368 164.826 34.1808Z" fill="#35CC1F"/>
<path d="M176.073 51.3829C179.526 44.7132 181.498 37.695 182.098 30.2143C182.562 24.4404 173.559 24.4708 173.098 30.2143C172.629 36.0574 170.994 41.639 168.302 46.8404C165.643 51.9768 173.407 56.534 176.073 51.3829Z" fill="#35CC1F"/>
<path d="M176.767 28.5576C172.854 27.4236 169.656 24.9936 167.533 21.5131C164.521 16.5758 156.734 21.0928 159.762 26.0555C163.095 31.5204 168.223 35.4534 174.374 37.2361C179.948 38.8516 182.328 30.1694 176.767 28.5576Z" fill="#35CC1F"/>
<path d="M192.171 40.7968C191.237 37.5948 192.027 33.7647 194.819 31.6571C196.756 30.1953 197.763 27.7729 196.434 25.5003C195.318 23.5924 192.228 22.4129 190.277 23.8859C184.256 28.4304 181.335 35.7922 183.493 43.1893C185.111 48.7382 193.799 46.3773 192.171 40.7968Z" fill="#35CC1F"/>
<path d="M191.347 19.7463C184.373 18.0278 178.662 13.8867 174.972 7.70646C172.006 2.73806 164.222 7.25886 167.201 12.249C172.043 20.3585 179.77 26.1617 188.954 28.4249C194.577 29.8106 196.976 21.1337 191.347 19.7463Z" fill="#35CC1F"/>
<path d="M206.327 39.1171C205.495 35.1484 205.786 30.9346 207.383 27.1778C208.341 24.925 208.039 22.381 205.769 21.0209C203.889 19.8948 200.561 20.4019 199.612 22.6353C197 28.7781 196.273 34.9482 197.649 41.5097C198.836 47.175 207.514 44.7775 206.327 39.1171Z" fill="#35CC1F"/>
<path d="M207.248 19.7189C201.074 16.2859 196.171 11.445 192.679 5.3014C189.818 0.266303 182.039 4.7961 184.908 9.8439C189.124 17.2617 195.248 23.3435 202.706 27.4902C207.773 30.3073 212.317 22.537 207.248 19.7189Z" fill="#35CC1F"/>
<path d="M211.413 26.2873C208.614 31.4358 206.682 36.9195 205.811 42.7186C205.448 45.1404 206.42 47.5265 208.954 48.2541C211.074 48.8627 214.13 47.5107 214.49 45.1111C215.248 40.0574 216.741 35.3241 219.184 30.8298C221.951 25.7397 214.183 21.1915 211.413 26.2873Z" fill="#35CC1F"/>
<path d="M216.635 18.0711C214.445 16.0924 213.085 13.2868 213.622 10.2704C214.047 7.88029 212.975 5.42069 210.479 4.73489C208.303 4.13699 205.371 5.47239 204.943 7.87789C203.854 14.0008 205.578 20.1936 210.271 24.4351C214.559 28.3102 220.943 21.9646 216.635 18.0711Z" fill="#35CC1F"/>
<path d="M8.11287 43.664C88.5732 43.9967 169.035 44.0732 249.496 43.8721C272.506 43.8146 295.516 43.7338 318.527 43.631C328.176 43.5879 328.196 28.5878 318.527 28.631C238.129 28.9902 157.73 29.071 77.3306 28.8873C54.258 28.8345 31.1854 28.7594 8.11286 28.664C-1.54047 28.6241 -1.55301 43.6241 8.11287 43.664Z" fill="#AEF9D6"/>
<path d="M224.486 39.4511C227.944 37.5698 231.562 36.3861 235.439 35.7079C237.835 35.2888 239.182 32.3549 238.582 30.1724C237.887 27.6429 235.449 26.6091 233.047 27.0294C228.435 27.836 224.053 29.444 219.944 31.6799C214.854 34.4486 219.392 42.2225 224.486 39.4511Z" fill="#35CC1F"/>
<path d="M238.796 27.1031C237.707 22.7768 237.395 18.3315 238.092 13.9083C238.473 11.4891 237.471 9.09701 234.949 8.37281C232.815 7.76031 229.79 9.11951 229.413 11.5158C228.455 17.5965 228.611 23.5103 230.118 29.4956C231.53 35.109 240.213 32.7306 238.796 27.1031Z" fill="#35CC1F"/>
<path d="M224.573 29.7267C242.39 36.7297 257.634 49.2686 277.15 51.7633C294.368 53.9644 311.331 47.8889 324.045 36.2779C328.331 32.3637 321.953 26.0131 317.681 29.9139C305.901 40.6714 289.46 45.7387 273.753 42.0711C256.85 38.1244 242.932 27.3239 226.966 21.0482C221.573 18.9287 219.235 27.6285 224.573 29.7267Z" fill="#35CC1F"/>
<path d="M237.384 45.9874C240.721 44.4458 244.29 43.8118 247.947 43.8491C253.74 43.9082 253.745 34.9082 247.947 34.8491C242.64 34.7949 237.642 35.9985 232.841 38.2162C230.635 39.2354 230.084 42.4194 231.227 44.373C232.551 46.6371 235.169 47.0104 237.384 45.9874Z" fill="#35CC1F"/>
<path d="M255.105 37.3697C251.625 32.2755 249.512 26.8601 248.566 20.7649C247.68 15.0589 239.007 17.4821 239.887 23.1575C240.934 29.9014 243.485 36.2785 247.334 41.9121C250.582 46.6661 258.384 42.1691 255.105 37.3697Z" fill="#35CC1F"/>
<path d="M256.687 58.0119C262.835 54.8049 269.439 52.7344 276.343 51.9977C282.043 51.3895 282.105 42.3829 276.343 42.9977C267.791 43.9103 259.776 46.2594 252.144 50.2407C247.007 52.9205 251.552 60.6903 256.687 58.0119Z" fill="#35CC1F"/>
<path d="M281.426 44.3533C274.904 39.2252 270.535 32.1439 269.684 23.8006C269.103 18.0942 260.097 18.0343 260.684 23.8006C261.768 34.4372 266.587 44.0533 275.062 50.7172C279.565 54.2584 285.977 47.9322 281.426 44.3533Z" fill="#35CC1F"/>
<path d="M283.858 63.8474C292.153 59.152 299.597 53.1804 305.944 46.0668C309.789 41.757 303.445 35.3702 299.58 39.7028C293.705 46.287 286.996 51.7288 279.315 56.0761C274.275 58.929 278.805 66.7071 283.858 63.8474Z" fill="#35CC1F"/>
<path d="M302.995 38.3548C297.307 36.218 291.878 33.2361 287.07 29.5103C282.546 26.0055 276.131 32.3299 280.706 35.8742C286.828 40.6179 293.347 44.3076 300.603 47.0333C306.031 49.0726 308.376 40.3762 302.995 38.3548Z" fill="#35CC1F"/>
<path d="M316.514 57.0251C319.967 49.9779 322.801 42.687 324.939 35.1354C326.52 29.5531 317.839 27.1702 316.261 32.7429C314.331 39.5572 311.859 46.1208 308.743 52.4826C306.204 57.6645 313.963 62.2314 316.514 57.0251Z" fill="#35CC1F"/>
<path d="M321.5 28.5947C320.5 28.5947 310.85 26.5281 306.368 22.1807C302.208 18.1463 295.837 24.5032 300.004 28.5446C305.516 33.8908 312.383 37.5005 319.985 38.7183C322.11 39.0587 324.5 42.5947 326.5 42.5947C326.5 40.5947 326.5 33.5947 326.5 31.5947C326.5 31.5947 323.5 28.5947 321.5 28.5947Z" fill="#35CC1F"/>
<path d="M134.53 42.7313C122.401 43.936 110.025 44.02 97.9797 41.9594C85.9331 39.8986 75.3105 35.4613 64.6049 29.7233C55.181 24.6723 45.5745 19.8265 34.7664 18.8359C22.9915 17.7568 5.5 28.5937 5.5 28.5937C5.5 28.5937 2.5 30.5937 0.5 31.5937C0.5 34.5937 0.5 39.5937 0.5 42.5937C0.78082 42.7341 7.02764 44.0519 7.5 43.5937C7.74014 43.3607 7.15554 40.5134 7.42339 40.189C8.7985 38.5239 5.44199 36.9361 6.35988 36.3149C16.0199 29.7769 27.3004 25.9185 38.9855 28.5332C49.598 30.9079 58.7703 37.1113 68.4022 41.8555C88.8427 51.9234 112.097 53.9596 134.53 51.7313C140.24 51.1641 140.299 42.1583 134.53 42.7313Z" fill="#35CC1F"/>
<path d="M19.724 48.2544C18.9984 41.3652 19.6795 34.8144 21.8688 28.2407C23.703 22.733 15.0143 20.371 13.1903 25.8481C10.775 33.1005 9.92312 40.6505 10.724 48.2544C11.3245 53.956 20.331 54.0175 19.724 48.2544Z" fill="#35CC1F"/>
<path d="M18.5002 21.5938C12.022 21.0389 12.5236 20.7315 7.50024 16.5938C3.06296 12.939 -1.97562 18.9072 2.50024 22.5938C9.49916 28.3587 9.20518 28.818 18.2451 29.5923C24.0152 30.0865 26.2374 22.0853 20.5002 21.5938H18.5002Z" fill="#35CC1F"/>
<path d="M32.3726 44.6343C31.5847 37.5799 33.2954 31.3157 37.5525 25.6353C41.0272 20.9988 33.2174 16.5078 29.7812 21.0928C24.7292 27.8339 22.4377 36.263 23.3726 44.6343C24.0084 50.3265 33.0156 50.3911 32.3726 44.6343Z" fill="#35CC1F"/>
<path d="M37.158 19.4107C32.4661 14.365 28.4503 8.8696 25.0223 2.8942C22.1408 -2.1288 14.3613 2.39929 17.2511 7.43669C21.0485 14.056 25.598 20.1867 30.794 25.7747C34.7466 30.0254 41.1001 23.6502 37.158 19.4107Z" fill="#35CC1F"/>
<path d="M46.8263 42.134C48.0208 39.081 50.7911 36.7774 53.8759 35.8347C59.3992 34.1469 57.0442 25.4569 51.4834 27.1562C45.1687 29.0859 40.5343 33.6422 38.1478 39.7415C37.262 42.0054 39.1212 44.6808 41.2908 45.277C43.8407 45.9776 45.9372 44.4062 46.8263 42.134Z" fill="#35CC1F"/>
<path d="M59.0432 28.184C54.6066 22.0257 51.4284 15.4306 49.4763 8.092C47.9888 2.5001 39.3049 4.87211 40.7978 10.4846C42.9296 18.4985 46.4236 25.9966 51.272 32.7265C54.6269 37.3832 62.4374 32.8953 59.0432 28.184Z" fill="#35CC1F"/>
<path d="M59.7298 49.3727C63.5142 46.4209 67.7561 44.0665 72.1501 42.1606C74.3802 41.1934 74.8868 37.9224 73.7645 36.0038C72.4174 33.7007 69.8464 33.4184 67.6077 34.3894C62.4447 36.6288 57.7961 39.5533 53.3659 43.0087C51.4479 44.5047 51.796 47.8028 53.3659 49.3727C55.2593 51.2661 57.8068 50.8726 59.7298 49.3727Z" fill="#35CC1F"/>
<path d="M76.1635 37.9783C73.7603 30.395 71.6936 22.7294 69.9589 14.9656C68.6965 9.31548 60.0177 11.7067 61.2804 17.3582C63.015 25.1218 65.0818 32.7874 67.485 40.3709C69.2284 45.8722 77.9203 43.5219 76.1635 37.9783Z" fill="#35CC1F"/>
<path d="M69.6039 60.6846C75.7848 55.5021 82.8039 51.6388 90.4556 49.1057C95.928 47.294 93.5835 38.5996 88.063 40.4272C78.8761 43.4685 70.6508 48.1069 63.24 54.3206C58.7966 58.0463 65.1917 64.3841 69.6039 60.6846Z" fill="#35CC1F"/>
<path d="M94.8579 43.9026C91.9086 34.9149 85.1222 26.6693 84.823 16.9904C84.6445 11.2125 75.6437 11.1875 75.823 16.9904C76.1603 27.9015 82.8898 36.2705 86.1794 46.2951C87.9772 51.7736 96.6711 49.4279 94.8579 43.9026Z" fill="#35CC1F"/>
<path d="M90.9447 64.7644C98.4807 60.1766 105.96 55.179 114.144 51.7997C119.422 49.6201 117.109 40.9089 111.751 43.1212C102.791 46.8211 94.6586 51.9669 86.4022 56.9932C81.462 60.0007 85.9793 67.7873 90.9447 64.7644Z" fill="#35CC1F"/>
<path d="M118.162 43.6227C113.633 39.593 109.104 35.5633 104.575 31.5336C100.26 27.6949 93.8732 34.0381 98.2111 37.8976C102.74 41.9273 107.269 45.957 111.798 49.9867C116.113 53.8254 122.5 47.4822 118.162 43.6227Z" fill="#35CC1F"/>
<path d="M136.584 45.4798C128.043 50.7059 120.143 56.8462 112.977 63.8389C108.824 67.8908 115.191 74.2523 119.341 70.2029C125.978 63.7272 133.218 58.0904 141.126 53.251C146.059 50.2327 141.543 42.4456 136.584 45.4798Z" fill="#35CC1F"/>
<path d="M141.122 42.8935C132.016 37.0959 124.83 29.2637 119.691 19.782C116.931 14.688 109.157 19.2263 111.92 24.3245C117.782 35.1406 126.211 44.0629 136.579 50.6648C141.48 53.7847 145.999 45.9988 141.122 42.8935Z" fill="#35CC1F"/>
<path d="M3.11451 41.7853C2.67793 42.5323 2.28743 43.3009 1.94158 44.0941C1.69066 44.6695 1.54087 45.1964 1.71476 45.8278C1.85848 46.3497 2.26202 46.9153 2.74877 47.1725C3.72153 47.6865 5.32492 47.5172 5.82721 46.3653C6.17305 45.5722 6.56354 44.8036 7.00013 44.0565C7.5944 43.0397 7.2672 41.5457 6.19295 40.9781C5.11445 40.4083 3.74899 40.6997 3.11451 41.7853Z" fill="#35CC1F"/>
<path d="M8.50077 45.1516C7.01884 42.6774 5.48824 40.234 3.90867 37.8209C2.85543 36.2119 0.256728 37.7134 1.31826 39.3351C2.89783 41.7482 4.42843 44.1916 5.91036 46.6658C6.90137 48.3204 9.49622 46.8137 8.50077 45.1516Z" fill="#35CC1F"/>
<path d="M3.71637 43.5448C3.75788 43.1186 3.69593 42.659 3.541 42.2597C3.24807 41.505 2.53369 40.9818 1.69582 41.2121C0.975058 41.4102 0.353448 42.2979 0.648158 43.0573C0.662758 43.0949 0.760148 43.4499 0.737678 43.2934C0.717958 43.1561 0.717158 43.5367 0.716358 43.5448C0.640069 44.3282 1.46076 45.0786 2.21636 45.0448C3.09427 45.0055 3.63464 44.384 3.71637 43.5448Z" fill="#35CC1F"/>
</g>
<defs>
<clipPath id="clip0">
<rect width="71" height="326" fill="white" transform="translate(0.5 71.5) rotate(-90)"/>
</clipPath>
</defs>
</svg>
