<svg width="71" height="326" viewBox="0 0 71 326" fill="none" xmlns="http://www.w3.org/2000/svg">
<g id="TAIL">
<g id="Group">
<g id="SEAWEED-LOWER">
<g id="Group_2">
<g id="Group_3">
<path id="Vector" d="M19.7549 124.407C18.1684 133.978 20.1344 144.799 22.9283 154.049C24.429 159.017 26.6064 170.248 32.6139 171.804C31.7175 171.115 30.821 170.426 29.9246 169.736C33.3236 175.421 37.403 180.628 39.7402 186.888C41.7922 192.384 43.0777 198.211 43.5441 204.056C44.0181 209.997 43.839 216.054 42.537 221.884C41.9389 224.563 41.1743 227.238 40.0796 229.759C39.6299 230.794 36.1075 236.667 36.3942 236.854C31.532 233.676 27.0173 241.465 31.8518 244.626C42.9675 251.892 50.0717 230.169 51.4972 222.923C53.9001 210.71 52.9469 197.517 48.8702 185.755C46.8288 179.865 43.8409 174.753 40.4405 169.556C39.3832 167.94 38.4303 165.581 36.9922 164.283C36.6886 164.049 36.385 163.814 36.0814 163.579C34.4773 162.815 34.6252 163.016 36.5251 164.183C35.7855 162.431 34.7708 160.817 34.0865 159.009C32.7063 155.361 31.3356 151.551 30.518 147.729C29.108 141.136 27.3184 133.527 28.4335 126.8C29.3726 121.134 20.7014 118.697 19.7549 124.407Z" fill="#35CC1F"/>
</g>
<g id="Group_4">
<path id="Vector_2" d="M28.5593 152.862C23.4423 150.73 18.7205 147.679 14.5807 144.01C10.2599 140.179 3.87185 146.522 8.2167 150.373C13.6035 155.149 19.5325 158.776 26.1667 161.541C28.428 162.483 31.0921 160.522 31.7022 158.398C32.4434 155.817 30.7911 153.792 28.5593 152.862Z" fill="#35CC1F"/>
</g>
<g id="Group_5">
<path id="Vector_3" d="M37.3192 164.326C38.6537 157.947 41.2787 152.304 45.2373 147.13C46.7252 145.185 45.5237 142.111 43.6229 140.973C41.3221 139.594 38.935 140.667 37.4661 142.587C33.0958 148.3 30.1132 154.895 28.6407 161.933C27.4584 167.585 36.132 170.001 37.3192 164.326Z" fill="#35CC1F"/>
</g>
<g id="Group_6">
<path id="Vector_4" d="M20.1171 175.573C26.7868 179.026 33.805 180.998 41.2857 181.598C47.0596 182.062 47.0292 173.059 41.2857 172.598C35.4426 172.129 29.861 170.494 24.6596 167.802C19.5232 165.143 14.966 172.907 20.1171 175.573Z" fill="#35CC1F"/>
</g>
<g id="Group_7">
<path id="Vector_5" d="M42.9424 176.267C44.0764 172.354 46.5064 169.156 49.9869 167.033C54.9242 164.021 50.4072 156.234 45.4445 159.262C39.9796 162.595 36.0466 167.723 34.2639 173.874C32.6484 179.448 41.3306 181.828 42.9424 176.267Z" fill="#35CC1F"/>
</g>
<g id="Group_8">
<path id="Vector_6" d="M30.7032 191.671C33.9052 190.737 37.7353 191.527 39.8429 194.319C41.3047 196.256 43.7271 197.263 45.9997 195.934C47.9076 194.818 49.0871 191.728 47.6141 189.777C43.0696 183.756 35.7078 180.835 28.3107 182.993C22.7618 184.611 25.1227 193.299 30.7032 191.671Z" fill="#35CC1F"/>
</g>
<g id="Group_9">
<path id="Vector_7" d="M51.7537 190.847C53.4722 183.873 57.6133 178.162 63.7935 174.472C68.7619 171.506 64.2411 163.722 59.251 166.701C51.1415 171.543 45.3383 179.27 43.0751 188.454C41.6894 194.077 50.3663 196.476 51.7537 190.847Z" fill="#35CC1F"/>
</g>
<g id="Group_10">
<path id="Vector_8" d="M32.3829 205.827C36.3516 204.995 40.5654 205.286 44.3222 206.883C46.575 207.841 49.119 207.539 50.4791 205.269C51.6052 203.389 51.0981 200.061 48.8647 199.112C42.7219 196.5 36.5518 195.773 29.9903 197.149C24.325 198.336 26.7225 207.014 32.3829 205.827Z" fill="#35CC1F"/>
</g>
<g id="Group_11">
<path id="Vector_9" d="M51.7811 206.748C55.2141 200.574 60.055 195.671 66.1986 192.179C71.2337 189.318 66.7039 181.539 61.6561 184.408C54.2383 188.624 48.1565 194.748 44.0098 202.206C41.1927 207.273 48.963 211.817 51.7811 206.748Z" fill="#35CC1F"/>
</g>
<g id="Group_12">
<path id="Vector_10" d="M45.2127 210.913C40.0642 208.114 34.5805 206.182 28.7814 205.311C26.3596 204.948 23.9735 205.92 23.2459 208.454C22.6373 210.574 23.9893 213.63 26.3889 213.99C31.4426 214.748 36.1759 216.241 40.6702 218.684C45.7603 221.451 50.3085 213.683 45.2127 210.913Z" fill="#35CC1F"/>
</g>
<g id="Group_13">
<path id="Vector_11" d="M53.4289 216.135C55.4076 213.945 58.2132 212.585 61.2296 213.122C63.6197 213.547 66.0793 212.475 66.7651 209.979C67.363 207.803 66.0276 204.871 63.6221 204.443C57.4992 203.354 51.3064 205.078 47.0649 209.771C43.1898 214.059 49.5354 220.443 53.4289 216.135Z" fill="#35CC1F"/>
</g>
</g>
<g id="Group_14">
<g id="Group_15">
<g id="Group_16">
<path id="Vector_12" d="M27.836 7.61336C27.5033 88.0737 27.4268 168.535 27.6279 248.996C27.6854 272.006 27.7662 295.016 27.869 318.027C27.9121 327.676 42.9122 327.696 42.869 318.027C42.5098 237.629 42.429 157.23 42.6127 76.8311C42.6655 53.7585 42.7406 30.6859 42.836 7.61335C42.8759 -2.03998 27.8759 -2.05252 27.836 7.61336Z" fill="#AEF9D6"/>
</g>
</g>
<g id="Group_17">
<g id="Group_18">
<path id="Vector_13" d="M32.0489 223.986C33.9302 227.444 35.1139 231.062 35.7921 234.939C36.2112 237.335 39.1451 238.682 41.3276 238.082C43.8571 237.387 44.8909 234.949 44.4706 232.547C43.664 227.935 42.056 223.553 39.8201 219.444C37.0514 214.354 29.2775 218.892 32.0489 223.986Z" fill="#35CC1F"/>
</g>
<g id="Group_19">
<path id="Vector_14" d="M44.3969 238.296C48.7232 237.207 53.1685 236.895 57.5917 237.592C60.0109 237.973 62.403 236.971 63.1272 234.449C63.7397 232.315 62.3805 229.29 59.9842 228.913C53.9035 227.955 47.9897 228.111 42.0044 229.618C36.391 231.03 38.7694 239.713 44.3969 238.296Z" fill="#35CC1F"/>
</g>
<g id="Group_20">
<path id="Vector_15" d="M41.7733 224.073C34.7703 241.89 22.2314 257.134 19.7367 276.65C17.5356 293.868 23.6111 310.831 35.2221 323.545C39.1363 327.831 45.4869 321.453 41.5861 317.181C30.8286 305.401 25.7613 288.96 29.4289 273.253C33.3756 256.35 44.1761 242.432 50.4518 226.466C52.5713 221.073 43.8715 218.735 41.7733 224.073Z" fill="#35CC1F"/>
</g>
<g id="Group_21">
<path id="Vector_16" d="M25.5126 236.884C27.0542 240.221 27.6882 243.79 27.6509 247.447C27.5918 253.24 36.5918 253.245 36.6509 247.447C36.7051 242.14 35.5015 237.142 33.2838 232.341C32.2646 230.135 29.0806 229.584 27.127 230.727C24.8629 232.051 24.4896 234.669 25.5126 236.884Z" fill="#35CC1F"/>
</g>
<g id="Group_22">
<path id="Vector_17" d="M34.1303 254.605C39.2245 251.125 44.6399 249.012 50.7351 248.066C56.4411 247.18 54.0179 238.507 48.3425 239.387C41.5986 240.434 35.2215 242.985 29.5879 246.834C24.8339 250.082 29.3309 257.884 34.1303 254.605Z" fill="#35CC1F"/>
</g>
<g id="Group_23">
<path id="Vector_18" d="M13.4881 256.187C16.6951 262.335 18.7656 268.939 19.5023 275.843C20.1105 281.543 29.1171 281.605 28.5023 275.843C27.5897 267.291 25.2406 259.276 21.2593 251.644C18.5795 246.507 10.8097 251.052 13.4881 256.187Z" fill="#35CC1F"/>
</g>
<g id="Group_24">
<path id="Vector_19" d="M27.1467 280.926C32.2748 274.404 39.3561 270.035 47.6994 269.184C53.4058 268.603 53.4657 259.597 47.6994 260.184C37.0628 261.268 27.4467 266.087 20.7828 274.562C17.2416 279.065 23.5678 285.477 27.1467 280.926Z" fill="#35CC1F"/>
</g>
<g id="Group_25">
<path id="Vector_20" d="M7.65262 283.358C12.348 291.653 18.3196 299.097 25.4332 305.444C29.743 309.289 36.1298 302.945 31.7972 299.08C25.213 293.205 19.7712 286.496 15.4239 278.815C12.571 273.775 4.79293 278.305 7.65262 283.358Z" fill="#35CC1F"/>
</g>
<g id="Group_26">
<path id="Vector_21" d="M33.1452 302.495C35.282 296.807 38.2639 291.378 41.9897 286.57C45.4945 282.046 39.1701 275.631 35.6258 280.206C30.8821 286.328 27.1924 292.847 24.4667 300.103C22.4274 305.531 31.1238 307.876 33.1452 302.495Z" fill="#35CC1F"/>
</g>
<g id="Group_27">
<path id="Vector_22" d="M14.4749 316.014C21.5221 319.467 28.813 322.301 36.3646 324.439C41.9469 326.02 44.3298 317.339 38.7571 315.761C31.9428 313.831 25.3792 311.359 19.0174 308.243C13.8355 305.704 9.26855 313.463 14.4749 316.014Z" fill="#35CC1F"/>
</g>
<g id="Group_28">
<path id="Vector_23" d="M42.9053 321C42.9053 320 44.9719 310.35 49.3193 305.868C53.3537 301.708 46.9968 295.337 42.9554 299.504C37.6092 305.016 33.9995 311.883 32.7817 319.485C32.4413 321.61 28.9053 324 28.9053 326C30.9053 326 37.9053 326 39.9053 326C39.9053 326 42.9053 323 42.9053 321Z" fill="#35CC1F"/>
</g>
</g>
</g>
</g>
<g id="SEAWEED-TOP">
<g id="Group_29">
<path id="Vector_24" d="M28.7687 134.03C27.564 121.901 27.48 109.525 29.5406 97.4797C31.6014 85.4331 36.0387 74.8105 41.7767 64.1049C46.8277 54.681 51.6735 45.0745 52.6641 34.2664C53.7432 22.4915 42.9063 5 42.9063 5C42.9063 5 40.9063 2 39.9063 0C36.9063 0 31.9063 0 28.9063 0C28.7659 0.28082 27.4481 6.52764 27.9063 7C28.1393 7.24014 30.9866 6.65554 31.311 6.92339C32.9761 8.2985 34.5639 4.94199 35.1851 5.85988C41.7231 15.5199 45.5815 26.8004 42.9668 38.4855C40.5921 49.098 34.3887 58.2703 29.6445 67.9022C19.5766 88.3427 17.5404 111.597 19.7687 134.03C20.3359 139.74 29.3417 139.799 28.7687 134.03Z" fill="#35CC1F"/>
</g>
<g id="Group_30">
<path id="Vector_25" d="M23.2456 19.2235C30.1348 18.4979 36.6856 19.179 43.2593 21.3683C48.767 23.2025 51.129 14.5138 45.6519 12.6898C38.3995 10.2745 30.8495 9.42265 23.2456 10.2235C17.544 10.824 17.4825 19.8305 23.2456 19.2235Z" fill="#35CC1F"/>
</g>
<g id="Group_31">
<path id="Vector_26" d="M49.9062 18.0002C50.4611 11.522 50.7685 12.0236 54.9062 7.00024C58.561 2.56296 52.5928 -2.47562 48.9062 2.00024C43.1413 8.99916 42.682 8.70518 41.9077 17.7451C41.4135 23.5152 49.4147 25.7374 49.9062 20.0002V18.0002Z" fill="#35CC1F"/>
</g>
<g id="Group_32">
<path id="Vector_27" d="M26.8657 31.8721C33.9201 31.0842 40.1843 32.7949 45.8647 37.052C50.5012 40.5267 54.9922 32.7169 50.4072 29.2807C43.6661 24.2287 35.237 21.9372 26.8657 22.8721C21.1735 23.5079 21.1089 32.5151 26.8657 31.8721Z" fill="#35CC1F"/>
</g>
<g id="Group_33">
<path id="Vector_28" d="M52.0893 36.6575C57.135 31.9656 62.6304 27.9498 68.6058 24.5218C73.6288 21.6403 69.1007 13.8608 64.0633 16.7506C57.444 20.548 51.3133 25.0975 45.7253 30.2935C41.4746 34.2461 47.8498 40.5996 52.0893 36.6575Z" fill="#35CC1F"/>
</g>
<g id="Group_34">
<path id="Vector_29" d="M29.366 46.3263C32.419 47.5208 34.7226 50.2911 35.6653 53.3759C37.3531 58.8992 46.0431 56.5442 44.3438 50.9834C42.4141 44.6687 37.8578 40.0343 31.7585 37.6478C29.4946 36.762 26.8192 38.6212 26.223 40.7908C25.5224 43.3407 27.0938 45.4372 29.366 46.3263Z" fill="#35CC1F"/>
</g>
<g id="Group_35">
<path id="Vector_30" d="M43.316 58.5437C49.4743 54.1071 56.0694 50.9289 63.408 48.9768C68.9999 47.4893 66.6279 38.8054 61.0154 40.2983C53.0015 42.4301 45.5034 45.9241 38.7735 50.7725C34.1168 54.1274 38.6047 61.9379 43.316 58.5437Z" fill="#35CC1F"/>
</g>
<g id="Group_36">
<path id="Vector_31" d="M22.1273 59.2298C25.0791 63.0142 27.4335 67.2561 29.3394 71.6501C30.3066 73.8802 33.5776 74.3868 35.4962 73.2645C37.7993 71.9174 38.0816 69.3464 37.1106 67.1077C34.8712 61.9447 31.9467 57.2961 28.4913 52.8659C26.9953 50.9479 23.6972 51.296 22.1273 52.8659C20.2339 54.7593 20.6274 57.3068 22.1273 59.2298Z" fill="#35CC1F"/>
</g>
<g id="Group_37">
<path id="Vector_32" d="M33.5217 75.6635C41.105 73.2603 48.7706 71.1936 56.5344 69.4589C62.1845 68.1965 59.7933 59.5177 54.1418 60.7804C46.3782 62.515 38.7126 64.5818 31.1291 66.985C25.6278 68.7284 27.9781 77.4203 33.5217 75.6635Z" fill="#35CC1F"/>
</g>
<g id="Group_38">
<path id="Vector_33" d="M10.8154 69.1034C15.9979 75.2843 19.8612 82.3034 22.3943 89.9551C24.206 95.4275 32.9004 93.083 31.0728 87.5625C28.0315 78.3756 23.3931 70.1503 17.1794 62.7395C13.4537 58.2961 7.11588 64.6912 10.8154 69.1034Z" fill="#35CC1F"/>
</g>
<g id="Group_39">
<path id="Vector_34" d="M27.5974 94.3583C36.5851 91.409 44.8307 84.6226 54.5096 84.3234C60.2875 84.1449 60.3125 75.1441 54.5096 75.3234C43.5985 75.6607 35.2295 82.3902 25.2049 85.6798C19.7264 87.4776 22.0721 96.1715 27.5974 94.3583Z" fill="#35CC1F"/>
</g>
<g id="Group_40">
<path id="Vector_35" d="M6.73555 90.4447C11.3234 97.9807 16.321 105.46 19.7003 113.644C21.8799 118.922 30.5911 116.609 28.3788 111.251C24.6789 102.291 19.5331 94.1586 14.5068 85.9022C11.4993 80.962 3.71272 85.4793 6.73555 90.4447Z" fill="#35CC1F"/>
</g>
<g id="Group_41">
<path id="Vector_36" d="M27.8773 117.662C31.907 113.133 35.9367 108.604 39.9664 104.075C43.8051 99.76 37.4619 93.3727 33.6024 97.7106C29.5727 102.24 25.543 106.769 21.5133 111.298C17.6746 115.613 24.0178 122 27.8773 117.662Z" fill="#35CC1F"/>
</g>
<g id="Group_42">
<path id="Vector_37" d="M26.0202 136.084C20.7941 127.543 14.6538 119.643 7.66106 112.477C3.60915 108.324 -2.75231 114.691 1.2971 118.841C7.7728 125.478 13.4096 132.718 18.249 140.626C21.2673 145.559 29.0544 141.043 26.0202 136.084Z" fill="#35CC1F"/>
</g>
<g id="Group_43">
<path id="Vector_38" d="M28.6065 140.622C34.4041 131.516 42.2363 124.33 51.718 119.191C56.812 116.431 52.2737 108.657 47.1755 111.42C36.3594 117.282 27.4371 125.711 20.8352 136.079C17.7153 140.98 25.5012 145.499 28.6065 140.622Z" fill="#35CC1F"/>
</g>
<g id="Group_44">
<path id="Vector_39" d="M29.7147 2.615C28.9677 2.17842 28.1991 1.78792 27.4059 1.44207C26.8305 1.19115 26.3036 1.04136 25.6722 1.21525C25.1503 1.35897 24.5847 1.76251 24.3275 2.24926C23.8135 3.22202 23.9828 4.8254 25.1347 5.32769C25.9278 5.67353 26.6964 6.06403 27.4435 6.50062C28.4603 7.09489 29.9543 6.76769 30.5219 5.69343C31.0917 4.61494 30.8003 3.24948 29.7147 2.615Z" fill="#35CC1F"/>
</g>
<g id="Group_45">
<path id="Vector_40" d="M26.3484 8.00077C28.8226 6.51884 31.266 4.98824 33.6791 3.40867C35.2881 2.35543 33.7866 -0.243272 32.1649 0.818258C29.7518 2.39783 27.3084 3.92843 24.8342 5.41036C23.1796 6.40137 24.6863 8.99622 26.3484 8.00077Z" fill="#35CC1F"/>
</g>
<g id="Group_46">
<path id="Vector_41" d="M27.9552 3.21637C28.3814 3.25788 28.841 3.19593 29.2403 3.041C29.995 2.74807 30.5182 2.03369 30.2879 1.19582C30.0898 0.475058 29.2021 -0.146552 28.4427 0.148158C28.4051 0.162758 28.0501 0.260148 28.2066 0.237678C28.3439 0.217958 27.9633 0.217158 27.9552 0.216358C27.1718 0.140069 26.4214 0.960758 26.4552 1.71636C26.4945 2.59427 27.116 3.13464 27.9552 3.21637Z" fill="#35CC1F"/>
</g>
</g>
</g>
</g>
</svg>
