<svg width="53" height="53" viewBox="0 0 53 53" fill="none" xmlns="http://www.w3.org/2000/svg">
<g clip-path="url(#clip0)">
<path d="M11.1352 33.4918C11.1352 36.5562 8.63192 39.0594 5.56759 39.0594C2.50326 39.0594 0 36.5562 0 33.4918C0 30.4275 2.50326 27.9243 5.56759 27.9243H11.1352V33.4918Z" fill="#E01E5A"/>
<path d="M13.9404 33.4919C13.9404 30.4275 16.4437 27.9243 19.508 27.9243C22.5724 27.9243 25.0756 30.4275 25.0756 33.4919V47.4324C25.0756 50.4967 22.5724 53 19.508 53C16.4437 53 13.9404 50.4967 13.9404 47.4324V33.4919Z" fill="#E01E5A"/>
<path d="M19.508 11.1352C16.4437 11.1352 13.9404 8.63192 13.9404 5.56759C13.9404 2.50326 16.4437 0 19.508 0C22.5724 0 25.0756 2.50326 25.0756 5.56759V11.1352H19.508Z" fill="#36C5F0"/>
<path d="M19.5081 13.9406C22.5725 13.9406 25.0757 16.4438 25.0757 19.5082C25.0757 22.5725 22.5725 25.0758 19.5081 25.0758H5.56759C2.50326 25.0758 0 22.5725 0 19.5082C0 16.4438 2.50326 13.9406 5.56759 13.9406H19.5081Z" fill="#36C5F0"/>
<path d="M41.8647 19.5082C41.8647 16.4438 44.368 13.9406 47.4323 13.9406C50.4967 13.9406 52.9999 16.4438 52.9999 19.5082C52.9999 22.5725 50.4967 25.0758 47.4323 25.0758H41.8647V19.5082Z" fill="#2EB67D"/>
<path d="M39.0595 19.5081C39.0595 22.5725 36.5562 25.0757 33.4919 25.0757C30.4276 25.0757 27.9243 22.5725 27.9243 19.5081V5.56759C27.9243 2.50326 30.4276 0 33.4919 0C36.5562 0 39.0595 2.50326 39.0595 5.56759V19.5081Z" fill="#2EB67D"/>
<path d="M33.4919 41.8648C36.5562 41.8648 39.0595 44.3681 39.0595 47.4324C39.0595 50.4968 36.5562 53 33.4919 53C30.4276 53 27.9243 50.4968 27.9243 47.4324V41.8648H33.4919Z" fill="#ECB22E"/>
<path d="M33.4924 39.0594C30.4281 39.0594 27.9248 36.5562 27.9248 33.4918C27.9248 30.4275 30.4281 27.9243 33.4924 27.9243H47.433C50.4973 27.9243 53.0006 30.4275 53.0006 33.4918C53.0006 36.5562 50.4973 39.0594 47.433 39.0594H33.4924Z" fill="#ECB22E"/>
</g>
<defs>
<clipPath id="clip0">
<rect width="53" height="53" fill="white"/>
</clipPath>
</defs>
</svg>
