<?xml version="1.0" encoding="utf-8"?>
<!-- Generator: Adobe Illustrator 22.1.0, SVG Export Plug-In . SVG Version: 6.00 Build 0)  -->
<svg version="1.1" xmlns="http://www.w3.org/2000/svg" xmlns:xlink="http://www.w3.org/1999/xlink" x="0px" y="0px"
	 viewBox="0 0 284.4 73.4" style="enable-background:new 0 0 284.4 73.4;" xml:space="preserve">
<style type="text/css">
	.st0{display:none;}
	.st1{display:inline;}
	.st2{fill:#373536;}
	.st3{font-family:'PTSans-Bold';}
	.st4{font-size:89.1948px;}
	.st5{letter-spacing:17.3;}
	.st6{fill:#004E74;}
	.st7{fill:#FFFFFF;}
</style>
<g id="Dark_1_" class="st0">
	<g id="TESC_2_" class="st1">
		<text transform="matrix(1.1593 0 0 1.1 -2.8601 70.388)" class="st2 st3 st4 st5">TESC</text>
	</g>
</g>
<g id="Color_1_">
	<g id="TESC_1_">
		<g>
			<g>
				<path class="st6" d="M54.7,13.7H33.6v56.7H19.5V13.7H-1.7v-12h56.5V13.7z"/>
				<path class="st6" d="M82.8,1.7h42.9v12H96.9v16h26.2v12H96.9v16.8h29.3v12H82.8V1.7z"/>
				<path class="st6" d="M188.6,51.9c0-2.1-0.8-3.8-2.4-5.1c-1.6-1.3-3.7-2.5-6.1-3.6c-2.4-1.1-5.1-2.2-8-3.3
					c-2.9-1.1-5.5-2.6-8-4.2c-2.4-1.7-4.5-3.7-6.1-6.2c-1.6-2.5-2.4-5.7-2.4-9.5c0-3.3,0.6-6.2,1.8-8.7c1.2-2.5,2.8-4.5,5-6.1
					c2.2-1.6,4.7-2.8,7.7-3.6c3-0.8,6.3-1.2,9.9-1.2c4.2,0,8.2,0.3,11.9,1c3.7,0.7,6.8,1.7,9.2,3l-4.4,11.3
					c-1.5-0.9-3.8-1.7-6.8-2.5c-3-0.8-6.3-1.1-9.8-1.1c-3.3,0-5.8,0.6-7.6,1.9c-1.8,1.2-2.6,2.9-2.6,5c0,2,0.8,3.6,2.4,4.9
					c1.6,1.3,3.7,2.5,6.1,3.6c2.4,1.1,5.1,2.3,8,3.4c2.9,1.2,5.5,2.6,8,4.3c2.4,1.7,4.5,3.7,6.1,6.2c1.6,2.5,2.4,5.5,2.4,9.2
					c0,3.7-0.6,6.8-1.9,9.5c-1.3,2.6-3.1,4.9-5.4,6.6c-2.3,1.8-5.1,3.1-8.4,3.9c-3.3,0.8-6.9,1.3-10.8,1.3c-5.2,0-9.7-0.5-13.6-1.4
					s-6.8-1.8-8.7-2.7l4.5-11.5c0.8,0.4,1.7,0.8,2.9,1.3c1.2,0.5,2.6,0.9,4.1,1.3c1.5,0.4,3.1,0.7,4.8,1c1.7,0.3,3.4,0.4,5.2,0.4
					c4.2,0,7.4-0.7,9.7-2C187.5,56.7,188.6,54.7,188.6,51.9z"/>
				<path class="st6" d="M281.9,67.6c-2.2,1.5-5,2.6-8.4,3.2s-6.9,1-10.5,1c-4.3,0-8.5-0.6-12.4-1.9c-3.9-1.3-7.3-3.3-10.3-6.2
					c-3-2.8-5.3-6.5-7.1-11.1c-1.8-4.5-2.6-10.1-2.6-16.5c0-6.7,1-12.4,2.9-16.9c2-4.5,4.5-8.2,7.7-11c3.1-2.8,6.6-4.8,10.5-6
					c3.9-1.2,7.7-1.8,11.6-1.8c4.1,0,7.6,0.3,10.5,0.8c2.9,0.5,5.2,1.1,7.1,1.9l-2.8,11.4c-1.6-0.7-3.5-1.2-5.6-1.6
					c-2.2-0.3-4.8-0.5-7.9-0.5c-5.7,0-10.3,1.9-13.8,5.8c-3.5,3.9-5.2,9.9-5.2,18c0,3.5,0.4,6.8,1.2,9.7c0.8,2.9,2.1,5.4,3.8,7.5
					c1.7,2.1,3.8,3.7,6.3,4.8c2.5,1.1,5.4,1.7,8.7,1.7c3.1,0,5.7-0.3,7.9-0.9c2.1-0.6,4-1.3,5.6-2.3L281.9,67.6z"/>
			</g>
		</g>
	</g>
</g>
<g id="Light_1_" class="st0">
	<g id="TESC" class="st1">
		<text transform="matrix(1.1593 0 0 1.1 -2.8601 70.388)" class="st7 st3 st4 st5">TESC</text>
	</g>
</g>
</svg>
