<svg width="67" height="67" viewBox="0 0 67 67" fill="none" xmlns="http://www.w3.org/2000/svg">
<path d="M33.5 67C52.0015 67 67 52.0015 67 33.5C67 14.9985 52.0015 0 33.5 0C14.9985 0 0 14.9985 0 33.5C0 52.0015 14.9985 67 33.5 67Z" fill="#8E44AD"/>
<path d="M27.3697 51.1712C42.2269 51.1712 50.3507 38.86 50.3507 28.1902C50.3507 27.8385 50.3507 27.4867 50.3339 27.1517C51.9084 26.0127 53.2819 24.589 54.3707 22.9642C52.9302 23.6007 51.3724 24.0362 49.7309 24.2372C51.4059 23.2322 52.6789 21.6577 53.2819 19.765C51.7242 20.6862 49.9989 21.3562 48.1564 21.7247C46.6824 20.1502 44.5887 19.1787 42.2604 19.1787C37.8049 19.1787 34.1869 22.7967 34.1869 27.2522C34.1869 27.8887 34.2539 28.5085 34.4047 29.0947C27.6879 28.7597 21.7417 25.5437 17.7552 20.6527C17.0684 21.842 16.6664 23.2322 16.6664 24.7062C16.6664 27.5035 18.0902 29.9825 20.2677 31.423C18.9444 31.3895 17.7049 31.021 16.6162 30.418C16.6162 30.4515 16.6162 30.485 16.6162 30.5185C16.6162 34.438 19.3967 37.6875 23.0984 38.4412C22.4284 38.6255 21.7082 38.726 20.9712 38.726C20.4519 38.726 19.9494 38.6757 19.4469 38.5752C20.4687 41.7912 23.4502 44.1195 26.9844 44.1865C24.2207 46.3472 20.7367 47.637 16.9512 47.637C16.2979 47.637 15.6614 47.6035 15.0249 47.5197C18.5592 49.8312 22.8137 51.1712 27.3697 51.1712Z" fill="white"/>
</svg>
