<?xml version="1.0" encoding="utf-8"?>
<!-- Generator: Adobe Illustrator 22.1.0, SVG Export Plug-In . SVG Version: 6.00 Build 0)  -->
<svg version="1.1" id="Layer_1" xmlns="http://www.w3.org/2000/svg" xmlns:xlink="http://www.w3.org/1999/xlink" x="0px" y="0px"
	 viewBox="0 0 470 82" style="enable-background:new 0 0 470 82;" xml:space="preserve">
<style type="text/css">
	.st0{fill-rule:evenodd;clip-rule:evenodd;fill:#055EAA;}
	.st1{fill:#055EAA;}
</style>
<g>
	<g>
		<polygon class="st0" points="31,0.6 25.9,11.5 18.8,0.8 18.6,0.6 10.3,0.6 0,22.5 8.7,22.5 13.9,11.3 21.5,22.5 29.4,22.5 
			39.7,0.6 31,0.6 		"/>
		<polygon class="st0" points="0,22.5 10.3,0.4 18.8,0.4 25.9,11.5 31.2,0.4 39.7,0.4 29.4,22.5 21.5,22.5 13.9,11.3 8.7,22.5 
			0,22.5 		"/>
		<polygon class="st0" points="424.3,22.5 434.6,0.4 442.9,0.4 450.3,11.5 455.3,0.4 464,0.4 453.8,22.5 445.6,22.5 438.3,11.3 
			432.9,22.5 424.3,22.5 		"/>
		<path class="st0" d="M267.4,21.8c-1.7,0.4-2.7,0.6-4.6,0.8c-2.1,0.2-3.5,0.2-5.2,0.2c-1.7,0-3.1-0.2-4.5-0.4
			c-1.4-0.4-2.5-0.8-3.5-1.4c-1.7-1.2-2.7-2.5-3.1-4.1c-0.6-1.7-0.2-3.5,0.6-5.6c0.8-1.6,1.7-3.1,3.1-4.5c1.2-1.4,2.9-2.5,4.6-3.7
			c1.9-1,4.1-1.7,6-2.3c2.1-0.6,4.3-0.8,6.6-0.8c1.7,0,3.3,0.2,4.8,0.4c1.4,0.4,2.9,0.8,4.3,1.4L274.2,7c-1.2-0.6-2.3-1-3.5-1.4
			c-1.2-0.2-2.3-0.4-3.7-0.4c-2.3,0-4.5,0.6-6.4,1.6c-1.9,1.2-3.3,2.7-4.1,4.5c-0.8,1.7-0.8,3.3,0,4.3c1,1.2,2.3,1.7,4.3,1.7
			c0.4,0,0.8,0,1.2-0.2c0.4,0,0.4,0,0.8-0.2l1.4-2.5h-3.5l2.5-4.5h9.9L267.4,21.8L267.4,21.8z"/>
		<path class="st0" d="M216.9,4.5h1.9c1.4,0,2.3,0.2,2.9,0.8c0.4,0.4,0.4,1.2-0.2,2.1c-0.4,1.2-1.2,1.9-2.1,2.3
			c-0.8,0.6-2.1,0.8-3.7,0.8H214L216.9,4.5L216.9,4.5z M208.6,22.5l3.7-8h2.9c3.9,0,7-0.6,9.5-1.7c2.5-1.4,4.5-3.1,5.4-5.4
			c1.2-2.3,1-4.1-0.4-5.2c-1.5-1.2-4.1-1.7-7.9-1.7h-12l-10.3,22.1H208.6L208.6,22.5z"/>
		<polygon class="st0" points="112.4,22.5 123.1,0.4 132.4,0.4 128.5,8.5 138.2,8.5 142,0.4 151.5,0.4 140.9,22.5 131.4,22.5 
			135.3,14.4 125.8,14.4 121.7,22.5 112.4,22.5 		"/>
		<polygon class="st0" points="94.2,22.5 102.2,6 94.2,6 96.9,0.4 121.9,0.4 119,6 111.1,6 102.9,22.5 94.2,22.5 		"/>
		<path class="st0" d="M48.6,7.8C49.9,7,51.5,6.4,53,6.4c1.5,0,2.5,0.6,3.3,1.4c0.6,1,0.6,2.1,0,3.7c-0.6,1.4-1.7,2.5-3.1,3.5
			c-1.4,1-2.9,1.4-4.5,1.4s-2.5-0.4-3.3-1.4c-0.6-1-0.6-2.1,0-3.5C46.1,9.9,47.2,8.7,48.6,7.8L48.6,7.8z M35.6,15.9
			c0,1.4,0.6,2.5,1.5,3.7c1,1.2,2.1,1.9,3.7,2.5c1.4,0.4,3.1,0.8,5.2,0.8c1.9,0,4.1-0.4,6-0.8c1.9-0.6,3.9-1.4,5.6-2.5
			c1.9-1.2,3.5-2.3,4.6-3.7c1.4-1.4,2.3-2.9,3.1-4.5c0.6-1.7,1-3.3,0.8-4.7c0-1.4-0.6-2.5-1.5-3.7c-0.8-1-2.1-1.7-3.5-2.3
			C59.6,0.2,57.9,0,55.7,0c-1.9,0-4.1,0.2-6,0.8c-1.9,0.6-3.9,1.4-5.6,2.3c-1.9,1.2-3.5,2.3-4.8,3.7c-1.2,1.4-2.1,2.9-2.9,4.7
			C35.8,13,35.4,14.6,35.6,15.9L35.6,15.9z"/>
		<path class="st0" d="M186.5,7.8c1.4-0.8,2.9-1.4,4.5-1.4c1.5,0,2.5,0.6,3.1,1.4c0.8,1,0.8,2.1,0.2,3.7c-0.8,1.4-1.7,2.5-3.1,3.5
			c-1.4,1-2.9,1.4-4.5,1.4c-1.6,0-2.7-0.4-3.3-1.4c-0.6-1-0.6-2.1,0-3.5C184,9.9,185,8.7,186.5,7.8L186.5,7.8z M173.6,15.9
			c0,1.4,0.6,2.5,1.5,3.7c0.8,1.2,2.1,1.9,3.5,2.5c1.5,0.4,3.3,0.8,5.4,0.8c1.9,0,3.9-0.4,6-0.8c1.9-0.6,3.9-1.4,5.6-2.5
			c1.9-1.2,3.5-2.3,4.6-3.7c1.4-1.4,2.3-2.9,3.1-4.5c0.6-1.7,1-3.3,0.8-4.7c0-1.4-0.6-2.5-1.5-3.7c-1-1-2.1-1.7-3.7-2.3
			c-1.4-0.6-3.3-0.8-5.2-0.8c-2.1,0-4.1,0.2-6,0.8c-1.9,0.6-3.9,1.4-5.6,2.3c-1.9,1.2-3.5,2.3-4.8,3.7c-1.2,1.4-2.1,2.9-2.9,4.7
			C173.6,13,173.4,14.6,173.6,15.9L173.6,15.9z"/>
		<path class="st0" d="M306.7,0.4h9.1l-5.4,11.8c-0.8,1.6-1,2.7-0.4,3.5c0.4,0.8,1.4,1.2,3.1,1.2c1.5,0,2.9-0.4,4.1-1.2
			c1.2-0.8,2.1-1.9,2.7-3.5l5.4-11.8h9.1l-5.4,12c-1.6,3.5-4.1,6-7.2,7.8c-3.1,1.7-7,2.7-11.6,2.7c-4.4,0-7.5-1-9.1-2.7
			c-1.6-1.7-1.6-4.3,0-7.8L306.7,0.4L306.7,0.4z"/>
		<path class="st0" d="M415.4,6.2l-0.2,8.4h-7.5L415.4,6.2L415.4,6.2z M400.4,22.5l3.5-3.9h11.4v3.9h8.7l-1.2-22.1h-9.3l-22.1,22.1
			H400.4L400.4,22.5z"/>
		<path class="st0" d="M92.9,1.9c-1.5-1.2-4.3-1.6-8.3-1.6H72.2L61.9,22.5H71l4.5-9.3H78c2.3,0.2,3.1,2.9,3.1,7.4c0,0.4,0,1.2,0,1.9
			h8.7l-0.4-7c0-0.8-0.2-1.9-0.6-2.5c-0.2-0.4-0.8-0.8-1.2-1c1.5-0.6,2.3-1.2,3.5-2.1c1-0.8,1.7-1.9,2.3-3.1
			C94.4,4.7,94.2,3.1,92.9,1.9L92.9,1.9z M84.9,7.2c-0.2,0.8-1.2,1.6-2.1,1.9c-0.8,0.4-2.7,0.8-4.5,0.8h-1.7l2.9-6h1.7
			c1.5,0,2.7,0.4,3.3,0.8C84.9,5,85.3,6,84.9,7.2L84.9,7.2z"/>
		<path class="st0" d="M174.7,1.9c-1.5-1.2-4.3-1.6-8.3-1.6h-12.2l-10.4,22.1h9.1l4.4-9.3h2.5c2.3,0.2,3.3,2.9,3.3,7.4
			c0,0.4-0.2,1.2-0.2,1.9h8.7l-0.2-7c-0.2-0.8-0.4-1.9-0.8-2.5c-0.2-0.4-0.6-0.8-1.2-1c1.5-0.6,2.5-1.2,3.5-2.1
			c1-0.8,1.7-1.9,2.3-3.1C176.3,4.7,176.1,3.1,174.7,1.9L174.7,1.9z M166.8,7.2c-0.2,0.8-1.2,1.6-2.1,1.9c-0.8,0.4-2.7,0.8-4.3,0.8
			h-1.9l2.9-6h1.7c1.5,0,2.9,0.4,3.3,0.8C167,5,167.2,6,166.8,7.2L166.8,7.2z"/>
		<path class="st0" d="M300.9,1.9c-1.4-1.2-4.1-1.6-8.3-1.6h-12.2l-10.4,22.1h9.3l4.5-9.3h2.5c2.3,0.2,3.1,2.9,3.1,7.4
			c0,0.4,0,1.2,0,1.9h8.7l-0.4-7c0-0.8-0.4-1.9-0.6-2.5c-0.2-0.4-0.8-0.8-1.2-1c1.5-0.6,2.3-1.2,3.3-2.1c1.2-0.8,1.9-1.9,2.3-3.1
			C302.6,4.7,302.4,3.1,300.9,1.9L300.9,1.9z M293.2,7.2C293,8,291.8,8.7,291,9.1c-0.8,0.4-2.7,0.8-4.4,0.8h-1.7l2.9-6h1.7
			c1.5,0,2.7,0.4,3.3,0.8C293.2,5,293.5,6,293.2,7.2L293.2,7.2z"/>
		<polygon class="st0" points="326.4,22.5 336.7,0.4 345.2,0.4 348.1,9.1 358.8,0.4 367.3,0.4 357,22.5 348.3,22.5 354.1,9.9 
			343.3,18.8 340.6,10.3 335,22.5 326.4,22.5 		"/>
		<polygon class="st0" points="359.5,22.5 370,0.4 378.5,0.4 381.2,9.1 391.8,0.4 400.5,0.4 390.3,22.5 381.4,22.5 387.4,9.9 
			376.6,18.8 373.8,10.3 368,22.5 359.5,22.5 		"/>
		<path class="st1" d="M470,28.7c-9,0-19.8,0-32.4-0.1C335.3,28,122.4,26.8,46.6,80.4l1.2,1.6C123,28.8,335.5,30,437.6,30.6
			c12.6,0.1,23.5,0.1,32.5,0.1L470,28.7z"/>
	</g>
</g>
</svg>
