<svg viewBox="0 0 152 148" fill="none" xmlns="http://www.w3.org/2000/svg">
<path d="M150.08 112.66C150.92 112.77 150.91 114.07 150.01 114.08C150.01 113.61 150.01 113.14 150.01 112.67C150.03 112.67 150.06 112.67 150.08 112.66Z" fill="#A8426B"/>
<path d="M150.08 112.66C150.06 112.67 150.03 112.67 150.01 112.67C150.01 112.67 150.01 112.66 150.01 112.65C150.04 112.65 150.06 112.66 150.08 112.66Z" fill="#B5406F"/>
<path d="M150.01 112.67C150.01 113.14 150.01 113.61 150.01 114.08C148.4 114.01 146.79 113.96 145.18 113.96C145.75 113.66 146.35 113.41 146.95 113.2C147.97 113 148.99 112.83 150.01 112.67Z" fill="#A8426B"/>
<path d="M150.009 112.65C150.009 112.66 150.009 112.67 150.009 112.67C148.989 112.83 147.969 113 146.949 113.2C147.929 112.86 148.939 112.65 150.009 112.65Z" fill="#B5406F"/>
<path d="M134.14 113.74C139.33 112.44 144.7 112.41 150.01 112.65C148.94 112.65 147.93 112.86 146.95 113.2C145.71 113.44 144.47 113.7 143.23 114C140.01 114.11 136.81 114.47 133.68 115.34C129.17 116.6 124.99 118.78 120.61 120.39L120.51 120.11C120.71 119.64 120.88 119.18 121.03 118.71C125.39 117.03 129.59 114.88 134.14 113.74Z" fill="#B5406F"/>
<path d="M145.179 113.96C146.789 113.96 148.399 114.01 150.009 114.08C145.819 114.1 142.829 117.5 140.059 120.23C137.389 122.87 134.509 125.36 131.549 127.67C125.639 132.31 118.149 136.42 110.479 133.87C110.889 133.51 111.289 133.13 111.689 132.75C120.499 135.11 128.649 128.49 134.879 123.03C137.999 120.29 141.239 116.08 145.179 113.96Z" fill="#A8426B"/>
<path d="M146.949 113.2C146.349 113.41 145.749 113.66 145.179 113.96C144.529 113.97 143.879 113.98 143.229 114C144.469 113.7 145.709 113.44 146.949 113.2Z" fill="#B5406F"/>
<path d="M143.229 114C143.879 113.98 144.529 113.97 145.179 113.96C141.239 116.08 137.999 120.29 134.879 123.03C128.649 128.49 120.499 135.11 111.689 132.75C113.329 131.15 114.819 129.39 116.129 127.44C116.199 127.35 116.259 127.25 116.329 127.15C116.369 127.08 116.399 127.02 116.419 126.96L116.999 127C123.989 120.71 133.409 116.38 143.229 114Z" fill="#A8426B"/>
<path d="M133.679 115.34C136.809 114.47 140.009 114.11 143.229 114C133.409 116.38 123.989 120.71 116.999 127L116.419 126.96C116.599 126.39 115.879 125.92 115.339 126.17C115.239 126.22 115.139 126.27 115.039 126.31C112.349 127.58 109.609 128.86 106.819 130.02C106.809 124.18 110.349 119.98 113.939 115.6C116.759 112.16 118.919 108.68 119.959 104.59C120.779 109.52 121.169 114.42 119.329 119.23C119.269 119.4 119.199 119.56 119.129 119.73C118.919 120.23 119.529 120.78 120.009 120.61C120.209 120.54 120.409 120.47 120.609 120.39C124.989 118.78 129.169 116.6 133.679 115.34Z" fill="#B5406F"/>
<path d="M120.619 100.25C121.769 106.42 123.009 112.66 121.029 118.71C120.569 118.89 120.099 119.06 119.629 119.23H119.329C121.169 114.42 120.779 109.52 119.959 104.59C120.309 103.22 120.539 101.78 120.619 100.25Z" fill="#B5406F"/>
<path d="M119.63 119.23C120.1 119.06 120.57 118.89 121.03 118.71C120.88 119.18 120.71 119.64 120.51 120.11C120.22 119.82 119.92 119.52 119.63 119.23Z" fill="#B5406F"/>
<path d="M120.59 100.06C120.6 100.12 120.61 100.19 120.62 100.25C120.15 100.31 119.68 100.38 119.21 100.44H119.17C119.18 100.38 119.18 100.32 119.19 100.25C119.23 99.4799 120.44 99.2299 120.59 100.06Z" fill="#BC4D80"/>
<path d="M119.21 100.44C119.68 100.38 120.15 100.31 120.62 100.25C120.54 101.78 120.31 103.22 119.96 104.59C119.73 103.21 119.47 101.83 119.21 100.44Z" fill="#BC4D80"/>
<path d="M120.51 120.11L120.61 120.39C120.41 120.47 120.21 120.54 120.01 120.61C119.53 120.78 118.92 120.23 119.13 119.73C119.2 119.56 119.27 119.4 119.33 119.23H119.63C119.92 119.52 120.22 119.82 120.51 120.11Z" fill="#B5406F"/>
<path d="M119.959 104.59C118.919 108.68 116.759 112.16 113.939 115.6C110.349 119.98 106.809 124.18 106.819 130.02C106.349 130.21 105.879 130.4 105.409 130.59C105.179 125.45 107.489 121.29 110.649 117.36C114.869 112.08 118.749 107.5 119.169 100.44H119.209C119.469 101.83 119.729 103.21 119.959 104.59Z" fill="#BC4D80"/>
<path d="M115.34 126.17C115.88 125.92 116.6 126.39 116.42 126.96C116.4 127.02 116.37 127.08 116.33 127.15C116.26 127.25 116.2 127.35 116.13 127.44L116.07 127.41C115.74 127.08 115.42 126.76 115.09 126.43L115.04 126.31C115.14 126.27 115.24 126.22 115.34 126.17Z" fill="#D86896"/>
<path d="M116.069 127.41L116.129 127.44C114.819 129.39 113.329 131.15 111.689 132.75C111.409 132.67 111.129 132.59 110.849 132.49C110.599 132.41 110.389 132.47 110.239 132.59L110.029 132.36C111.269 131.21 112.439 129.96 113.519 128.6C114.379 128.2 115.229 127.8 116.069 127.41Z" fill="#CE5986"/>
<path d="M116.07 127.41C115.23 127.8 114.38 128.2 113.52 128.6C114.07 127.91 114.59 127.19 115.09 126.43C115.42 126.76 115.74 127.08 116.07 127.41Z" fill="#D86896"/>
<path d="M115.04 126.31L115.09 126.43C114.59 127.19 114.07 127.91 113.52 128.6C111.21 129.67 108.86 130.73 106.48 131.69L106.43 131.58C106.68 131.5 106.88 131.28 106.85 130.93C106.83 130.62 106.82 130.31 106.82 130.02C109.61 128.86 112.35 127.58 115.04 126.31Z" fill="#D86896"/>
<path d="M110.849 132.49C111.129 132.59 111.409 132.67 111.689 132.75C111.289 133.13 110.889 133.51 110.479 133.87C110.469 133.87 110.469 133.87 110.469 133.87C109.849 133.66 109.859 132.9 110.239 132.59C110.389 132.47 110.599 132.41 110.849 132.49Z" fill="#CE5986"/>
<path d="M113.519 128.6C112.439 129.96 111.269 131.21 110.029 132.36C104.629 137.31 97.8195 140.31 90.6795 142.63C85.3095 144.38 79.6495 145 74.0295 145.02C72.6595 145.03 71.3195 144.98 69.9995 144.88C44.9495 137.24 30.9795 110.34 25.9795 83.08C30.3295 84.87 35.0695 84.86 40.0695 84.07C45.6495 83.19 51.1095 80.5 53.9495 75.54C54.4095 77.79 54.5895 80.11 54.7595 82.4C55.0495 86.11 55.3595 89.83 55.7095 93.54C56.3195 99.98 57.1395 106.48 59.0495 112.69C60.8395 118.44 63.6495 123.99 68.0995 128.15C73.4595 133.17 80.8195 135.86 88.1395 135.85C94.4895 135.85 100.599 134.06 106.479 131.69C108.859 130.73 111.209 129.67 113.519 128.6Z" fill="#CE5986"/>
<path d="M110.03 132.36L110.24 132.59C109.86 132.9 109.85 133.66 110.47 133.87C104.36 139.32 96.52 142.68 88.54 144.75C85.03 145.66 81.31 146.29 77.55 146.53C74.93 146.16 72.41 145.61 70 144.88C71.32 144.98 72.66 145.03 74.03 145.02C79.65 145 85.31 144.38 90.68 142.63C97.82 140.31 104.63 137.31 110.03 132.36Z" fill="#CE5986"/>
<path d="M106.849 130.93C106.879 131.28 106.679 131.5 106.429 131.58C106.019 131.72 105.449 131.5 105.419 130.93C105.409 130.81 105.409 130.7 105.409 130.59C105.879 130.4 106.349 130.21 106.819 130.02C106.819 130.31 106.829 130.62 106.849 130.93Z" fill="#D86896"/>
<path d="M106.429 131.58L106.479 131.69C100.599 134.06 94.4892 135.85 88.1392 135.85C80.8192 135.86 73.4592 133.17 68.0992 128.15C63.6492 123.99 60.8392 118.44 59.0492 112.69C57.1392 106.48 56.3192 99.9801 55.7092 93.5401C55.3592 89.8301 55.0492 86.1101 54.7592 82.4001C54.5892 80.1101 54.4092 77.7901 53.9492 75.5401C54.2092 75.0801 54.4392 74.6101 54.6592 74.1201C54.7292 73.9601 54.7392 73.7901 54.7092 73.6501L55.0092 73.5801C55.3592 75.0601 55.5792 76.5501 55.7592 77.9201C56.3292 82.2901 56.5292 86.7101 56.9192 91.0901C57.9692 103.14 59.3492 117.2 68.2592 126.31C73.8492 132.02 81.8892 134.79 89.8092 134.38C95.1992 134.1 100.389 132.58 105.409 130.59C105.409 130.7 105.409 130.81 105.419 130.93C105.449 131.5 106.019 131.72 106.429 131.58Z" fill="#D86896"/>
<path d="M77.5493 146.53C72.1193 146.87 66.6093 146.37 61.5693 144.6L62.0193 143.26C64.6093 144.17 67.2593 144.66 69.9993 144.88C72.4093 145.61 74.9293 146.16 77.5493 146.53Z" fill="#A8426B"/>
<path d="M70.4392 56.0099C70.9292 57.1499 71.5792 58.1399 71.5592 59.4199C71.4592 65.0099 63.5992 67.8499 59.0992 68.4099C57.1492 68.6499 54.9692 68.6299 52.9792 68.1499C52.6492 67.5999 52.2892 67.0799 51.8892 66.6099C51.8092 66.5199 51.7392 66.4599 51.6592 66.4199L51.6692 66.3999C55.9292 68.2799 62.5392 66.6599 65.9192 64.6399C67.6092 63.6299 69.5292 62.2299 70.0092 60.1899C70.3892 58.6099 69.2792 57.1299 68.7792 55.6799C67.7992 52.9099 69.5692 51.7599 70.1892 49.2099C70.8792 46.3999 66.2592 44.7699 64.7492 42.7699C63.8592 41.5899 63.3992 40.1699 63.6192 38.6899C64.0492 35.8299 67.2592 32.8199 64.6292 30.0799C63.5092 28.9199 61.8492 28.3599 60.5992 27.3599C58.6792 25.8399 58.6592 24.2999 59.1592 22.6399L60.4792 22.9599C59.9592 24.5199 60.4892 25.5299 61.8692 26.5199C63.2992 27.5499 65.0992 28.2099 66.1592 29.6799C67.6292 31.7199 67.0392 34.0199 66.1192 36.1499C65.1392 38.4399 64.4192 40.3799 66.3492 42.4299C67.3492 43.4899 68.6192 44.1699 69.7792 45.0299C71.6192 46.3799 72.1392 48.1599 71.3192 50.2799C70.5292 52.3199 69.4492 53.6999 70.4392 56.0099Z" fill="#282624"/>
<path d="M64.7495 42.77C66.2594 44.77 70.8795 46.4 70.1895 49.21C69.5695 51.76 67.7994 52.91 68.7794 55.68C69.2794 57.13 70.3895 58.61 70.0095 60.19C69.5295 62.23 67.6094 63.63 65.9194 64.64C62.5394 66.66 55.9295 68.28 51.6695 66.4C50.1395 65.73 48.9095 64.6 48.2495 62.88C50.9595 62.54 53.5495 61.51 55.6395 59.54C59.6495 55.78 59.9595 49.93 57.1595 45.35C55.6595 42.89 53.4095 41.01 50.8895 39.67C48.4395 38.36 45.4895 36.87 42.6895 36.66C42.7695 35.85 42.8395 35.03 42.8695 34.21C42.8795 34.03 42.8395 33.89 42.7495 33.78C44.0595 32.99 45.2395 31.97 46.1895 30.76C47.3395 29.3 48.1595 27.65 48.8795 25.96C49.3495 24.85 50.1795 23.42 50.2595 22.21C50.4095 19.91 47.5795 17.87 45.5395 17.49C44.0395 17.2 42.1395 17.81 40.7895 16.95C39.3395 16.04 39.2995 13.83 38.0795 12.64C34.8995 9.53004 31.9895 12.05 30.0495 15.42L27.1895 14.58C27.3995 14.36 27.5795 14.12 27.7095 13.87C28.0395 13.26 27.8595 12.69 27.8995 11.98C27.9895 10.65 28.3795 9.38004 29.0795 8.24004C30.4195 6.04004 32.6895 4.57004 34.9795 3.51004C40.9795 0.750038 47.6695 1.93004 53.1895 5.27004C58.2195 8.32004 62.2395 12.38 60.5495 18.74C60.1795 20.13 59.5295 21.42 59.1595 22.64C58.6595 24.3 58.6794 25.84 60.5994 27.36C61.8494 28.36 63.5094 28.92 64.6294 30.08C67.2594 32.82 64.0495 35.83 63.6195 38.69C63.3995 40.17 63.8595 41.59 64.7495 42.77Z" fill="#282624"/>
<path d="M69.9998 144.88C67.2598 144.66 64.6098 144.17 62.0198 143.26C60.7598 142.83 59.5198 142.29 58.2898 141.65C49.5098 137.05 42.7498 128.16 37.6498 119.88C32.4798 111.5 28.7398 102.32 26.0398 92.8599C25.2998 90.2999 25.0298 87.6399 24.1098 85.1199C23.6398 83.8599 23.2098 82.6299 22.8398 81.4099C23.8598 82.0899 24.9098 82.6399 25.9798 83.0799C30.9798 110.34 44.9498 137.24 69.9998 144.88Z" fill="#A8426B"/>
<path d="M55.6098 5.12998C60.2798 8.26998 63.3298 12.52 62.0998 18.37C61.7998 19.84 61.2098 21.18 60.6298 22.56C60.5698 22.7 60.5198 22.83 60.4798 22.96L59.1598 22.64C59.5298 21.42 60.1798 20.13 60.5498 18.74C62.2398 12.38 58.2198 8.31998 53.1898 5.26998C47.6698 1.92998 40.9798 0.749979 34.9798 3.50998C32.6898 4.56998 30.4198 6.03998 29.0798 8.23998C28.3798 9.37998 27.9898 10.65 27.8998 11.98C27.8598 12.69 28.0398 13.26 27.7098 13.87C27.5798 14.12 27.3998 14.36 27.1898 14.58C25.3198 16.61 21.0598 17.44 23.8598 21.01C24.6998 22.08 25.5698 23.21 25.5698 24.58C25.5698 24.78 25.5498 24.98 25.5098 25.19C24.8398 28.73 17.3798 32.63 21.1398 36.22C21.2498 36.32 21.3098 36.43 21.3398 36.55C21.0298 36.83 20.7098 37.11 20.3998 37.4C20.3098 37.37 20.2198 37.32 20.1298 37.24C18.4298 35.61 18.2098 33.72 19.3398 31.67C19.9698 30.52 20.8698 29.54 21.6998 28.53C22.1498 27.97 22.6898 27.41 23.0298 26.76C23.6198 25.64 24.0298 23.88 23.4298 22.77C22.3598 20.8 20.2898 19.69 21.8698 17.23C22.6898 15.96 24.0498 15.06 25.2098 14.13C26.7598 12.89 26.3198 11.64 26.7998 9.89998C28.1498 5.05998 33.3798 2.01998 37.9798 0.929979C44.1498 -0.550021 50.5098 1.69998 55.6098 5.12998Z" fill="#282624"/>
<path d="M62.0196 143.26L61.5696 144.6C59.9596 144.05 58.3996 143.35 56.8996 142.52C48.0296 137.6 41.1696 128.49 36.0096 119.96C30.7596 111.25 26.4096 101.3 24.1296 91.36C23.4796 88.51 22.8396 85.97 21.7396 83.24C21.3396 82.22 21.0396 81.14 20.8096 80.04L21.1196 79.98C21.1496 80.1 21.2196 80.22 21.3496 80.32C21.8396 80.71 22.3296 81.08 22.8296 81.41C22.8296 81.41 22.8296 81.41 22.8396 81.41C23.2096 82.63 23.6396 83.86 24.1096 85.12C25.0296 87.64 25.2996 90.3 26.0396 92.86C28.7396 102.32 32.4796 111.5 37.6496 119.88C42.7496 128.16 49.5096 137.05 58.2896 141.65C59.5196 142.29 60.7596 142.83 62.0196 143.26Z" fill="#A8426B"/>
<path d="M43.9795 38.2999C43.5195 38.1999 43.0595 38.1199 42.5995 38.0899C42.5695 38.0899 42.5395 38.0799 42.5195 38.0699C42.5795 37.5999 42.6395 37.1299 42.6895 36.6599C45.4895 36.8699 48.4395 38.3599 50.8895 39.6699C53.4095 41.0099 55.6595 42.8899 57.1595 45.3499C59.9595 49.9299 59.6495 55.7799 55.6395 59.5399C53.5495 61.5099 50.9595 62.5399 48.2495 62.8799C48.1895 62.7399 48.1395 62.5899 48.0895 62.4299C47.9595 62.0299 47.5995 61.8899 47.2695 61.9399L47.2495 61.7399C49.0795 61.5599 50.8895 61.0099 52.6395 59.9899C57.6895 57.0799 58.9395 50.9699 55.9195 46.0699C54.4695 43.7099 52.2795 41.9799 49.8295 40.7299C48.0495 39.8199 46.0095 38.7499 43.9795 38.2999Z" fill="#AF5D9C"/>
<path d="M25.6197 52.4001C25.3997 52.2301 25.1797 52.0601 24.9697 51.9001C25.8497 50.5601 26.7197 49.22 27.5897 47.87C27.6597 47.76 27.7297 47.6501 27.8097 47.5401C31.6597 50.1 36.3297 51 40.9997 51C43.9997 50 49.9997 47 45.9997 43C45.5797 42.79 45.1097 42.71 44.6397 42.75C44.5797 42.76 44.5097 42.76 44.4497 42.7701C44.2797 42.8001 44.1097 42.8401 43.9397 42.9001C43.8597 42.9201 43.7797 42.9501 43.6997 42.9901L41.2497 42.8601C42.7997 42.1401 43.8897 40.73 43.9797 38.3C46.0097 38.75 48.0497 39.82 49.8297 40.73C52.2797 41.98 54.4697 43.71 55.9197 46.07C58.9397 50.97 57.6897 57.0801 52.6397 59.9901C50.8897 61.0101 49.0797 61.5601 47.2497 61.7401C39.6697 62.5101 31.6797 57.0701 25.6197 52.4001Z" fill="#D37DBB"/>
<path d="M55.0095 73.5799L54.7095 73.6499C54.5695 73.0599 53.7295 72.7199 53.4295 73.3799C52.8895 71.3699 52.1095 69.0699 50.8695 67.6199C50.8095 67.5399 50.7595 67.4599 50.7295 67.3699C51.4395 67.7099 52.1895 67.9699 52.9795 68.1499C53.9395 69.7699 54.5695 71.6699 55.0095 73.5799Z" fill="#E08CCC"/>
<path d="M54.7097 73.65C54.7397 73.79 54.7297 73.96 54.6597 74.12C54.4397 74.61 54.2097 75.08 53.9497 75.54C53.8797 75.2 53.7997 74.87 53.7197 74.53C53.6297 74.17 53.5397 73.79 53.4297 73.39V73.38C53.7297 72.72 54.5697 73.06 54.7097 73.65Z" fill="#E08CCC"/>
<path d="M53.7195 74.5299C53.7995 74.8699 53.8795 75.1999 53.9495 75.5399C51.1095 80.4999 45.6495 83.1899 40.0695 84.0699C35.0695 84.8599 30.3295 84.8699 25.9795 83.0799C25.8795 82.5199 25.7795 81.9599 25.6895 81.3999C30.2395 83.5599 35.4095 83.4799 40.5495 82.5399C45.9995 81.5499 51.1395 78.6399 53.4195 73.3899C53.4195 73.3899 53.4195 73.3799 53.4295 73.3899C53.5395 73.7899 53.6295 74.1699 53.7195 74.5299Z" fill="#D37DBB"/>
<path d="M53.4299 73.3799V73.3899C53.4199 73.3799 53.4199 73.3899 53.4199 73.3899C51.1399 78.6399 45.9999 81.5499 40.5499 82.5399C35.4099 83.4799 30.2399 83.5599 25.6899 81.3999C25.3499 79.4299 25.0799 77.4599 24.8299 75.4999C24.3899 68.3999 23.2999 60.9699 25.1899 53.8599C29.4999 57.1599 34.0199 60.2399 39.2299 61.8999C41.6199 62.6699 44.2199 63.1099 46.7699 63.0099C47.4899 65.1199 48.9399 66.5099 50.7299 67.3699C50.7599 67.4599 50.8099 67.5399 50.8699 67.6199C52.1099 69.0699 52.8899 71.3699 53.4299 73.3799Z" fill="#D37DBB"/>
<path d="M51.8894 66.61C52.2894 67.08 52.6494 67.6 52.9794 68.15C52.1894 67.97 51.4394 67.71 50.7294 67.37C50.5294 66.8 51.1394 66.18 51.6594 66.42C51.7394 66.46 51.8094 66.52 51.8894 66.61Z" fill="#E08CCC"/>
<path d="M51.6695 66.3999L51.6595 66.4199C51.1395 66.1799 50.5295 66.7999 50.7295 67.3699C48.9395 66.5099 47.4895 65.1199 46.7695 63.0099C47.2695 62.9899 47.7595 62.9399 48.2495 62.8799C48.9095 64.5999 50.1395 65.7299 51.6695 66.3999Z" fill="#E08CCC"/>
<path d="M45.5393 17.49C47.5793 17.87 50.4093 19.91 50.2593 22.21C50.1793 23.42 49.3493 24.85 48.8793 25.96C48.1593 27.65 47.3393 29.3 46.1893 30.76C45.2393 31.97 44.0593 32.99 42.7493 33.78C42.4193 33.32 41.4793 33.46 41.4393 34.21C41.4393 34.29 41.4393 34.38 41.4293 34.48C40.2693 35.02 39.0293 35.38 37.7593 35.54C37.7293 35.54 37.6893 35.54 37.6593 35.54C38.5593 35.5 38.6693 34.1 37.7793 34.1C40.8593 33.71 43.7493 31.8 45.5193 29.27C46.8093 27.41 49.0493 23.85 48.4093 21.63C47.0893 17.1 41.3793 20.37 38.9293 17.19C38.2893 16.37 38.2193 15.35 37.6993 14.47C36.5993 12.61 34.4793 12.38 32.9793 13.88C31.0393 15.81 29.7893 18.67 29.2993 21.32C28.8493 23.77 29.0993 26.5 30.0593 28.81C29.6593 29.15 29.2693 29.49 28.8693 29.85C28.0993 28.23 27.6693 26.41 27.5693 24.57C27.5193 23.7 27.5493 22.82 27.6593 21.96C27.8593 20.4 28.7293 17.71 30.0493 15.42C31.9893 12.05 34.8993 9.52999 38.0793 12.64C39.2993 13.83 39.3393 16.04 40.7893 16.95C42.1393 17.81 44.0393 17.2 45.5393 17.49Z" fill="#7C4412"/>
<path d="M48.4096 21.63C49.0496 23.85 46.8096 27.41 45.5196 29.27C43.7496 31.8 40.8596 33.71 37.7796 34.1C37.7696 34.1 37.7696 34.1 37.7596 34.1C37.3196 34.11 36.9096 34.1 36.5096 34.05C36.9996 33.25 37.3996 32.42 37.4896 31.62C37.5196 31.34 37.5096 31.06 37.4696 30.8C37.4896 30.78 37.5096 30.76 37.5196 30.73C38.4896 29.18 39.6896 27.66 40.5296 26.04C41.0796 24.98 40.9196 24.03 39.9496 23.3C38.9396 22.53 37.9896 22.66 37.0096 23.4C35.6396 24.42 34.3896 25.72 33.0896 26.86C33.0096 26.84 32.9296 26.83 32.8496 26.82C32.6496 26.79 32.4796 26.84 32.3396 26.92L32.3296 26.93C32.2396 26.95 32.1396 27 32.0496 27.08C31.3796 27.65 30.7196 28.23 30.0596 28.81C29.0996 26.5 28.8496 23.77 29.2996 21.32C29.7896 18.67 31.0396 15.81 32.9796 13.88C34.4796 12.38 36.5996 12.61 37.6996 14.47C38.2196 15.35 38.2896 16.37 38.9296 17.19C41.3796 20.37 47.0896 17.1 48.4096 21.63Z" fill="#7C4412"/>
<path d="M48.0899 62.4299C48.1399 62.5899 48.1899 62.7399 48.2499 62.8799C47.7599 62.9399 47.2699 62.9899 46.7699 63.0099C46.7499 62.9399 46.7298 62.8799 46.7098 62.8099C46.5598 62.3299 46.8899 62.0099 47.2699 61.9399C47.5999 61.8899 47.9599 62.0299 48.0899 62.4299Z" fill="#AF5D9C"/>
<path d="M47.2495 61.7399L47.2695 61.9399C46.8895 62.0099 46.5595 62.3299 46.7095 62.8099C46.7295 62.8799 46.7495 62.9399 46.7695 63.0099C44.2195 63.1099 41.6195 62.6699 39.2295 61.8999C34.0195 60.2399 29.4995 57.1599 25.1895 53.8599C25.3195 53.3699 25.4595 52.8799 25.6195 52.3999C31.6795 57.0699 39.6695 62.5099 47.2495 61.7399Z" fill="#AF5D9C"/>
<path d="M45.9996 42.9999C49.9996 46.9999 43.9996 49.9999 40.9996 50.9999C36.3296 50.9999 31.6596 50.0999 27.8096 47.5399C27.8996 47.3999 27.9896 47.2499 28.0796 47.1099C30.4696 47.8799 34.7796 49.0199 38.2096 49.0199C41.3896 49.0199 43.8196 48.0399 43.2996 44.8999C43.1796 44.1999 42.3496 44.2799 42.0296 44.7499C42.0096 44.7799 41.9896 44.8199 41.9696 44.8599C42.0096 44.7599 42.0396 44.6599 42.0896 44.5699C42.1296 44.4699 42.1696 44.3799 42.2296 44.2899C42.4996 43.8299 42.8796 43.4499 43.3196 43.1899C43.4496 43.1099 43.5796 43.0399 43.7196 42.9899C43.7896 42.9499 43.8696 42.9199 43.9396 42.8999C44.1096 42.8399 44.2796 42.7999 44.4496 42.7699C44.5096 42.7599 44.5796 42.7599 44.6396 42.7499C45.1096 42.7099 45.5796 42.7899 45.9996 42.9999Z" fill="#AF5D9C"/>
<path d="M41.2492 42.86L43.6992 42.99C43.5692 43.05 43.4392 43.11 43.3192 43.19C42.8792 43.45 42.4992 43.83 42.2292 44.29C42.1692 44.38 42.1192 44.47 42.0892 44.57C42.0392 44.66 41.9992 44.76 41.9692 44.86C41.9692 44.87 41.9592 44.89 41.9592 44.9C41.9592 44.9 41.9492 44.91 41.9492 44.92C41.9492 44.93 41.9392 44.95 41.9392 44.96C41.9292 44.97 41.9292 44.99 41.9292 45C41.9292 45 41.9292 45.01 41.9292 45.02C41.9092 45.05 41.9092 45.08 41.8992 45.12C41.8892 45.17 41.8792 45.22 41.8692 45.27C41.8092 45.57 41.7892 45.89 41.8392 46.24C40.7892 48.74 32.7192 46.93 28.9092 45.83C29.5192 44.88 30.1292 43.93 30.7392 42.97C30.9492 42.64 31.1592 42.31 31.3692 41.97C31.5192 42 31.7092 42 31.9992 42C34.4992 43.25 38.5592 44.1 41.2492 42.86Z" fill="#D37DBB"/>
<path d="M41.8391 46.2399C41.9491 45.9699 41.9791 45.6499 41.9191 45.2799C41.9091 45.1899 41.9091 45.1099 41.9291 45.0299C41.9191 45.0199 41.9291 45.0199 41.9291 45.0199C41.9291 45.0099 41.9291 44.9999 41.9291 44.9999C41.9291 44.9899 41.9391 44.9699 41.9391 44.9599C41.9491 44.9399 41.9491 44.9299 41.9491 44.9199C41.9491 44.9099 41.9591 44.8999 41.9591 44.8999C41.9791 44.8499 41.9991 44.7999 42.0291 44.7499C42.3491 44.2799 43.1791 44.1999 43.2991 44.8999C43.8191 48.0399 41.3891 49.0199 38.2091 49.0199C34.7791 49.0199 30.4691 47.8799 28.0791 47.1099C28.3591 46.6799 28.6391 46.2599 28.9091 45.8299C32.7191 46.9299 40.7891 48.7399 41.8391 46.2399Z" fill="#AF5D9C"/>
<path d="M42.5991 38.0901C43.0591 38.1201 43.5191 38.2001 43.9791 38.3001C43.8891 40.7301 42.7991 42.1401 41.2491 42.8601C38.5591 44.1001 34.4991 43.2501 31.9991 42.0001C31.7091 42.0001 31.5191 42.0001 31.3691 41.9701C31.6991 41.4601 32.0291 40.9401 32.3491 40.4201C33.5691 41.2401 35.3091 41.4501 36.7091 41.5801C38.1791 41.7101 40.3391 41.8301 41.6291 40.9201C42.3591 40.4001 42.2891 39.6901 42.4191 38.8301C42.4491 38.5801 42.4891 38.3201 42.5191 38.0701C42.5391 38.0801 42.5691 38.0901 42.5991 38.0901Z" fill="#AF5D9C"/>
<path d="M42.7496 33.78C42.8396 33.89 42.8796 34.03 42.8696 34.21C42.8396 35.03 42.7696 35.85 42.6896 36.66C42.6596 36.66 42.6296 36.65 42.5996 36.65C42.5296 36.65 42.4696 36.65 42.4096 36.66C42.3196 36.68 42.2296 36.71 42.1696 36.77C41.9896 36.89 41.9096 37.1 41.9096 37.32L41.3496 37.29C41.4296 36.29 41.4096 35.23 41.4296 34.48C41.8896 34.28 42.3196 34.04 42.7496 33.78Z" fill="#663812"/>
<path d="M42.6892 36.6599C42.6392 37.1299 42.5792 37.5999 42.5192 38.0699C42.1092 37.9999 41.9092 37.6599 41.9092 37.3199C41.9092 37.0999 41.9892 36.8899 42.1692 36.7699C42.2292 36.7199 42.3092 36.6799 42.4092 36.6599C42.4692 36.6499 42.5292 36.6499 42.5992 36.6499C42.6292 36.6499 42.6592 36.6599 42.6892 36.6599Z" fill="#663812"/>
<path d="M42.5196 38.07C42.4896 38.32 42.4496 38.58 42.4196 38.83C42.2896 39.69 42.3596 40.4 41.6296 40.92C40.3396 41.83 38.1796 41.71 36.7096 41.58C35.3096 41.45 33.5696 41.24 32.3496 40.42C32.6196 40 32.8796 39.58 33.1396 39.16C33.1896 39.21 33.2396 39.26 33.2896 39.3C34.1796 39.97 35.9096 40.09 36.9596 40.17C37.8596 40.23 39.6996 40.47 40.4796 39.89C41.0296 39.47 41.2596 38.42 41.3496 37.29L41.9096 37.32C41.9096 37.66 42.1096 38 42.5196 38.07Z" fill="#663812"/>
<path d="M41.4397 34.2101C41.4797 33.4601 42.4197 33.3201 42.7497 33.7801C42.3197 34.0401 41.8897 34.2801 41.4297 34.4801C41.4397 34.3801 41.4397 34.2901 41.4397 34.2101Z" fill="#7C4412"/>
<path d="M42.4099 36.6599C42.3099 36.6799 42.2299 36.7199 42.1699 36.7699C42.2299 36.7099 42.3199 36.6799 42.4099 36.6599Z" fill="#663812"/>
<path d="M42.2298 44.29C42.1698 44.38 42.1298 44.47 42.0898 44.57C42.1198 44.47 42.1698 44.38 42.2298 44.29Z" fill="#D37DBB"/>
<path d="M42.0897 44.5701C42.0397 44.6601 42.0097 44.7601 41.9697 44.8601C41.9997 44.7601 42.0397 44.6601 42.0897 44.5701Z" fill="#D37DBB"/>
<path d="M41.9495 44.9199C41.9495 44.9299 41.9495 44.9399 41.9395 44.9599C41.9395 44.9499 41.9495 44.9299 41.9495 44.9199Z" fill="#D37DBB"/>
<path d="M41.9194 45.28C41.9794 45.65 41.9494 45.97 41.8394 46.24C41.7994 45.9 41.8094 45.57 41.8694 45.27C41.8794 45.22 41.8894 45.17 41.8994 45.12C41.9094 45.09 41.9094 45.06 41.9294 45.03C41.9094 45.11 41.9094 45.19 41.9194 45.28Z" fill="#D37DBB"/>
<path d="M41.9397 44.96C41.9397 44.97 41.9297 44.99 41.9297 45C41.9297 44.99 41.9297 44.97 41.9397 44.96Z" fill="#D37DBB"/>
<path d="M41.9294 45.02C41.9294 45.02 41.9194 45.02 41.9294 45.03C41.9094 45.06 41.9094 45.09 41.8994 45.12C41.9094 45.08 41.9094 45.05 41.9294 45.02Z" fill="#D37DBB"/>
<path d="M41.8399 46.24C41.7899 45.89 41.8099 45.57 41.8699 45.27C41.8099 45.57 41.7999 45.9 41.8399 46.24Z" fill="#D37DBB"/>
<path d="M41.4296 34.48C41.4096 35.23 41.4296 36.29 41.3496 37.29C41.2596 38.42 41.0296 39.47 40.4796 39.89C39.6996 40.47 37.8596 40.23 36.9596 40.17C35.9096 40.09 34.1796 39.97 33.2896 39.3C33.2396 39.26 33.1896 39.21 33.1396 39.16C33.6996 38.27 34.2597 37.39 34.8297 36.51C35.0597 36.16 35.3296 35.78 35.6096 35.38C36.2496 35.5 36.9196 35.55 37.6196 35.54C37.6296 35.54 37.6397 35.54 37.6497 35.54H37.6596C37.6896 35.54 37.7296 35.54 37.7596 35.54C39.0296 35.38 40.2696 35.02 41.4296 34.48Z" fill="#663812"/>
<path d="M39.9498 23.3C40.9198 24.03 41.0798 24.98 40.5298 26.04C39.6898 27.66 38.4898 29.18 37.5198 30.73C37.5098 30.76 37.4898 30.78 37.4698 30.8C37.3798 30.23 37.1298 29.69 36.7798 29.2C37.2898 28.37 37.7998 27.54 38.3398 26.73C38.7398 26.12 39.8398 25.16 39.1398 24.49C38.2398 23.66 37.0798 25.28 36.4798 25.83C35.8798 26.37 35.2598 26.89 34.6398 27.41C34.1198 27.15 33.5898 26.95 33.0898 26.86C34.3898 25.72 35.6398 24.42 37.0098 23.4C37.9898 22.66 38.9398 22.53 39.9498 23.3Z" fill="#D89E36"/>
<path d="M39.1396 24.49C39.8396 25.16 38.7396 26.12 38.3396 26.73C37.7996 27.54 37.2896 28.37 36.7796 29.2C36.2396 28.46 35.4696 27.84 34.6396 27.41C35.2596 26.89 35.8796 26.37 36.4796 25.83C37.0796 25.28 38.2396 23.66 39.1396 24.49Z" fill="#C68F36"/>
<path d="M37.7795 34.1001C38.6695 34.1001 38.5595 35.5001 37.6595 35.5401H37.6495C37.6395 35.5401 37.6295 35.5401 37.6195 35.5401C36.8495 35.5001 36.8995 34.2101 37.7595 34.1001C37.7695 34.1001 37.7695 34.1001 37.7795 34.1001Z" fill="#7C4412"/>
<path d="M36.5094 34.05C36.9094 34.1 37.3194 34.11 37.7594 34.1C36.8994 34.21 36.8494 35.5001 37.6194 35.5401C36.9194 35.5501 36.2494 35.5001 35.6094 35.3801C35.9094 34.9501 36.2194 34.51 36.5094 34.05Z" fill="#7C4412"/>
<path d="M37.4698 30.8C37.5098 31.06 37.5198 31.34 37.4898 31.62C37.3998 32.42 36.9998 33.25 36.5098 34.05C36.0098 33.99 35.5298 33.89 35.0898 33.75C35.6298 32.91 36.0698 32.06 36.0698 31.4C36.0698 31.12 36.0198 30.85 35.9198 30.6L36.1998 30.52C36.3198 31.02 37.0698 31.31 37.4698 30.8Z" fill="#D89E36"/>
<path d="M37.4692 30.7999C37.0692 31.3099 36.3192 31.02 36.1992 30.52C36.1492 30.36 36.1792 30.18 36.2892 30C36.4492 29.74 36.6192 29.47 36.7792 29.2C37.1292 29.69 37.3792 30.2299 37.4692 30.7999Z" fill="#D89E36"/>
<path d="M36.7796 29.1999C36.6196 29.4699 36.4496 29.7399 36.2896 29.9999C36.1796 30.1799 36.1496 30.3599 36.1996 30.5199L35.9196 30.5999C35.4496 29.4099 33.9896 28.5499 32.8496 28.2699C32.9196 28.2099 32.9896 28.1499 33.0596 28.0899C33.0696 28.0799 33.0796 28.0699 33.0896 28.0599C33.3396 28.2099 33.6796 28.2399 33.9596 27.9999C34.1896 27.7999 34.4096 27.6099 34.6396 27.4099C35.4696 27.8399 36.2396 28.4599 36.7796 29.1999Z" fill="#D89E36"/>
<path d="M36.51 34.05C36.22 34.51 35.91 34.95 35.61 35.38C35.13 35.29 34.65 35.16 34.21 34.99C34.51 34.6 34.81 34.17 35.09 33.75C35.53 33.89 36.01 33.99 36.51 34.05Z" fill="#D89E36"/>
<path d="M35.9197 30.6C36.0197 30.85 36.0697 31.12 36.0697 31.4C36.0697 32.06 35.6297 32.91 35.0897 33.75C34.3097 33.5 33.5997 33.14 32.9797 32.68C32.0597 32 31.3097 31.13 30.7197 30.13C31.4297 29.5 32.1397 28.89 32.8497 28.27C33.9897 28.55 35.4497 29.41 35.9197 30.6Z" fill="#B27F19"/>
<path d="M35.6092 35.38C35.3292 35.78 35.0592 36.16 34.8292 36.51C34.2592 37.39 33.6992 38.27 33.1392 39.16C32.7592 38.75 32.6592 38.03 32.6792 37.23C32.8492 36.96 33.0192 36.69 33.1892 36.42C33.4292 36.04 33.8092 35.55 34.2092 34.99C34.6492 35.16 35.1292 35.29 35.6092 35.38Z" fill="#D89E36"/>
<path d="M35.0897 33.7499C34.8097 34.1699 34.5097 34.5999 34.2097 34.9899C33.7797 34.8399 33.3697 34.6499 32.9797 34.4299C33.0097 34.1199 33.0397 33.8399 33.0497 33.6099C33.0497 33.3199 32.9097 33.1199 32.7197 33.0099L32.9797 32.6799C33.5997 33.1399 34.3097 33.4999 35.0897 33.7499Z" fill="#B27F19"/>
<path d="M34.6399 27.4099C34.4099 27.6099 34.1899 27.7999 33.9599 27.9999C33.6799 28.2399 33.3399 28.2099 33.0899 28.0599C33.4599 27.7099 33.2699 27.2299 32.9199 27.0199C32.9299 26.9999 32.9399 26.9899 32.9499 26.9799C32.9999 26.9499 33.0399 26.8999 33.0899 26.8599C33.5899 26.9499 34.1199 27.1499 34.6399 27.4099Z" fill="#D89E36"/>
<path d="M32.9797 34.4299C33.3697 34.6499 33.7797 34.8399 34.2097 34.9899C33.8097 35.5499 33.4297 36.0399 33.1897 36.4199C33.0197 36.6899 32.8497 36.9599 32.6797 37.2299C32.6897 36.2999 32.8697 35.2599 32.9797 34.4299Z" fill="#B27F19"/>
<path d="M32.9192 27.02C33.2692 27.23 33.4592 27.71 33.0892 28.06C32.7292 27.84 32.5392 27.37 32.9192 27.02Z" fill="#D89E36"/>
<path d="M33.1394 39.16C32.8794 39.58 32.6194 40 32.3494 40.42C32.2494 40.35 32.1494 40.29 32.0594 40.21C31.7294 39.94 31.4994 39.67 31.3594 39.3C31.7994 38.61 32.2294 37.92 32.6794 37.23C32.6594 38.03 32.7594 38.75 33.1394 39.16Z" fill="#D89E36"/>
<path d="M33.0895 28.06C33.0795 28.07 33.0695 28.08 33.0595 28.09C32.9895 28.15 32.9195 28.21 32.8495 28.27C32.7195 28.24 32.5895 28.21 32.4695 28.2C31.7595 28.1 31.8395 27.24 32.3295 26.93L32.3395 26.92C32.5395 26.86 32.7495 26.91 32.9195 27.02C32.5395 27.37 32.7295 27.84 33.0895 28.06Z" fill="#D89E36"/>
<path d="M32.8498 26.8201C32.9298 26.8301 33.0098 26.8401 33.0898 26.8601C33.0398 26.9001 32.9998 26.9501 32.9498 26.9801C32.9398 26.9901 32.9298 27.0001 32.9198 27.0201C32.7498 26.9101 32.5398 26.8601 32.3398 26.9201C32.4798 26.8401 32.6498 26.7901 32.8498 26.8201Z" fill="#D89E36"/>
<path d="M33.0499 33.6101C33.0399 33.8401 33.0099 34.1201 32.9799 34.4301C32.4999 34.1601 32.0499 33.8501 31.6299 33.5001C31.7099 32.9501 32.3299 32.7901 32.7199 33.0101C32.9099 33.1201 33.0499 33.3201 33.0499 33.6101Z" fill="#B27F19"/>
<path d="M32.9793 32.6799L32.7193 33.0099C32.3293 32.7899 31.7093 32.9499 31.6293 33.4999C30.8293 32.8399 30.1393 32.0299 29.5693 31.1299C29.9493 30.7899 30.3293 30.4599 30.7193 30.1299C31.3093 31.1299 32.0593 31.9999 32.9793 32.6799Z" fill="#B27F19"/>
<path d="M32.9791 34.43C32.8691 35.26 32.6891 36.3 32.6791 37.23C32.2291 37.92 31.7991 38.61 31.3591 39.3C31.3291 39.22 31.2991 39.13 31.2691 39.04C30.8791 37.57 31.5891 35.15 31.6091 33.61C31.6091 33.57 31.6191 33.53 31.6291 33.5C32.0491 33.85 32.4991 34.16 32.9791 34.43Z" fill="#B27F19"/>
<path d="M32.4696 28.1999C32.5896 28.2099 32.7196 28.2399 32.8496 28.2699C32.1396 28.8899 31.4296 29.4999 30.7196 30.1299C30.4696 29.7099 30.2496 29.2599 30.0596 28.8099C30.7196 28.2299 31.3796 27.6499 32.0496 27.0799C32.1396 26.9999 32.2396 26.9499 32.3296 26.9299C31.8396 27.2399 31.7596 28.0999 32.4696 28.1999Z" fill="#D89E36"/>
<path d="M31.3693 41.9701C31.1593 42.3101 30.9493 42.6401 30.7393 42.9701C30.1293 43.9301 29.5193 44.8801 28.9093 45.8301C28.3193 45.6701 27.8293 45.51 27.4893 45.39C28.7893 43.36 30.0793 41.33 31.3593 39.3C31.4993 39.67 31.7293 39.94 32.0593 40.21C32.1493 40.29 32.2493 40.35 32.3493 40.42C32.0293 40.94 31.6993 41.4601 31.3693 41.9701Z" fill="#D89E36"/>
<path d="M31.6295 33.4999C31.6195 33.5299 31.6095 33.5699 31.6095 33.6099C31.5895 35.1499 30.8795 37.5699 31.2695 39.0399C31.2995 39.1299 31.3295 39.2199 31.3595 39.2999C30.0795 41.3299 28.7895 43.3599 27.4895 45.3899C27.4795 45.3899 27.4695 45.3899 27.4695 45.3799C27.4795 45.3499 27.4795 45.3099 27.4895 45.2799V45.2699C27.9595 42.9199 26.6095 41.1299 24.0695 41.9399C21.5395 42.7399 19.0495 45.0299 18.7295 47.7699C18.4895 49.7699 19.8195 51.6499 21.8895 51.2799C21.9095 51.3099 21.9295 51.3299 21.9595 51.3499C22.3195 51.6299 22.6895 51.9199 23.0595 52.2099C22.1095 53.6599 21.1595 55.0999 20.2095 56.5399C20.1995 56.5599 20.1895 56.5699 20.1795 56.5899C18.7895 58.6999 17.4795 60.8699 15.9795 62.8999C16.4395 59.1899 15.2595 55.8399 12.2295 53.4299C12.1695 53.3899 12.1295 53.3499 12.0695 53.3099C12.0095 53.2599 11.9395 53.2199 11.8795 53.1999C10.2995 52.2799 8.43945 51.9599 6.68945 52.2199C8.80945 50.1599 10.9595 48.1099 13.1095 46.0999C13.7995 45.9899 14.4895 45.6999 14.9995 45.3299C15.9495 44.6199 16.7895 43.6999 17.6495 42.8799C18.3695 42.1999 18.9695 41.4599 19.1295 40.4999C20.0295 39.6599 20.9395 38.8399 21.8495 38.0099C24.4095 35.6899 26.9795 33.3999 29.5695 31.1299C30.1395 32.0299 30.8295 32.8399 31.6295 33.4999Z" fill="#B27F19"/>
<path d="M30.7191 30.1301C30.3291 30.4601 29.9491 30.7901 29.5691 31.1301C29.3091 30.7301 29.0691 30.2901 28.8691 29.8501C29.2691 29.4901 29.6591 29.1501 30.0591 28.8101C30.2491 29.2601 30.4691 29.7101 30.7191 30.1301Z" fill="#D89E36"/>
<path d="M27.1896 14.5801L30.0496 15.4201C28.7296 17.7101 27.8596 20.4001 27.6596 21.9601C27.5496 22.8201 27.5196 23.7001 27.5696 24.5701L25.5696 24.5801C25.5696 23.2101 24.6996 22.0801 23.8596 21.0101C21.0596 17.4401 25.3196 16.6101 27.1896 14.5801Z" fill="#282624"/>
<path d="M28.8699 29.8501C29.0699 30.2901 29.3099 30.7301 29.5699 31.1301C26.9799 33.4001 24.4099 35.6901 21.8499 38.0101L21.1299 37.2101C21.2999 37.0401 21.3999 36.7901 21.3399 36.5501C23.8299 34.2901 26.3399 32.0601 28.8699 29.8501Z" fill="#D89E36"/>
<path d="M28.9097 45.8299C28.6397 46.2599 28.3597 46.6799 28.0797 47.1099C27.6197 46.9599 27.2297 46.8299 26.9297 46.7199C27.1197 46.3399 27.2697 45.9699 27.3997 45.5999C27.3997 45.5899 27.4097 45.5799 27.4097 45.5699C27.4197 45.5399 27.4297 45.5099 27.4397 45.4699C27.4497 45.4599 27.4497 45.4399 27.4597 45.4299C27.4797 45.4199 27.4797 45.3999 27.4897 45.3899C27.8297 45.5099 28.3197 45.6699 28.9097 45.8299Z" fill="#AF5D9C"/>
<path d="M28.0799 47.11C27.9899 47.25 27.8999 47.4 27.8099 47.54C27.5399 47.36 27.2599 47.2 26.9999 47C26.9699 46.94 26.9199 46.89 26.8799 46.83V46.82C26.8999 46.79 26.9199 46.75 26.9299 46.72C27.2299 46.83 27.6199 46.96 28.0799 47.11Z" fill="#AF5D9C"/>
<path d="M27.81 47.54C27.73 47.65 27.66 47.76 27.59 47.87C27.38 47.6 27.19 47.3 27 47C27.26 47.2 27.54 47.36 27.81 47.54Z" fill="#D37DBB"/>
<path d="M27.5696 24.5701C27.6696 26.4101 28.0996 28.2301 28.8696 29.8501C26.3396 32.0601 23.8296 34.2901 21.3396 36.5501C21.3096 36.4301 21.2496 36.3201 21.1396 36.2201C17.3796 32.6301 24.8396 28.7301 25.5096 25.1901C25.5496 24.9801 25.5696 24.7801 25.5696 24.5801L27.5696 24.5701Z" fill="#282624"/>
<path d="M27.5898 47.8701C26.7198 49.2201 25.8498 50.5601 24.9698 51.9001C24.5798 51.6001 24.2098 51.3001 23.8398 51.0201C24.0798 50.6501 24.3198 50.2901 24.5498 49.9301C24.5498 49.9301 24.5498 49.9301 24.5498 49.9201C25.5398 49.0901 26.3198 47.9801 26.8798 46.8301C26.9198 46.8901 26.9698 46.9401 26.9998 47.0001C27.1898 47.3001 27.3798 47.6001 27.5898 47.8701Z" fill="#D37DBB"/>
<path d="M24.0691 41.94C26.6091 41.13 27.9591 42.92 27.4891 45.27C27.5791 44.51 26.3391 44.22 26.0791 45.04C26.3491 43.84 25.5691 43.01 24.2191 43.39C23.4591 43.61 22.6491 44.17 22.0691 44.69C21.0391 45.59 19.9991 47.02 20.1191 48.46C20.3291 50.85 22.7391 49.6 23.8091 48.63C24.8691 47.68 25.6091 46.46 26.0491 45.11C26.0591 45.13 26.0691 45.15 26.0691 45.16C26.0491 45.41 26.1391 45.61 26.3091 45.75C26.2291 46.07 26.3291 46.45 26.6991 46.62C25.9891 47.73 25.2791 48.83 24.5491 49.92C24.5491 49.93 24.5491 49.93 24.5491 49.93C24.2091 50.22 23.8291 50.49 23.4391 50.7C23.2791 50.58 23.1291 50.45 22.9691 50.33C22.2791 49.79 21.2991 50.71 21.8891 51.28C19.8191 51.65 18.4891 49.77 18.7291 47.77C19.0491 45.03 21.5391 42.74 24.0691 41.94Z" fill="#7C4412"/>
<path d="M27.4893 45.2701V45.2801C27.4793 45.3101 27.4793 45.3501 27.4693 45.3801C27.3393 45.3501 27.2293 45.3101 27.1493 45.2701C26.7193 45.1101 26.4193 45.3601 26.3193 45.7101C26.2293 45.5301 26.1493 45.3601 26.0693 45.1601C26.0793 45.1201 26.0693 45.0901 26.0793 45.0401C26.3393 44.2201 27.5793 44.5101 27.4893 45.2701Z" fill="#7C4412"/>
<path d="M27.49 45.3899C27.48 45.3999 27.48 45.4199 27.46 45.4299C27.46 45.4099 27.47 45.3999 27.47 45.3799C27.47 45.3899 27.48 45.3899 27.49 45.3899Z" fill="#7C4412"/>
<path d="M27.4693 45.3799C27.4693 45.3999 27.4593 45.4099 27.4593 45.4299C27.4493 45.4399 27.4493 45.4599 27.4393 45.4699C27.3793 45.5799 27.2993 45.6899 27.2393 45.7899C27.2293 45.7999 27.2293 45.7999 27.2293 45.7999C26.9793 45.9999 26.6093 45.9699 26.3493 45.7799C26.3393 45.7599 26.3293 45.7299 26.3193 45.7099C26.4193 45.3599 26.7193 45.1099 27.1493 45.2699C27.2293 45.3099 27.3393 45.3499 27.4693 45.3799Z" fill="#7C4412"/>
<path d="M27.4393 45.47C27.4293 45.51 27.4193 45.54 27.4093 45.57C27.4093 45.58 27.3993 45.59 27.3993 45.6C27.3593 45.69 27.2993 45.75 27.2393 45.79C27.2993 45.69 27.3793 45.58 27.4393 45.47Z" fill="#7C4412"/>
<path d="M27.3993 45.6001C27.2693 45.9701 27.1193 46.3401 26.9293 46.7201C26.8793 46.7001 26.8393 46.6801 26.7993 46.6701C26.7993 46.6701 26.7993 46.6601 26.7893 46.6601C26.7893 46.6501 26.7893 46.6501 26.7793 46.6401C26.7693 46.6201 26.7593 46.6001 26.7393 46.5701V46.5601C26.7493 46.5501 26.7593 46.5301 26.7693 46.5201C26.9193 46.2801 27.0693 46.0401 27.2293 45.8001C27.2293 45.8001 27.2293 45.8001 27.2393 45.7901C27.2993 45.7501 27.3593 45.6901 27.3993 45.6001Z" fill="#7C4412"/>
<path d="M27.2296 45.8C27.0696 46.04 26.9196 46.28 26.7696 46.52C26.7596 46.53 26.7496 46.55 26.7396 46.56C26.7296 46.54 26.7196 46.53 26.7196 46.52C26.6996 46.5 26.6896 46.48 26.6796 46.46C26.6496 46.41 26.6296 46.36 26.6096 46.31C26.5196 46.15 26.4396 45.98 26.3596 45.8C26.3496 45.8 26.3496 45.79 26.3496 45.78C26.6096 45.97 26.9796 46 27.2296 45.8Z" fill="#7C4412"/>
<path d="M26.9298 46.7199C26.9198 46.7499 26.8998 46.7899 26.8798 46.8199C26.8598 46.7699 26.8298 46.7199 26.7998 46.6699C26.8398 46.6799 26.8798 46.6999 26.9298 46.7199Z" fill="#7C4412"/>
<path d="M26.8798 46.8199V46.8299C26.3198 47.9799 25.5398 49.0899 24.5498 49.9199C25.2798 48.8299 25.9898 47.7299 26.6998 46.6199C26.7198 46.6299 26.7398 46.6399 26.7598 46.6499C26.7698 46.6499 26.7798 46.6599 26.7798 46.6599H26.7898C26.7998 46.6599 26.7998 46.6699 26.7998 46.6699C26.8298 46.7199 26.8598 46.7699 26.8798 46.8199Z" fill="#7C4412"/>
<path d="M26.7793 46.6399C26.7893 46.6499 26.7893 46.6499 26.7893 46.6599H26.7793C26.7793 46.6499 26.7793 46.6499 26.7793 46.6399Z" fill="#7C4412"/>
<path d="M26.7392 46.5701C26.7592 46.6001 26.7692 46.6201 26.7792 46.6401C26.7792 46.6501 26.7792 46.6501 26.7792 46.6601C26.7792 46.6601 26.7692 46.6501 26.7592 46.6501C26.7392 46.6401 26.7192 46.6301 26.6992 46.6201C26.7092 46.6101 26.7292 46.5901 26.7392 46.5701Z" fill="#7C4412"/>
<path d="M26.7399 46.56V46.57C26.7299 46.59 26.7099 46.61 26.6999 46.62C26.3299 46.45 26.2299 46.07 26.3099 45.75C26.3199 45.76 26.3299 45.77 26.3499 45.78C26.3499 45.79 26.3499 45.8 26.3599 45.8C26.4399 45.98 26.5199 46.15 26.6099 46.31C26.6299 46.36 26.6499 46.41 26.6799 46.46C26.6899 46.48 26.6999 46.5 26.7199 46.52C26.7199 46.53 26.7299 46.54 26.7399 46.56Z" fill="#7C4412"/>
<path d="M26.3196 45.71C26.3296 45.73 26.3396 45.76 26.3496 45.78C26.3296 45.77 26.3196 45.76 26.3096 45.75C26.3096 45.73 26.3096 45.72 26.3196 45.71Z" fill="#7C4412"/>
<path d="M26.3192 45.7099C26.3092 45.7199 26.3092 45.7299 26.3092 45.7499C26.1392 45.6099 26.0492 45.4099 26.0692 45.1599C26.1492 45.3599 26.2292 45.5299 26.3192 45.7099Z" fill="#7C4412"/>
<path d="M24.2198 43.3899C25.5698 43.0099 26.3498 43.8399 26.0798 45.0399C26.0698 45.0699 26.0598 45.0899 26.0498 45.1099C25.6098 46.4599 24.8698 47.6799 23.8098 48.6299C22.7398 49.5999 20.3298 50.8499 20.1198 48.4599C19.9998 47.0199 21.0398 45.5899 22.0698 44.6899C22.6498 44.1699 23.4598 43.6099 24.2198 43.3899Z" fill="#7C4412"/>
<path d="M26.0798 45.04C26.0698 45.09 26.0798 45.12 26.0698 45.16C26.0698 45.15 26.0598 45.13 26.0498 45.11C26.0598 45.09 26.0698 45.07 26.0798 45.04Z" fill="#7C4412"/>
<path d="M25.6893 81.4C25.7793 81.96 25.8793 82.52 25.9793 83.08C24.9093 82.64 23.8593 82.09 22.8393 81.41C22.8293 81.41 22.8293 81.41 22.8293 81.41C22.6093 80.69 22.4093 79.97 22.2393 79.23C22.2793 79.24 22.3293 79.27 22.3593 79.31C23.4193 80.17 24.5393 80.85 25.6893 81.4Z" fill="#AF5D9C"/>
<path d="M24.9695 51.8999C25.1795 52.0599 25.3995 52.2299 25.6195 52.3999C25.4595 52.8799 25.3195 53.3699 25.1895 53.8599C24.8595 53.6099 24.5195 53.3499 24.1895 53.0899C24.4495 52.6999 24.7095 52.2999 24.9695 51.8999Z" fill="#AF5D9C"/>
<path d="M24.8292 75.5001C25.0792 77.4601 25.3492 79.4301 25.6892 81.4001C24.5392 80.8501 23.4192 80.1701 22.3592 79.3101C22.3292 79.2701 22.2792 79.2401 22.2392 79.2301C21.9592 78.0801 21.7492 76.9101 21.6292 75.6601C20.9892 69.4701 21.7192 63.2401 21.8592 57.0401C21.8692 56.9201 21.8392 56.8201 21.7992 56.7301V56.7201C21.8392 56.6601 21.8792 56.6001 21.9192 56.5401C22.6792 55.3901 23.4392 54.2401 24.1892 53.0901C24.5192 53.3501 24.8592 53.6101 25.1892 53.8601C23.2992 60.9701 24.3892 68.4001 24.8292 75.5001Z" fill="#AF5D9C"/>
<path d="M24.9696 51.9C24.7096 52.3 24.4496 52.7 24.1896 53.09C23.8096 52.8 23.4296 52.51 23.0596 52.21C23.3196 51.81 23.5796 51.41 23.8396 51.02C24.2096 51.3 24.5796 51.6 24.9696 51.9Z" fill="#AF5D9C"/>
<path d="M24.5495 49.9299C24.3195 50.2899 24.0795 50.6499 23.8395 51.0199C23.6995 50.9099 23.5695 50.8099 23.4395 50.6999C23.8295 50.4899 24.2095 50.2199 24.5495 49.9299Z" fill="#D37DBB"/>
<path d="M24.19 53.09C23.44 54.24 22.68 55.39 21.92 56.54C21.88 56.6 21.84 56.66 21.8 56.72C21.57 56.21 20.74 56.22 20.5 56.73L20.21 56.54C21.16 55.1 22.11 53.66 23.06 52.21C23.43 52.51 23.81 52.8 24.19 53.09Z" fill="#D89E36"/>
<path d="M23.8396 51.02C23.5796 51.41 23.3196 51.8099 23.0596 52.2099C22.6896 51.9199 22.3196 51.6299 21.9596 51.3499C21.9296 51.3299 21.9096 51.3099 21.8896 51.2799C21.9796 51.2599 22.0696 51.25 22.1596 51.22C22.6096 51.1 23.0396 50.93 23.4396 50.7C23.5696 50.81 23.6996 50.91 23.8396 51.02Z" fill="#AF5D9C"/>
<path d="M22.9693 50.3301C23.1293 50.4501 23.2793 50.5801 23.4393 50.7001C23.0393 50.9301 22.6093 51.1001 22.1593 51.2201C22.0693 51.2501 21.9793 51.2601 21.8893 51.2801C21.2993 50.7101 22.2793 49.7901 22.9693 50.3301Z" fill="#7C4412"/>
<path d="M22.2394 79.2299C22.4094 79.9699 22.6094 80.6899 22.8294 81.4099C22.3294 81.0799 21.8394 80.7099 21.3494 80.3199C21.2194 80.2199 21.1494 80.0999 21.1194 79.9799C20.9994 79.4599 21.6794 78.9199 22.2394 79.2299Z" fill="#AF5D9C"/>
<path d="M22.2398 79.23C21.6798 78.92 20.9998 79.46 21.1198 79.98L20.8098 80.04C20.4798 78.44 20.2998 76.8 20.1498 75.23C19.6598 69.8 20.1598 64.37 20.3698 58.94C20.8498 58.2 21.3198 57.46 21.7998 56.73C21.8398 56.82 21.8698 56.92 21.8598 57.04C21.7198 63.24 20.9898 69.47 21.6298 75.66C21.7498 76.91 21.9598 78.08 22.2398 79.23Z" fill="#AF5D9C"/>
<path d="M21.1297 37.21L21.8497 38.01C20.9397 38.84 20.0297 39.66 19.1297 40.5C19.1597 40.35 19.1697 40.2 19.1797 40.05C19.1797 39.94 19.1597 39.85 19.1297 39.77C19.0597 39.42 18.9197 39.14 18.7197 38.93C19.2797 38.42 19.8397 37.9 20.3997 37.4C20.6597 37.49 20.9397 37.39 21.1297 37.21Z" fill="#D89E36"/>
<path d="M21.7991 56.7201V56.7301C21.3191 57.4601 20.8491 58.2001 20.3691 58.9401C20.3991 58.3001 20.4191 57.6701 20.4291 57.0401C20.4291 56.9301 20.4591 56.8301 20.4991 56.7301C20.7391 56.2201 21.5691 56.2101 21.7991 56.7201Z" fill="#D89E36"/>
<path d="M21.3394 36.55C21.3994 36.79 21.2994 37.04 21.1294 37.21C20.9394 37.39 20.6594 37.4901 20.3994 37.4001C20.7094 37.1101 21.0294 36.83 21.3394 36.55Z" fill="#D89E36"/>
<path d="M20.2091 56.54L20.4991 56.73C20.4591 56.83 20.4291 56.93 20.4291 57.04C20.4191 57.67 20.3991 58.3 20.3691 58.94C18.6891 61.57 16.9991 64.21 14.8691 66.51C15.2391 65.91 15.5191 65.23 15.6991 64.48C15.8191 63.95 15.9191 63.42 15.9791 62.9C17.4791 60.87 18.7891 58.7 20.1791 56.59C20.1891 56.57 20.1991 56.56 20.2091 56.54Z" fill="#D89E36"/>
<path d="M19.1296 39.77C19.1596 39.85 19.1796 39.94 19.1796 40.05C19.1696 40.2 19.1596 40.35 19.1296 40.5C17.1096 42.34 15.0996 44.21 13.1096 46.1C12.4496 46.2 11.8096 46.13 11.3096 45.82C11.6696 45.47 12.0296 45.14 12.3896 44.8C13.2496 45.07 14.8696 43.54 15.3296 43.09C16.1396 42.27 17.6596 41.37 17.7396 40.11C17.7496 40.15 17.7596 40.19 17.7696 40.24C17.9296 41.15 19.3096 40.76 19.1496 39.86C19.1496 39.83 19.1396 39.8 19.1296 39.77Z" fill="#7C4412"/>
<path d="M19.1493 39.8601C19.3093 40.7601 17.9293 41.1501 17.7693 40.2401C17.7593 40.1901 17.7493 40.1501 17.7393 40.1101C17.7393 40.0901 17.7393 40.0701 17.7393 40.0501C17.7493 39.9401 17.7693 39.8501 17.8093 39.7701C17.9393 39.6401 18.0693 39.5201 18.1993 39.4001C18.5393 39.2801 18.9893 39.4001 19.1293 39.7701C19.1393 39.8001 19.1493 39.8301 19.1493 39.8601Z" fill="#7C4412"/>
<path d="M18.7192 38.9299C18.9192 39.1399 19.0592 39.4199 19.1292 39.7699C18.9892 39.3999 18.5392 39.2799 18.1992 39.3999C18.3692 39.2399 18.5492 39.0799 18.7192 38.9299Z" fill="#7C4412"/>
<path d="M18.7192 38.93C18.5492 39.08 18.3692 39.24 18.1992 39.4C18.0292 39.47 17.8792 39.58 17.8092 39.77C17.7492 39.82 17.6892 39.87 17.6292 39.92C16.9192 39 13.8792 40.94 13.3692 41.45C12.8192 42.01 11.7292 43.27 11.9092 44.13C11.9892 44.53 12.1592 44.73 12.3892 44.8C12.0292 45.14 11.6692 45.47 11.3092 45.82C10.8692 45.54 10.5492 45.06 10.4792 44.33C10.3092 42.53 11.9192 40.63 13.2792 39.65C14.4592 38.8 17.5492 37.59 18.7192 38.93Z" fill="#7C4412"/>
<path d="M18.1996 39.3999C18.0696 39.5199 17.9396 39.6399 17.8096 39.7699C17.8796 39.5799 18.0296 39.4699 18.1996 39.3999Z" fill="#7C4412"/>
<path d="M19.1294 40.5C18.9694 41.46 18.3694 42.2 17.6494 42.88C16.7894 43.7 15.9494 44.62 14.9994 45.33C14.4894 45.7 13.7994 45.99 13.1094 46.1C15.0994 44.21 17.1094 42.34 19.1294 40.5Z" fill="#7C4412"/>
<path d="M17.8099 39.77C17.7699 39.85 17.7499 39.94 17.7399 40.05C17.7399 40.07 17.7399 40.09 17.7399 40.11C17.7099 40.04 17.6799 39.98 17.6299 39.92C17.6899 39.87 17.7499 39.82 17.8099 39.77Z" fill="#7C4412"/>
<path d="M17.7396 40.1099C17.6596 41.3699 16.1396 42.2699 15.3296 43.0899C14.8696 43.5399 13.2496 45.0699 12.3896 44.7999C14.1296 43.1599 15.8796 41.5399 17.6296 39.9199C17.6796 39.9799 17.7096 40.0399 17.7396 40.1099Z" fill="#7C4412"/>
<path d="M13.3695 41.4499C13.8795 40.9399 16.9195 38.9999 17.6295 39.9199C15.8795 41.5399 14.1295 43.1599 12.3895 44.7999C12.1595 44.7299 11.9895 44.5299 11.9095 44.1299C11.7295 43.2699 12.8195 42.0099 13.3695 41.4499Z" fill="#7C4412"/>
<path d="M12.2296 53.4299C15.2596 55.8399 16.4396 59.1899 15.9796 62.8999C15.1596 64.0199 14.2596 65.1099 13.2696 66.1099C14.0396 65.0199 14.4996 63.5799 14.5696 62.0699C14.7196 58.9199 13.9096 56.5099 11.3496 54.5399C12.0796 54.9899 12.7496 53.9699 12.2296 53.4299Z" fill="#D89E36"/>
<path d="M15.9792 62.8999C15.9192 63.4199 15.8192 63.9499 15.6992 64.4799C15.5192 65.2299 15.2392 65.9099 14.8692 66.5099C14.6492 66.7599 14.3992 67.0099 14.1592 67.2499C13.5892 67.8199 12.7392 67.1199 12.9792 66.4999C13.0792 66.3799 13.1792 66.2499 13.2692 66.1099C14.2592 65.1099 15.1592 64.0199 15.9792 62.8999Z" fill="#D89E36"/>
<path d="M11.3492 54.54C13.9092 56.51 14.7192 58.92 14.5692 62.07C14.4992 63.58 14.0392 65.02 13.2692 66.11C13.2292 66.16 13.1892 66.2 13.1492 66.24C13.0692 66.32 13.0092 66.41 12.9792 66.5C11.6692 68.06 9.63924 68.72 7.12924 67.52C3.95924 66 1.57924 61.98 2.10924 58.48C2.30924 57.11 2.91924 56 3.76924 55.18C5.68924 53.35 8.82924 52.99 11.3492 54.54ZM10.8792 66.64C13.8892 65.11 13.5692 60.91 12.5692 58.36C12.5592 58.33 12.5492 58.3 12.5292 58.27C12.5292 58.26 12.5292 58.25 12.5192 58.25C12.5192 58.23 12.5092 58.21 12.4992 58.2C11.2692 55.45 7.97924 53.42 5.18924 55.48C2.80924 57.24 3.08924 60.76 4.26924 63.13C5.37924 65.35 8.17924 68.02 10.8792 66.64Z" fill="#B27F19"/>
<path d="M14.1596 67.2499C14.3996 67.0099 14.6496 66.7599 14.8696 66.5099C13.1196 69.4099 9.45956 70.4299 6.16956 68.6499C2.01956 66.3999 -0.710441 60.7299 1.24956 56.2299C1.54956 55.5399 1.94956 54.9299 2.42956 54.4199C2.04956 55.0499 2.95956 55.8599 3.55956 55.2699C3.60956 55.2199 3.65956 55.1699 3.70956 55.1199L3.76956 55.1799C2.91956 55.9999 2.30956 57.1099 2.10956 58.4799C1.57956 61.9799 3.95956 65.9999 7.12956 67.5199C9.63956 68.7199 11.6696 68.0599 12.9796 66.4999C12.7396 67.1199 13.5896 67.8199 14.1596 67.2499Z" fill="#D89E36"/>
<path d="M12.5697 58.3599C13.5697 60.9099 13.8897 65.1099 10.8797 66.6399C8.17974 68.0199 5.37974 65.3499 4.26974 63.1299C3.08974 60.7599 2.80974 57.2399 5.18974 55.4799C7.97974 53.4199 11.2697 55.4499 12.4997 58.1999C12.5097 58.2099 12.5197 58.2299 12.5197 58.2499C12.1097 57.5499 10.8697 57.9299 11.1897 58.7399C9.96974 56.3199 6.27974 54.6099 5.02974 58.0699C4.42974 59.7399 5.01974 61.7199 5.92974 63.1499C7.16974 65.1099 9.63974 66.6599 11.2497 64.0799C12.3097 62.3699 11.9197 60.6599 11.2697 58.9199C11.6297 59.7299 12.7997 59.0699 12.5297 58.2699C12.5497 58.2999 12.5597 58.3299 12.5697 58.3599Z" fill="#FFD283"/>
<path d="M13.2695 66.1099C13.1795 66.2499 13.0795 66.3799 12.9795 66.4999C13.0095 66.4099 13.0695 66.3199 13.1495 66.2399C13.1895 66.1999 13.2295 66.1599 13.2695 66.1099Z" fill="#B27F19"/>
<path d="M11.3097 45.8201C11.8097 46.1301 12.4497 46.2001 13.1097 46.1001C10.9597 48.1101 8.80969 50.1601 6.68969 52.2201C5.06969 52.4601 3.53969 53.2001 2.42969 54.4201C2.44969 54.3601 2.49969 54.3101 2.54969 54.2601C5.43969 51.4101 8.35969 48.6001 11.3097 45.8201Z" fill="#D89E36"/>
<path d="M12.5299 58.27C12.7999 59.07 11.6299 59.73 11.2699 58.92C11.2599 58.9 11.2499 58.87 11.2399 58.85C11.2199 58.82 11.2099 58.78 11.1899 58.74C10.8699 57.93 12.1099 57.55 12.5199 58.25C12.5299 58.25 12.5299 58.26 12.5299 58.27Z" fill="#FFD283"/>
<path d="M12.2291 53.4299C12.7491 53.9699 12.0791 54.9899 11.3491 54.5399C10.6991 54.0399 11.2191 52.9699 11.8791 53.1999C11.9491 53.2299 12.0091 53.2699 12.0691 53.3099C12.1291 53.3499 12.1691 53.3899 12.2291 53.4299Z" fill="#D89E36"/>
<path d="M12.0699 53.31C12.0099 53.27 11.9499 53.23 11.8799 53.2C11.9399 53.22 12.0099 53.26 12.0699 53.31Z" fill="#54548C"/>
<path d="M11.88 53.2C11.22 52.97 10.7 54.04 11.35 54.54C8.82996 52.99 5.68996 53.35 3.76996 55.18L3.70996 55.12C4.69996 54.15 5.69996 53.18 6.68996 52.22C8.43996 51.96 10.3 52.28 11.88 53.2Z" fill="#D89E36"/>
<path d="M6.68977 52.22C5.69977 53.18 4.69977 54.15 3.70977 55.12C3.65977 55.17 3.60977 55.22 3.55977 55.27C2.95977 55.86 2.04977 55.05 2.42977 54.42C3.53977 53.2 5.06977 52.46 6.68977 52.22Z" fill="#D89E36"/>
<path opacity="0.502" d="M37.8089 94.623C35.9689 94.623 33.9939 95.527 32.4849 96.978C32.2239 97.229 32.4739 97.594 32.7559 97.594C32.8379 97.594 32.9219 97.563 32.9979 97.491C34.3379 96.202 36.1539 95.33 37.8309 95.33C39.4519 95.33 40.9429 96.144 41.7509 98.182C41.7509 98.183 41.7519 98.184 41.7529 98.186C41.9629 98.063 42.1769 97.952 42.3949 97.852C41.4379 95.572 39.6939 94.623 37.8089 94.623Z" fill="white"/>
<path opacity="0.502" d="M45.0884 97.2412C44.1704 97.2412 43.2524 97.4562 42.3934 97.8512C42.1754 97.9512 41.9614 98.0632 41.7514 98.1852C40.6844 98.8092 39.7374 99.7162 39.0324 100.83C38.8584 101.105 39.1094 101.365 39.3614 101.365C39.4714 101.365 39.5824 101.315 39.6584 101.195C40.9004 99.2312 42.9784 97.9592 45.0664 97.9592C46.3814 97.9592 47.7004 98.4632 48.8184 99.6182C48.8934 99.6952 48.9774 99.7282 49.0604 99.7282C49.3354 99.7282 49.5824 99.3642 49.3324 99.1062C48.6124 98.3632 47.8124 97.8582 46.9794 97.5642C46.9784 97.5672 46.9784 97.5702 46.9774 97.5732C46.9334 97.7532 46.7964 97.8312 46.6544 97.8312C46.4394 97.8312 46.2124 97.6522 46.2784 97.3792C46.2794 97.3752 46.2804 97.3712 46.2814 97.3672C45.8864 97.2822 45.4874 97.2412 45.0884 97.2412Z" fill="white"/>
<path opacity="0.502" d="M50.8702 93.6931C48.7682 93.6931 46.8442 95.0781 46.2812 97.3661C46.2802 97.3701 46.2792 97.3741 46.2782 97.3781C46.2122 97.6511 46.4392 97.8301 46.6542 97.8301C46.7962 97.8301 46.9332 97.7521 46.9772 97.5721C46.9782 97.5691 46.9782 97.5661 46.9792 97.5631C47.4592 95.6091 49.0692 94.4061 50.8592 94.4061C51.5242 94.4061 52.2132 94.5721 52.8792 94.9271C52.9392 94.9591 52.9982 94.9731 53.0532 94.9731C53.3802 94.9731 53.5962 94.4891 53.2442 94.3011C52.4692 93.8871 51.6572 93.6931 50.8702 93.6931Z" fill="white"/>
<path opacity="0.502" d="M40.5217 103.142C39.9387 103.142 39.3397 103.217 38.7337 103.375C36.9657 103.835 34.6457 105.383 35.2187 107.468C35.2677 107.647 35.4087 107.725 35.5517 107.725C35.7687 107.725 35.9917 107.548 35.9177 107.276C35.3447 105.19 38.4677 104.066 39.8697 103.941C40.1007 103.92 40.3277 103.91 40.5507 103.91C42.5957 103.91 44.2597 104.775 45.5377 106.454C45.6197 106.562 45.7327 106.607 45.8437 106.607C46.1087 106.607 46.3637 106.35 46.1647 106.088C45.7697 105.569 45.3267 105.109 44.8437 104.715C44.8377 104.723 44.8317 104.732 44.8257 104.74C44.7447 104.851 44.6327 104.897 44.5217 104.897C44.2597 104.897 44.0057 104.639 44.2007 104.375C44.2217 104.346 44.2437 104.317 44.2657 104.288C43.1557 103.551 41.8787 103.142 40.5217 103.142Z" fill="white"/>
<path opacity="0.502" d="M50.0184 101.328C47.8304 101.328 45.7214 102.356 44.2634 104.288C44.2414 104.317 44.2204 104.346 44.1984 104.375C44.0044 104.639 44.2574 104.897 44.5194 104.897C44.6304 104.897 44.7424 104.851 44.8234 104.74C44.8294 104.732 44.8354 104.724 44.8414 104.715C46.1424 102.96 48.0294 102.05 49.9864 102.05C51.1954 102.05 52.4304 102.397 53.5724 103.105C53.6354 103.144 53.6984 103.161 53.7574 103.161C54.0674 103.161 54.2724 102.685 53.9394 102.478C52.6884 101.702 51.3384 101.328 50.0184 101.328Z" fill="white"/>
<path opacity="0.502" d="M47.7901 109.414C45.0651 109.414 42.1141 110.296 41.9741 113.087C41.9631 113.32 42.1381 113.436 42.3191 113.436C42.5001 113.436 42.6881 113.32 42.6991 113.087C42.8131 110.798 45.3261 110.133 47.6611 110.133C48.8951 110.133 50.0801 110.319 50.8351 110.548C50.8741 110.56 50.9121 110.565 50.9471 110.565C51.3111 110.565 51.4351 109.972 51.0281 109.849C50.3591 109.646 49.4951 109.494 48.5701 109.438C48.5221 109.571 48.4811 109.71 48.4501 109.855C48.4111 110.037 48.2761 110.115 48.1351 110.115C47.9211 110.115 47.6921 109.936 47.7511 109.662C47.7691 109.578 47.7901 109.496 47.8131 109.415C47.8061 109.414 47.7981 109.414 47.7901 109.414Z" fill="white"/>
<path opacity="0.502" d="M52.9646 106.195C50.7676 106.195 48.4286 107.28 47.8146 109.414C47.7916 109.495 47.7706 109.577 47.7526 109.661C47.6936 109.935 47.9226 110.114 48.1366 110.114C48.2776 110.114 48.4126 110.036 48.4516 109.854C48.4826 109.71 48.5236 109.571 48.5716 109.437C49.1876 107.741 51.1276 106.924 52.9496 106.924C53.5746 106.924 54.1856 107.02 54.7256 107.21C54.7696 107.225 54.8106 107.232 54.8486 107.232C55.1976 107.232 55.3136 106.649 54.9186 106.511C54.3176 106.3 53.6476 106.195 52.9646 106.195Z" fill="white"/>
<path opacity="0.502" d="M48.2126 119.605C46.6666 119.605 45.1306 120.248 44.0606 121.477C43.8276 121.745 44.0706 122.108 44.3346 122.108C44.4166 122.108 44.5006 122.073 44.5726 121.99C45.5246 120.896 46.8536 120.331 48.1986 120.331C49.1836 120.331 50.1766 120.634 51.0356 121.256C51.1006 121.303 51.1656 121.323 51.2266 121.323C51.5176 121.323 51.7116 120.854 51.4016 120.629C50.7656 120.169 50.0556 119.867 49.3216 119.716C49.2846 119.771 49.2486 119.827 49.2136 119.884C49.1386 120.005 49.0286 120.055 48.9176 120.055C48.6956 120.055 48.4746 119.852 48.5436 119.614C48.4346 119.609 48.3236 119.605 48.2126 119.605Z" fill="white"/>
<path opacity="0.502" d="M53.9311 116.461C51.8241 116.461 49.8221 117.534 48.5881 119.52C48.5681 119.552 48.5541 119.584 48.5441 119.616C48.4751 119.854 48.6961 120.057 48.9181 120.057C49.0281 120.057 49.1381 120.007 49.2141 119.886C49.2491 119.829 49.2851 119.773 49.3221 119.718C50.4211 118.067 52.1281 117.182 53.9251 117.182C54.7121 117.182 55.5161 117.352 56.2941 117.701C56.5121 117.525 56.7541 117.374 57.0111 117.245C56.0101 116.716 54.9581 116.461 53.9311 116.461Z" fill="white"/>
<path opacity="0.502" d="M60.3605 116.422C60.3445 116.422 60.3275 116.423 60.3105 116.425C59.2695 116.553 58.0205 116.736 57.0115 117.244C56.7545 117.373 56.5135 117.524 56.2945 117.7C56.2325 117.75 56.1725 117.802 56.1145 117.856C55.3145 118.602 55.0955 119.864 55.9205 120.672C55.9955 120.746 56.0805 120.777 56.1625 120.777C56.4425 120.777 56.6915 120.413 56.4335 120.159C55.5635 119.306 56.5585 118.286 57.3555 117.909C58.2665 117.478 59.3175 117.272 60.3105 117.15C60.7505 117.097 60.7715 116.422 60.3605 116.422Z" fill="white"/>
<path opacity="0.502" d="M59.0852 125.315C59.0812 125.315 59.0772 125.315 59.0732 125.315C56.1022 125.394 52.5322 125.761 50.7302 128.176C50.7952 128.273 50.8552 128.375 50.9102 128.484C51.0562 128.771 50.8042 129.034 50.5642 129.034C50.4612 129.034 50.3602 128.985 50.2942 128.869C50.1132 129.213 49.9622 129.591 49.8452 130.006C49.7692 130.277 49.9932 130.454 50.2102 130.454C50.3532 130.454 50.4942 130.377 50.5442 130.198C51.5992 126.441 55.8312 126.126 59.0732 126.039C59.5342 126.027 59.5412 125.315 59.0852 125.315Z" fill="white"/>
<path opacity="0.502" d="M63.9082 128.014C61.2432 128.014 58.9192 129.743 58.2132 132.488C58.1432 132.76 58.3692 132.938 58.5852 132.938C58.7282 132.938 58.8662 132.86 58.9122 132.68C59.5342 130.262 61.5362 128.733 63.8832 128.733C64.3172 128.733 64.7642 128.785 65.2152 128.894C65.2482 128.902 65.2792 128.905 65.3082 128.905C65.6922 128.905 65.8292 128.296 65.4072 128.194C64.9022 128.073 64.3992 128.014 63.9082 128.014Z" fill="white"/>
<path opacity="0.502" d="M67.4099 134.566C67.3819 134.566 67.3519 134.569 67.3209 134.576C65.0979 135.076 62.5679 135.854 61.9459 138.343C61.8779 138.615 62.1039 138.794 62.3189 138.794C62.4619 138.794 62.5989 138.716 62.6449 138.535C63.2009 136.313 65.5559 135.715 67.5139 135.275C67.9379 135.18 67.7989 134.566 67.4099 134.566Z" fill="white"/>
<path opacity="0.502" d="M76.0927 137.076C76.0427 137.076 75.9907 137.086 75.9367 137.109C74.3617 137.786 72.5837 138.846 72.8977 140.836C72.9267 141.019 73.0557 141.098 73.1947 141.098C73.4047 141.098 73.6407 140.918 73.5977 140.643C73.3457 139.047 75.1147 138.246 76.3027 137.735C76.6777 137.574 76.4417 137.076 76.0927 137.076Z" fill="white"/>
<path opacity="0.502" d="M30.6686 88.5952C29.5936 88.5952 28.5046 88.8162 27.4706 89.2772C27.1006 89.4422 27.3326 89.9382 27.6776 89.9382C27.7286 89.9382 27.7826 89.9272 27.8366 89.9032C28.7496 89.4962 29.7096 89.3022 30.6576 89.3022C33.1216 89.3022 35.5096 90.6052 36.8006 92.8422C36.8726 92.9662 36.9816 93.0182 37.0916 93.0182C37.3386 93.0182 37.5896 92.7572 37.4276 92.4762C37.0226 91.7752 36.5226 91.1602 35.9526 90.6382C35.9146 90.6832 35.8766 90.7272 35.8416 90.7732C35.7716 90.8622 35.6896 90.8992 35.6076 90.8992C35.3536 90.8992 35.1126 90.5362 35.3286 90.2602C35.3506 90.2322 35.3736 90.2042 35.3966 90.1762C34.0376 89.1492 32.3706 88.5952 30.6686 88.5952Z" fill="white"/>
<path opacity="0.502" d="M41.636 87.6892C39.224 87.6892 36.68 88.6242 35.398 90.1772C35.375 90.2052 35.352 90.2332 35.33 90.2612C35.114 90.5362 35.354 90.9002 35.609 90.9002C35.69 90.9002 35.773 90.8632 35.843 90.7742C35.879 90.7282 35.916 90.6842 35.954 90.6392C37.121 89.2902 39.501 88.4352 41.715 88.4352C43.482 88.4352 45.143 88.9792 46 90.2482C46.182 90.0872 46.37 89.9342 46.561 89.7872C45.534 88.3282 43.63 87.6892 41.636 87.6892Z" fill="white"/>
<path opacity="0.502" d="M53.0753 87.5791C50.6793 87.5791 48.4103 88.3671 46.5613 89.7871C46.3693 89.9341 46.1823 90.0881 46.0003 90.2481C45.2523 90.9061 44.5863 91.6751 44.0233 92.5441C43.8463 92.8181 44.0973 93.0781 44.3513 93.0781C44.4613 93.0781 44.5723 93.0291 44.6493 92.9111C46.5513 89.9751 49.6913 88.3061 53.1133 88.3061C53.4643 88.3061 53.8173 88.3241 54.1733 88.3591C54.1873 88.3601 54.2013 88.3611 54.2153 88.3611C54.6363 88.3611 54.6203 87.6791 54.1733 87.6351C53.8043 87.5971 53.4383 87.5791 53.0753 87.5791Z" fill="white"/>
<path opacity="0.502" d="M42.3091 114.402C40.7871 114.402 39.2431 115.012 38.0201 116.277C37.7711 116.535 38.0171 116.899 38.2911 116.899C38.3731 116.899 38.4581 116.867 38.5331 116.789C39.6181 115.665 40.9761 115.123 42.3121 115.123C44.0791 115.123 45.8051 116.071 46.8081 117.875C46.8781 118.001 46.9861 118.053 47.0951 118.053C47.3401 118.053 47.5911 117.792 47.4341 117.509C46.3021 115.474 44.3261 114.402 42.3091 114.402Z" fill="white"/>
<path opacity="0.502" d="M47.6403 126.767C46.3213 126.767 44.9333 127.222 44.0113 127.889C43.7013 128.113 43.8953 128.583 44.1863 128.583C44.2473 128.583 44.3113 128.562 44.3773 128.515C45.1843 127.931 46.4713 127.485 47.6673 127.485C48.7633 127.485 49.7833 127.86 50.2843 128.849C50.2873 128.855 50.2903 128.861 50.2943 128.867C50.3603 128.983 50.4613 129.032 50.5643 129.032C50.8043 129.032 51.0563 128.769 50.9103 128.482C50.8553 128.374 50.7953 128.271 50.7303 128.174C50.0583 127.169 48.8803 126.767 47.6403 126.767Z" fill="white"/>
<path d="M32.4007 20.9019C32.4357 20.9339 32.4707 20.9659 32.5047 20.9979C32.5047 21.1249 32.5047 21.2519 32.5047 21.3789C32.4637 21.1779 32.2947 21.2149 31.9967 21.4919C31.9077 21.4779 31.8487 21.4349 31.8177 21.3639C31.8607 21.4389 31.8657 21.4439 31.8337 21.3799C31.7877 21.1609 31.9127 20.9939 32.2087 20.8769C31.8217 20.9249 31.4967 21.1719 31.4927 21.5929C31.4887 21.9429 31.8247 22.3559 32.2087 22.3089C32.7617 22.2409 33.2517 21.9369 33.2567 21.3169C33.2607 20.8419 32.9497 20.3609 32.5177 20.1699C31.1177 19.5519 30.5047 22.0609 32.0187 22.2839C32.4047 22.3409 32.7837 22.1879 32.8997 21.7839C32.9967 21.4469 32.7827 20.9579 32.4007 20.9019Z" fill="black"/>
<path d="M42.2004 22.3818C41.7794 21.4028 40.2654 21.8878 40.4294 22.9238C40.6174 24.1068 42.3724 23.9478 42.2984 22.7428C42.2414 21.8278 40.8094 21.8208 40.8664 22.7428C40.8994 22.8628 40.9314 22.9838 40.9644 23.1038C41.1184 23.4618 41.6374 23.5348 41.9444 23.3608C42.3134 23.1508 42.3524 22.7348 42.2004 22.3818Z" fill="black"/>
<path d="M35.0104 23.069C34.9434 23.623 34.7304 24.126 34.4504 24.603C34.2164 25.001 34.8354 25.362 35.0684 24.964C35.4174 24.369 35.6434 23.755 35.7264 23.069C35.7804 22.613 35.0644 22.617 35.0104 23.069Z" fill="#512D10"/>
<path d="M37.8826 31.8159C38.5616 31.8699 39.2246 31.8119 39.8856 31.6499C40.1536 31.5839 40.0406 31.1699 39.7716 31.2359C39.1466 31.3899 38.5236 31.4379 37.8826 31.3869C37.6076 31.3649 37.6086 31.7949 37.8826 31.8159Z" fill="#EA8071"/>
</svg>
