<svg viewBox="0 0 120 136" fill="none" xmlns="http://www.w3.org/2000/svg">
<path d="M118.089 75.7837C118.437 76.0507 118.791 76.3227 119.139 76.5907C118.518 76.9627 117.903 77.3257 117.282 77.6647C117.592 77.0627 117.864 76.4377 118.089 75.7837Z" fill="#3B3B72"/>
<path d="M118.418 75.3547C118.934 75.0497 119.678 75.5647 119.468 76.1657C119.411 76.3277 119.353 76.4907 119.291 76.6477L119.138 76.5907C118.79 76.3237 118.436 76.0517 118.088 75.7837L117.988 75.6117C118.132 75.5257 118.275 75.4397 118.418 75.3547Z" fill="#3B3B72"/>
<path d="M117.282 77.6646C116.184 79.8506 114.657 81.7646 113.325 83.8456C112.079 85.7886 111.645 88.1986 110.981 90.3996C110.208 92.9576 109.492 95.6216 107.888 97.8126C105.898 100.543 102.657 102.352 99.306 102.639C99.464 102.219 99.611 101.794 99.75 101.369C100.165 100.104 100.757 98.3996 100.404 97.0016C100.328 96.7006 100.213 96.4146 100.041 96.1516C99.807 95.7886 99.234 95.6456 98.915 96.0086C98.757 96.1896 98.6 96.3716 98.438 96.5526C97.479 97.6456 96.514 98.7336 95.507 99.7796C94.715 96.1186 92.037 93.1116 91.082 89.4366C89.917 84.9256 89.893 79.7516 91.612 75.3606C92.557 77.1836 92.953 79.2696 94.447 80.7926C95.631 82.0006 97.139 82.7446 98.151 84.1436C99.196 85.5946 99.602 87.2656 99.645 89.0356C99.664 89.9716 101.001 89.9426 101.077 89.0356C101.44 84.7206 105.526 82.4536 109.158 81.2836C112.041 80.3516 114.681 79.1246 117.282 77.6646Z" fill="#3B3B72"/>
<path d="M117.282 77.6647C114.681 79.1257 112.041 80.3517 109.158 81.2827C105.526 82.4517 101.44 84.7197 101.077 89.0347C101.053 87.9317 100.886 86.8867 100.571 85.9037C101.564 83.9657 103.234 82.3147 105.091 81.3307C106.991 80.3237 109.115 79.8797 111.115 79.1257C113.525 78.2187 115.778 76.9347 117.988 75.6127L118.088 75.7847C117.864 76.4377 117.592 77.0627 117.282 77.6647Z" fill="#3B3B72"/>
<path d="M101.077 89.0336C100.6 89.0336 100.122 89.0336 99.6449 89.0336C99.7359 87.9496 100.065 86.8906 100.571 85.9026C100.886 86.8866 101.053 87.9316 101.077 89.0336Z" fill="#3B3B72"/>
<path d="M99.6449 89.0337C100.122 89.0337 100.6 89.0337 101.077 89.0337C101.001 89.9407 99.6639 89.9697 99.6449 89.0337Z" fill="#3B3B72"/>
<path d="M98.925 102.667C99.054 102.662 99.178 102.653 99.307 102.638C99.13 103.125 98.944 103.607 98.739 104.084C98.252 103.993 98.118 103.421 98.329 103.029C98.438 102.834 98.633 102.681 98.925 102.667Z" fill="#57579B"/>
<path d="M99.1009 97.9596C99.0909 97.5496 99.0009 97.1766 98.8049 96.8756C99.1769 96.9236 99.5539 96.9706 99.9269 97.0186C99.6499 97.3346 99.3779 97.6496 99.1009 97.9596Z" fill="#57579B"/>
<path d="M99.1009 97.9597C99.1489 99.3677 98.3039 101.23 97.9169 102.261C97.8499 102.438 97.7829 102.614 97.7119 102.791C96.9289 104.758 95.9599 106.59 94.8189 108.385C91.8739 113.034 89.4679 117.831 85.4589 121.712C76.7959 130.098 65.7119 133.406 53.8649 133.831C38.7049 134.38 13.3219 132.151 4.60591 117.655C2.60591 114.328 1.47991 110.347 1.56491 105.608C1.78891 92.8877 13.8559 85.9467 24.2039 81.3887C26.8339 85.4747 30.5239 88.8827 34.8669 91.0877C36.6899 92.0137 40.2849 94.1137 42.1169 92.4527C43.7109 94.9297 47.3959 95.2497 49.5489 93.2447C53.7259 94.2617 57.3239 96.9627 61.6389 97.0247C61.2619 97.3017 60.8709 97.5597 60.4699 97.8077C55.5679 100.834 50.5989 100.791 45.0479 100.696C40.3559 100.61 36.0309 101.259 32.5089 104.596C32.4989 104.606 32.4899 104.615 32.4849 104.625C26.8189 103.117 21.2679 102.797 15.3349 104.224C14.4379 104.444 14.8189 105.823 15.7169 105.608C21.6549 104.171 27.1439 104.715 32.6329 106.219C34.9809 106.859 37.3299 107.675 39.7119 108.586C46.9389 111.35 54.0079 113.994 61.8449 114.08C69.2619 114.161 76.5319 112.371 83.3289 109.488C86.6749 108.07 89.9679 106.395 92.8419 104.152C93.7249 103.46 94.5649 102.72 95.3669 101.942C95.4959 101.885 95.6009 101.789 95.6629 101.656L95.6679 101.651C96.8629 100.471 97.9889 99.2247 99.1009 97.9597Z" fill="#57579B"/>
<path d="M99.9269 97.0197C99.5549 96.9717 99.1779 96.9247 98.8049 96.8767L98.4369 96.5517C98.5989 96.3707 98.7569 96.1887 98.9139 96.0077C99.2339 95.6447 99.8069 95.7877 100.04 96.1507C100.212 96.4137 100.326 96.6997 100.403 97.0007L99.9269 97.0197Z" fill="#57579B"/>
<path d="M97.9169 102.261C98.3039 101.23 99.1479 99.3676 99.1009 97.9596C99.3779 97.6496 99.6499 97.3346 99.9269 97.0196L100.404 97.0006C100.757 98.3996 100.165 100.104 99.7499 101.368C99.6119 101.793 99.4639 102.218 99.3059 102.638C99.1769 102.652 99.0529 102.662 98.9239 102.667C98.6329 102.681 98.4369 102.834 98.3269 103.03L97.7109 102.791C97.7839 102.614 97.8509 102.438 97.9169 102.261Z" fill="#57579B"/>
<path d="M98.7379 104.084C98.9429 103.607 99.1289 103.125 99.3059 102.638C102.657 102.352 105.898 100.543 107.888 97.8116C109.492 95.6206 110.208 92.9576 110.981 90.3986C111.644 88.1986 112.079 85.7876 113.325 83.8446C114.657 81.7636 116.184 79.8496 117.282 77.6636C117.903 77.3246 118.518 76.9616 119.139 76.5896L119.292 76.6466C118.108 79.7016 115.999 82.0786 114.352 84.8846C112.758 87.6056 112.343 91.2616 111.269 94.2356C109.307 99.6766 104.887 103.792 98.9259 104.097C98.8579 104.103 98.7959 104.099 98.7379 104.084Z" fill="#3B3B72"/>
<path d="M99.101 97.9597C97.989 99.2247 96.862 100.471 95.669 101.65C95.707 101.559 95.726 101.45 95.722 101.325C95.693 100.795 95.622 100.28 95.507 99.7777C96.514 98.7327 97.478 97.6437 98.438 96.5507L98.806 96.8757C99.001 97.1767 99.092 97.5497 99.101 97.9597Z" fill="#57579B"/>
<path d="M95.7219 101.325C95.7269 101.449 95.7079 101.559 95.6689 101.65L95.6639 101.655C95.5639 101.75 95.4679 101.846 95.3679 101.941C94.9529 102.137 94.3229 101.927 94.2889 101.325C94.2839 101.22 94.2749 101.12 94.2699 101.02C94.6899 100.614 95.1009 100.204 95.5059 99.7787C95.6209 100.28 95.6929 100.796 95.7219 101.325Z" fill="#57579B"/>
<path d="M95.3689 101.941C95.4689 101.846 95.5649 101.75 95.6649 101.655C95.6019 101.788 95.4969 101.884 95.3689 101.941Z" fill="#57579B"/>
<path d="M94.4469 80.7906C92.9529 79.2676 92.5569 77.1816 91.6119 75.3586C91.7649 74.9626 91.9369 74.5756 92.1179 74.1936L92.4229 73.9076C93.0959 74.9336 93.4639 76.0416 93.9219 77.1966C94.7569 79.2966 96.1649 80.2416 97.7739 81.6596C99.1389 82.8576 100.056 84.2946 100.571 85.9026C100.065 86.8906 99.7359 87.9506 99.6449 89.0336C99.6019 87.2626 99.1959 85.5926 98.1509 84.1416C97.1389 82.7426 95.6309 81.9986 94.4469 80.7906Z" fill="#3B3B72"/>
<path d="M90.882 74.1947C91.292 74.1947 91.708 74.1947 92.118 74.1947C91.937 74.5767 91.765 74.9627 91.612 75.3597C91.402 74.9537 91.163 74.5617 90.882 74.1947Z" fill="#3B3B72"/>
<path d="M90.882 73.4737C91.14 72.9347 91.827 73.0867 92.118 73.4737C92.228 73.6167 92.328 73.7597 92.423 73.9077L92.118 74.1937C91.708 74.1937 91.292 74.1937 90.882 74.1937L90.605 74.0747C90.696 73.8747 90.786 73.6737 90.882 73.4737Z" fill="#3B3B72"/>
<path d="M89.1819 87.1627C88.6899 83.7547 88.7429 80.2277 89.6209 76.9047C89.8789 75.9407 90.2029 74.9957 90.6039 74.0747L90.8809 74.1937C91.1629 74.5617 91.4009 74.9527 91.6109 75.3587C89.8929 79.7497 89.9169 84.9237 91.0809 89.4347C92.0359 93.1097 94.7129 96.1167 95.5059 99.7777C95.0999 100.203 94.6899 100.613 94.2699 101.019C93.9879 98.0357 92.0599 95.8017 90.8619 93.1427C90.0079 91.2437 89.4779 89.2207 89.1819 87.1627Z" fill="#3B3B72"/>
<path d="M77.7599 91.0766C77.5689 90.9666 77.3779 90.8566 77.1869 90.7476C77.1729 90.6616 77.1389 90.5856 77.0869 90.5136C77.2449 90.4706 77.3969 90.4226 77.5449 90.3706C77.6269 90.5996 77.6979 90.8336 77.7599 91.0766Z" fill="#AEF9D6"/>
<path d="M77.1879 90.7477C77.0879 90.6907 76.9829 90.6327 76.8829 90.5757C76.9499 90.5567 77.0209 90.5377 77.0879 90.5137C77.1399 90.5857 77.1729 90.6617 77.1879 90.7477Z" fill="#AEF9D6"/>
<path d="M76.8819 90.5756C76.9819 90.6326 77.0869 90.6906 77.1869 90.7476C77.2199 90.8956 77.1969 91.0626 77.0959 91.2296C76.9619 91.4536 76.8099 91.6546 76.6379 91.8356C76.5189 91.7406 76.4229 91.6116 76.3799 91.4536C76.2799 91.0716 76.1459 90.7046 75.9889 90.3416C76.3329 90.0126 76.8619 90.1696 77.0869 90.5136C77.0199 90.5376 76.9489 90.5566 76.8819 90.5756Z" fill="#AEF9D6"/>
<path d="M75.9889 90.3416C75.9409 90.3846 75.8979 90.4366 75.8599 90.5036C74.6519 92.5226 71.1439 91.2816 70.9389 89.1336C70.8909 88.6276 70.9679 88.1506 71.1439 87.7206C71.5689 86.6946 72.5429 85.9256 73.6689 85.6876C74.1949 87.3296 75.3019 88.7526 75.9889 90.3416Z" fill="#C48041"/>
<path d="M74.7909 84.7766C75.0579 85.9416 76.0509 87.2966 76.5139 88.1176C76.9289 88.8626 77.2779 89.5876 77.5449 90.3706C77.3969 90.4236 77.2439 90.4706 77.0869 90.5136C76.8629 90.1696 76.3329 90.0126 75.9889 90.3416C75.3019 88.7526 74.1939 87.3296 73.6689 85.6876C73.6829 85.6776 73.7019 85.6776 73.7169 85.6736C74.1369 85.5876 74.275 85.2396 74.213 84.9146L74.7909 84.7766Z" fill="#AEF9D6"/>
<path d="M73.3979 84.2847C73.8469 84.2227 74.152 84.5567 74.214 84.9147C74.276 85.2397 74.1379 85.5877 73.7179 85.6737C73.7039 85.6787 73.6849 85.6787 73.6699 85.6877C73.5699 85.3727 73.489 85.0477 73.436 84.7137C73.412 84.5617 73.3979 84.4187 73.3979 84.2847Z" fill="#AEF9D6"/>
<path d="M73.3979 84.2847C73.3979 84.4187 73.412 84.5617 73.436 84.7147C73.489 85.0487 73.5699 85.3737 73.6699 85.6887C72.5439 85.9277 71.57 86.6957 71.145 87.7217L70.8199 87.5737C71.2109 86.6857 71.5689 85.7837 71.8839 84.8677C72.3329 84.5957 72.8239 84.3947 73.3349 84.2897C73.3589 84.2847 73.3789 84.2847 73.3979 84.2847Z" fill="#C48041"/>
<path d="M75.989 90.3416C76.147 90.7046 76.28 91.0716 76.38 91.4536C76.423 91.6116 76.518 91.7396 76.638 91.8356C74.819 93.7546 71.201 93.0476 69.922 90.7046C69.793 90.4706 69.693 90.2316 69.621 89.9936C70.055 89.2056 70.456 88.3996 70.819 87.5736L71.144 87.7216C70.967 88.1516 70.891 88.6286 70.939 89.1346C71.144 91.2826 74.653 92.5236 75.86 90.5046C75.899 90.4376 75.942 90.3846 75.989 90.3416Z" fill="#C48041"/>
<path d="M70.653 27.6797C70.429 27.8087 70.2 27.9377 69.97 28.0667C69.903 27.9137 69.774 27.8137 69.626 27.7617C69.64 27.5847 69.655 27.4087 69.664 27.2317C69.994 27.3697 70.324 27.5177 70.653 27.6797Z" fill="#663300"/>
<path d="M69.9709 28.0666V28.0716C69.8419 28.1436 69.708 28.2196 69.575 28.2956C69.599 28.1186 69.6129 27.9426 69.6279 27.7606C69.7749 27.8136 69.9039 27.9136 69.9709 28.0666Z" fill="#663300"/>
<path d="M64.706 15.4367C68.138 18.2337 69.875 22.8447 69.665 27.2307C66.419 25.9177 62.963 25.8987 59.45 26.1087C57.393 26.2327 55.331 26.4807 53.307 26.8767C51.98 27.1397 51.613 27.2347 50.873 25.9367C50.424 25.1537 50.171 24.1997 49.937 23.3017C49.894 23.1347 49.846 22.9627 49.803 22.8007C49.641 22.2037 48.81 22.1037 48.495 22.6337C48.404 22.7817 48.318 22.9297 48.237 23.0827C47.258 24.8247 46.667 26.6197 46.375 28.5957C44.719 29.2827 43.139 30.0847 41.616 31.0347C41.177 29.8037 41.034 28.0607 40.89 26.9397C40.656 25.0307 41.038 23.1357 41.706 21.3547C42.46 19.3307 43.63 18.1137 45.214 16.7007C45.429 16.5097 45.505 16.0757 45.329 15.8317C45.109 15.5357 44.866 15.2877 44.603 15.0777C42.546 13.4457 39.343 14.3427 37.233 15.6747C33.839 17.8177 32.426 21.5747 34.03 25.3117C35.09 27.7647 36.445 29.9177 37.037 32.5717C37.839 36.1997 37.347 39.1347 34.899 41.9847C31.577 45.8557 24.675 47.4597 20.298 44.3187C24.412 44.0417 27.673 41.4457 29.138 37.3977C29.157 37.3547 29.171 37.3117 29.186 37.2637C29.2 37.2207 29.21 37.1777 29.219 37.1397C29.219 37.1347 29.219 37.1347 29.219 37.1297C30.45 32.3277 27.377 29.4597 24.995 25.6507C21.797 20.5437 22.083 13.1167 25.167 8.00867C27.931 3.43167 33.067 1.12067 38.327 1.44567C44.599 1.83267 50.012 5.34967 50.102 11.9607C50.107 12.1567 50.107 12.3617 50.097 12.5667C50.078 13.1107 50.718 13.4597 51.176 13.1877C51.348 13.0827 51.52 12.9917 51.696 12.9017C55.823 10.8307 61.322 12.6827 64.706 15.4367Z" fill="#663300"/>
<path d="M70.023 28.4056C70.009 28.5826 69.99 28.7586 69.966 28.9306C69.956 28.9256 69.942 28.9206 69.933 28.9166C69.503 28.7016 69.06 28.5106 68.601 28.3436C68.682 27.8136 69.236 27.6226 69.627 27.7616C69.613 27.9426 69.598 28.1196 69.574 28.2966C69.708 28.2206 69.841 28.1436 69.97 28.0726C70.013 28.1616 70.033 28.2766 70.023 28.4056Z" fill="#663300"/>
<path d="M68.601 28.3436C68.596 28.3626 68.591 28.3816 68.591 28.4056C68.252 32.4676 66.114 35.9516 62.968 38.0476C61.001 39.3606 58.644 40.1286 56.085 40.1626C54.433 40.1866 52.844 39.8956 51.388 39.3366C47.994 38.0476 45.307 35.3076 44.114 31.6516C44.071 31.5226 44.009 31.4176 43.923 31.3416C44.983 30.7596 46.076 30.2436 47.216 29.7856C47.545 29.6566 47.698 29.4416 47.741 29.0986C47.922 27.6146 48.309 26.2446 48.906 24.9266C49.245 26.0526 49.703 27.2036 50.453 27.9576C51.47 28.9786 52.372 28.5156 53.689 28.2626C58.31 27.3596 64.009 26.6676 68.601 28.3436Z" fill="#C48041"/>
<path d="M64.4529 40.5577C64.4769 41.0397 64.4909 41.5167 64.5059 41.9987C64.4869 41.9937 64.4629 41.9937 64.4439 41.9887C64.0479 41.9407 63.8229 41.6357 63.7709 41.3207C63.7089 40.9147 63.9329 40.4947 64.4439 40.5567C64.4479 40.5577 64.4479 40.5577 64.4529 40.5577Z" fill="#A56835"/>
<path d="M64.2899 38.6966C64.2949 38.7496 64.3039 38.7966 64.3089 38.8496C63.8839 39.1696 63.4359 39.4606 62.9729 39.7226C62.9399 39.3746 62.9009 39.0356 62.8579 38.6966C62.8289 38.4536 62.9059 38.2716 63.0439 38.1616C63.4169 37.8566 64.2049 38.0376 64.2899 38.6966Z" fill="#C48041"/>
<path d="M64.3099 38.8486C64.3769 39.4166 64.4249 39.9896 64.4529 40.5576C64.4479 40.5576 64.4479 40.5576 64.4429 40.5576C63.9319 40.4956 63.7079 40.9156 63.7699 41.3216L63.1069 41.3596C63.0779 40.8106 63.0349 40.2616 62.9729 39.7226C63.4359 39.4596 63.8849 39.1686 64.3099 38.8486Z" fill="#A56835"/>
<path d="M69.9659 28.9307C69.4839 33.0217 67.3979 36.5586 64.3099 38.8496C64.3049 38.7966 64.2959 38.7497 64.2909 38.6966C64.2049 38.0376 63.4179 37.8566 63.0449 38.1616L62.9689 38.0467C66.1149 35.9517 68.2529 32.4667 68.5919 28.4047C68.5919 28.3807 68.5969 28.3617 68.6019 28.3427C69.0599 28.5097 69.5039 28.7007 69.9339 28.9157C69.9419 28.9207 69.9559 28.9257 69.9659 28.9307Z" fill="#C48041"/>
<path d="M63.1069 41.3597C63.1689 42.4197 63.1789 43.4887 63.1069 44.5197C63.0159 45.9087 62.8639 46.0617 61.5799 46.7007C60.6349 47.1737 59.6559 47.5697 58.6209 47.7887C56.7929 48.1757 53.3559 48.1847 52.3779 46.2757C51.6859 44.9157 51.8719 42.6247 51.7339 40.9727C53.2709 41.4497 54.9179 41.6647 56.6169 41.5787C58.9509 41.4597 61.1039 40.8007 62.9749 39.7217C63.0349 40.2617 63.0779 40.8107 63.1069 41.3597Z" fill="#A56835"/>
<path d="M56.0849 40.1616C58.6429 40.1286 61.0009 39.3596 62.9679 38.0466L63.0439 38.1616C62.9059 38.2716 62.8289 38.4526 62.8579 38.6966C62.9009 39.0356 62.9389 39.3746 62.9729 39.7226C61.1019 40.8016 58.9489 41.4596 56.6149 41.5796C54.9159 41.6656 53.2689 41.4506 51.7319 40.9736C51.7219 40.8396 51.7079 40.7156 51.6939 40.5916C51.6459 40.2526 51.4169 40.0376 51.1549 39.9516L51.3889 39.3356C52.8439 39.8946 54.4339 40.1856 56.0849 40.1616Z" fill="#C48041"/>
<path d="M68.601 28.3436C64.009 26.6686 58.31 27.3606 53.69 28.2626C52.373 28.5156 51.47 28.9786 50.454 27.9576C49.705 27.2036 49.246 26.0536 48.907 24.9266C49.146 24.3966 49.423 23.8716 49.733 23.3566L49.938 23.3036C50.172 24.2006 50.425 25.1556 50.874 25.9386C51.614 27.2366 51.981 27.1416 53.308 26.8786C55.332 26.4826 57.394 26.2346 59.451 26.1106C62.964 25.9006 66.42 25.9196 69.666 27.2326C69.656 27.4096 69.642 27.5856 69.628 27.7626C69.235 27.6226 68.682 27.8136 68.601 28.3436Z" fill="#663300"/>
<path d="M50.4909 92.0177C54.6199 93.2207 58.3909 96.1707 62.8339 95.5497C63.0339 95.5207 63.2109 95.5687 63.3539 95.6547C62.8099 96.1417 62.2419 96.5997 61.6399 97.0247C57.3249 96.9627 53.7259 94.2607 49.5499 93.2447C49.8079 93.0107 50.0419 92.7387 50.2469 92.4377C50.3379 92.2987 50.4239 92.1607 50.4909 92.0177Z" fill="#AEF9D6"/>
<path d="M64.9729 13.8477C69.4029 17.1077 71.6699 22.8687 71.0059 28.2957C70.9389 28.8307 70.4709 29.1597 69.9649 28.9307C69.9889 28.7587 70.0079 28.5827 70.0219 28.4057C70.0319 28.2767 70.0119 28.1627 69.9689 28.0717V28.0667C70.1979 27.9377 70.4269 27.8087 70.6519 27.6797C70.3229 27.5177 69.9929 27.3697 69.6639 27.2307C69.8739 22.8437 68.1369 18.2337 64.7049 15.4367C61.3209 12.6827 55.8219 10.8307 51.6979 12.9017L51.5309 12.5677C51.5449 12.1667 51.5409 11.7757 51.5209 11.3987C55.8609 9.52266 61.3169 11.1507 64.9729 13.8477Z" fill="#663300"/>
<path d="M51.694 40.5917C51.708 40.7157 51.723 40.8397 51.732 40.9737C51.231 40.8157 50.739 40.6297 50.267 40.4197C50.3 39.9807 50.763 39.8277 51.155 39.9517C51.417 40.0377 51.646 40.2527 51.694 40.5917Z" fill="#C48041"/>
<path d="M51.5219 11.3987C51.5409 11.7757 51.5459 12.1667 51.5319 12.5677C51.1739 12.3627 50.8159 12.1577 50.4529 11.9517C50.8009 11.7427 51.1589 11.5607 51.5219 11.3987Z" fill="#663300"/>
<path d="M51.1789 13.1887C50.7209 13.4607 50.0809 13.1127 50.0999 12.5677C50.1099 12.3627 50.1099 12.1577 50.1049 11.9617L50.4529 11.9517C50.8159 12.1567 51.1739 12.3617 51.5319 12.5677L51.6989 12.9017C51.5219 12.9927 51.3499 13.0837 51.1789 13.1887Z" fill="#663300"/>
<path d="M50.935 43.3027C50.768 43.3267 50.606 43.3507 50.439 43.3787C50.42 42.9017 50.406 42.4197 50.377 41.9467C50.434 41.9417 50.496 41.9327 50.554 41.9227C51.46 41.7937 51.847 43.1737 50.935 43.3027Z" fill="#A56835"/>
<path d="M64.5049 41.9997C64.5339 43.3937 64.5339 44.7877 64.6389 46.1767C64.6579 46.4247 64.4859 46.6687 64.2859 46.7927C60.9589 48.8497 57.1689 50.3007 53.3319 48.7547C52.1289 48.2727 51.0119 47.7567 50.7349 46.4107C50.5349 45.4517 50.4819 44.4157 50.4389 43.3797C50.6059 43.3507 50.7679 43.3267 50.9349 43.3037C51.8469 43.1747 51.4599 41.7957 50.5529 41.9247C50.4959 41.9347 50.4339 41.9437 50.3759 41.9487C50.3519 41.4907 50.3189 41.0367 50.2609 40.5927C50.2509 40.5307 50.2509 40.4737 50.2659 40.4207C50.7389 40.6307 51.2299 40.8167 51.7309 40.9747C51.8689 42.6267 51.6829 44.9177 52.3749 46.2777C53.3529 48.1867 56.7899 48.1777 58.6179 47.7907C59.6539 47.5707 60.6319 47.1747 61.5769 46.7027C62.8609 46.0627 63.0139 45.9107 63.1039 44.5217C63.1759 43.4907 63.1659 42.4217 63.1039 41.3617L63.7669 41.3237C63.8199 41.6387 64.0439 41.9447 64.4399 41.9917C64.4619 41.9947 64.4859 41.9947 64.5049 41.9997Z" fill="#A56835"/>
<path d="M48.424 23.1836C48.858 23.2406 49.293 23.2986 49.732 23.3556C49.422 23.8716 49.145 24.3966 48.906 24.9256C48.72 24.3146 48.568 23.7136 48.424 23.1836Z" fill="#663300"/>
<path d="M44.081 85.8167C46.406 86.1267 49.976 87.4157 49.475 90.4327C49.375 91.0197 49.112 91.5257 48.74 91.9317C48.707 91.9607 48.683 91.9936 48.659 92.0266L48.654 92.0317C47.112 93.5927 43.976 93.6016 43.069 91.2206C43.04 91.1486 43.007 91.0867 42.959 91.0297C43.408 89.6457 43.303 87.9417 43.646 86.5907C43.708 86.3517 43.799 86.0707 43.904 85.7697C43.957 85.7927 44.014 85.8077 44.081 85.8167Z" fill="#C48041"/>
<path d="M49.5509 93.2437C49.3699 93.2007 49.1879 93.1627 49.0069 93.1247C48.4289 93.0097 48.3819 92.4037 48.6539 92.0317L48.6589 92.0267C48.6879 91.9937 48.7159 91.9647 48.7399 91.9317C48.8979 91.7787 49.1219 91.6927 49.3889 91.7457C49.7609 91.8217 50.1289 91.9127 50.4919 92.0177C50.4249 92.1607 50.3389 92.2997 50.2489 92.4377C50.0429 92.7377 49.8089 93.0107 49.5509 93.2437Z" fill="#C48041"/>
<path d="M48.739 91.9316C48.715 91.9646 48.686 91.9936 48.658 92.0266C48.682 91.9936 48.706 91.9596 48.739 91.9316Z" fill="white"/>
<path d="M48.4959 22.6347C48.8109 22.1047 49.6419 22.2047 49.8039 22.8017C49.8469 22.9637 49.8949 23.1357 49.9379 23.3027L49.7329 23.3557C49.2939 23.2987 48.8599 23.2407 48.4249 23.1837L48.2389 23.0837C48.3189 22.9307 48.4049 22.7827 48.4959 22.6347Z" fill="#663300"/>
<path d="M46.8349 28.4056C46.6579 28.6346 46.4869 28.8636 46.3099 29.0976C46.3289 28.9306 46.3529 28.7636 46.3769 28.5966C46.5289 28.5296 46.6819 28.4676 46.8349 28.4056Z" fill="#663300"/>
<path d="M50.267 40.4197C46.763 38.8727 43.995 35.8947 42.735 32.0337V32.0287C43.126 31.7897 43.523 31.5607 43.924 31.3417C44.01 31.4177 44.072 31.5227 44.115 31.6517C45.308 35.3077 47.996 38.0477 51.389 39.3367L51.155 39.9527C50.763 39.8277 50.3 39.9807 50.267 40.4197Z" fill="#C48041"/>
<path d="M43.0689 91.2207C43.9759 93.6027 47.1119 93.5927 48.6539 92.0317C48.3819 92.4037 48.4299 93.0107 49.0069 93.1247C49.1879 93.1627 49.3699 93.2007 49.5509 93.2437C47.3979 95.2487 43.7129 94.9287 42.1189 92.4517C42.3339 92.2557 42.5249 92.0077 42.6869 91.6977C42.7969 91.4877 42.8869 91.2637 42.9589 91.0297C43.0069 91.0867 43.0399 91.1487 43.0689 91.2207Z" fill="#C48041"/>
<path d="M44.3149 84.4277C44.4919 83.6877 44.5389 82.9577 44.1959 82.4227C43.8759 81.9267 43.0699 81.7357 42.5779 81.4727C41.4469 80.8807 40.2959 80.2557 39.4179 79.3057C39.0459 78.9047 38.7119 78.4517 38.4199 77.9597C38.4389 77.9597 38.4529 77.9547 38.4679 77.9547C39.9189 74.5327 41.4269 69.7067 40.6159 65.9267C40.0479 63.3157 37.7519 65.2347 36.8829 66.5997C34.6679 70.0797 34.9589 74.4177 36.8689 77.8647C36.8589 77.9557 36.9019 78.0177 36.9739 78.0507H36.9789C38.0629 79.9317 39.6379 81.5307 41.5519 82.5517C41.9049 82.7377 42.5259 82.8807 42.7739 83.1817C43.1459 83.6307 42.8889 83.5827 42.8029 84.2267C42.6839 85.1717 42.2639 86.0737 42.0439 86.9997C41.8529 87.8157 41.8149 88.6087 41.7289 89.4387C41.6669 90.0687 41.4809 90.5127 41.2179 90.8087C40.3679 91.7677 38.6789 91.2237 37.3759 90.6747C33.1089 88.8657 29.3479 85.9827 26.5599 82.2787C26.1689 81.7587 25.7959 81.2237 25.4479 80.6747C25.6009 80.3027 25.2999 79.8017 24.8559 79.7057C20.7649 72.6657 19.8059 63.5057 24.2349 56.4127C29.8009 47.5157 40.7119 44.8047 50.4399 43.3767C50.4829 44.4127 50.5349 45.4487 50.7359 46.4077C51.0129 47.7537 52.1299 48.2697 53.3329 48.7517C57.1709 50.2987 60.9609 48.8467 64.2869 46.7897C64.4869 46.6657 64.6589 46.4217 64.6399 46.1737C64.5349 44.7847 64.5349 43.3907 64.5059 41.9967C70.8159 42.7987 76.6009 44.2877 81.3309 48.8177C85.3359 52.6557 87.7989 57.7437 88.5669 63.2087C89.3739 68.9647 88.4909 74.7547 86.3239 80.1297C84.5479 84.5257 82.1999 88.7837 77.5459 90.3677C77.2789 89.5847 76.9299 88.8597 76.5149 88.1147C76.0519 87.2937 75.0589 85.9377 74.7919 84.7737C74.7109 84.4347 74.6969 84.1107 74.7729 83.8187C74.9309 83.2317 75.8089 82.6067 76.1329 82.0287C76.5669 81.2407 76.8059 80.3537 76.9489 79.4747C77.8129 74.2197 74.9109 69.4897 74.7199 64.3437C74.6869 63.3987 73.4069 63.4557 73.2879 64.3437C72.4289 70.8117 72.8249 77.2457 70.8199 83.5457C70.4429 84.7197 70.0089 85.8747 69.5119 86.9967C68.0469 90.2757 66.0279 93.2737 63.3549 95.6507C63.2119 95.5647 63.0349 95.5167 62.8349 95.5457C58.3909 96.1667 54.6199 93.2167 50.4919 92.0137C51.2459 90.5627 51.0169 88.7827 50.1199 87.4267C48.8499 85.5127 46.6499 84.7247 44.4589 84.4337C44.4099 84.4327 44.3619 84.4277 44.3149 84.4277Z" fill="#7D7ABC"/>
<path d="M44.2049 15.6897C44.1669 15.9757 44.1289 16.2677 44.0949 16.5537C43.9759 16.3957 43.8519 16.2577 43.7129 16.1437C43.8709 15.9907 44.0379 15.8377 44.2049 15.6897Z" fill="#663300"/>
<path d="M44.0809 85.8166C44.0139 85.8066 43.9569 85.7926 43.9039 85.7686C44.0469 85.3486 44.2049 84.8856 44.3139 84.4276C44.3619 84.4276 44.4089 84.4326 44.4569 84.4376C46.6479 84.7286 48.8479 85.5166 50.1179 87.4306C51.0149 88.7866 51.2439 90.5666 50.4899 92.0176C50.1269 91.9126 49.7599 91.8216 49.3869 91.7456C49.1199 91.6926 48.8949 91.7786 48.7379 91.9316C49.1099 91.5256 49.3729 91.0196 49.4729 90.4326C49.9759 87.4156 46.4049 86.1276 44.0809 85.8166Z" fill="#C48041"/>
<path d="M44.3149 84.4276C44.2049 84.8856 44.0479 85.3486 43.9049 85.7686C43.2689 85.5166 43.5839 84.4566 44.3149 84.4276Z" fill="#AEF9D6"/>
<path d="M42.735 32.0287C42.496 31.2797 43.461 30.9027 43.924 31.3417C43.522 31.5607 43.126 31.7897 42.735 32.0287Z" fill="#663300"/>
<path d="M41.9229 31.7177C41.5979 31.6317 41.2689 31.5507 40.9449 31.4647C41.1689 31.3167 41.3939 31.1737 41.6179 31.0347C41.7039 31.2887 41.8039 31.5177 41.9229 31.7177Z" fill="#663300"/>
<path d="M40.945 31.4646C41.27 31.5506 41.599 31.6316 41.923 31.7176C41.804 31.5176 41.703 31.2876 41.618 31.0346C43.141 30.0846 44.721 29.2826 46.377 28.5956C46.353 28.7626 46.329 28.9296 46.31 29.0966C46.487 28.8626 46.658 28.6336 46.835 28.4046C46.682 28.4666 46.53 28.5286 46.377 28.5956C46.668 26.6196 47.26 24.8246 48.239 23.0826L48.425 23.1826C48.568 23.7126 48.721 24.3136 48.907 24.9246C48.31 26.2416 47.924 27.6116 47.742 29.0966C47.699 29.4406 47.546 29.6546 47.217 29.7836C46.076 30.2416 44.983 30.7576 43.924 31.3396C43.461 30.9006 42.497 31.2776 42.735 32.0266C42.377 32.2416 42.019 32.4656 41.666 32.6996C41.341 32.9096 40.878 32.7616 40.687 32.4416C40.553 32.2176 40.434 31.9686 40.334 31.6966L40.945 31.4646Z" fill="#663300"/>
<path d="M41.709 21.3556C41.041 23.1356 40.659 25.0306 40.893 26.9406C41.036 28.0626 41.179 29.8046 41.619 31.0356C41.395 31.1736 41.17 31.3176 40.946 31.4656L40.335 31.6996C39.691 30.0816 39.481 27.7806 39.419 26.2196C39.247 22.1676 40.918 18.8306 43.715 16.1436C43.853 16.2586 43.978 16.3966 44.097 16.5536C44.13 16.2676 44.169 15.9756 44.207 15.6896L44.608 15.0786C44.871 15.2886 45.114 15.5366 45.334 15.8326C45.511 16.0756 45.434 16.5106 45.219 16.7016C43.632 18.1146 42.463 19.3316 41.709 21.3556Z" fill="#663300"/>
<path d="M42.0429 87.0007C42.2629 86.0747 42.6829 85.1727 42.8019 84.2277C42.8879 83.5837 43.1459 83.6307 42.7729 83.1827C42.5249 82.8817 41.9039 82.7387 41.5509 82.5527C39.6369 81.5317 38.0619 79.9327 36.9779 78.0517C37.2409 78.1757 37.9179 78.0037 38.4189 77.9607C38.7099 78.4527 39.0439 78.9057 39.4169 79.3067C40.2949 80.2567 41.4459 80.8817 42.5769 81.4737C43.0689 81.7367 43.8749 81.9267 44.1949 82.4237C44.5389 82.9587 44.4909 83.6887 44.3139 84.4287C43.5839 84.4577 43.2689 85.5167 43.9039 85.7697C43.7989 86.0707 43.7079 86.3517 43.6459 86.5907C43.3019 87.9417 43.4069 89.6457 42.9589 91.0297C42.6869 90.6667 42.1569 90.6667 41.8559 90.9007L41.2159 90.8097C41.4789 90.5137 41.6649 90.0697 41.7269 89.4397C41.8139 88.6097 41.8519 87.8167 42.0429 87.0007Z" fill="#57579B"/>
<path d="M33.523 105.607C33.284 105.836 32.998 105.85 32.764 105.745C32.354 105.568 32.091 105.024 32.487 104.623C33.026 104.766 33.566 104.919 34.105 105.086C33.909 105.254 33.714 105.426 33.523 105.607Z" fill="#57579B"/>
<path d="M92.8439 104.151C89.9709 106.394 86.6769 108.07 83.3309 109.487C76.5339 112.37 69.2639 114.16 61.8469 114.079C54.0089 113.993 46.9399 111.349 39.7139 108.585C37.3319 107.673 34.9839 106.857 32.6349 106.218L32.7639 105.745C32.9979 105.85 33.2839 105.836 33.5229 105.607C33.7139 105.426 33.9099 105.254 34.1049 105.087C34.7209 105.273 35.3409 105.474 35.9669 105.688C43.3839 108.232 50.4579 111.726 58.3719 112.471C66.1569 113.206 73.9369 111.669 81.1729 108.829C84.7769 107.416 88.3999 105.712 91.5119 103.383C92.4809 102.653 93.3969 101.856 94.2709 101.02C94.2759 101.12 94.2849 101.22 94.2899 101.325C94.3229 101.926 94.9529 102.136 95.3689 101.941C94.5669 102.719 93.7269 103.459 92.8439 104.151Z" fill="#57579B"/>
<path d="M27.8089 36.8826C28.0949 36.0666 29.3509 36.3526 29.2219 37.1306C29.2219 37.1356 29.2219 37.1356 29.2219 37.1406C29.2119 37.1786 29.2029 37.2216 29.1889 37.2646C29.1749 37.3126 29.1599 37.3556 29.1409 37.3986C28.8069 38.1096 27.5799 37.7276 27.8089 36.8826Z" fill="#663300"/>
<path d="M26.5589 82.2796C29.3469 85.9836 33.1079 88.8666 37.3749 90.6756C38.6779 91.2246 40.3679 91.7686 41.2169 90.8096L41.8569 90.9006C41.6659 91.0536 41.5709 91.2966 41.6849 91.6026C41.8039 91.9076 41.9479 92.1946 42.1189 92.4526C40.2859 94.1136 36.6919 92.0136 34.8689 91.0876C30.5249 88.8826 26.8359 85.4746 24.2059 81.3886C24.5109 81.2546 24.8119 81.1216 25.1129 80.9926C25.2849 80.9166 25.3899 80.8066 25.4469 80.6776C25.7949 81.2256 26.1669 81.7596 26.5589 82.2796Z" fill="#57579B"/>
<path d="M24.855 79.7076C25.299 79.8026 25.6 80.3046 25.447 80.6766C25.241 80.3566 25.045 80.0366 24.855 79.7076Z" fill="#7D7ABC"/>
<path d="M25.446 80.6767C25.389 80.8057 25.284 80.9157 25.112 80.9917C24.811 81.1207 24.511 81.2547 24.205 81.3877C23.947 80.9867 23.699 80.5767 23.46 80.1607C23.77 80.0227 24.081 79.8887 24.386 79.7547C24.548 79.6827 24.706 79.6737 24.854 79.7067C25.045 80.0367 25.241 80.3567 25.446 80.6767Z" fill="#57579B"/>
<path d="M24.2049 81.3876C13.8569 85.9456 1.79093 92.8856 1.56593 105.607C1.47993 110.347 2.60693 114.328 4.60693 117.654L3.51893 118.284C0.654927 113.458 -0.581072 107.702 0.506928 101.95C2.63493 90.6806 13.7899 84.4186 23.4609 80.1606C23.6989 80.5756 23.9479 80.9866 24.2049 81.3876Z" fill="#57579B"/>
<path d="M24.9979 25.6516C27.3799 29.4606 30.4539 32.3297 29.2219 37.1306C29.3509 36.3526 28.0959 36.0667 27.8089 36.8826C28.8729 32.9446 26.5629 30.4106 24.4629 27.4176C22.7969 25.0406 21.7999 22.4586 21.4799 19.5706C20.8259 13.7096 22.5779 7.25565 27.2699 3.42265C35.3459 -3.17435 50.9209 -0.0853519 51.5219 11.3986C51.1589 11.5606 50.8009 11.7426 50.4529 11.9526L50.1049 11.9626C50.0139 5.35065 44.6009 1.83265 38.3289 1.44665C33.0689 1.12165 27.9329 3.43265 25.1689 8.00965C22.0859 13.1166 21.7999 20.5436 24.9979 25.6516Z" fill="#663300"/>
<path d="M18.9169 43.0686C19.3419 43.5506 19.8049 43.9656 20.3009 44.3196C19.6849 44.3676 19.0549 44.3576 18.4059 44.2906C18.5779 43.8796 18.7449 43.4746 18.9169 43.0686Z" fill="#663300"/>
<path d="M20.3009 44.3186C24.6779 47.4596 31.5799 45.8556 34.9019 41.9846C37.3509 39.1346 37.8419 36.1996 37.0399 32.5716C36.4479 29.9176 35.0929 27.7646 34.0329 25.3116C32.4289 21.5746 33.8419 17.8176 37.2359 15.6746C39.3459 14.3426 42.5489 13.4456 44.6059 15.0776L44.2049 15.6886C44.0379 15.8366 43.8709 15.9896 43.7129 16.1416C41.7509 14.4516 37.9139 16.6766 36.5289 18.0556C33.9129 20.6716 34.7529 23.6406 36.2709 26.5466C38.1609 30.1746 39.8799 35.0766 38.3759 39.1286C37.3069 42.0066 34.9439 44.5986 32.1279 46.0736C31.0249 46.6556 29.8609 47.0616 28.6719 47.2526C25.3069 47.7916 20.7679 46.9326 18.2429 44.4416L18.4049 44.2886C19.0549 44.3576 19.6849 44.3666 20.3009 44.3186Z" fill="#663300"/>
<path d="M29.1409 37.3976C27.6759 41.4456 24.4159 44.0416 20.3009 44.3186C19.8049 43.9656 19.3419 43.5506 18.9169 43.0676L18.9309 42.8956C23.0739 43.1156 26.4109 40.8956 27.8089 36.8816C27.5799 37.7276 28.8069 38.1096 29.1409 37.3976Z" fill="#663300"/>
<path d="M85.4589 121.712C89.4679 117.831 91.8739 113.034 94.8189 108.385C95.9599 106.59 96.9289 104.757 97.7119 102.791L98.3279 103.03C98.1179 103.421 98.2519 103.994 98.7379 104.085C98.2179 105.331 97.6159 106.543 96.9339 107.698C93.4639 113.579 90.1749 119.497 85.0109 124.08C75.3259 132.662 63.0159 135.369 50.3479 135.321C37.7749 135.278 23.6039 133.703 12.5489 127.25C8.79694 125.064 5.68994 121.942 3.51794 118.286L4.60594 117.656C13.3219 132.152 38.7049 134.381 53.8649 133.832C65.7129 133.406 76.7959 130.098 85.4589 121.712Z" fill="#57579B"/>
<path d="M18.9169 43.0686C18.7449 43.4746 18.5779 43.8796 18.4059 44.2906L18.2439 44.4436C18.1249 44.3246 18.0099 44.2046 17.8999 44.0806C17.5319 43.6606 17.7379 42.7916 18.4059 42.8586C18.5829 42.8776 18.7539 42.8876 18.9309 42.8966L18.9169 43.0686Z" fill="#663300"/>
<path d="M32.635 106.218C27.146 104.714 21.6569 104.17 15.7189 105.607C14.8219 105.822 14.4399 104.442 15.3369 104.223C21.2699 102.796 26.821 103.116 32.487 104.624C32.091 105.025 32.3529 105.569 32.7639 105.746L32.635 106.218Z" fill="#57579B"/>
<path d="M51.4369 31.1577C50.7679 30.1747 49.1399 31.0077 49.7679 32.0827C50.3239 33.0347 51.7309 32.3457 51.5089 31.3287C51.3129 30.4287 49.9319 30.8097 50.1279 31.7097C50.1339 31.7357 50.1389 31.7617 50.1449 31.7877C50.1449 31.6607 50.1449 31.5337 50.1449 31.4067C50.1629 31.5647 50.1819 31.7227 50.1999 31.8797C50.7159 32.6377 51.9569 31.9227 51.4369 31.1577Z" fill="black"/>
<path d="M63.9008 30.4167C63.7078 29.3627 62.0728 29.5027 62.0508 30.5787C62.0418 31.0087 62.3758 31.3897 62.7878 31.4777C63.3318 31.5937 63.7158 31.2767 63.9008 30.7977C64.2318 29.9367 62.8478 29.5647 62.5198 30.4167C62.5058 30.4537 62.4908 30.4907 62.4768 30.5287C62.5868 30.3857 62.6958 30.2437 62.8058 30.1007C63.0228 30.1967 63.2398 30.2927 63.4568 30.3887C63.4328 30.5727 63.4088 30.7567 63.3848 30.9407C63.0968 30.8927 62.8078 30.8457 62.5198 30.7977C62.6858 31.7027 64.0658 31.3197 63.9008 30.4167Z" fill="black"/>
<path d="M59.8589 36.4297C59.9159 36.4267 59.9829 36.4267 60.0189 36.4707C60.0519 36.5117 60.0439 36.5717 60.0309 36.6237C59.9029 37.1497 59.5709 37.6047 59.1889 37.9887C58.2469 38.9337 56.7109 39.2487 55.4809 38.6707C54.7389 38.3217 54.1509 37.6577 53.8949 36.8787C53.8599 36.7767 59.3839 36.4587 59.8589 36.4297Z" fill="#FFCCCC"/>
<path d="M59.8209 36.5677C60.2699 36.6847 58.6589 38.2447 58.5999 38.2837C58.2859 38.4907 57.9319 38.6367 57.5669 38.7237C56.5609 38.9637 55.4649 38.7067 54.7269 37.9627C54.6539 37.8887 53.9739 37.0917 54.0459 36.9847C54.0809 36.9327 54.3539 36.9617 54.4129 36.9427C54.7249 36.8447 55.1449 36.8797 55.4699 36.8547C56.9319 36.7447 58.3959 36.6597 59.8599 36.5717C60.0429 36.5607 60.0439 36.2747 59.8599 36.2857C58.6759 36.3567 57.4929 36.4267 56.3099 36.5087C55.7409 36.5477 54.2619 36.3797 53.7939 36.7767C53.7589 36.8067 53.7399 36.8727 53.7569 36.9157C54.3149 38.3207 55.5859 39.2277 57.1329 39.0867C58.3029 38.9797 60.2739 37.8777 60.1639 36.4697C60.1589 36.4067 60.1229 36.3487 60.0589 36.3317C60.0059 36.3177 59.9529 36.3037 59.8989 36.2907C59.7179 36.2457 59.6419 36.5217 59.8209 36.5677Z" fill="#B22F16"/>
<path d="M56.6729 30.7817C56.8799 31.9277 57.1469 33.0587 57.4719 34.1767C57.5549 34.0297 57.6389 33.8827 57.7219 33.7367C57.3579 33.7987 56.9939 33.8607 56.6299 33.9217C56.1769 33.9987 56.3689 34.6887 56.8199 34.6117C57.1839 34.5497 57.5479 34.4877 57.9119 34.4267C58.1009 34.3947 58.2119 34.1577 58.1619 33.9867C57.8359 32.8687 57.5699 31.7377 57.3629 30.5917C57.2819 30.1387 56.5909 30.3307 56.6729 30.7817Z" fill="#A3622C"/>
<path opacity="0.502" d="M12.2609 95.7086C10.8479 95.7086 9.42688 96.1266 8.20788 96.9906C7.89488 97.2126 8.08988 97.6826 8.38288 97.6826C8.44288 97.6826 8.50788 97.6626 8.57288 97.6166C9.69588 96.8216 10.9899 96.4336 12.2729 96.4336C14.0579 96.4336 15.8229 97.1836 17.0819 98.6286C17.1549 98.7116 17.2379 98.7466 17.3199 98.7466C17.5839 98.7466 17.8269 98.3836 17.5939 98.1166C16.2169 96.5356 14.2459 95.7086 12.2609 95.7086Z" fill="white"/>
<path opacity="0.502" d="M18.1719 93.6876C16.7259 93.6876 14.9059 94.2736 14.9049 95.9606C14.9049 96.1936 15.0869 96.3106 15.2679 96.3106C15.4489 96.3106 15.6299 96.1946 15.6299 95.9606C15.6309 94.7466 16.8899 94.4176 18.0419 94.4176C18.6139 94.4176 19.1589 94.4986 19.5109 94.5926C20.6329 94.8926 21.5689 95.5236 22.2889 96.4156C22.5479 96.3456 22.8079 96.2906 23.0699 96.2516C21.9499 94.7356 20.2849 93.7686 18.3789 93.6926C18.3099 93.6886 18.2409 93.6876 18.1719 93.6876Z" fill="white"/>
<path opacity="0.502" d="M24.1128 96.1716C23.7648 96.1716 23.4168 96.1976 23.0688 96.2506C22.8068 96.2906 22.5468 96.3446 22.2878 96.4146C21.7508 96.5606 21.2228 96.7726 20.7148 97.0536C20.3678 97.2456 20.5798 97.7276 20.9028 97.7276C20.9598 97.7276 21.0198 97.7126 21.0808 97.6786C22.0408 97.1466 23.0928 96.8896 24.1348 96.8896C26.0468 96.8896 27.9238 97.7546 29.1408 99.3726C29.2228 99.4816 29.3348 99.5266 29.4458 99.5266C29.7098 99.5266 29.9638 99.2696 29.7658 99.0066C28.3858 97.1736 26.2728 96.1716 24.1128 96.1716Z" fill="white"/>
<path opacity="0.502" d="M17.2929 87.6196C16.7079 87.6196 16.1029 87.7206 15.4939 87.9406C15.1029 88.0816 15.2149 88.6626 15.5619 88.6626C15.6009 88.6626 15.6419 88.6556 15.6869 88.6396C16.2269 88.4456 16.7629 88.3556 17.2799 88.3556C20.0869 88.3556 22.3269 91.0046 21.4689 94.0146C21.3919 94.2856 21.6149 94.4626 21.8319 94.4626C21.9749 94.4626 22.1159 94.3856 22.1669 94.2076C22.3579 93.5376 22.4129 92.8786 22.3549 92.2526C22.2849 92.2506 22.2149 92.2506 22.1449 92.2506C22.1409 92.2506 22.1369 92.2506 22.1329 92.2506C22.1319 92.2506 22.1319 92.2506 22.1319 92.2506C21.6659 92.2506 21.6679 91.5276 22.1329 91.5266C22.1379 91.5266 22.1419 91.5266 22.1469 91.5266C22.1759 91.5266 22.2039 91.5266 22.2329 91.5266C21.6899 89.2866 19.6629 87.6196 17.2929 87.6196Z" fill="white"/>
<path opacity="0.502" d="M22.1479 91.5247C22.1429 91.5247 22.1389 91.5247 22.1339 91.5247C21.6679 91.5257 21.6669 92.2487 22.1329 92.2487C22.1339 92.2487 22.1339 92.2487 22.1339 92.2487C22.1379 92.2487 22.1419 92.2487 22.1459 92.2487C22.2159 92.2487 22.2859 92.2497 22.3559 92.2507C25.1589 92.3177 27.7129 93.7247 29.0809 96.2157C29.1499 96.3417 29.2579 96.3947 29.3669 96.3947C29.6109 96.3947 29.8609 96.1327 29.7059 95.8507C28.1959 93.1017 25.3329 91.5537 22.2339 91.5257C22.2059 91.5247 22.1769 91.5247 22.1479 91.5247Z" fill="white"/>
<path opacity="0.502" d="M18.1468 109.128C15.5588 109.128 13.1238 110.784 12.2528 113.332C12.1618 113.599 12.3808 113.774 12.6008 113.774C12.7458 113.774 12.8918 113.699 12.9508 113.524C13.7168 111.284 15.8758 109.856 18.1488 109.856C18.6628 109.856 19.1808 109.929 19.6918 110.082C19.7308 110.093 19.7678 110.099 19.8028 110.099C19.8248 110.099 19.8458 110.097 19.8658 110.093C19.9228 109.889 19.9888 109.691 20.0628 109.499C20.0218 109.448 19.9628 109.407 19.8848 109.384C19.3078 109.21 18.7238 109.128 18.1468 109.128Z" fill="white"/>
<path opacity="0.502" d="M25.8029 109.998C21.2289 109.998 17.6769 113.801 18.0729 118.454C18.0919 118.685 18.2839 118.802 18.4659 118.802C18.6469 118.802 18.8179 118.687 18.7979 118.454C18.4339 114.166 21.6319 110.724 25.8409 110.724C26.0269 110.724 26.2139 110.731 26.4039 110.744C26.4139 110.745 26.4249 110.745 26.4339 110.745C26.8689 110.745 26.8569 110.051 26.4039 110.019C26.2009 110.005 26.0009 109.998 25.8029 109.998Z" fill="white"/>
<path opacity="0.502" d="M25.1449 105.806C22.8969 105.806 20.9299 107.239 20.0629 109.498C19.9889 109.69 19.9229 109.888 19.8659 110.092C19.8359 110.199 19.8079 110.307 19.7829 110.417C19.7199 110.69 19.9469 110.869 20.1619 110.869C20.3039 110.869 20.4399 110.791 20.4819 110.609C21.0439 108.173 22.9209 106.525 25.1489 106.525C25.9309 106.525 26.7559 106.728 27.5819 107.171C27.6419 107.203 27.7009 107.217 27.7569 107.217C28.0839 107.217 28.2999 106.733 27.9479 106.545C27.0029 106.04 26.0509 105.806 25.1449 105.806Z" fill="white"/>
<path opacity="0.502" d="M29.8699 117.5C26.4679 117.5 23.8339 120.788 24.9449 124.303C25.0009 124.479 25.1439 124.555 25.2889 124.555C25.5079 124.555 25.7289 124.379 25.6439 124.11C24.6839 121.071 26.9099 118.221 29.8559 118.221C30.2519 118.221 30.6599 118.272 31.0759 118.382C31.1109 118.391 31.1449 118.396 31.1759 118.396C31.5519 118.396 31.6839 117.793 31.2679 117.684C30.7929 117.558 30.3249 117.5 29.8699 117.5Z" fill="white"/>
<path opacity="0.502" d="M30.5789 112.582C27.6009 112.582 24.8819 115.046 24.8199 118.139C24.8149 118.372 24.9939 118.489 25.1759 118.489C25.3569 118.489 25.5409 118.373 25.5449 118.139C25.5989 115.46 27.9819 113.302 30.5689 113.302C30.9349 113.302 31.3039 113.345 31.6719 113.436C31.7049 113.444 31.7379 113.448 31.7679 113.448C32.1499 113.448 32.2829 112.842 31.8639 112.738C31.4349 112.632 31.0039 112.582 30.5789 112.582Z" fill="white"/>
<path opacity="0.502" d="M36.5848 116.038C36.5498 116.038 36.5138 116.043 36.4748 116.055C32.6668 117.192 30.9898 121.264 32.8438 124.775C32.9118 124.903 33.0178 124.956 33.1268 124.956C33.3688 124.956 33.6198 124.694 33.4698 124.409C31.8358 121.316 33.3138 117.755 36.6678 116.754C37.0748 116.632 36.9518 116.038 36.5848 116.038Z" fill="white"/>
<path opacity="0.502" d="M44.8569 116.721C44.8219 116.721 44.7839 116.727 44.7449 116.739C42.8929 117.303 40.6949 118.116 40.2319 120.239C39.8849 121.836 40.5679 123.485 41.9539 124.335C41.9929 124.359 42.0319 124.375 42.0689 124.383C42.2039 124.268 42.3439 124.159 42.4869 124.054C42.5039 123.928 42.4589 123.795 42.3189 123.709C41.1139 122.971 40.5879 121.458 41.0139 120.111C41.5329 118.472 43.4679 117.884 44.9359 117.437C45.3429 117.313 45.2209 116.721 44.8569 116.721Z" fill="white"/>
<path opacity="0.502" d="M51.4838 114.278C49.6348 114.278 47.6798 114.95 46.7638 116.654C45.8938 118.272 46.2328 120.311 47.7138 121.415C47.7788 121.464 47.8438 121.485 47.9048 121.485C48.1918 121.485 48.3838 121.017 48.0788 120.789C46.6418 119.718 46.7368 117.515 47.9268 116.292C48.8538 115.339 50.1618 114.998 51.4528 114.998C51.7628 114.998 52.0718 115.018 52.3748 115.053C52.3918 115.055 52.4078 115.056 52.4228 115.056C52.8358 115.056 52.8158 114.381 52.3748 114.329C52.0838 114.296 51.7848 114.278 51.4838 114.278Z" fill="white"/>
<path opacity="0.502" d="M57.1979 123.573C57.1869 123.573 57.1769 123.573 57.1649 123.574C55.7069 123.684 53.8309 123.861 52.9959 125.259C52.3739 126.3 52.4679 127.807 53.6129 128.426C53.6729 128.458 53.7319 128.473 53.7879 128.473C54.1139 128.473 54.3299 127.99 53.9789 127.8C53.0119 127.279 53.2409 125.901 53.9369 125.243C54.7659 124.458 56.0929 124.38 57.1649 124.299C57.6169 124.265 57.6309 123.573 57.1979 123.573Z" fill="white"/>
<path opacity="0.502" d="M57.8469 116.47C54.5469 116.47 52.5079 120.646 55.1659 123.279C55.2409 123.353 55.3259 123.385 55.4069 123.385C55.6859 123.385 55.9349 123.021 55.6779 122.766C53.4739 120.582 55.1559 117.205 57.8699 117.205C58.2269 117.205 58.6009 117.263 58.9869 117.39C59.0289 117.404 59.0679 117.41 59.1049 117.41C59.4609 117.41 59.5799 116.824 59.1799 116.692C58.7199 116.539 58.2719 116.47 57.8469 116.47Z" fill="white"/>
<path opacity="0.502" d="M69.4969 121.604C69.4929 121.604 69.4889 121.604 69.4859 121.604C66.1159 121.694 64.1299 125.147 65.7439 128.105C65.8129 128.232 65.9209 128.284 66.0299 128.284C66.2739 128.284 66.5239 128.022 66.3699 127.739C65.0209 125.268 66.6729 122.403 69.4859 122.328C69.9469 122.317 69.9519 121.604 69.4969 121.604Z" fill="white"/>
<path opacity="0.502" d="M70.6939 115.542C67.8369 115.542 66.7599 119.406 69.3409 120.905C69.4029 120.941 69.4639 120.957 69.5219 120.957C69.8399 120.957 70.0489 120.478 69.7069 120.28C67.6889 119.108 68.5999 116.271 70.7739 116.271C70.8699 116.271 70.9679 116.277 71.0689 116.288C71.0849 116.29 71.1009 116.291 71.1159 116.291C71.5299 116.291 71.5109 115.614 71.0689 115.564C70.9409 115.549 70.8159 115.542 70.6939 115.542Z" fill="white"/>
<path opacity="0.502" d="M72.8069 118.333C72.7759 118.333 72.7429 118.337 72.7089 118.346C71.1719 118.739 70.0089 120.233 69.9079 121.816C69.8119 123.322 70.8629 124.708 72.3909 124.708C72.4639 124.708 72.5369 124.705 72.6119 124.698C73.0599 124.66 73.0759 123.971 72.6479 123.971C72.6359 123.971 72.6239 123.971 72.6119 123.973C72.5479 123.978 72.4849 123.981 72.4239 123.981C70.9719 123.981 70.3739 122.468 70.7589 121.202C71.0709 120.176 71.8529 119.314 72.9019 119.046C73.3179 118.938 73.1859 118.333 72.8069 118.333Z" fill="white"/>
<path opacity="0.502" d="M83.6758 110.376C83.5938 110.376 83.5099 110.407 83.4349 110.479C82.6029 111.28 82.3638 112.611 82.9958 113.611C83.2548 114.021 83.6328 114.323 84.0618 114.508C84.1578 114.39 84.2658 114.277 84.3888 114.17C84.4648 114.104 84.5479 114.076 84.6289 114.076C84.9209 114.076 85.1758 114.441 84.9008 114.683C84.8908 114.692 84.8808 114.701 84.8708 114.71C84.9438 114.716 85.0168 114.719 85.0898 114.719C85.4048 114.719 85.7198 114.662 86.0148 114.545C86.3968 114.394 86.2898 113.82 85.9538 113.82C85.9128 113.82 85.8698 113.828 85.8228 113.847C85.5768 113.944 85.3368 113.989 85.1098 113.989C83.6558 113.989 82.7088 112.188 83.9488 110.994C84.2078 110.74 83.9578 110.376 83.6758 110.376Z" fill="white"/>
<path opacity="0.502" d="M84.6279 114.075C84.5469 114.075 84.4639 114.103 84.3879 114.169C84.2659 114.276 84.1569 114.39 84.0609 114.507C82.8079 116.051 83.8129 118.381 85.8869 118.552C85.8989 118.553 85.9109 118.553 85.9219 118.553C86.3509 118.553 86.3369 117.865 85.8869 117.827C84.2309 117.69 83.6979 115.776 84.8699 114.708C84.8799 114.699 84.8899 114.69 84.8999 114.681C85.1749 114.441 84.9189 114.075 84.6279 114.075Z" fill="white"/>
<path opacity="0.502" d="M79.0209 114.296C78.9099 114.296 78.7989 114.344 78.7199 114.46C77.2649 116.605 79.3949 118.629 81.3379 119.274C81.3799 119.288 81.4189 119.294 81.4559 119.294C81.8109 119.294 81.9299 118.708 81.5299 118.575C80.0149 118.072 78.1719 116.557 79.3459 114.825C79.5289 114.555 79.2779 114.296 79.0209 114.296Z" fill="white"/>
<path opacity="0.502" d="M43.9299 123.247C43.8759 123.247 43.8189 123.26 43.7609 123.289C43.3329 123.503 42.8959 123.758 42.4889 124.053C42.3449 124.157 42.2049 124.267 42.0709 124.382C41.0899 125.217 40.3959 126.326 40.6469 127.712C40.9599 129.449 42.7649 130.12 44.2549 130.569C44.2939 130.581 44.3309 130.586 44.3659 130.586C44.7309 130.586 44.8549 129.993 44.4479 129.87C43.1519 129.479 41.4179 128.934 41.3209 127.301C41.2209 125.605 42.8109 124.57 44.1269 123.913C44.4849 123.735 44.2629 123.247 43.9299 123.247Z" fill="white"/>
<path d="M60.8159 92.5667C61.4219 92.6907 61.9419 93.0587 62.4439 93.4167C63.0689 93.8657 63.6329 94.3527 64.2099 94.8577C64.3199 94.9527 64.4729 95.0537 64.5969 94.9767C64.9839 94.7477 64.3339 93.6787 64.2199 93.4447C63.9099 92.8237 63.5569 92.2177 63.3989 91.5357C63.1269 90.3567 63.7139 89.7697 64.4589 88.9437C64.6209 88.9437 65.0559 88.1897 65.1509 88.0507C65.3469 87.7597 65.5139 87.4587 65.6859 87.1537C65.7289 87.0777 65.7669 86.9917 65.7239 86.9197C65.6709 86.8337 65.5469 86.8527 65.4519 86.8767C64.7029 87.1007 64.1109 87.5307 63.4039 87.8217C62.9269 88.0127 61.1609 88.8007 60.7119 88.3467C60.6589 88.2937 60.6259 88.2317 60.5879 88.1657C59.9099 86.8867 58.8739 85.8507 57.7189 84.9537C57.6519 84.8967 57.5999 84.8587 57.5039 84.8627C57.3849 85.4017 57.7949 86.3377 57.8809 86.9197C57.9529 87.3827 58.3059 88.6137 57.9049 88.9767C57.4319 89.3967 56.1769 89.0817 55.6189 89.0527C55.1849 89.0287 54.7499 89.0147 54.3159 89.0047C54.0959 88.9997 53.5899 88.9097 53.4379 89.1097C53.0749 89.5867 54.7789 90.3987 55.0989 90.5367C55.6479 90.7707 57.3849 90.9897 57.5909 91.6347C57.9489 92.7417 57.0129 94.3217 56.2969 95.0857C56.1489 95.2437 55.9819 95.4867 56.1249 95.6537C56.2059 95.7447 56.3449 95.7487 56.4639 95.7347C57.0419 95.6627 57.5279 95.2907 57.9819 94.9277C58.7549 94.3167 59.3809 93.4577 60.1059 92.7847C60.2009 92.6937 60.3019 92.6037 60.4259 92.5647C60.5479 92.5237 60.6869 92.5377 60.8159 92.5667ZM77.3929 89.6447C77.4169 93.5777 77.2739 97.5057 77.2929 101.439C77.2929 101.534 77.2929 101.639 77.2689 101.73C77.2449 101.816 77.2019 101.897 77.1259 101.945C77.0349 102.007 76.9209 102.012 76.8109 102.012C70.6919 101.979 64.5199 102.036 58.3769 102.036C52.7109 102.036 47.0309 102.05 41.3699 101.998C41.2119 101.993 41.0409 101.984 40.9259 101.879C40.8309 101.788 40.8019 101.65 40.7779 101.521C40.4959 99.8407 40.6919 98.0407 40.6779 96.3417C40.6639 94.6277 40.6299 92.9147 40.5869 91.1967C40.5299 88.8767 40.4249 86.5527 40.3869 84.2327C40.3579 82.8007 40.3969 81.4307 40.2769 79.9987C40.2439 79.6457 40.2149 79.2877 40.2819 78.9437C40.3489 78.5957 40.5209 78.2517 40.8209 78.0607C41.1069 77.8797 41.4649 77.8607 41.8089 77.8407C43.0069 77.7927 49.9999 77.8077 52.2529 77.8117C54.7159 77.8117 57.1739 77.8167 59.6369 77.8257C64.4959 77.8357 69.3549 77.8497 74.2139 77.8207C74.9399 77.8157 75.6649 77.8347 76.3859 77.8777C76.5579 77.8877 76.7389 77.9017 76.8819 77.9967C77.1019 78.1497 77.1589 78.4457 77.1919 78.7077C77.2399 79.0847 77.2399 79.4717 77.2539 79.8487C77.3779 83.1107 77.3739 86.3807 77.3929 89.6447Z" fill="#ABABB7"/>
<path d="M65.7218 86.9197C65.7648 86.9917 65.7268 87.0777 65.6838 87.1537C65.5118 87.4587 65.3449 87.7597 65.1489 88.0507C65.0539 88.1887 64.6188 88.9437 64.4568 88.9437C63.7118 89.7697 63.1249 90.3567 63.3969 91.5357C63.5549 92.2187 63.9079 92.8247 64.2179 93.4447C64.3329 93.6787 64.9818 94.7477 64.5948 94.9767C64.4708 95.0527 64.3178 94.9527 64.2078 94.8577C63.6298 94.3517 63.0668 93.8647 62.4418 93.4167C61.9408 93.0587 61.4209 92.6907 60.8139 92.5667C60.6849 92.5377 60.5468 92.5237 60.4228 92.5667C60.2988 92.6047 60.1988 92.6957 60.1028 92.7867C59.3768 93.4597 58.7518 94.3187 57.9788 94.9297C57.5258 95.2927 57.0389 95.6647 56.4609 95.7367C56.3419 95.7507 56.2029 95.7467 56.1219 95.6557C55.9789 95.4887 56.1459 95.2457 56.2939 95.0877C57.0099 94.3237 57.9458 92.7437 57.5879 91.6367C57.3829 90.9927 55.6448 90.7727 55.0958 90.5387C54.7758 90.4007 53.0719 89.5887 53.4349 89.1117C53.5879 88.9117 54.0939 89.0017 54.3129 89.0067C54.7469 89.0167 55.1818 89.0307 55.6158 89.0547C56.1738 89.0837 57.4298 89.3987 57.9018 88.9787C58.3028 88.6157 57.9499 87.3847 57.8779 86.9217C57.7919 86.3397 57.3819 85.4037 57.5009 84.8647C57.5959 84.8597 57.6489 84.8977 57.7159 84.9557C58.8709 85.8527 59.9069 86.8887 60.5849 88.1677C60.6229 88.2347 60.6569 88.2967 60.7089 88.3487C61.1579 88.8017 62.9238 88.0147 63.4008 87.8237C64.1068 87.5327 64.6989 87.1027 65.4489 86.8787C65.5459 86.8527 65.6698 86.8337 65.7218 86.9197Z" fill="#FFCE6C"/>
<path d="M49.7938 43.8305C48.5158 45.2795 48.9958 47.4825 50.0388 49.0025C51.4488 51.0585 54.1848 51.5425 56.5498 51.5655C59.0408 51.5895 61.7538 50.4415 63.6718 48.8785C65.7908 47.1525 65.2998 45.0585 65.3498 42.5875C65.3598 42.0745 64.5048 41.9295 64.4288 42.4625C64.2978 43.3825 64.4868 44.6825 64.1258 45.4995C63.1068 47.8035 60.4498 48.0555 58.2598 48.4565C56.7338 48.7355 55.1998 48.5655 53.7508 47.9675C51.8158 47.1695 50.8858 45.8025 50.1868 43.9345C50.1278 43.7815 49.9198 43.6875 49.7938 43.8305Z" fill="#6565AA"/>
<path d="M112.686 85.6186C115.939 83.3456 118.215 80.1837 119.152 76.2657C119.257 75.8267 118.716 75.6527 118.467 75.9767C116.17 78.9647 114.122 81.9737 112.366 85.2977C112.264 85.4907 112.482 85.7616 112.686 85.6186Z" fill="#2F2F5B"/>
<path d="M111.649 87.5887C111.74 87.4067 111.831 87.2237 111.923 87.0417C112.004 86.8807 111.761 86.7376 111.68 86.8996C111.589 87.0816 111.498 87.2647 111.406 87.4467C111.326 87.6087 111.568 87.7507 111.649 87.5887Z" fill="#2F2F5B"/>
<path d="M99.2709 103.73C103.489 103.769 105.386 102.451 108.009 99.1856C110.207 96.4506 112.171 92.4346 112.245 88.8806C112.257 88.2856 111.395 88.0376 111.109 88.5726C109.532 91.5296 108.66 94.5096 106.48 97.1676C105.466 98.4036 104.299 99.0956 103.038 100.045C101.648 101.09 100.64 102.466 99.1999 103.467C99.0889 103.545 99.1239 103.729 99.2709 103.73Z" fill="#2F2F5B"/>
<path d="M70.3119 20.3356C69.7549 19.2676 69.1289 18.2436 68.3719 17.3226C68.1519 17.3836 67.9709 17.6716 68.0869 17.9196C69.5839 21.1336 70.7099 24.9636 70.2149 28.5606C70.1899 28.7406 70.4079 28.9356 70.5599 28.7616C71.6649 27.4946 71.2209 24.8806 71.0229 23.3446C70.8849 22.2826 70.6599 21.2836 70.3119 20.3356Z" fill="#492300"/>
<path d="M51.1399 27.8886C51.1149 27.8656 51.0879 27.8596 51.0639 27.8326C50.2829 26.9746 49.6399 26.0226 49.1269 24.9906C48.9869 24.9016 48.8509 24.8096 48.7059 24.7286C48.6569 24.7686 48.6259 24.8336 48.6649 24.8876C48.8639 25.1606 48.9459 25.7246 49.0399 26.0646C49.1769 26.5646 49.2749 27.0276 49.5329 27.4826C49.9239 28.1716 50.4019 29.1346 51.3429 28.6626C51.4589 28.6046 51.5189 28.5026 51.5529 28.3906C51.3999 28.2336 51.2779 28.0546 51.1399 27.8886Z" fill="#492300"/>
<path d="M46.8999 29.8977C47.0469 29.8317 47.1939 29.7687 47.3389 29.6977C47.3859 29.6747 47.4369 29.6697 47.4859 29.6537C47.5239 29.6297 47.5639 29.6077 47.6019 29.5827C47.7209 29.4907 47.8389 29.3977 47.9599 29.3067C48.1199 29.0677 48.2479 28.7957 48.3519 28.5137C48.5469 27.9837 48.6179 27.4137 48.7679 26.8697C48.9079 26.3607 49.1939 25.9787 49.3779 25.4877C49.2879 25.3277 49.2159 25.1567 49.1319 24.9927C48.9749 24.8927 48.8059 24.8157 48.6449 24.7227C48.6399 24.7217 48.6349 24.7237 48.6299 24.7227C48.4079 24.6747 48.2059 24.7157 48.0129 24.7917C47.7419 25.2917 47.5249 25.8177 47.3299 26.3517C47.2779 26.9637 47.1949 27.5677 47.0839 28.1667C47.0999 28.7277 47.1049 29.3177 46.8799 29.7507C46.8489 29.8097 46.8659 29.8597 46.8999 29.8977Z" fill="#492300"/>
<path d="M44.0349 15.3946C39.3159 18.9086 36.8139 27.5276 40.6639 32.5806C41.0589 33.0986 41.8599 32.6676 41.5539 32.0606C39.2319 27.4396 40.7639 19.5726 44.7449 16.6086C45.4619 16.0736 44.7619 14.8526 44.0349 15.3946Z" fill="#492300"/>
<path d="M44.2729 14.8786C40.6159 12.0856 34.0099 15.1046 33.1239 19.4786C32.5189 22.4656 34.4619 25.3176 35.6109 27.9326C36.9899 31.0706 38.3699 33.8066 37.9059 37.0426C37.6589 40.1806 36.0759 43.2126 33.3999 45.0126C33.5199 45.2196 33.7839 45.3496 34.0369 45.2036C37.9689 42.9466 39.5919 40.5056 39.7099 35.9786C39.7829 33.1766 39.4289 31.0106 38.3409 28.4246C37.5189 26.4696 36.2269 24.7316 36.2209 22.5446C36.2159 20.3206 39.7159 13.7076 43.3739 16.4166C44.3009 17.1036 45.1679 15.5626 44.2729 14.8786Z" fill="#492300"/>
<path d="M97.9469 105.5C97.0489 107.522 95.8319 109.417 94.6769 111.284C94.6679 111.298 94.6569 111.307 94.6479 111.321C94.3879 111.85 94.0859 112.347 93.7509 112.824C92.9119 114.49 91.8369 116.01 90.7579 117.534C90.6569 117.677 90.5349 117.772 90.4049 117.843C89.6839 118.777 88.8859 119.656 88.0589 120.49C87.9569 120.592 87.8489 120.653 87.7399 120.697C87.3229 121.133 86.8709 121.526 86.3989 121.895C85.6399 122.608 84.8509 123.289 84.0129 123.92C84.0009 123.93 83.9899 123.943 83.9779 123.953C79.6319 127.705 74.0769 129.218 68.6689 130.734C62.6189 132.429 56.5649 133.685 50.2559 133.779C36.4489 133.984 15.2329 130.925 6.08589 119.053C5.99289 119.003 5.90089 118.951 5.81589 118.859C4.64989 117.6 3.68789 116.185 2.85989 114.686C2.78089 114.542 2.74089 114.401 2.73089 114.265C2.36089 113.398 2.01989 112.52 1.77789 111.62C1.69789 111.521 1.62889 111.406 1.58789 111.257C0.966893 108.999 0.510893 106.704 0.511893 104.392C0.430893 103.884 0.383893 103.337 0.441893 102.834C0.369893 102.906 0.311893 102.994 0.293893 103.12C-3.48611 129.24 30.0969 136.127 49.2909 135.976C56.1269 135.922 62.6649 134.583 69.2099 132.696C74.3989 131.2 79.7969 129.703 84.1879 126.427C87.7939 123.737 90.6099 120.072 93.2029 116.334C93.7579 115.265 94.2789 114.18 94.6699 113.032C94.7299 112.856 94.8269 112.726 94.9399 112.62C95.1609 112.085 95.3799 111.55 95.6139 111.021C95.6319 110.932 95.6539 110.842 95.6999 110.75C96.5919 108.96 97.4509 107.157 98.2269 105.317C98.2399 105.215 98.2659 105.117 98.2749 105.014C98.1659 105.177 98.0559 105.338 97.9469 105.5Z" fill="#42427A"/>
<path d="M99.2979 95.8986C97.6479 96.3676 96.2909 98.3006 95.0309 99.3906C92.9539 101.189 90.9639 103.199 89.1409 105.248C89.0329 105.369 89.1669 105.539 89.3109 105.469C91.5209 104.389 93.4509 102.82 95.2609 101.158C96.0639 100.42 96.8959 99.5916 97.5649 98.7276C98.2109 97.8946 98.5129 96.7016 99.3699 96.0696C99.4509 96.0106 99.4079 95.8676 99.2979 95.8986Z" fill="#42427A"/>
<path d="M62.9789 112.494C62.9539 112.492 62.9369 112.503 62.9109 112.499C62.6949 112.47 62.4839 112.427 62.2699 112.395C62.2019 112.384 62.1339 112.378 62.0659 112.366C62.0579 112.365 62.0519 112.361 62.0449 112.358C62.0379 112.357 62.0309 112.356 62.0239 112.355C60.9189 112.368 59.8199 112.193 58.8149 111.789C57.2379 111.584 55.7179 111.291 54.3349 110.91C49.7589 109.651 45.4709 106.912 40.9789 105.306C33.5699 102.657 24.6389 100.214 17.7049 105.286C17.6569 105.321 17.6969 105.394 17.7519 105.367C24.0089 102.252 29.5739 103.832 35.6429 106.323C40.1319 108.166 44.7379 109.602 49.1869 111.585C55.0279 114.188 61.1389 114.213 67.3259 113.285C68.2909 112.837 69.2769 112.436 70.2619 112.033C67.8709 112.564 65.4389 112.784 62.9789 112.494Z" fill="#42427A"/>
<path d="M40.5849 100.628C40.4399 99.8395 40.4749 99.0705 40.5379 98.2935C40.5379 98.2905 40.5369 98.2875 40.5369 98.2845C38.1039 98.7945 35.7569 99.6045 33.5429 100.855C33.2929 101.095 33.0369 101.329 32.8039 101.588C32.7249 101.675 32.6379 101.723 32.5519 101.773C32.2209 102.219 31.9439 102.705 31.7689 103.272C31.6129 103.777 32.2159 104.235 32.6629 103.96C33.5989 103.383 34.7949 103.211 35.8179 102.815C37.0959 102.32 38.2869 101.553 39.6429 101.294C40.0019 101.225 40.3429 100.978 40.6009 100.669C40.5989 100.652 40.5879 100.643 40.5849 100.628Z" fill="#42427A"/>
<path d="M78.6529 46.7556C77.0359 45.2916 74.6719 43.8966 72.6129 43.1936C71.5869 42.8436 70.4469 42.8296 69.3829 42.6256C67.8379 42.3296 66.5369 41.7266 64.9549 41.7216C64.7699 41.7216 64.6389 41.7826 64.5289 41.8636C64.5719 42.2796 64.6029 42.6956 64.6239 43.1126C64.6669 43.1416 64.7049 43.1736 64.7549 43.1946C66.1739 43.7856 67.4629 43.7226 68.9949 44.0316C69.9829 44.2306 70.9409 44.6426 71.9319 44.8086C72.8309 44.9596 73.7709 44.8696 74.6559 45.1206C75.9179 45.4786 77.2539 46.4316 78.4259 47.0496C78.6069 47.1456 78.8179 46.9046 78.6529 46.7556Z" fill="#6565AA"/>
<path d="M50.3589 42.6586C43.6429 41.1776 34.3259 46.0846 29.0979 50.0236C23.6619 54.1186 20.6259 60.6066 21.1759 67.4136C21.1919 67.6166 21.2839 67.7646 21.4089 67.8676C21.4699 67.5656 21.5629 67.2636 21.6739 66.9646C21.6609 66.2826 21.7299 65.5876 21.8449 64.9136C21.8129 64.7636 21.8089 64.6006 21.8739 64.4136C21.9129 64.3026 21.9629 64.1976 22.0039 64.0886C22.0429 63.9106 22.0779 63.7266 22.1189 63.5556C22.1709 63.3356 22.2779 63.1806 22.4109 63.0696C22.5209 62.8236 22.6519 62.5886 22.7719 62.3476C22.9089 61.9796 23.0779 61.6296 23.2669 61.2896C23.9579 59.4976 25.1789 57.9086 27.2669 56.0456C29.3889 54.1526 31.7829 52.4876 34.2769 51.1196C39.3319 48.3476 45.8589 47.8986 50.5729 44.8216C50.5219 44.0986 50.4599 43.3756 50.3589 42.6586Z" fill="#6565AA"/>
<path d="M72.6609 71.2016C72.7439 68.9626 72.4489 66.2196 73.7389 64.3856C75.8419 61.3936 74.0589 63.6536 74.1409 63.9316C74.2479 64.2966 74.2679 65.5016 74.3219 65.7796C74.6619 67.5196 75.2489 69.1896 75.5239 70.9486C75.6839 71.9696 75.6399 73.1056 75.8569 74.1246C76.1459 75.4796 76.6879 76.2436 76.7929 77.8266C76.8269 78.3456 77.5539 78.4726 77.7139 77.9516C78.1489 76.5256 79.0079 75.1766 79.1719 73.6766C79.3569 71.9846 78.9819 70.0836 78.6959 68.4156C78.2519 65.8246 77.6659 63.7266 75.3339 62.5666C74.6209 62.2116 74.2409 61.6056 73.4029 62.2206C72.6239 62.7916 72.5369 65.2656 72.4079 66.0256C72.1069 67.7986 72.1529 69.4136 72.3799 71.2036C72.4019 71.3756 72.6539 71.3876 72.6609 71.2016Z" fill="#6565AA"/>
<path d="M36.4029 76.3766C35.1129 74.2336 35.1229 68.2796 37.0619 66.1886C38.2759 64.8806 39.8229 64.5966 40.2109 66.6496C40.3549 67.4126 40.0759 68.5196 39.9779 69.3166C39.7019 71.5746 39.5369 73.7046 39.3229 75.9416C40.2499 74.2816 41.5949 72.8816 42.6729 71.3146C43.4659 69.3456 43.7919 67.2526 43.0249 64.9076C42.1069 62.0976 39.4099 62.0646 37.3149 63.7196C31.1349 68.5996 34.0819 78.3516 40.1439 81.6786C40.2809 81.7536 40.4329 81.5706 40.3139 81.4576C38.8069 80.0146 37.4799 78.1666 36.4029 76.3766Z" fill="#6565AA"/>
</svg>
