<svg viewBox="0 0 195 116" fill="none" xmlns="http://www.w3.org/2000/svg">
<path opacity="0.5" d="M26.8388 81.547C22.2958 83.189 17.9718 85.102 13.6388 87.231C9.47979 89.275 4.63579 90.411 0.84579 93.092C0.0997902 93.62 0.81379 94.862 1.56879 94.328C4.87379 91.99 9.29279 90.864 12.9658 89.141C17.6848 86.928 22.3048 84.703 27.2198 82.927C28.0798 82.617 27.7088 81.232 26.8388 81.547Z" fill="#B27F19"/>
<path opacity="0.5" d="M22.0188 114.127C28.5818 109.352 35.5258 105.211 42.8158 101.644C43.6438 101.239 42.9188 100.004 42.0928 100.408C34.8038 103.975 27.8598 108.116 21.2958 112.891C20.5578 113.428 21.2718 114.671 22.0188 114.127Z" fill="#B27F19"/>
<path opacity="0.5" d="M1.57186 92.5289C8.11286 100.363 16.3359 106.553 23.0299 114.25C23.6359 114.947 24.6449 113.93 24.0429 113.237C17.3479 105.541 9.12586 99.3499 2.58486 91.5159C1.99386 90.8089 0.984861 91.8259 1.57186 92.5289Z" fill="#B27F19"/>
<path opacity="0.5" d="M7.72025 89.2109C11.5382 92.6629 14.7083 96.7699 18.7393 99.9889C22.3833 102.899 26.2803 105.386 28.5772 109.581C29.0203 110.39 30.2572 109.668 29.8132 108.858C27.8302 105.236 24.6992 102.786 21.4772 100.306C16.7762 96.6869 13.1133 92.1599 8.73325 88.1989C8.05025 87.5819 7.03425 88.5909 7.72025 89.2109Z" fill="#B27F19"/>
<path opacity="0.5" d="M24.5163 87.243C24.3843 87.941 24.1563 88.607 23.8303 89.243C23.6073 89.724 23.8673 90.317 24.4483 90.32C25.6233 90.327 26.7023 90.232 27.8553 90.044C27.5853 89.693 27.3163 89.343 27.0463 88.992C26.3173 90.259 25.6313 91.272 25.5283 92.743C25.4943 93.233 26.0113 93.525 26.4343 93.433C27.1563 93.277 32.3403 91.558 32.6523 92.045C32.3933 91.64 28.7293 95.826 28.4033 96.187C28.0033 96.63 28.2613 97.424 28.9093 97.409C30.7693 97.368 32.2573 96.683 33.9243 95.937C34.6043 95.632 36.6283 94.732 36.6603 94.896C36.7703 95.467 34.8763 97.725 34.5383 98.263C34.2463 98.727 34.6273 99.341 35.1563 99.34C36.2123 99.338 37.2683 99.337 38.3243 99.335C39.2453 99.334 39.2473 97.902 38.3243 97.903C37.2683 97.905 36.2123 97.906 35.1563 97.908C35.3623 98.267 35.5683 98.626 35.7743 98.985C36.3203 98.118 39.8483 94.417 38.0103 93.405C37.1993 92.958 35.5943 93.669 34.8953 93.937C32.8803 94.708 31.1493 95.928 28.9103 95.978C29.0793 96.385 29.2483 96.793 29.4163 97.2C30.6993 95.778 32.7943 94.152 33.6943 92.44C33.9283 91.995 34.1343 91.642 33.8463 91.146C32.8423 89.414 27.3283 91.776 26.0543 92.052C26.3563 92.282 26.6583 92.512 26.9603 92.742C27.0393 91.619 27.7433 90.652 28.2833 89.714C28.6203 89.129 28.0673 88.566 27.4743 88.662C26.4723 88.862 25.4633 88.937 24.4473 88.887C24.6533 89.246 24.8593 89.605 25.0653 89.964C25.4243 89.188 25.6923 88.459 25.8953 87.622C26.1143 86.729 24.7343 86.347 24.5163 87.243Z" fill="#B27F19"/>
<path opacity="0.5" d="M36.9896 83.163C39.2266 85.035 41.3536 87.029 43.4876 89.016C44.1616 89.643 45.1766 88.633 44.5006 88.003C42.3666 86.016 40.2396 84.022 38.0026 82.15C37.3006 81.563 36.2816 82.57 36.9896 83.163Z" fill="#B27F19"/>
<path d="M191.859 60.6799C191.979 61.1299 192.109 61.5699 192.229 62.0099C191.449 62.0499 190.759 61.9299 190.119 61.6699C190.689 61.4399 191.279 61.1199 191.859 60.6799Z" fill="#5BB283"/>
<path d="M192.229 62.0098C192.109 61.5698 191.979 61.1298 191.859 60.6798V60.5798C191.979 60.5898 192.099 60.5898 192.229 60.5798C193.009 60.5398 193.099 61.5298 192.579 61.9098C192.489 61.9798 192.399 62.0498 192.299 62.1198L192.229 62.0098Z" fill="#5BB283"/>
<path d="M192.299 62.1198C186.749 65.9998 181.259 61.2298 177.989 56.3898C178.049 55.5598 178.059 54.7198 178.029 53.8798L178.109 53.8398C180.499 58.0898 185.109 63.6298 190.119 61.6698C190.759 61.9298 191.449 62.0498 192.229 62.0098L192.299 62.1198Z" fill="#4AA374"/>
<path d="M177.99 56.3899C177.99 56.4199 177.989 56.4499 177.979 56.4699C177.979 56.4399 177.979 56.4099 177.979 56.3699C177.989 56.3799 177.99 56.3799 177.99 56.3899Z" fill="#4AA374"/>
<path d="M177.979 56.3699C177.939 55.5399 177.819 54.7499 177.669 53.9799C177.789 53.9499 177.909 53.9199 178.029 53.8799C178.059 54.7199 178.049 55.5599 177.989 56.3899C177.989 56.3799 177.989 56.3799 177.979 56.3699Z" fill="#4AA374"/>
<path d="M178.03 53.88C177.91 53.92 177.79 53.95 177.67 53.98C177.62 53.72 177.56 53.46 177.51 53.21C177.68 53.25 177.83 53.34 177.93 53.52C177.99 53.63 178.05 53.73 178.11 53.84L178.03 53.88Z" fill="#4AA374"/>
<path d="M176.939 46.27C177.029 46.47 176.969 46.72 176.819 46.92C176.859 46.7 176.899 46.49 176.939 46.27Z" fill="#55BF87"/>
<path d="M176.689 54.25C177.019 54.16 177.339 54.07 177.669 53.98C177.819 54.75 177.939 55.54 177.979 56.37C177.499 55.66 177.069 54.94 176.689 54.25Z" fill="#3A845C"/>
<path d="M176.689 54.2498H176.599C176.599 54.1198 176.599 53.9998 176.589 53.8798C176.569 53.3798 177.089 53.0998 177.509 53.2098C177.559 53.4598 177.619 53.7198 177.669 53.9798C177.339 54.0698 177.019 54.1598 176.689 54.2498Z" fill="#3A845C"/>
<path d="M176.78 46.04C176.99 46.79 175.88 47.38 175.48 46.61C175.23 46.14 174.97 45.67 174.68 45.23C175.32 45.44 175.97 45.67 176.61 45.95C176.68 45.98 176.73 46 176.78 46.04Z" fill="#55BF87"/>
<path d="M184.329 53.34C185.409 56.25 187.009 60.45 190.119 61.67C185.109 63.63 180.499 58.09 178.109 53.84C178.049 53.73 177.989 53.63 177.929 53.52C177.829 53.34 177.679 53.25 177.509 53.21C177.049 51.13 176.499 49.17 176.819 46.92C176.969 46.72 177.029 46.47 176.939 46.27C176.909 46.18 176.859 46.11 176.779 46.04C176.769 45.99 176.749 45.94 176.719 45.89C175.969 44.46 175.089 43.17 174.069 42.01C179.809 42.02 182.579 48.63 184.329 53.34Z" fill="#4AA374"/>
<path d="M191.86 60.58V60.68C191.28 61.12 190.69 61.44 190.12 61.67C187.01 60.45 185.41 56.25 184.33 53.34C182.58 48.63 179.81 42.02 174.07 42.01C173.67 41.55 173.24 41.1 172.8 40.68C177.86 40.07 181.33 43.58 183.56 47.86C185.39 51.37 186.9 60.39 191.86 60.58Z" fill="#5BB283"/>
<path d="M177.98 56.47C177.66 61.29 175.94 65.89 173.18 69.89C173.12 69.97 173.05 70.04 172.97 70.08C173.09 70 173.19 69.88 173.25 69.72C173.26 69.68 173.27 69.65 173.27 69.62C173.65 68.16 173.75 66.74 173.64 65.33C174.99 62.11 176.6 57.58 176.6 54.25H176.69C177.07 54.94 177.5 55.66 177.98 56.37C177.98 56.41 177.98 56.44 177.98 56.47Z" fill="#3A845C"/>
<path d="M172.129 41.9299C171.749 41.5599 171.739 40.8399 172.389 40.7399C172.529 40.7099 172.659 40.6999 172.799 40.6799C173.239 41.0999 173.669 41.5499 174.069 42.0099C173.649 42.0099 173.219 42.0499 172.769 42.1199C172.509 42.1599 172.289 42.0799 172.129 41.9299Z" fill="#84D8AC"/>
<path d="M171.909 69.2299C172.219 68.6699 173.369 68.9999 173.269 69.6199C173.269 69.6499 173.259 69.6799 173.249 69.7199C172.789 69.5899 172.329 69.4599 171.869 69.3299C171.869 69.3199 171.879 69.3099 171.879 69.2999C171.889 69.2799 171.899 69.2599 171.909 69.2399C171.909 69.2399 171.909 69.2399 171.909 69.2299Z" fill="#3A845C"/>
<path d="M172.129 41.9299C172.289 42.0799 172.509 42.1599 172.769 42.1199C173.219 42.0499 173.649 42.0099 174.069 42.0099C175.089 43.1699 175.969 44.4599 176.719 45.8899C176.749 45.9399 176.769 45.9899 176.779 46.0399C176.729 45.9999 176.679 45.9799 176.609 45.9499C175.969 45.6699 175.319 45.4399 174.679 45.2299C173.929 44.0399 173.049 42.9499 172.079 41.9799L172.129 41.9299Z" fill="#84D8AC"/>
<path d="M171.909 69.2298C172.109 68.7798 172.819 67.2998 173.639 65.3298C173.749 66.7398 173.649 68.1598 173.269 69.6198C173.369 68.9998 172.219 68.6698 171.909 69.2298Z" fill="#3A845C"/>
<path d="M171.85 69.7C171.89 69.84 171.96 69.95 172.06 70.04C171.95 69.96 171.88 69.84 171.85 69.7Z" fill="#3B3B72"/>
<path d="M172.059 70.0398C171.959 69.9498 171.889 69.8398 171.849 69.6998C171.839 69.6498 171.839 69.6098 171.829 69.5598C171.829 69.5198 171.829 69.4798 171.839 69.4398C171.849 69.4098 171.859 69.3698 171.869 69.3298C172.329 69.4598 172.789 69.5898 173.249 69.7198C173.189 69.8798 173.089 69.9998 172.969 70.0798C172.969 70.0898 172.959 70.0898 172.959 70.0898C172.949 70.0898 172.949 70.0998 172.949 70.0998C172.919 70.1198 172.889 70.1298 172.869 70.1498C172.849 70.1498 172.829 70.1598 172.809 70.1698H172.799C172.779 70.1698 172.749 70.1798 172.729 70.1898C172.699 70.1898 172.669 70.1998 172.639 70.1998C172.599 70.2098 172.569 70.2098 172.529 70.2098C172.439 70.2098 172.359 70.1998 172.279 70.1698C172.249 70.1498 172.209 70.1298 172.169 70.1098H172.159C172.129 70.0798 172.089 70.0698 172.059 70.0398Z" fill="#3A845C"/>
<path d="M170.529 46.0299C170.609 45.8999 170.639 45.7699 170.629 45.6499C172.329 45.9199 174.079 46.4099 175.889 47.1799C176.269 47.3399 176.619 47.1799 176.819 46.9199C176.499 49.1699 177.049 51.1299 177.509 53.2099C177.089 53.0999 176.569 53.3799 176.589 53.8799C176.599 53.9999 176.599 54.1199 176.599 54.2499C176.599 57.5799 174.989 62.1099 173.639 65.3299C173.469 62.9599 172.729 60.6499 171.879 58.3099C170.469 54.4399 168.189 49.9699 170.529 46.0299Z" fill="#3A845C"/>
<path d="M169.299 45.31C169.689 44.65 170.609 45.04 170.629 45.65C170.149 45.57 169.669 45.51 169.199 45.47C169.229 45.42 169.259 45.36 169.299 45.31Z" fill="#55BF87"/>
<path d="M170.53 46.03C168.19 49.97 170.47 54.44 171.88 58.31C172.73 60.65 173.47 62.96 173.64 65.33C172.82 67.3 172.11 68.78 171.91 69.23C171.91 69.24 171.91 69.24 171.91 69.24C171.9 69.26 171.89 69.28 171.88 69.3C174.01 61.27 164.9 53.06 169.2 45.47C169.67 45.51 170.15 45.57 170.63 45.65C170.64 45.77 170.61 45.9 170.53 46.03Z" fill="#3A845C"/>
<path d="M160.31 39.8298C160.54 39.6898 160.9 39.9498 160.82 40.2698C160.63 40.1698 160.45 40.0298 160.31 39.8298Z" fill="#AEF9D6"/>
<path d="M160.819 40.2699C161.199 40.4699 161.659 40.5099 162.139 40.4799C162.599 40.4599 162.609 39.7399 162.139 39.7599C161.569 39.7999 161.059 39.7799 160.759 39.2099C160.469 38.6699 160.489 38.0099 160.639 37.4299C160.709 37.1599 160.489 36.9799 160.279 36.9799L160.349 36.3599C164.799 36.9199 168.949 38.8499 172.079 41.9799C173.049 42.9499 173.929 44.0399 174.679 45.2299C170.379 43.8399 166.179 43.8999 162.219 44.9799L161.979 44.1199C162.209 44.0099 162.319 43.6399 162.019 43.4899C160.889 42.9199 160.299 41.5299 160.809 40.3399C160.819 40.3199 160.829 40.2899 160.819 40.2699Z" fill="#6ED3A1"/>
<path d="M160.809 40.3398C160.299 41.5298 160.889 42.9198 162.019 43.4898C162.319 43.6398 162.209 44.0098 161.979 44.1198C161.879 44.1598 161.769 44.1698 161.659 44.1098C160.129 43.3498 159.529 41.5098 160.179 39.9698C160.209 39.8998 160.259 39.8498 160.309 39.8298C160.449 40.0298 160.629 40.1698 160.819 40.2698C160.829 40.2898 160.819 40.3198 160.809 40.3398Z" fill="#AEF9D6"/>
<path d="M160.219 39.71C159.759 38.98 159.729 38.05 159.949 37.24C159.999 37.06 160.139 36.98 160.279 36.98C160.489 36.98 160.709 37.16 160.639 37.43C160.489 38.01 160.469 38.67 160.759 39.21C161.059 39.78 161.569 39.8 162.139 39.76C162.609 39.74 162.599 40.46 162.139 40.48C161.659 40.51 161.199 40.47 160.819 40.27C160.899 39.95 160.539 39.69 160.309 39.83C160.269 39.79 160.249 39.75 160.219 39.71Z" fill="#AEF9D6"/>
<path d="M156.809 42.36C157.169 42.77 157.769 42.93 158.269 43.08C158.709 43.21 158.519 43.9 158.079 43.77C157.399 43.57 156.659 43.32 156.199 42.74C155.649 42.06 155.839 41.2 155.809 40.39C155.789 39.92 156.509 39.93 156.519 40.39C156.549 41.03 156.339 41.83 156.809 42.36Z" fill="#AEF9D6"/>
<path d="M151.779 40.4699C151.759 42.2099 152.959 43.7199 154.659 44.1199C155.109 44.2299 154.919 44.9299 154.459 44.8199C153.289 44.5499 152.319 43.8099 151.719 42.8299C151.749 42.6799 151.659 42.5299 151.519 42.4599C151.219 41.8499 151.049 41.1699 151.059 40.4699C151.059 39.9999 151.789 39.9999 151.779 40.4699Z" fill="#AEF9D6"/>
<path d="M158.079 43.7699C158.519 43.8999 158.709 43.2099 158.269 43.0799C157.769 42.9299 157.169 42.7699 156.809 42.3599C156.339 41.8299 156.549 41.0299 156.519 40.3899C156.509 39.9299 155.789 39.9199 155.809 40.3899C155.839 41.1999 155.649 42.0599 156.199 42.7399C156.659 43.3199 157.399 43.5699 158.079 43.7699ZM145.329 41.7899L144.539 40.6399C147.949 38.2399 151.729 36.5199 156.219 36.2299C157.609 36.1399 158.999 36.1899 160.349 36.3599L160.279 36.9799C160.139 36.9799 159.999 37.0599 159.949 37.2399C159.729 38.0499 159.759 38.9799 160.219 39.7099C160.249 39.7499 160.269 39.7899 160.309 39.8299C160.259 39.8499 160.209 39.8999 160.179 39.9699C159.529 41.5099 160.129 43.3499 161.659 44.1099C161.769 44.1699 161.879 44.1599 161.979 44.1199L162.219 44.9799C159.159 45.7999 156.229 47.2199 153.489 49.0399L153.209 48.6299C153.479 48.4999 153.539 48.0199 153.169 47.9599C150.769 47.5299 149.859 44.7599 151.619 43.0299C151.689 42.9699 151.719 42.8999 151.719 42.8299C152.319 43.8099 153.289 44.5499 154.459 44.8199C154.919 44.9299 155.109 44.2299 154.659 44.1199C152.959 43.7199 151.759 42.2099 151.779 40.4699C151.789 39.9999 151.059 39.9999 151.059 40.4699C151.049 41.1699 151.219 41.8499 151.519 42.4599C151.399 42.3899 151.239 42.3899 151.109 42.5199C150.629 42.9899 150.319 43.5299 150.139 44.0899C150.089 44.0599 150.019 44.0599 149.949 44.0799C148.269 44.5499 146.469 43.5299 146.009 41.8399C145.919 41.4799 145.459 41.5299 145.329 41.7899Z" fill="#6ED3A1"/>
<path d="M151.52 42.46C151.66 42.53 151.75 42.68 151.72 42.83C151.65 42.71 151.58 42.59 151.52 42.46Z" fill="white"/>
<path d="M152.979 48.6598C150.969 48.2998 149.849 46.5498 150.009 44.8098C150.049 44.7998 150.099 44.7898 150.139 44.7798C150.519 44.6798 150.439 44.1698 150.139 44.0898C150.319 43.5298 150.629 42.9898 151.109 42.5198C151.239 42.3898 151.399 42.3898 151.519 42.4598C151.579 42.5898 151.649 42.7098 151.719 42.8298C151.719 42.8998 151.689 42.9698 151.619 43.0298C149.859 44.7598 150.769 47.5298 153.169 47.9598C153.539 48.0198 153.479 48.4998 153.209 48.6298C153.139 48.6598 153.069 48.6798 152.979 48.6598Z" fill="#AEF9D6"/>
<path d="M150.14 44.0898C150.44 44.1698 150.52 44.6798 150.14 44.7798C150.1 44.7898 150.05 44.7998 150.01 44.8098C150.03 44.5698 150.07 44.3298 150.14 44.0898Z" fill="#AEF9D6"/>
<path d="M146.01 41.84C146.47 43.53 148.27 44.55 149.95 44.08C150.02 44.06 150.09 44.06 150.14 44.09C150.07 44.33 150.03 44.57 150.01 44.81C147.99 45.3 145.87 44.06 145.31 42.04C145.28 41.94 145.3 41.86 145.33 41.79C145.46 41.53 145.92 41.48 146.01 41.84Z" fill="#AEF9D6"/>
<path d="M145.63 47.5999C146.05 47.5299 146.24 48.1299 145.9 48.2599C145.7 48.0699 145.53 47.8599 145.39 47.6299C145.47 47.6199 145.55 47.6099 145.63 47.5999Z" fill="#AEF9D6"/>
<path d="M145.079 45.93C145.129 45.48 145.849 45.48 145.789 45.93C145.539 47.91 147.549 48.72 149.199 48.63C149.659 48.6 149.649 49.32 149.199 49.34C148.029 49.41 146.729 49.04 145.899 48.26C146.239 48.13 146.049 47.53 145.629 47.6C145.549 47.61 145.469 47.62 145.389 47.63C145.119 47.16 144.999 46.59 145.079 45.93Z" fill="#AEF9D6"/>
<path d="M145.059 48.3599C144.899 48.3699 144.739 48.3699 144.589 48.3599C144.709 48.2599 144.919 48.2599 145.059 48.3599Z" fill="white"/>
<path d="M146.169 52.2699C145.599 51.9199 144.999 51.5399 144.699 50.9199C144.349 50.1999 144.539 49.3899 144.489 48.6299C144.479 48.5099 144.519 48.4199 144.589 48.3599C144.739 48.3699 144.899 48.3699 145.059 48.3599C145.139 48.4199 145.189 48.5099 145.199 48.6299C145.249 49.2299 145.079 49.9199 145.299 50.4899C145.509 51.0499 146.039 51.3599 146.529 51.6499C146.919 51.8899 146.559 52.5099 146.169 52.2699Z" fill="#AEF9D6"/>
<path d="M144.589 48.36C143.069 48.29 141.629 47.62 140.969 46.11C140.789 45.69 141.399 45.33 141.589 45.75C142.269 47.29 143.829 47.81 145.389 47.63C145.529 47.86 145.699 48.07 145.899 48.26C145.879 48.28 145.849 48.28 145.819 48.29C145.569 48.33 145.309 48.35 145.059 48.36C144.919 48.26 144.709 48.26 144.589 48.36Z" fill="#AEF9D6"/>
<path d="M141.59 45.7499C141.4 45.3299 140.79 45.6899 140.97 46.1099C141.63 47.6199 143.07 48.2899 144.59 48.3599C144.52 48.4199 144.48 48.5099 144.49 48.6299C144.54 49.3899 144.35 50.1999 144.7 50.9199C145 51.5399 145.6 51.9199 146.17 52.2699C146.56 52.5099 146.92 51.8899 146.53 51.6499C146.04 51.3599 145.51 51.0499 145.3 50.4899C145.08 49.9199 145.25 49.2299 145.2 48.6299C145.19 48.5099 145.14 48.4199 145.06 48.3599C145.31 48.3499 145.57 48.3299 145.82 48.2899C145.85 48.2799 145.88 48.2799 145.9 48.2599C146.73 49.0399 148.03 49.4099 149.2 49.3399C149.65 49.3199 149.66 48.5999 149.2 48.6299C147.55 48.7199 145.54 47.9099 145.79 45.9299C145.85 45.4799 145.13 45.4799 145.08 45.9299C145 46.5899 145.12 47.1599 145.39 47.6299C143.83 47.8099 142.27 47.2899 141.59 45.7499ZM135.72 48.3999C138.54 45.6399 141.39 42.8499 144.54 40.6399L145.33 41.7899C145.3 41.8599 145.28 41.9399 145.31 42.0399C145.87 44.0599 147.99 45.2999 150.01 44.8099C149.85 46.5499 150.97 48.2999 152.98 48.6599C153.07 48.6799 153.14 48.6599 153.21 48.6299L153.49 49.0399C150.23 51.1999 147.24 53.9199 144.6 56.8399C144.01 57.4999 143.42 58.1499 142.84 58.8099L141.83 57.9199C141.99 57.6799 141.8 57.2599 141.45 57.3599C140.18 57.7199 139.06 56.6099 139.41 55.3399C139.49 55.0699 139.26 54.8999 139.05 54.8999L139.99 53.6399C140.86 54.1699 141.88 54.3799 142.9 54.0999C143.35 53.9699 143.16 53.2699 142.71 53.3999C140.5 54.0099 138.34 51.7399 138.43 49.5999C138.44 49.3099 138.17 49.1999 137.95 49.2699L135.72 48.3999Z" fill="#6ED3A1"/>
<path d="M141.64 58.0499C140.44 58.3899 139.31 57.7699 138.85 56.7899C138.9 56.7799 138.94 56.7799 138.98 56.7699C139.43 56.6799 139.24 55.9899 138.78 56.0799C138.74 56.0899 138.69 56.0899 138.65 56.0999C138.61 55.7999 138.63 55.4799 138.72 55.1499C138.77 54.9799 138.91 54.8999 139.05 54.8999C139.26 54.8999 139.49 55.0699 139.41 55.3399C139.06 56.6099 140.18 57.7199 141.45 57.3599C141.8 57.2599 141.99 57.6799 141.83 57.9199C141.79 57.9799 141.72 58.0199 141.64 58.0499Z" fill="#AEF9D6"/>
<path d="M138.779 56.0799C139.239 55.9899 139.429 56.6799 138.979 56.7699C138.939 56.7799 138.899 56.7799 138.849 56.7899C138.749 56.5699 138.679 56.3399 138.649 56.0999C138.689 56.0899 138.739 56.0899 138.779 56.0799Z" fill="#AEF9D6"/>
<path d="M136.549 55.7699C135.899 55.4399 134.929 54.6499 135.089 53.7999C135.159 53.3899 134.609 53.1899 134.439 53.4899L131.859 52.0999C133.159 50.8999 134.439 49.6499 135.719 48.3999L137.949 49.2699C137.819 49.3099 137.719 49.4199 137.709 49.5999C137.639 51.1999 138.609 52.8099 139.989 53.6399L139.049 54.8999C138.909 54.8999 138.769 54.9799 138.719 55.1499C138.629 55.4799 138.609 55.7999 138.649 56.0999C137.929 56.2099 137.209 56.1099 136.549 55.7699Z" fill="#6ED3A1"/>
<path d="M139.99 53.6399C138.61 52.8099 137.64 51.1999 137.71 49.5999C137.72 49.4199 137.82 49.3099 137.95 49.2699C138.17 49.1999 138.44 49.3099 138.43 49.5999C138.34 51.7399 140.5 54.0099 142.71 53.3999C143.16 53.2699 143.35 53.9699 142.9 54.0999C141.88 54.3799 140.86 54.1699 139.99 53.6399Z" fill="#AEF9D6"/>
<path d="M136.089 56.31C136.249 56.02 136.779 56.07 136.749 56.47C136.749 56.5 136.739 56.54 136.739 56.57C136.519 56.51 136.299 56.42 136.089 56.31Z" fill="#AEF9D6"/>
<path d="M136.61 58.2998C136.64 59.0598 137.14 59.3298 137.76 59.5998C138.18 59.7798 137.81 60.3998 137.4 60.2098C136.82 59.9598 136.24 59.6298 136 59.0198C135.93 58.8298 135.89 58.6198 135.88 58.3898C135.83 57.7598 135.99 57.0498 136.04 56.4698C136.05 56.4098 136.06 56.3498 136.09 56.3098C136.3 56.4198 136.52 56.5098 136.74 56.5698C136.69 57.1398 136.59 57.7298 136.61 58.2998Z" fill="#AEF9D6"/>
<path d="M136.089 56.31C134.989 55.79 134.159 54.87 134.399 53.61C134.409 53.56 134.419 53.53 134.439 53.49C134.609 53.19 135.159 53.39 135.089 53.8C134.929 54.65 135.899 55.44 136.549 55.77C137.209 56.11 137.929 56.21 138.649 56.1C138.679 56.34 138.749 56.57 138.849 56.79C138.229 56.89 137.459 56.81 136.739 56.57C136.739 56.54 136.749 56.5 136.749 56.47C136.779 56.07 136.249 56.02 136.089 56.31Z" fill="#AEF9D6"/>
<path d="M134.459 58.5798C133.409 60.0098 134.479 62.3498 136.299 62.3798C136.769 62.3798 136.769 63.1098 136.299 63.0998C135.099 63.0798 134.109 62.2798 133.629 61.2398C133.649 61.2298 133.679 61.2198 133.699 61.1998C134.039 60.9398 133.739 60.3598 133.389 60.5398C133.209 59.7498 133.319 58.9098 133.839 58.2098C134.059 57.8998 134.529 58.0998 134.529 58.3898C134.529 58.4498 134.509 58.5098 134.459 58.5798Z" fill="#AEF9D6"/>
<path d="M133.39 60.5399C133.74 60.3599 134.04 60.9399 133.7 61.1999C133.68 61.2199 133.65 61.2299 133.63 61.2399C133.52 61.0199 133.44 60.7799 133.39 60.5399Z" fill="#AEF9D6"/>
<path d="M120.399 62.6998C120.589 62.3498 120.179 62.0398 119.909 62.1998L119.129 59.7398C122.189 58.8198 125.099 57.4098 127.699 55.5398L129.729 57.6398C129.549 57.6398 129.359 57.7598 129.329 57.9898C129.059 60.0598 131.659 62.6198 133.629 61.2398C134.109 62.2798 135.099 63.0798 136.299 63.0998C136.769 63.1098 136.769 62.3798 136.299 62.3798C134.479 62.3498 133.409 60.0098 134.459 58.5798C134.509 58.5098 134.529 58.4498 134.529 58.3898H135.879C135.889 58.6198 135.929 58.8298 135.999 59.0198C136.239 59.6298 136.819 59.9598 137.399 60.2098C137.809 60.3998 138.179 59.7798 137.759 59.5998C137.139 59.3298 136.639 59.0598 136.609 58.2998C136.589 57.7298 136.689 57.1398 136.739 56.5698C137.459 56.8098 138.229 56.8898 138.849 56.7898C139.309 57.7698 140.439 58.3898 141.639 58.0498C141.719 58.0198 141.789 57.9798 141.829 57.9198L142.839 58.8098C139.759 62.2898 136.749 65.7998 133.479 69.1098L132.249 67.8898C132.309 67.7098 132.249 67.4898 132.019 67.4198C131.519 67.2698 130.919 67.1098 130.559 66.6998C130.089 66.1798 130.289 65.3698 130.269 64.7298C130.249 64.2698 129.539 64.2698 129.559 64.7298C129.579 65.5398 129.399 66.3998 129.949 67.0898L127.889 67.8398C127.859 67.8398 127.839 67.8398 127.809 67.8498C126.169 68.1898 125.059 66.6798 124.919 65.2198C124.789 63.8898 125.269 62.6198 125.719 61.3798C125.879 60.9498 125.179 60.7598 125.019 61.1898C124.379 62.9598 123.649 65.0798 124.639 66.8598C124.659 66.8998 124.689 66.9398 124.719 66.9798C123.589 67.2998 122.319 67.3298 121.279 66.6998C119.889 65.8698 119.649 64.0398 120.399 62.6998Z" fill="#6ED3A1"/>
<path d="M133.329 60.5699C131.779 61.7299 129.849 59.5599 130.049 57.9899C130.079 57.7599 129.909 57.6399 129.729 57.6399L127.699 55.5399C128.029 55.3099 128.359 55.0599 128.679 54.8099C129.759 53.9599 130.819 53.0499 131.859 52.0999L134.439 53.4899C134.419 53.5299 134.409 53.5599 134.399 53.6099C134.159 54.8699 134.989 55.7899 136.089 56.3099C136.059 56.3499 136.049 56.4099 136.039 56.4699C135.989 57.0499 135.829 57.7599 135.879 58.3899H134.529C134.529 58.0999 134.059 57.8999 133.839 58.2099C133.319 58.9099 133.209 59.7499 133.389 60.5399C133.369 60.5399 133.349 60.5499 133.329 60.5699Z" fill="#6ED3A1"/>
<path d="M130.049 57.9899C129.849 59.5599 131.779 61.7299 133.329 60.5699C133.349 60.5499 133.369 60.5399 133.389 60.5399C133.439 60.7799 133.519 61.0199 133.629 61.2399C131.659 62.6199 129.059 60.0599 129.329 57.9899C129.359 57.7599 129.549 57.6399 129.729 57.6399C129.909 57.6399 130.079 57.7599 130.049 57.9899Z" fill="#AEF9D6"/>
<path d="M130.27 64.73C130.29 65.37 130.09 66.18 130.56 66.7C130.92 67.11 131.52 67.27 132.02 67.42C132.25 67.49 132.31 67.71 132.25 67.89C132.19 68.05 132.04 68.17 131.83 68.11C131.15 67.91 130.41 67.66 129.95 67.09C129.4 66.4 129.58 65.54 129.56 64.73C129.54 64.27 130.25 64.27 130.27 64.73Z" fill="#AEF9D6"/>
<path d="M124.73 66.98C125.09 66.88 125.28 67.29 125.12 67.54C124.97 67.37 124.83 67.19 124.72 66.98H124.73Z" fill="#AEF9D6"/>
<path d="M127.999 68.55C126.869 68.78 125.839 68.37 125.119 67.55V67.54C125.279 67.29 125.089 66.88 124.729 66.98H124.719C124.689 66.94 124.659 66.9 124.639 66.86C123.649 65.08 124.379 62.96 125.019 61.19C125.179 60.76 125.879 60.95 125.719 61.38C125.269 62.62 124.789 63.89 124.919 65.22C125.059 66.68 126.169 68.19 127.809 67.85C127.839 67.84 127.859 67.84 127.889 67.84C128.289 67.84 128.429 68.47 127.999 68.55Z" fill="#AEF9D6"/>
<path d="M108.149 61.01C108.979 61.06 109.809 61.08 110.609 61.07C113.499 61.03 116.379 60.58 119.129 59.74L119.909 62.2C119.859 62.23 119.819 62.27 119.779 62.33C118.929 63.83 119.089 65.81 120.429 66.98C120.659 67.18 120.899 67.34 121.159 67.46C121.029 67.47 120.909 67.55 120.849 67.7C120.129 69.67 121.799 71.93 123.889 71.85C124.349 71.83 124.349 71.1 123.889 71.12C122.249 71.19 120.989 69.43 121.549 67.9C121.589 67.79 121.579 67.69 121.529 67.62C122.599 68.04 123.839 67.99 124.919 67.68C125.009 67.66 125.079 67.61 125.119 67.55C125.839 68.37 126.869 68.78 127.999 68.55C128.429 68.47 128.289 67.84 127.889 67.84L129.949 67.09C130.409 67.66 131.149 67.91 131.829 68.11C132.039 68.17 132.189 68.05 132.249 67.89L133.479 69.11C132.449 70.17 131.379 71.21 130.279 72.22C125.289 76.78 119.809 80.77 113.789 83.85C113.799 83.83 113.799 83.82 113.809 83.8C116.079 75.69 113.819 67.12 108.149 61.01Z" fill="#6ED3A1"/>
<path d="M123.89 71.12C124.35 71.1 124.35 71.83 123.89 71.85C121.8 71.93 120.13 69.67 120.85 67.7C120.91 67.55 121.03 67.47 121.16 67.46C121.28 67.53 121.4 67.58 121.53 67.62C121.58 67.69 121.59 67.79 121.55 67.9C120.99 69.43 122.25 71.19 123.89 71.12Z" fill="#AEF9D6"/>
<path d="M121.529 67.6198C121.399 67.5798 121.279 67.5298 121.159 67.4598C121.309 67.4498 121.459 67.5098 121.529 67.6198Z" fill="white"/>
<path d="M120.399 62.7C119.649 64.04 119.889 65.87 121.279 66.7C122.319 67.33 123.589 67.3 124.719 66.98C124.829 67.19 124.969 67.37 125.119 67.54V67.55C125.079 67.61 125.009 67.66 124.919 67.68C123.839 67.99 122.599 68.04 121.529 67.62C121.459 67.51 121.309 67.45 121.159 67.46C120.899 67.34 120.659 67.18 120.429 66.98C119.089 65.81 118.929 63.83 119.779 62.33C119.819 62.27 119.859 62.23 119.909 62.2C120.179 62.04 120.589 62.35 120.399 62.7Z" fill="#AEF9D6"/>
<path d="M113.999 85.2398C113.999 85.1798 113.999 85.1298 113.999 85.0698L114.069 85.2098C114.049 85.2198 114.019 85.2298 113.999 85.2398Z" fill="#92DDB8"/>
<path d="M114 85.07L113.56 84.2C113.7 84.13 113.85 84.07 114 84C114 84.55 114 84.8 114 85.07Z" fill="#6ED3A1"/>
<path d="M113.79 83.8499C119.81 80.7699 125.29 76.7799 130.28 72.2199C131.38 71.2099 132.45 70.1699 133.48 69.1099C136.75 65.7999 139.76 62.2899 142.84 58.8099C143.42 58.1499 144.01 57.4999 144.6 56.8399C147.24 53.9199 150.23 51.1999 153.49 49.0399C156.23 47.2199 159.16 45.7999 162.22 44.9799C166.18 43.8999 170.38 43.8399 174.68 45.2299C174.97 45.6699 175.23 46.1399 175.48 46.6099C175.88 47.3799 176.99 46.7899 176.78 46.0399C176.86 46.1099 176.91 46.1799 176.94 46.2699C176.9 46.4899 176.86 46.6999 176.82 46.9199C176.62 47.1799 176.27 47.3399 175.89 47.1799C174.08 46.4099 172.33 45.9199 170.63 45.6499C170.61 45.0399 169.69 44.6499 169.3 45.3099C169.26 45.3599 169.23 45.4199 169.2 45.4699C153.84 44.1899 143.15 61.8599 133.13 71.5099C127.43 76.9999 121.03 81.6999 114.07 85.2099L114 85.0699C114 84.7999 114 84.5499 114 83.9999C113.85 84.0699 113.7 84.1299 113.56 84.1999L113.55 84.1799C113.65 84.1099 113.74 83.9999 113.79 83.8499Z" fill="#55BF87"/>
<path d="M113.789 83.8499C113.739 83.9999 113.649 84.1099 113.549 84.1799C113.369 84.2999 113.139 84.3299 112.939 84.2699C113.049 84.2199 113.149 84.1699 113.259 84.1199C113.439 84.0299 113.609 83.9399 113.789 83.8499Z" fill="#92DDB8"/>
<path d="M109.22 85.9399C110.47 85.4199 111.72 84.8699 112.94 84.2699C113.14 84.3299 113.37 84.2999 113.55 84.1799L113.56 84.1999C112.16 84.8699 110.71 85.4499 109.22 85.9399Z" fill="#92DDB8"/>
<path d="M106.759 59.46C110.589 59.84 114.459 59.55 117.969 58.6C130.409 55.21 136.259 42.85 147.299 37.25C155.689 32.99 166.189 34.38 172.799 40.68C172.659 40.7 172.529 40.71 172.389 40.74C171.739 40.84 171.749 41.56 172.129 41.93L172.079 41.98C168.949 38.85 164.799 36.92 160.349 36.36C158.999 36.19 157.609 36.14 156.219 36.23C151.729 36.52 147.949 38.24 144.539 40.64C141.389 42.85 138.539 45.64 135.719 48.4C134.439 49.65 133.159 50.9 131.859 52.1C130.819 53.05 129.759 53.96 128.679 54.81C128.359 55.06 128.029 55.31 127.699 55.54C125.099 57.41 122.189 58.82 119.129 59.74C116.379 60.58 113.499 61.03 110.609 61.07C109.809 61.08 108.979 61.06 108.149 61.01C107.699 60.53 107.239 60.07 106.749 59.62L106.759 59.46Z" fill="#84D8AC"/>
<path d="M106.379 60.8499C106.969 60.9199 107.559 60.9699 108.149 61.0099C113.819 67.1199 116.079 75.6899 113.809 83.7999C113.799 83.8199 113.799 83.8299 113.789 83.8499C113.609 83.9399 113.439 84.0299 113.259 84.1199C113.149 84.1699 113.049 84.2199 112.939 84.2699C112.589 84.1799 112.299 83.8599 112.419 83.4199C114.679 75.3699 112.319 66.6699 106.379 60.8499Z" fill="#AEF9D6"/>
<path d="M106.749 59.6199C107.239 60.0699 107.699 60.5299 108.149 61.0099C107.559 60.9699 106.969 60.9199 106.379 60.8499C106.209 60.6899 106.039 60.5199 105.859 60.3599C105.179 59.7399 105.669 59.8799 106.749 59.6199Z" fill="#C7F9E0"/>
<path d="M106.38 60.85C112.32 66.67 114.68 75.37 112.42 83.42C112.3 83.86 112.59 84.18 112.94 84.27C111.72 84.87 110.47 85.42 109.22 85.94C104.42 87.51 99.2097 88.26 93.9997 89L93.9697 88.97C94.6597 88.32 95.3297 87.67 95.9997 87C100.36 82.02 102.78 73.16 100.84 65.98C100.46 63.35 99.3397 60.82 97.6497 58.71C100.45 59.8 103.45 60.52 106.38 60.85Z" fill="#AEF9D6"/>
<path d="M98.4189 67.3699C98.4389 67.4399 98.4489 67.4999 98.4689 67.5599C98.4589 67.4899 98.4389 67.4299 98.4189 67.3699Z" fill="#AEF9D6"/>
<path d="M97.8389 66.46C98.7489 70.06 98.7989 73.9 97.8489 77.58C98.7989 73.91 98.7389 70.07 97.8389 66.46Z" fill="#92DDB8"/>
<path d="M97.8498 77.5798C97.7698 77.9398 97.6698 78.2998 97.5498 78.6598C97.6598 78.2998 97.7598 77.9398 97.8498 77.5798Z" fill="#92DDB8"/>
<path d="M97.3896 64.9099C97.5596 65.4199 97.7096 65.9399 97.8396 66.4599C97.6996 65.9399 97.5496 65.4199 97.3896 64.9099Z" fill="#92DDB8"/>
<path d="M97.5497 78.6599C97.4397 79.0099 97.3197 79.3699 97.1797 79.7199C97.3197 79.3699 97.4397 79.0099 97.5497 78.6599Z" fill="#92DDB8"/>
<path d="M97.1691 79.76C97.1091 79.94 97.0391 80.12 96.9591 80.29C96.9091 80.43 96.8491 80.57 96.7891 80.7C96.9191 80.39 97.0491 80.08 97.1691 79.76Z" fill="#92DDB8"/>
<path d="M96.8291 63.3899C97.0391 63.8899 97.2191 64.3899 97.3891 64.9099C97.2191 64.3899 97.0291 63.8899 96.8291 63.3899Z" fill="#92DDB8"/>
<path d="M96.7094 80.8699C96.7094 80.8899 96.6994 80.8999 96.6994 80.9199C96.6194 81.0999 96.5295 81.2799 96.4395 81.4599C96.5395 81.2699 96.6294 81.0699 96.7094 80.8699Z" fill="#AEF9D6"/>
<path d="M96.0791 82.19C96.1991 81.95 96.3191 81.71 96.4391 81.46C96.4291 81.49 96.4191 81.51 96.4091 81.53C96.2991 81.75 96.1991 81.97 96.0791 82.19Z" fill="#92DDB8"/>
<path d="M94.999 59.7998C96.169 61.4698 97.149 63.2798 97.829 65.2398C98.069 65.9498 98.269 66.6598 98.419 67.3698C98.439 67.4298 98.459 67.4898 98.469 67.5598C98.499 67.7198 98.529 67.8798 98.559 68.0398C98.659 68.5798 98.729 69.1198 98.779 69.6598C98.909 71.0598 98.879 72.4598 98.719 73.8498C98.679 74.2098 98.629 74.5698 98.569 74.9298C98.559 74.9698 98.549 74.9998 98.549 75.0298C98.229 76.8298 97.689 78.5998 96.959 80.2898C97.039 80.1198 97.109 79.9398 97.169 79.7598C97.169 79.7498 97.179 79.7298 97.179 79.7198C97.319 79.3698 97.439 79.0098 97.549 78.6598C97.669 78.2998 97.769 77.9398 97.849 77.5798C98.799 73.8998 98.749 70.0598 97.839 66.4598C97.709 65.9398 97.559 65.4198 97.389 64.9098C97.219 64.3898 97.039 63.8898 96.829 63.3898C96.329 62.1398 95.709 60.9298 94.999 59.7998Z" fill="#AEF9D6"/>
<path d="M100.839 65.9799C99.9592 62.6899 98.1592 59.7599 95.2292 57.6999C95.1992 57.6699 95.1792 57.6399 95.1592 57.6099C95.9692 58.0099 96.7992 58.3799 97.6492 58.7099C99.3392 60.8199 100.459 63.3499 100.839 65.9799Z" fill="#92DDB8"/>
<path d="M95.2297 57.6998C95.0397 57.5698 94.8396 57.4498 94.6396 57.3298C94.8196 57.4198 94.9797 57.5198 95.1597 57.6098C95.1797 57.6398 95.1997 57.6698 95.2297 57.6998Z" fill="#92DDB8"/>
<path d="M93.9989 88.9999C99.2089 88.2599 104.419 87.5099 109.219 85.9399C103.929 88.1299 98.3589 89.5699 92.6689 90.1699C93.1089 89.7699 93.5389 89.3699 93.9689 88.9699L93.9989 88.9999Z" fill="#92DDB8"/>
<path d="M94.6394 57.33C94.1194 57.05 93.5994 56.78 93.1094 56.48C93.6494 56.73 94.1594 57.02 94.6394 57.33Z" fill="#92DDB8"/>
<path d="M95.1595 57.6099C94.3395 56.5499 93.4295 55.5599 92.4795 54.6099C94.5195 55.5599 96.2695 56.9899 97.6495 58.7099C96.7995 58.3799 95.9695 58.0099 95.1595 57.6099Z" fill="#92DDB8"/>
<path d="M114 85.24C106.84 88.85 99.0696 91.17 90.8496 91.77C91.4596 91.24 92.0696 90.71 92.6696 90.17C98.3596 89.57 103.93 88.13 109.22 85.94C110.71 85.45 112.16 84.87 113.56 84.2L114 85.07C114 85.13 114 85.18 114 85.24Z" fill="#92DDB8"/>
<path d="M100.839 65.98C102.779 73.16 100.359 82.02 95.9994 87C95.3294 87.67 94.6594 88.32 93.9694 88.97C93.5394 89.37 93.1094 89.7699 92.6694 90.1699C92.4094 90.1999 92.1594 90.24 91.8994 90.26C97.7394 84.38 101.479 76.05 99.9594 67.73C99.2794 64.01 97.5194 60.66 95.2294 57.7C98.1594 59.76 99.9594 62.69 100.839 65.98Z" fill="#92DDB8"/>
<path d="M91.9795 53.9899C96.1095 57.0999 101.4 58.9299 106.76 59.4599L106.75 59.6199C105.67 59.8799 105.18 59.7399 105.86 60.3599C106.04 60.5199 106.21 60.6899 106.38 60.8499C103.45 60.5199 100.45 59.7999 97.6495 58.7099C96.2695 56.9899 94.5195 55.5599 92.4795 54.6099C92.2495 54.3699 92.0195 54.1099 91.7695 53.8799C91.8395 53.8999 91.9095 53.9399 91.9795 53.9899Z" fill="#C7F9E0"/>
<path d="M92.479 54.6099C92.059 54.4099 91.6189 54.2199 91.1689 54.0599C91.3189 53.8899 91.5389 53.7999 91.7689 53.8799C92.0189 54.1099 92.249 54.3699 92.479 54.6099Z" fill="#92DDB8"/>
<path d="M94.8794 59.6299C93.7594 58.0599 92.4794 56.6099 91.1094 55.2399L91.1894 55.1599C91.2094 55.1799 91.2394 55.2099 91.2594 55.2299C91.8494 55.6699 92.4694 56.0799 93.1094 56.4799C92.7494 56.3099 92.3794 56.1499 91.9994 55.9999C93.0894 57.0899 94.0494 58.3199 94.8794 59.6299Z" fill="#92DDB8"/>
<path d="M91.1897 55.1598C90.8497 54.8398 90.9197 54.3398 91.1697 54.0598C91.6197 54.2198 92.0597 54.4098 92.4797 54.6098C93.4297 55.5598 94.3397 56.5498 95.1597 57.6098C94.9797 57.5198 94.8197 57.4198 94.6397 57.3298C94.1597 57.0198 93.6497 56.7298 93.1097 56.4798C92.4697 56.0798 91.8497 55.6698 91.2597 55.2298C91.2397 55.2098 91.2097 55.1798 91.1897 55.1598Z" fill="#92DDB8"/>
<path d="M90.2598 91.7999C90.8298 91.3099 91.3698 90.7899 91.8998 90.2599C92.1598 90.2399 92.4098 90.1999 92.6698 90.1699C92.0698 90.7099 91.4598 91.2399 90.8498 91.7699C90.7098 91.7799 90.5598 91.7999 90.4198 91.8099C90.3598 91.8099 90.3098 91.8099 90.2598 91.7999Z" fill="#92DDB8"/>
<path d="M91.8998 90.26C91.3698 90.79 90.8298 91.31 90.2598 91.8C89.6598 91.72 89.5698 90.89 89.9998 90.54C90.1098 90.45 90.2498 90.39 90.4198 90.38C90.9198 90.34 91.4098 90.3 91.8998 90.26Z" fill="#92DDB8"/>
<path d="M90.4198 90.38C90.2498 90.39 90.1098 90.45 89.9998 90.54L89.7998 90.31C92.0098 88.29 93.9598 85.89 95.4698 83.26C95.6298 82.99 95.7798 82.72 95.9298 82.44C95.9798 82.36 96.0298 82.27 96.0798 82.19C96.1998 81.97 96.2998 81.75 96.4098 81.53C96.4198 81.51 96.4398 81.48 96.4398 81.46C96.5298 81.28 96.6198 81.1 96.6998 80.92C96.7198 80.88 96.7398 80.83 96.7598 80.78V80.77C96.7698 80.75 96.7798 80.72 96.7898 80.7C97.6098 78.88 98.2198 76.97 98.5498 75.03C98.5498 75 98.5598 74.97 98.5698 74.93C98.6298 74.57 98.6798 74.21 98.7198 73.85C98.8898 72.46 98.9098 71.06 98.7798 69.66C98.7298 69.12 98.6598 68.58 98.5598 68.04C98.5298 67.88 98.4998 67.72 98.4698 67.56C98.4498 67.5 98.4398 67.44 98.4198 67.37C98.2698 66.66 98.0698 65.95 97.8298 65.24C97.1498 63.28 96.1698 61.47 94.9998 59.8C94.9598 59.74 94.9298 59.68 94.8798 59.63C94.0498 58.32 93.0898 57.09 91.9998 56C92.3798 56.15 92.7498 56.31 93.1098 56.48C93.5998 56.78 94.1198 57.05 94.6398 57.33C94.8398 57.45 95.0398 57.57 95.2298 57.7C97.5198 60.66 99.2798 64.01 99.9598 67.73C101.48 76.05 97.7398 84.38 91.8998 90.26C91.4098 90.3 90.9198 90.34 90.4198 90.38Z" fill="#92DDB8"/>
<path d="M88.409 24.2398C88.779 23.9998 89.439 24.1598 89.559 24.7198C89.609 25.4798 88.549 25.7998 88.249 25.1798C88.319 24.8698 88.369 24.5598 88.409 24.2398Z" fill="#DDAC22"/>
<path d="M88.1791 25.01C88.1791 24.99 88.1791 24.98 88.1791 24.96C88.1691 24.92 88.1691 24.88 88.1591 24.84C88.1591 24.83 88.1591 24.82 88.1591 24.81C88.1191 24.53 88.2391 24.34 88.4091 24.24C88.3691 24.56 88.3191 24.87 88.2491 25.18C88.2191 25.12 88.1891 25.08 88.1791 25.01Z" fill="#FFCE31"/>
<path d="M88.1997 25.37C88.1897 25.25 88.1897 25.13 88.1797 25.01C88.1897 25.08 88.2197 25.12 88.2497 25.18C88.2397 25.24 88.2197 25.31 88.1997 25.37Z" fill="#FFCE31"/>
<path d="M87.1689 18.3398C87.2289 18.3498 87.2989 18.3598 87.3689 18.3698C88.4089 20.2298 89.1689 22.3198 89.5589 24.6198C89.5589 24.6498 89.5689 24.6798 89.5589 24.7198C89.4389 24.1598 88.779 23.9998 88.409 24.2398C88.619 22.4598 88.2889 20.5198 87.1689 18.3398Z" fill="#DDAC22"/>
<path d="M87.2891 18.24C87.3491 18.28 87.3991 18.32 87.4591 18.37C87.4291 18.37 87.3991 18.38 87.3691 18.37C87.3391 18.32 87.3091 18.29 87.2891 18.24Z" fill="#EFBB29"/>
<path d="M87.2793 18.23L87.2893 18.24C87.2793 18.24 87.2793 18.23 87.2793 18.23Z" fill="#EFBB29"/>
<path d="M87.289 18.24C87.309 18.29 87.339 18.32 87.369 18.37C87.299 18.36 87.229 18.35 87.169 18.34C87.109 18.22 87.059 18.11 86.999 18C87.099 18.07 87.179 18.14 87.269 18.22L87.279 18.23C87.279 18.23 87.279 18.24 87.289 18.24Z" fill="#DDAC22"/>
<path d="M85.3496 93.72C89.0096 91.19 92.2996 88.06 94.9996 84C95.1596 83.75 95.3196 83.51 95.4696 83.26C93.9596 85.89 92.0096 88.29 89.7996 90.31C89.4596 90.62 89.1296 90.91 88.7796 91.21C87.6896 92.11 86.5396 92.95 85.3496 93.72Z" fill="#AEF9D6"/>
<path d="M86.8496 17.5698C86.5896 17.1498 86.3496 16.7298 86.0596 16.3398C86.0996 16.3598 86.1396 16.3898 86.1896 16.4098C89.3296 18.5398 91.6496 14.7898 91.8696 12.1498C92.4796 10.1598 91.9596 8.08983 91.1196 5.82983C93.0696 8.39983 94.0096 11.4398 92.7696 14.6698C91.9296 16.8798 89.7196 18.5798 87.4596 18.3698C87.3996 18.3198 87.3496 18.2798 87.2896 18.2398L87.2796 18.2298L87.2696 18.2198C87.1496 17.9898 86.9896 17.7898 86.8496 17.5698Z" fill="#D8A119"/>
<path d="M86.8491 17.5698C86.4491 17.2598 86.1391 16.8098 86.0391 16.3398C86.0491 16.3398 86.0491 16.3398 86.0591 16.3398C86.3491 16.7298 86.5891 17.1498 86.8491 17.5698Z" fill="#DDAC22"/>
<path d="M86.0391 16.3198C86.0391 16.3298 86.0491 16.3398 86.0591 16.3398C86.0491 16.3398 86.0491 16.3398 86.0391 16.3398C86.0391 16.3298 86.0391 16.3298 86.0391 16.3198Z" fill="#FFCE31"/>
<path d="M85.999 15.9999C86.999 15.9999 87.999 15.9999 88.999 15.9999C90.589 14.7299 91.469 13.4599 91.869 12.1499C91.649 14.7899 89.329 18.5399 86.189 16.4099C86.139 16.3899 86.099 16.3599 86.059 16.3399C86.049 16.3399 86.039 16.3299 86.039 16.3199C86.019 16.2099 85.999 16.1099 85.999 15.9999Z" fill="#EFBB29"/>
<path d="M85.259 17.4598C84.889 16.9298 85.419 16.0898 86.039 16.3398C86.139 16.8098 86.449 17.2598 86.849 17.5698C86.989 17.7898 87.149 17.9898 87.269 18.2198C87.179 18.1398 87.099 18.0698 86.999 17.9998C87.059 18.1098 87.109 18.2198 87.169 18.3398C86.589 18.2398 86.019 18.0298 85.459 17.6498C85.379 17.5898 85.309 17.5298 85.259 17.4598Z" fill="#DDAC22"/>
<path d="M88.1589 24.84C87.6789 22.18 86.5989 19.72 85.0889 17.57L85.2589 17.46C85.3089 17.53 85.3789 17.59 85.4589 17.65C86.0189 18.03 86.5889 18.24 87.1689 18.34C88.2889 20.52 88.6189 22.46 88.4089 24.24C88.2389 24.34 88.1189 24.53 88.1589 24.81C88.1589 24.82 88.1589 24.83 88.1589 24.84Z" fill="#DDAC22"/>
<path d="M80.2795 2.55002C83.6295 1.43002 87.0095 3.34002 89.2095 5.76002C90.8395 7.56002 92.0495 9.58002 91.8795 12.08C91.8695 12.1 91.8695 12.13 91.8695 12.15C91.4695 13.46 90.5895 14.73 88.9995 16C87.9995 16 86.9995 16 85.9995 16C85.9995 16.11 86.0195 16.21 86.0395 16.32C83.7595 13.26 80.6195 10.97 77.0895 9.53002C75.4395 7.01002 77.7295 3.40002 80.2795 2.55002Z" fill="#EFBB29"/>
<path d="M85.4898 35.9799C84.2198 37.8399 80.1498 42.5799 77.2998 41.4699C77.7998 40.2099 79.0798 39.1099 79.6498 37.9099C79.9298 37.2999 80.0998 36.6699 80.2098 36.0199C83.3898 32.6699 87.1698 29.4399 88.1998 25.3699C88.5298 29.1299 87.6398 32.8299 85.4898 35.9799Z" fill="#DDAC22"/>
<path d="M56.9296 19.43C58.7096 18.95 61.1096 18.75 62.9596 18.82C65.9596 18.93 65.5496 21.35 67.0596 23.16C67.9896 24.28 69.3596 24.94 70.7396 25.35C73.2096 26.08 77.7196 25.74 78.5696 28.82C79.1296 30.86 79.2596 34.29 78.7096 36.34C78.2296 38.14 76.4996 39.41 75.8996 41.11C72.2396 44.66 66.9696 46.25 62.1596 45.26C60.0296 44.83 57.9996 43.89 56.2196 42.4C56.0296 42.24 55.8496 42.07 55.6696 41.9C52.8096 39.22 51.5796 35.45 51.4196 31.62C51.3596 29.85 51.4796 28.08 51.7096 26.32C51.9596 24.49 52.1296 22.95 53.1996 21.67C53.3396 21.58 53.4696 21.48 53.5996 21.4C54.7396 20.62 55.5196 19.79 56.9296 19.43ZM69.3196 34.68C70.6796 34.8 70.9396 32.96 69.6996 32.54C69.5396 32.48 69.3896 32.49 69.2696 32.54C68.0896 32.63 68.0696 34.58 69.3196 34.68ZM64.2796 41.01C64.5396 40.93 64.4296 40.51 64.1696 40.6C62.7996 41.04 60.3596 41.19 59.4596 39.76C59.3096 39.53 58.9396 39.74 59.0896 39.98C60.0996 41.58 62.6996 41.53 64.2796 41.01ZM63.5096 29.39C63.7396 28.99 63.1196 28.63 62.8896 29.03C61.9696 30.65 60.6496 31.9 59.0596 32.85C57.7996 33.62 58.2396 34.12 58.9596 35.28C59.1996 35.67 59.8196 35.31 59.5796 34.92C59.3996 34.63 58.8996 34.03 59.0996 33.65C59.1696 33.52 59.6096 33.36 59.7396 33.28C60.2496 32.96 60.7296 32.6 61.1896 32.21C62.1196 31.41 62.8996 30.47 63.5096 29.39ZM56.6596 29.49C57.7896 30.06 58.5896 28.59 57.8496 27.75C57.8496 27.75 57.8496 27.74 57.8396 27.74C57.8196 27.7 57.7896 27.66 57.7496 27.65L57.7396 27.64C57.6796 27.58 57.5996 27.54 57.5096 27.53L57.4996 27.52C57.4796 27.51 57.4596 27.5 57.4396 27.5C56.9096 27.41 56.3996 27.57 56.1496 28.08C55.8696 28.62 56.1396 29.23 56.6596 29.49Z" fill="#F9D4BB"/>
<path d="M77.1695 41.41C77.0895 41.12 76.8195 40.88 76.5195 40.85C77.3995 39.15 78.7395 37.57 80.2095 36.02C80.0995 36.67 79.9295 37.3 79.6495 37.91C79.0795 39.11 77.7995 40.21 77.2995 41.47C77.2495 41.45 77.2095 41.44 77.1695 41.41Z" fill="#DDAC22"/>
<path d="M77.2996 41.4699C77.2296 41.6599 77.1696 41.8399 77.1396 42.0299C77.1296 41.9899 77.1096 41.9599 77.0996 41.9199C77.1996 41.7499 77.2196 41.5699 77.1696 41.4099C77.2096 41.4399 77.2496 41.4499 77.2996 41.4699Z" fill="#DDAC22"/>
<path d="M85.0889 17.57C82.9289 14.52 79.8889 12.1 76.4189 10.64C76.9589 10.71 77.5289 10.17 77.1489 9.61003C77.1289 9.58003 77.1089 9.56003 77.0889 9.53003C80.6189 10.97 83.7589 13.26 86.0389 16.32C86.0389 16.33 86.0389 16.33 86.0389 16.34C85.4189 16.09 84.8889 16.93 85.2589 17.46L85.0889 17.57Z" fill="#DDAC22"/>
<path d="M77.1696 41.41C77.2196 41.57 77.1996 41.75 77.0996 41.92C76.9996 41.68 76.9096 41.45 76.8096 41.22C76.9296 41.29 77.0396 41.36 77.1696 41.41Z" fill="#DDAC22"/>
<path d="M85.5589 38.22C83.7889 40.33 79.4989 44.33 76.3789 42.62C76.5789 42.45 76.7789 42.26 76.9789 42.07C77.0289 42.02 77.0689 41.97 77.0989 41.92C77.1089 41.96 77.1289 41.99 77.1389 42.03C77.1689 41.84 77.2289 41.66 77.2989 41.47C80.1489 42.58 84.2189 37.84 85.4889 35.98C87.6389 32.83 88.5289 29.13 88.1989 25.37C88.2189 25.31 88.2389 25.24 88.2489 25.18C88.5489 25.8 89.6089 25.48 89.5589 24.72C89.5789 24.74 89.5789 24.77 89.5889 24.81C90.1789 29.66 88.7089 34.48 85.5589 38.22Z" fill="#DDAC22"/>
<path d="M76.329 45.0798C76.269 44.5598 76.209 44.0498 76.209 43.5598C76.229 43.5598 76.249 43.5698 76.269 43.5698C82.109 45.1998 86.929 49.3398 91.279 53.4098C91.449 53.5598 91.609 53.7198 91.769 53.8798C91.539 53.7998 91.319 53.8898 91.169 54.0598C90.919 54.3398 90.849 54.8398 91.189 55.1598L91.109 55.2398C90.479 54.6098 89.829 54.0098 89.169 53.4198C85.359 49.9998 81.299 46.5898 76.329 45.0798Z" fill="#92DDB8"/>
<path d="M75.2395 8.84991C74.5695 6.17991 76.3295 2.99991 78.6795 1.69991C82.6895 -0.530088 87.3995 1.65991 90.2195 4.74991C90.5395 5.09991 90.8395 5.45991 91.1195 5.82991C91.9595 8.08991 92.4795 10.1599 91.8695 12.1499C91.8695 12.1299 91.8695 12.0999 91.8795 12.0799C92.0495 9.57991 90.8395 7.55991 89.2095 5.75991C87.0095 3.33991 83.6295 1.42991 80.2795 2.54991C77.7295 3.39991 75.4395 7.00991 77.0895 9.52991C76.4795 9.26991 75.8695 9.04991 75.2395 8.84991Z" fill="#EFBB29"/>
<path d="M75.9093 10.3299C75.5793 9.86985 75.3593 9.36985 75.2393 8.84985C75.8693 9.04985 76.4793 9.26985 77.0893 9.52985C77.1093 9.55985 77.1293 9.57985 77.1493 9.60985C77.5293 10.1699 76.9593 10.7099 76.4193 10.6399C76.3093 10.5899 76.1893 10.5399 76.0693 10.4999C76.0093 10.4599 75.9593 10.3999 75.9093 10.3299Z" fill="#DDAC22"/>
<path d="M76.4193 10.64C76.2993 10.63 76.1793 10.59 76.0693 10.5C76.1893 10.54 76.3093 10.59 76.4193 10.64Z" fill="white"/>
<path d="M76.2394 42.74C76.2394 42.66 76.2195 42.58 76.1895 42.51C76.2495 42.56 76.3094 42.59 76.3794 42.62C76.3294 42.67 76.2794 42.71 76.2394 42.74Z" fill="#E8B185"/>
<path d="M75.8896 44.95C75.0296 44.71 75.3596 43.39 76.2096 43.56C76.2096 44.05 76.2696 44.56 76.3296 45.08C76.1896 45.04 76.0396 45 75.8896 44.95Z" fill="#92DDB8"/>
<path d="M88.7392 93.0498C81.2692 98.8198 71.4292 102.11 61.9492 103.71C70.2292 101.15 78.4592 98.5098 85.3492 93.7198C86.5392 92.9498 87.6892 92.1098 88.7792 91.2098C89.1292 90.9098 89.4592 90.6198 89.7992 90.3098L89.9992 90.5398C89.5692 90.8898 89.6592 91.7198 90.2592 91.7998C89.7692 92.2398 89.2592 92.6498 88.7392 93.0498Z" fill="#92DDB8"/>
<path d="M76.0894 42.45C75.9894 42.39 75.9194 42.31 75.8594 42.22C75.9994 42.28 76.1194 42.37 76.1894 42.51C76.1594 42.5 76.1194 42.48 76.0894 42.45Z" fill="#DDAC22"/>
<path d="M75.7591 41.6499C75.7891 41.4599 75.8391 41.2799 75.8991 41.1099C75.9291 41.0899 75.9491 41.0699 75.9691 41.0499C76.1391 40.8799 76.3391 40.8299 76.5191 40.8499C76.8191 40.8799 77.0891 41.1199 77.1691 41.4099C77.0391 41.3599 76.9291 41.2899 76.8091 41.2199C76.9091 41.4499 76.9991 41.6799 77.0991 41.9199C77.0691 41.9699 77.0291 42.0199 76.9791 42.0699C76.7791 42.2599 76.5791 42.4499 76.3791 42.6199C76.3091 42.5899 76.2491 42.5599 76.1891 42.5099C76.1191 42.3699 75.9991 42.2799 75.8591 42.2199C75.7491 42.0599 75.7191 41.8699 75.7591 41.6499Z" fill="#DDAC22"/>
<path d="M75.0298 46.68C74.8998 45.75 74.7698 44.82 74.7598 43.88C75.2698 43.54 75.7698 43.15 76.2398 42.74C76.2398 42.78 76.2398 42.82 76.2398 42.86C76.2098 43.08 76.2098 43.32 76.2098 43.56C75.3598 43.39 75.0298 44.71 75.8898 44.95C76.0398 45 76.1898 45.04 76.3298 45.08C76.4998 46.32 76.7598 47.63 76.8098 48.87C76.6298 48.28 76.3698 47.66 75.9998 47C75.4998 47 75.2498 47 75.1198 46.88C75.0798 46.83 75.0498 46.77 75.0298 46.68Z" fill="#92DDB8"/>
<path d="M76.2398 42.7398C75.7698 43.1498 75.2698 43.5398 74.7598 43.8798C74.7598 43.5398 74.7698 43.1998 74.8098 42.8598C74.8598 42.2898 75.4598 42.0698 75.8598 42.2198C75.9198 42.3098 75.9898 42.3898 76.0898 42.4498C76.1198 42.4798 76.1598 42.4998 76.1898 42.5098C76.2198 42.5798 76.2398 42.6598 76.2398 42.7398Z" fill="#E8B185"/>
<path d="M75.8889 72.1399C75.2489 73.0899 74.6689 74.1099 74.1289 75.1399C74.1789 74.6699 74.2089 74.1799 74.2289 73.6899C74.3189 73.2499 74.4089 72.7999 74.4689 72.3499C74.5789 71.5299 75.7589 71.4599 75.8889 72.1399Z" fill="#92DDB8"/>
<path d="M74.2292 73.6899C74.2092 74.1799 74.1792 74.6699 74.1292 75.1399C73.9892 75.4099 73.8392 75.6599 73.6992 75.9299C73.9092 75.1899 74.0892 74.4399 74.2292 73.6899Z" fill="#92DDB8"/>
<path d="M72.3096 79.6599C72.8696 78.4599 73.3396 77.2099 73.6996 75.9299C73.8396 75.6599 73.9896 75.4099 74.1296 75.1399C73.9296 76.8099 73.4496 78.3599 72.3096 79.6599Z" fill="#92DDB8"/>
<path d="M71.6797 83.6099C71.2797 84.0699 70.8697 84.4999 70.4297 84.9299C70.5797 84.3299 70.7397 83.7299 70.9197 83.1099C71.0997 82.4999 71.2897 81.8799 71.4997 81.2599C71.7897 80.7399 72.0497 80.1999 72.3097 79.6599C73.4497 78.3599 73.9297 76.8099 74.1297 75.1399C74.6697 74.1099 75.2497 73.0899 75.8897 72.1399C75.8997 72.1999 75.9097 72.2699 75.8997 72.3499C75.3597 76.4199 73.8897 80.2699 71.6797 83.6099Z" fill="#92DDB8"/>
<path d="M70.4296 84.9299C70.8696 84.4999 71.2796 84.0699 71.6796 83.6099C71.2496 84.2499 70.7896 84.8699 70.3096 85.4699C70.3496 85.2899 70.3896 85.1199 70.4296 84.9399V84.9299Z" fill="#92DDB8"/>
<path d="M69.5693 84.8399L69.7793 84.5999C69.8093 84.6999 69.8093 84.8099 69.7893 84.9199C69.7193 84.8999 69.6493 84.8699 69.5693 84.8399Z" fill="#92DDB8"/>
<path d="M69.5098 84.27C70.2498 83.32 70.9098 82.31 71.4998 81.26C71.2898 81.88 71.0998 82.5 70.9198 83.11C70.5798 83.61 70.1898 84.11 69.7798 84.6C69.7398 84.47 69.6498 84.35 69.5098 84.27Z" fill="#92DDB8"/>
<path d="M69.3193 33.92C68.6093 33.68 68.7293 32.72 69.2693 32.54C69.3193 32.53 69.3693 32.53 69.4293 32.53C70.3493 32.58 70.3493 34.01 69.4293 33.96C69.3893 33.95 69.3493 33.93 69.3193 33.92Z" fill="black"/>
<path d="M69.5689 84.84C69.4389 84.79 69.2989 84.74 69.1689 84.69C69.2789 84.55 69.3989 84.42 69.5089 84.27C69.6489 84.35 69.7389 84.47 69.7789 84.6L69.5689 84.84Z" fill="#92DDB8"/>
<path d="M69.2691 32.5399C68.7291 32.7199 68.6091 33.6799 69.3191 33.9199C69.3491 33.9299 69.3891 33.9499 69.4291 33.9599C70.3491 34.0099 70.3491 32.5799 69.4291 32.5299C69.3691 32.5299 69.3191 32.5299 69.2691 32.5399C69.3891 32.4899 69.5391 32.4799 69.6991 32.5399C70.9391 32.9599 70.6791 34.7999 69.3191 34.6799C68.0691 34.5799 68.0891 32.6299 69.2691 32.5399Z" fill="black"/>
<path d="M69.0195 85.4699C69.0295 85.4599 69.0395 85.4499 69.0495 85.4399C69.0395 85.4499 69.0295 85.4599 69.0195 85.4699Z" fill="#92DDB8"/>
<path d="M69.7889 84.9198C69.7289 85.2998 69.4089 85.6698 68.9189 85.5898C68.9389 85.5798 68.9389 85.5599 68.9489 85.5499C68.9589 85.5399 68.9689 85.5198 68.9889 85.5098C68.9989 85.4998 69.0089 85.4798 69.0189 85.4698C69.0289 85.4598 69.039 85.4498 69.049 85.4398C69.069 85.4198 69.0889 85.3898 69.1189 85.3598C69.1489 85.3298 69.1789 85.2898 69.2089 85.2598C69.2689 85.1898 69.3589 85.0898 69.4689 84.9598L69.5689 84.8398C69.6489 84.8698 69.7189 84.8998 69.7889 84.9198Z" fill="#92DDB8"/>
<path d="M69.0195 85.4699C69.0095 85.4799 68.9995 85.4999 68.9895 85.5099C68.9695 85.5199 68.9595 85.5399 68.9495 85.5499C68.9395 85.5599 68.9395 85.5799 68.9195 85.5899C68.7695 85.5699 68.6195 85.5399 68.4795 85.5199C68.7195 85.2499 68.9395 84.9699 69.1695 84.6899C69.2995 84.7399 69.4395 84.7899 69.5695 84.8399L69.4695 84.9599C69.3595 85.0899 69.2695 85.1899 69.2095 85.2599C69.1795 85.2899 69.1495 85.3299 69.1195 85.3599C69.0895 85.3899 69.0695 85.4199 69.0495 85.4399C69.0395 85.4499 69.0295 85.4599 69.0195 85.4699Z" fill="#92DDB8"/>
<path d="M69.1697 84.69C68.4597 84.41 67.7997 84.08 67.1797 83.72C67.8597 83.93 68.5697 84.1 69.2997 84.21C69.3797 84.23 69.4497 84.25 69.5097 84.27C69.3997 84.42 69.2797 84.55 69.1697 84.69Z" fill="#92DDB8"/>
<path d="M67.1396 87.7199C67.5996 87.0799 68.2496 86.3599 68.9196 85.5899C69.4096 85.6699 69.7297 85.2999 69.7896 84.9199C69.8096 84.8099 69.8096 84.6999 69.7796 84.5999C70.1896 84.1099 70.5796 83.6099 70.9196 83.1099C70.7396 83.7299 70.5796 84.3299 70.4296 84.9299V84.9399C69.4196 85.9699 68.3296 86.8999 67.1396 87.7199Z" fill="#92DDB8"/>
<path d="M70.3092 85.4699C69.1792 86.8999 67.8892 88.1899 66.4792 89.3399C66.4192 88.8999 66.6792 88.3599 67.1392 87.7199C68.3292 86.8999 69.4192 85.9699 70.4292 84.9399C70.3892 85.1199 70.3492 85.2899 70.3092 85.4699Z" fill="#92DDB8"/>
<path d="M62.6693 50.6599C62.2893 49.4799 62.5393 48.0699 62.6393 46.7999C66.7993 47.4099 71.2193 46.3299 74.7593 43.8799C74.7693 44.8199 74.8993 45.7499 75.0293 46.6799C75.1193 47.3999 75.2193 48.1199 75.2493 48.8499C75.3093 50.2499 75.4193 51.2299 73.8893 51.9499C72.8593 52.4399 71.1393 52.5299 70.0493 52.6299C67.9493 52.8399 63.4693 53.1499 62.6693 50.6599Z" fill="#C6926F"/>
<path d="M62.6794 46.1699C62.6894 45.7699 62.4194 45.5399 62.1094 45.4899L62.1594 45.2599C66.9694 46.2499 72.2394 44.6599 75.8994 41.1099C75.8394 41.2799 75.7894 41.4599 75.7594 41.6499C75.7194 41.8699 75.7494 42.0599 75.8594 42.2199C75.4594 42.0699 74.8594 42.2899 74.8094 42.8599C74.7694 43.1999 74.7594 43.5399 74.7594 43.8799C71.2194 46.3299 66.7994 47.4099 62.6394 46.7999C62.6594 46.5899 62.6694 46.3799 62.6794 46.1699Z" fill="#E2BA9F"/>
<path d="M61.8391 52.25C60.7791 50.79 61.0691 48.78 61.1991 47.01C61.2091 46.84 61.2191 46.68 61.2291 46.52C61.6991 46.64 62.1691 46.73 62.6391 46.8C62.5391 48.07 62.2891 49.48 62.6691 50.66C63.4691 53.15 67.9491 52.84 70.0491 52.63C71.1391 52.53 72.8591 52.44 73.8891 51.95C75.4191 51.23 75.3091 50.25 75.2491 48.85C75.2191 48.12 75.1191 47.4 75.0291 46.68C75.0491 46.77 75.0791 46.83 75.1191 46.88C75.2491 47 75.4991 47 75.9991 47C76.3691 47.66 76.6291 48.28 76.8091 48.87C76.8591 49.94 76.7591 50.95 76.2991 51.83C75.2291 53.88 71.6391 53.95 69.6291 54.1C67.3791 54.27 63.3691 54.36 61.8391 52.25Z" fill="#92DDB8"/>
<path d="M61.2495 46.1698C61.2595 45.6598 61.7195 45.4298 62.1095 45.4898C62.4195 45.5398 62.6895 45.7698 62.6795 46.1698C62.6695 46.3798 62.6595 46.5898 62.6395 46.7998C62.1695 46.7298 61.6995 46.6398 61.2295 46.5198C61.2395 46.3998 61.2395 46.2898 61.2495 46.1698Z" fill="#E8B185"/>
<path d="M64.2798 41.0099C62.6998 41.5299 60.0998 41.5799 59.0898 39.9799C58.9398 39.7399 59.3098 39.5299 59.4598 39.7599C60.3598 41.1899 62.7998 41.0399 64.1698 40.5999C64.4298 40.5099 64.5398 40.9299 64.2798 41.0099Z" fill="#D86D5B"/>
<path d="M60.3291 54.65C59.1891 53.54 58.3291 52.16 58.3291 50.76C58.3291 49.48 59.0591 48.16 60.9991 47L61.1991 47.01C61.0691 48.78 60.7791 50.79 61.8391 52.25C63.3691 54.36 67.3791 54.27 69.6291 54.1C71.6391 53.95 75.2291 53.88 76.2991 51.83C76.7591 50.95 76.8591 49.94 76.8091 48.87C77.0091 49.53 77.1091 50.14 77.1091 50.7C77.1091 56.52 67.0691 57.69 61.9991 56C61.4291 55.62 60.8491 55.16 60.3291 54.65Z" fill="#92DDB8"/>
<path d="M58.9596 35.2798C58.2396 34.1198 57.7996 33.6198 59.0596 32.8498C60.6496 31.8998 61.9696 30.6498 62.8896 29.0298C63.1196 28.6298 63.7396 28.9898 63.5096 29.3898C62.8996 30.4698 62.1196 31.4098 61.1896 32.2098C60.7296 32.5998 60.2496 32.9598 59.7396 33.2798C59.6096 33.3598 59.1696 33.5198 59.0996 33.6498C58.8996 34.0298 59.3996 34.6298 59.5796 34.9198C59.8196 35.3098 59.1996 35.6698 58.9596 35.2798Z" fill="#C4906C"/>
<path d="M57.839 27.7399C57.809 27.6999 57.779 27.6799 57.749 27.6499C57.789 27.6599 57.819 27.6999 57.839 27.7399Z" fill="black"/>
<path d="M57.5098 27.53C57.5998 27.54 57.6798 27.58 57.7398 27.64C57.6698 27.58 57.5898 27.55 57.5098 27.53Z" fill="black"/>
<path d="M57.8489 27.75C58.1489 28.19 57.7589 29.01 57.0489 28.89C57.0189 28.88 56.9789 28.87 56.9389 28.86C57.0689 28.86 57.1889 28.86 57.3189 28.86C57.3589 28.82 57.3989 28.78 57.4389 28.75C57.4389 28.62 57.4389 28.49 57.4389 28.36C57.2389 28.5 57.0389 28.63 56.8389 28.76C56.3389 28.19 56.9289 27.4 57.4989 27.52L57.5089 27.53C57.5889 27.55 57.6689 27.58 57.7389 27.64L57.7489 27.65C57.7789 27.68 57.8089 27.7 57.8389 27.74C57.8489 27.74 57.8489 27.75 57.8489 27.75Z" fill="black"/>
<path d="M56.6596 29.4898C56.1396 29.2298 55.8696 28.6198 56.1496 28.0798C56.3996 27.5698 56.9096 27.4098 57.4396 27.4998C57.4596 27.4998 57.4796 27.5098 57.4996 27.5198C56.9296 27.3998 56.3396 28.1898 56.8396 28.7598C57.0396 28.6298 57.2396 28.4998 57.4396 28.3598C57.4396 28.4898 57.4396 28.6198 57.4396 28.7498C57.3996 28.7798 57.3596 28.8198 57.3196 28.8598C57.1896 28.8598 57.0696 28.8598 56.9396 28.8598C56.9796 28.8698 57.0196 28.8798 57.0496 28.8898C57.7596 29.0098 58.1496 28.1898 57.8496 27.7498C58.5896 28.5898 57.7896 30.0598 56.6596 29.4898Z" fill="black"/>
<path d="M55.9189 43.7499C56.5889 43.6299 56.5589 42.8399 56.1289 42.4999L56.2189 42.3999C57.9989 43.8899 60.0289 44.8299 62.1589 45.2599L62.1089 45.4899C61.7189 45.4299 61.2589 45.6599 61.2489 46.1699C61.2389 46.2899 61.2389 46.3999 61.2289 46.5199C59.2389 46.0399 57.3389 45.1399 55.6689 43.7999C55.7489 43.7799 55.8389 43.7699 55.9189 43.7499Z" fill="#E2BA9F"/>
<path d="M55.6696 43.7999C55.1896 43.4199 54.7396 43.0099 54.3096 42.5599C54.7196 42.5099 55.1396 42.4499 55.5496 42.3699C55.7796 42.3299 55.9796 42.3899 56.1296 42.4999C56.5596 42.8399 56.5896 43.6299 55.9196 43.7499C55.8396 43.7699 55.7496 43.7799 55.6696 43.7999Z" fill="#E8B185"/>
<path d="M67.9997 90C63.5597 92.22 57.4797 96.08 52.1797 95.1C54.2897 94.77 56.5297 94.29 58.5097 93.67C61.4797 92.73 64.1497 91.23 66.4797 89.34C67.8897 88.19 69.1797 86.9 70.3097 85.47C70.7897 84.87 71.2497 84.25 71.6797 83.61C73.8897 80.27 75.3597 76.42 75.8997 72.35C75.9097 72.27 75.8997 72.2 75.8897 72.14C75.7597 71.46 74.5797 71.53 74.4697 72.35C74.4097 72.8 74.3197 73.25 74.2297 73.69C74.3997 69.24 73.4297 64.27 77.9997 61C80.9997 71 76.9997 84 67.9997 90Z" fill="#92DDB8"/>
<path d="M51.2695 62.2499C51.5195 61.5799 51.3895 60.6099 51.9995 59.9999L53.1695 59.3699C57.6795 67.6499 59.1295 78.9899 67.1795 83.7199C62.8595 82.3599 59.5995 79.0199 57.1695 75.1499C55.5095 72.4899 54.2395 69.6499 53.0495 66.7599C52.4195 65.2499 51.7795 63.7699 51.2695 62.2499Z" fill="#92DDB8"/>
<path d="M54.5392 20.1298C54.5492 19.6898 54.1592 19.2398 53.7092 19.3798C53.7692 19.3298 53.8292 19.2798 53.8892 19.2398C54.2492 18.9398 54.6092 18.6998 55.0492 18.5098C56.5292 17.8398 58.2592 17.7798 59.8492 17.6498C61.2992 17.5198 62.9192 17.1498 64.3592 17.4398C67.1092 17.9798 66.9992 21.5298 69.0292 22.9898C71.8392 25.0198 75.9792 23.9298 78.6292 26.2298C80.5492 27.8798 80.3292 31.2998 80.3692 33.5898C80.3792 34.4098 80.3392 35.2198 80.2092 36.0198C78.7392 37.5698 77.3992 39.1498 76.5192 40.8498C76.3392 40.8298 76.1392 40.8798 75.9692 41.0498C75.9492 41.0698 75.9292 41.0898 75.8992 41.1098C76.4992 39.4098 78.2292 38.1398 78.7092 36.3398C79.2592 34.2898 79.1292 30.8598 78.5692 28.8198C77.7192 25.7398 73.2092 26.0798 70.7392 25.3498C69.3592 24.9398 67.9892 24.2798 67.0592 23.1598C65.5492 21.3498 65.9592 18.9298 62.9592 18.8198C61.1092 18.7498 58.7092 18.9498 56.9292 19.4298C55.5192 19.7898 54.7392 20.6198 53.5992 21.3998C53.4692 21.4798 53.3392 21.5798 53.1992 21.6698C53.3992 21.4198 53.6392 21.1798 53.9292 20.9498C54.0192 20.8798 54.1192 20.7998 54.2292 20.7298C54.2792 20.6898 54.3292 20.6498 54.3592 20.5998C54.3692 20.5998 54.3692 20.5998 54.3692 20.5898C54.4592 20.4898 54.5092 20.3698 54.5192 20.2498C54.5392 20.2098 54.5392 20.1698 54.5392 20.1298Z" fill="#DDAC22"/>
<path d="M53.149 19.8999C52.869 20.0899 52.669 20.2199 52.499 20.2799C52.799 20.0099 53.129 19.7599 53.499 19.4899C53.579 19.4399 53.649 19.3999 53.709 19.3799C53.529 19.5699 53.349 19.7699 53.149 19.8999Z" fill="#DDAC22"/>
<path d="M51.8196 19.8998C51.4596 19.3098 51.5696 17.5698 51.7696 16.9098C52.7896 13.4998 57.9896 11.1898 61.0496 10.1798C64.6196 9.00985 68.4596 8.71985 72.1696 9.37985C73.5096 9.61985 74.8196 9.99985 76.0696 10.4998C76.1796 10.5898 76.2996 10.6298 76.4196 10.6398C79.8896 12.0998 82.9296 14.5198 85.0896 17.5698C86.5996 19.7198 87.6796 22.1798 88.1596 24.8398C88.1696 24.8798 88.1696 24.9198 88.1796 24.9598C88.1796 24.9798 88.1796 24.9898 88.1796 25.0098C88.1896 25.1298 88.1896 25.2498 88.1996 25.3698C87.1696 29.4398 83.3896 32.6698 80.2096 36.0198C80.3396 35.2198 80.3796 34.4098 80.3696 33.5898C80.3296 31.2998 80.5496 27.8798 78.6296 26.2298C75.9796 23.9298 71.8396 25.0198 69.0296 22.9898C66.9996 21.5298 67.1096 17.9798 64.3596 17.4398C62.9196 17.1498 61.2996 17.5198 59.8496 17.6498C58.2596 17.7798 56.5296 17.8398 55.0496 18.5098C54.6096 18.6998 54.2496 18.9398 53.8896 19.2398C53.8296 19.2798 53.7696 19.3298 53.7096 19.3798C53.6496 19.3998 53.5796 19.4398 53.4996 19.4898C53.1296 19.7598 52.7996 20.0098 52.4996 20.2798C52.2296 20.3698 52.0596 20.2798 51.8196 19.8998Z" fill="#FFCE31"/>
<path d="M52.3991 21.99C51.9791 22.03 51.6291 21.94 51.3291 21.73C51.6191 21.18 52.0091 20.72 52.4991 20.28C52.6691 20.22 52.8691 20.09 53.1491 19.9C53.3491 19.77 53.5291 19.57 53.7091 19.38C54.1591 19.24 54.5491 19.69 54.5391 20.13C54.5391 20.17 54.5391 20.21 54.5191 20.25C54.5091 20.37 54.4591 20.49 54.3691 20.59C54.3691 20.59 54.3691 20.6 54.3591 20.6C54.3291 20.64 54.2791 20.68 54.2291 20.72C54.1191 20.8 54.0191 20.87 53.9291 20.95C53.6391 21.18 53.3991 21.42 53.1991 21.67C52.9491 21.83 52.6791 21.96 52.3991 21.99Z" fill="#DDAC22"/>
<path d="M54.1198 42.3699C51.1098 39.1499 49.9598 34.8799 49.9698 30.5499C49.9798 28.1899 50.2998 25.8299 50.7198 23.5099C50.8498 22.8099 51.0498 22.2299 51.3298 21.7299C51.6298 21.9399 51.9798 22.0299 52.3998 21.9899C52.6798 21.9599 52.9498 21.8299 53.1998 21.6699C52.1298 22.9499 51.9598 24.4899 51.7098 26.3199C51.4798 28.0799 51.3598 29.8499 51.4198 31.6199C51.5798 35.4499 52.8098 39.2199 55.6698 41.8999C55.8498 42.0699 56.0298 42.2399 56.2198 42.3999L56.1298 42.4999C55.9798 42.3899 55.7798 42.3299 55.5498 42.3699C55.1398 42.4499 54.7198 42.5099 54.3098 42.5599C54.2398 42.4999 54.1898 42.4399 54.1198 42.3699Z" fill="#E2BA9F"/>
<path d="M51.2596 62.23C50.9596 61.34 50.7196 60.43 50.5596 59.49C51.0196 59.63 51.4996 59.79 51.9996 60C51.3896 60.61 51.5196 61.58 51.2696 62.25C51.2696 62.24 51.2596 62.24 51.2596 62.23Z" fill="#92DDB8"/>
<path d="M50.9397 21.37C49.9897 20.25 50.0197 17.78 50.4197 16.45C51.2397 13.66 54.6297 11.58 57.0297 10.33C60.4097 8.56998 64.1597 7.72998 67.8797 7.72998C70.3897 7.72998 72.8797 8.10998 75.2397 8.84998C75.3597 9.36998 75.5797 9.86998 75.9097 10.33C75.9597 10.4 76.0097 10.46 76.0697 10.5C74.8197 9.99998 73.5097 9.61998 72.1697 9.37998C68.4597 8.71998 64.6197 9.00998 61.0497 10.18C57.9897 11.19 52.7897 13.5 51.7697 16.91C51.5697 17.57 51.4597 19.31 51.8197 19.9C52.0597 20.28 52.2297 20.37 52.4997 20.28C52.0097 20.72 51.6197 21.18 51.3297 21.73C51.1897 21.64 51.0597 21.52 50.9397 21.37Z" fill="#DDAC22"/>
<path d="M51.0095 62.67C51.0295 62.56 51.0195 62.44 50.9795 62.32L51.2595 62.23C51.2595 62.24 51.2695 62.24 51.2695 62.25C51.2095 62.41 51.1295 62.56 51.0095 62.67Z" fill="#92DDB8"/>
<path d="M51.8289 67.53C51.2389 66.1 50.6289 64.7 50.1289 63.28C50.1989 63.28 50.2589 63.29 50.3289 63.29C50.7489 63.3 50.9789 63 51.0089 62.67C51.1289 62.56 51.2089 62.41 51.2689 62.25C51.7789 63.77 52.4189 65.25 53.0489 66.76C54.2389 69.65 55.5089 72.49 57.1689 75.15C59.5989 79.02 62.8589 82.36 67.1789 83.72C67.7989 84.08 68.4589 84.41 69.1689 84.69C68.9389 84.97 68.7189 85.25 68.4789 85.52C63.1889 84.56 59.1989 80.85 56.3089 76.45C54.4689 73.65 53.0989 70.61 51.8289 67.53Z" fill="#92DDB8"/>
<path d="M50.3291 63.2899C50.2591 63.2899 50.1991 63.2799 50.1291 63.2799C50.0891 63.1899 50.0691 63.0899 50.0391 62.9999C50.5091 62.9899 50.8091 62.8699 51.0091 62.6699C50.9791 62.9999 50.7491 63.2999 50.3291 63.2899Z" fill="#92DDB8"/>
<path d="M50.0392 62.9998C49.8992 62.6198 49.7692 62.2398 49.6592 61.8598C49.8892 61.8498 50.1092 61.8498 50.3292 61.8598C50.6692 61.8598 50.8892 62.0698 50.9792 62.3198C51.0192 62.4398 51.0292 62.5598 51.0092 62.6698C50.8092 62.8698 50.5092 62.9898 50.0392 62.9998Z" fill="#92DDB8"/>
<path d="M49.6593 61.8599C49.3993 60.9799 49.2093 60.0799 49.0693 59.1599C49.5493 59.2299 50.0393 59.3399 50.5593 59.4899C50.7193 60.4299 50.9593 61.3399 51.2593 62.2299L50.9793 62.3199C50.8893 62.0699 50.6693 61.8599 50.3293 61.8599C50.1093 61.8499 49.8893 61.8499 49.6593 61.8599Z" fill="#92DDB8"/>
<path d="M49.089 57.4599C49.459 57.0799 50.309 57.2499 50.349 57.9499C50.389 58.4699 50.469 58.99 50.559 59.49C50.039 59.34 49.549 59.2299 49.069 59.1599C49.049 59.0099 49.019 58.8699 48.999 58.7299C48.999 58.3799 49.019 57.9199 49.089 57.4599Z" fill="#92DDB8"/>
<path d="M52.1791 95.1C51.0291 94.89 49.9191 94.45 48.8691 93.71C49.3491 93.78 49.8391 93.92 50.3091 93.92C51.3791 93.92 52.5291 93.45 53.5791 93.24C54.8391 92.99 56.1191 92.85 57.3691 92.51C60.5491 91.66 63.6191 89.96 66.1291 87.83C66.9691 87.11 67.7591 86.34 68.4791 85.52C68.6191 85.54 68.7691 85.57 68.9191 85.59C68.2491 86.36 67.5991 87.08 67.1391 87.72C66.6791 88.36 66.4191 88.9 66.4791 89.34C64.1491 91.23 61.4791 92.73 58.5091 93.67C56.5291 94.29 54.2891 94.77 52.1791 95.1Z" fill="#92DDB8"/>
<path d="M50.3489 57.9498C50.3089 57.2498 49.4589 57.0798 49.0889 57.4598C49.2489 56.3798 49.7089 55.3498 50.9989 55.9998C51.8089 57.0398 52.5189 58.1698 53.1689 59.3698L51.9989 59.9998C51.4989 59.7898 51.0189 59.6298 50.5589 59.4898C50.4689 58.9898 50.3889 58.4698 50.3489 57.9498Z" fill="#92DDB8"/>
<path d="M49.0889 57.46C49.0189 57.92 48.9989 58.38 48.9989 58.73C48.9689 58.47 48.9389 58.21 48.9189 57.95C48.9089 57.73 48.9789 57.57 49.0889 57.46Z" fill="#92DDB8"/>
<path d="M48.8698 93.7098C49.9198 94.4498 51.0298 94.8898 52.1798 95.0998C51.8498 95.1498 51.5098 95.2098 51.1798 95.2498C50.0698 95.4098 48.7998 95.2798 47.6898 95.6698L47.5498 95.2698C47.8398 95.0798 48.0198 94.6998 47.8298 94.3098C47.7398 94.1398 47.6498 93.9598 47.5598 93.7898C47.7798 93.7298 47.9998 93.6798 48.2398 93.6698C48.4498 93.6598 48.6598 93.6798 48.8698 93.7098Z" fill="#AEF9D6"/>
<path d="M47.879 92.01C47.769 92.21 47.669 92.42 47.569 92.62C47.379 92.42 47.189 92.22 46.999 92C47.319 92 47.599 92 47.879 92.01Z" fill="#683109"/>
<path d="M46.5893 95.03C46.5093 94.86 46.4193 94.68 46.3193 94.51C46.6893 94.19 47.0993 93.94 47.5593 93.79C47.6493 93.96 47.7393 94.14 47.8293 94.31C48.0193 94.7 47.8393 95.08 47.5493 95.27C47.2393 95.47 46.8093 95.46 46.5893 95.03Z" fill="#AEF9D6"/>
<path d="M46.1489 92.27C46.1889 92.18 46.2389 92.09 46.2789 92C46.6389 92.35 46.9489 92.77 47.2289 93.21C46.7289 93.66 45.7789 93 46.1489 92.27Z" fill="#E8B185"/>
<path d="M45.3291 93.0698C45.4391 93.1698 45.5291 93.2698 45.6191 93.3798C45.5291 93.2698 45.4291 93.1698 45.3291 93.0698Z" fill="#E8B185"/>
<path d="M45.3297 93.0699C45.2797 93.0199 45.2297 92.9799 45.1797 92.9299C45.2397 92.9799 45.2897 93.0199 45.3297 93.0699Z" fill="#E8B185"/>
<path d="M45.0098 92.7998C45.0698 92.8398 45.1298 92.8898 45.1798 92.9298C45.1298 92.8898 45.0698 92.8398 45.0098 92.7998Z" fill="#E8B185"/>
<path d="M44.8291 92.6799C44.8891 92.7199 44.9591 92.7599 45.0091 92.7999C44.9591 92.7599 44.8891 92.7199 44.8291 92.6799Z" fill="#E8B185"/>
<path d="M47.049 85.0099C47.479 84.2399 47.869 83.4399 48.349 82.7099C48.679 82.1899 49.029 81.5999 49.519 81.2199C50.289 80.6199 50.679 80.3999 50.819 81.3299C50.989 82.4899 49.869 84.2699 49.409 85.2999C48.389 87.5399 47.379 89.7899 46.279 91.9999C45.749 91.4799 45.099 91.0999 44.269 90.9799C44.169 90.9699 44.069 90.9599 43.959 90.9499C44.919 88.9299 45.959 86.9599 47.049 85.0099Z" fill="#683109"/>
<path d="M43.7495 92.3699C43.9195 92.3799 44.0695 92.3999 44.2195 92.4399C44.0695 92.4099 43.9195 92.3799 43.7495 92.3799C43.6595 92.3799 43.5695 92.3799 43.4795 92.3799C43.5695 92.3699 43.6595 92.3699 43.7495 92.3699Z" fill="#E8B185"/>
<path d="M43.0098 92.35C43.1898 92.32 43.3598 92.21 43.4698 91.98C43.6298 91.64 43.7898 91.29 43.9598 90.95C44.0698 90.96 44.1698 90.97 44.2698 90.98C45.0998 91.1 45.7498 91.48 46.2798 92C46.2398 92.09 46.1898 92.18 46.1498 92.27C45.7798 93 46.7298 93.66 47.2298 93.21C47.3398 93.4 47.4498 93.6 47.5598 93.79C47.0998 93.94 46.6898 94.19 46.3198 94.51C46.1098 94.11 45.8898 93.72 45.6198 93.38C45.5298 93.27 45.4398 93.17 45.3298 93.07C45.2898 93.02 45.2398 92.98 45.1798 92.93C45.1298 92.89 45.0698 92.84 45.0098 92.8C44.9598 92.76 44.8898 92.72 44.8298 92.68C44.6498 92.57 44.4398 92.49 44.2198 92.44C44.0698 92.4 43.9198 92.38 43.7498 92.37C43.6598 92.37 43.5698 92.37 43.4798 92.38C43.4198 92.38 43.3598 92.38 43.2998 92.39C43.2098 92.39 43.1098 92.4 43.0198 92.42L43.0098 92.35Z" fill="#E8B185"/>
<path d="M43.4798 92.3799C43.4198 92.3799 43.3598 92.3799 43.2998 92.3899C43.3598 92.3799 43.4198 92.3799 43.4798 92.3799Z" fill="#E8B185"/>
<path d="M42.2998 99.01C42.6598 98.34 43.2698 97.74 43.8598 97.22C44.7298 96.45 45.4198 95.29 46.3198 94.51C46.4198 94.68 46.5098 94.86 46.5898 95.03C46.8098 95.46 47.2398 95.47 47.5498 95.27L47.6898 95.67C47.3798 95.78 47.0798 95.93 46.7998 96.14C46.2498 96.56 45.2898 97.74 44.8698 98.24C44.3298 98.88 44.0698 99.44 44.0298 99.93L43.3198 99.9C43.3198 99.61 43.1598 99.32 42.8198 99.21C42.6398 99.16 42.4698 99.09 42.2998 99.01Z" fill="#AEF9D6"/>
<path d="M43.3195 99.9C43.3195 100.33 42.9695 100.77 42.4395 100.59C42.2895 100.55 42.1395 100.49 41.9895 100.43C41.9295 99.92 42.0695 99.44 42.2995 99.01C42.4695 99.09 42.6395 99.16 42.8195 99.21C43.1595 99.32 43.3195 99.61 43.3195 99.9Z" fill="#92DDB8"/>
<path d="M42.4393 100.59C42.9693 100.77 43.3193 100.33 43.3193 99.9L44.0293 99.93C43.8293 102.48 49.4693 103.06 51.5093 103.17C54.3793 103.33 57.2593 103.01 60.0893 102.51C68.7293 100.98 77.8893 98.6 85.3493 93.72C78.4593 98.51 70.2293 101.15 61.9493 103.71C61.2593 103.82 60.5793 103.93 59.8993 104.03C58.8593 104.18 57.8193 104.32 56.7893 104.43C53.6693 104.77 50.4693 104.76 47.3993 104.03C45.7493 103.64 43.0193 102.99 42.2093 101.21C42.0793 100.94 42.0093 100.68 41.9893 100.43C42.1393 100.49 42.2893 100.55 42.4393 100.59Z" fill="#92DDB8"/>
<path d="M43.4695 91.98C43.3595 92.21 43.1895 92.32 43.0095 92.35C42.5295 92.41 41.9495 91.86 42.2295 91.26C42.2495 91.22 42.2795 91.16 42.3095 91.1C42.8595 90.97 43.4295 90.91 43.9595 90.95C43.7895 91.29 43.6295 91.64 43.4695 91.98Z" fill="#E8B185"/>
<path d="M42.3096 91.0999C43.2696 88.9099 48.2596 76.5799 51.7396 79.5399C52.9696 80.5899 51.9396 82.9399 51.4796 84.0999C50.4296 86.7899 49.1596 89.4199 47.8796 92.0099C47.5996 91.9999 47.3196 91.9999 46.9996 91.9999C47.1896 92.2199 47.3796 92.4199 47.5696 92.6199C47.5096 92.7399 47.4496 92.8699 47.3796 92.9999C47.3396 93.0899 47.2796 93.1599 47.2296 93.2099C46.9496 92.7699 46.6396 92.3499 46.2796 91.9999C47.3796 89.7899 48.3896 87.5399 49.4096 85.2999C49.8696 84.2699 50.9896 82.4899 50.8196 81.3299C50.6796 80.3999 50.2896 80.6199 49.5196 81.2199C49.0296 81.5999 48.6796 82.1899 48.3496 82.7099C47.8696 83.4399 47.4796 84.2399 47.0496 85.0099C45.9596 86.9599 44.9196 88.9299 43.9596 90.9499C43.4296 90.9099 42.8596 90.9699 42.3096 91.0999Z" fill="#683109"/>
<path d="M43.0193 92.4199C43.1093 92.3999 43.2093 92.3899 43.2993 92.3899C43.3593 92.3799 43.4193 92.3799 43.4793 92.3799C43.5693 92.3799 43.6593 92.3799 43.7493 92.3799C43.9193 92.3799 44.0693 92.4099 44.2193 92.4399C44.4393 92.4899 44.6493 92.5699 44.8293 92.6799C44.8893 92.7199 44.9593 92.7599 45.0093 92.7999C45.0693 92.8399 45.1293 92.8899 45.1793 92.9299C45.2293 92.9799 45.2793 93.0199 45.3293 93.0699C45.4293 93.1699 45.5293 93.2699 45.6193 93.3799C45.8893 93.7199 46.1093 94.1099 46.3193 94.5099C45.4193 95.2899 44.7293 96.4499 43.8593 97.2199C43.2693 97.7399 42.6593 98.3399 42.2993 99.0099C40.5993 98.2099 39.0793 96.2299 40.0293 94.3499C40.5393 93.3299 41.8193 92.5999 43.0193 92.4199Z" fill="#E8B185"/>
<path d="M42.2295 91.2599C41.9495 91.8599 42.5295 92.4099 43.0095 92.3499L43.0195 92.4199C41.8195 92.5999 40.5395 93.3299 40.0295 94.3499C39.0795 96.2299 40.5995 98.2099 42.2995 99.0099C42.0695 99.4399 41.9295 99.9199 41.9895 100.43C39.2595 99.2899 37.1395 95.9699 39.0495 93.2099C39.7495 92.1699 40.9995 91.4199 42.3095 91.0999C42.2795 91.1599 42.2495 91.2199 42.2295 91.2599Z" fill="#E8B185"/>
<path d="M49.0691 59.16C49.2091 60.08 49.3991 60.98 49.6591 61.86C45.4391 61.95 41.0091 63.75 38.0391 66.85C40.7791 62.28 43.8091 58.36 49.0691 59.16Z" fill="#92DDB8"/>
<path d="M38.0398 66.8499C37.0198 68.5499 36.0498 70.3299 35.0098 71.9899C35.2498 71.1799 35.5698 70.3799 35.9798 69.6399C36.5298 68.6199 37.2398 67.6899 38.0398 66.8499Z" fill="#92DDB8"/>
<path d="M38.0395 66.8499C41.0095 63.7499 45.4395 61.9499 49.6595 61.8599C49.7695 62.2399 49.8995 62.6199 50.0395 62.9999C50.0695 63.0899 50.0895 63.1899 50.1295 63.2799C45.5795 63.2599 40.7195 65.3899 37.9995 69.1199C36.7295 70.8599 36.1395 72.7799 35.9695 74.8999C35.8795 75.9599 35.7795 76.6799 34.9595 77.2699C34.7495 77.0799 34.5395 76.8999 34.3195 76.7199C34.1495 76.5899 33.9595 76.5399 33.7895 76.5599L33.7295 75.9299C34.3195 75.3099 34.4895 74.4499 34.6995 73.2499C34.7795 72.8199 34.8795 72.4099 35.0095 71.9899C36.0495 70.3299 37.0195 68.5499 38.0395 66.8499Z" fill="#92DDB8"/>
<path d="M33.3097 77.7399C32.7597 77.2899 33.2197 76.5999 33.7897 76.5599C33.9597 76.5399 34.1497 76.5899 34.3197 76.7199C34.5397 76.8999 34.7497 77.0799 34.9597 77.2699C34.8797 77.3299 34.8097 77.3799 34.7297 77.4299C34.4497 77.5999 34.0497 77.7799 33.5897 77.9699C33.4897 77.8899 33.3997 77.8099 33.3097 77.7399Z" fill="#92DDB8"/>
<path d="M32.119 76.79C31.769 76.89 31.399 77 31.019 77.09L30.999 77C32.519 75.7 33.799 73.92 35.009 71.99C34.879 72.41 34.779 72.82 34.699 73.25C34.489 74.45 34.319 75.31 33.729 75.93C33.379 76.3 32.869 76.58 32.119 76.79Z" fill="#92DDB8"/>
<path d="M48.9991 58.7298C49.0191 58.8698 49.0491 59.0098 49.0691 59.1598C43.8091 58.3598 40.7791 62.2798 38.0391 66.8498C37.2391 67.6898 36.5291 68.6198 35.9791 69.6398C35.5691 70.3798 35.2491 71.1798 35.0091 71.9898C33.7991 73.9198 32.5191 75.6998 30.9991 76.9998L31.0191 77.0898C30.4391 77.2398 29.8391 77.3598 29.2691 77.3698C28.4991 77.5598 27.7991 77.3798 27.1691 76.8198C27.1091 76.5398 27.0591 76.2598 26.9991 75.9698C26.2991 74.3298 26.2991 71.8498 26.2291 70.1198C25.9791 63.1198 29.9091 55.6798 35.1391 51.1298C37.8691 48.7498 41.0591 47.1298 44.4691 45.9498C48.1591 44.6698 51.8791 44.4798 55.6691 43.7998C57.3391 45.1398 59.2391 46.0398 61.2291 46.5198C61.2191 46.6798 61.2091 46.8398 61.1991 47.0098L60.9991 46.9998C59.0591 48.1598 58.3291 49.4798 58.3291 50.7598C58.3291 52.1598 59.1891 53.5398 60.3291 54.6498C60.8491 55.1598 61.4291 55.6198 61.9991 55.9998C67.0691 57.6898 77.1091 56.5198 77.1091 50.6998C77.1091 50.1398 77.0091 49.5298 76.8091 48.8698C76.7591 47.6298 76.4991 46.3198 76.3291 45.0798C81.2991 46.5898 85.3591 49.9998 89.1691 53.4198C89.8291 54.0098 90.4791 54.6098 91.1091 55.2398C92.4791 56.6098 93.7591 58.0598 94.8791 59.6298C94.9291 59.6798 94.9591 59.7398 94.9991 59.7998C95.7091 60.9298 96.3291 62.1398 96.8291 63.3898C97.0291 63.8898 97.2191 64.3898 97.3891 64.9098C97.5491 65.4198 97.6991 65.9398 97.8391 66.4598C98.7391 70.0698 98.7991 73.9098 97.8491 77.5798C97.7591 77.9398 97.6591 78.2998 97.5491 78.6598C97.4391 79.0098 97.3191 79.3698 97.1791 79.7198C97.1791 79.7298 97.1691 79.7498 97.1691 79.7598C97.0491 80.0798 96.9191 80.3898 96.7891 80.6998C96.7791 80.7198 96.7691 80.7498 96.7591 80.7698V80.7798C96.7391 80.8198 96.7291 80.8398 96.7091 80.8698C96.6291 81.0698 96.5391 81.2698 96.4391 81.4598C96.3191 81.7098 96.1991 81.9498 96.0791 82.1898C96.0291 82.2698 95.9791 82.3598 95.9291 82.4398C95.7791 82.7198 95.6291 82.9898 95.4691 83.2598C95.3191 83.5098 95.1591 83.7498 94.9991 83.9998C92.2991 88.0598 89.0091 91.1898 85.3491 93.7198C77.8891 98.5998 68.7291 100.98 60.0891 102.51C57.2591 103.01 54.3791 103.33 51.5091 103.17C49.4691 103.06 43.8291 102.48 44.0291 99.9298C44.0691 99.4398 44.3291 98.8798 44.8691 98.2398C45.2891 97.7398 46.2491 96.5598 46.7991 96.1398C47.0791 95.9298 47.3791 95.7798 47.6891 95.6698C48.7991 95.2798 50.0691 95.4098 51.1791 95.2498C51.5091 95.2098 51.8491 95.1498 52.1791 95.0998C57.4791 96.0798 63.5591 92.2198 67.9991 89.9998C76.9991 83.9998 80.9991 70.9998 77.9991 60.9998C73.4291 64.2698 74.3991 69.2398 74.2291 73.6898C74.0891 74.4398 73.9091 75.1898 73.6991 75.9298C73.3391 77.2098 72.8691 78.4598 72.3091 79.6598C72.0491 80.1998 71.7891 80.7398 71.4991 81.2598C70.9091 82.3098 70.2491 83.3198 69.5091 84.2698C69.4491 84.2498 69.3791 84.2298 69.2991 84.2098C68.5691 84.0998 67.8591 83.9298 67.1791 83.7198C59.1291 78.9898 57.6791 67.6498 53.1691 59.3698C52.5191 58.1698 51.8091 57.0398 50.9991 55.9998C49.7091 55.3498 49.2491 56.3798 49.0891 57.4598C48.9791 57.5698 48.9091 57.7298 48.9191 57.9498C48.9391 58.2098 48.9691 58.4698 48.9991 58.7298Z" fill="#AEF9D6"/>
<path d="M27.6896 78.97C29.3896 79.22 31.9396 78.61 33.5896 77.97C34.7296 78.92 35.8196 80.06 36.1096 81.56C36.6296 84.27 34.1496 85.68 31.8096 85.52C30.4296 85.42 28.4996 84.93 27.5396 83.84C26.2996 82.43 27.0596 80.49 27.6896 78.97Z" fill="#E8B185"/>
<path d="M26.3891 78.3898C26.7391 77.5498 28.1191 77.9298 27.7691 78.7798C27.7391 78.8398 27.7091 78.9098 27.6891 78.9698C27.2191 78.8998 26.8191 78.7698 26.5091 78.5498C26.4591 78.5198 26.4191 78.4798 26.3691 78.4298C26.3791 78.4198 26.3791 78.4098 26.3891 78.3898Z" fill="#92DDB8"/>
<path d="M26.5096 78.55C26.8196 78.77 27.2196 78.9 27.6896 78.97C27.0596 80.49 26.2996 82.43 27.5396 83.84C28.4996 84.93 30.4296 85.42 31.8096 85.52C34.1496 85.68 36.6296 84.27 36.1096 81.56C35.8196 80.06 34.7296 78.92 33.5896 77.97C34.0496 77.78 34.4496 77.6 34.7296 77.43C34.8096 77.38 34.8796 77.33 34.9596 77.27C36.5396 78.72 37.8396 80.59 37.5696 82.86C37.2996 85.11 35.3996 86.61 33.2296 86.93C31.0896 87.25 28.0796 86.47 26.5296 84.85C24.7796 83.02 25.5196 80.49 26.3696 78.43C26.4196 78.48 26.4596 78.52 26.5096 78.55Z" fill="#E8B185"/>
<path d="M44.4694 45.9498C41.0594 47.1298 37.8694 48.7498 35.1394 51.1298C29.9094 55.6798 25.9794 63.1198 26.2294 70.1198C26.2994 71.8498 26.2994 74.3298 26.9994 75.9698C27.0594 76.2598 27.1094 76.5398 27.1694 76.8198C27.7994 77.3798 28.4994 77.5598 29.2694 77.3698C29.8394 77.3598 30.4394 77.2398 31.0194 77.0898C31.3994 76.9998 31.7694 76.8898 32.1194 76.7898C32.8694 76.5798 33.3794 76.2998 33.7294 75.9298L33.7894 76.5598C33.2194 76.5998 32.7594 77.2898 33.3094 77.7398C33.3994 77.8098 33.4894 77.8898 33.5894 77.9698C31.9394 78.6098 29.3894 79.2198 27.6894 78.9698C27.7094 78.9098 27.7394 78.8398 27.7694 78.7798C28.1194 77.9298 26.7394 77.5498 26.3894 78.3898C26.3794 78.4098 26.3794 78.4198 26.3694 78.4298C25.4694 77.6298 25.4894 75.7598 25.3094 74.6898C25.0194 72.9198 24.7994 71.1298 24.7894 69.3398C24.7494 62.2398 28.8394 54.7398 34.1194 50.1198C36.5694 47.9798 39.3694 46.3898 42.3894 45.1998C44.3494 44.4198 46.3894 43.7598 48.4594 43.3198C50.3894 42.9098 52.3594 42.8198 54.3094 42.5598C54.7394 43.0098 55.1894 43.4198 55.6694 43.7998C51.8794 44.4798 48.1594 44.6698 44.4694 45.9498Z" fill="#92DDB8"/>
</svg>
