<svg viewBox="0 0 134 133" fill="none" xmlns="http://www.w3.org/2000/svg">
<path d="M67 128.959C101.794 128.959 130 100.986 130 66.4793C130 31.973 101.794 4 67 4C32.2061 4 4 31.973 4 66.4793C4 100.986 32.2061 128.959 67 128.959Z" stroke="#AEF9D6" stroke-width="7" stroke-miterlimit="10"/>
<g clip-path="url(#clip0)" data-entrance="rotate-in" data-entrance-duration="500">
<path d="M36.5909 36.0503H35L51.3612 65.3888L35.3649 94.4797H36.8244L52.2661 66.5681L54.3678 70.3683L41.13 94.4797H42.6333L55.1414 71.6933L57.3891 75.7555L47.0265 94.4797H48.4422L58.1042 77.0513L60.1621 80.7642L53.1418 94.4797H54.6014L60.8919 82.1182L63.0958 86.0786L58.761 94.4797H60.1913L63.8109 87.3744L66.044 91.3639L64.4823 94.4797H66.0002L66.7738 92.7762L67.7225 94.4797H69.1966L53.1127 65.3888L69.1966 36.0503H67.7079L66.6862 37.9285L65.7667 36.0503H64.2926L65.9272 39.2098L63.6942 43.1847L59.9724 36.0503H58.5859L62.9644 44.5388L60.8773 48.4263L54.4554 36.0503H52.8937L60.0892 49.8823L57.9875 53.6243L48.2962 36.0503H46.7345L57.2869 54.8619L55.0538 58.9532L42.429 36.0503H40.9257L54.2949 60.2491L52.091 64.122L36.5909 36.0503Z" fill="#AEF9D6"/>
<path d="M57.5352 65.3888L73.6921 36.0503H75.1224L59.1114 65.3742L75.2829 94.4797H73.7504L57.5352 65.3888Z" fill="#AEF9D6"/>
<path d="M63.4609 65.3888L79.6178 36.0503H81.0482L65.0372 65.3742L81.2087 94.4797H79.6762L63.4609 65.3888Z" fill="#AEF9D6"/>
<path d="M69.3867 65.3888L85.5436 36.0503H86.9739L70.963 65.3742L87.1345 94.4797H85.602L69.3867 65.3888Z" fill="#AEF9D6"/>
<path d="M75.3125 65.3888L91.4694 36.0503H92.8997L76.8888 65.3742L93.0749 94.4797H91.5278L75.3125 65.3888Z" fill="#AEF9D6"/>
<path d="M81.2373 65.3888L97.3942 36.0503H98.8245L82.8136 65.3742L98.9997 94.4797H97.4526L81.2373 65.3888Z" fill="#AEF9D6"/>
<path d="M36.1821 104.745C36.0946 104.658 36.0508 104.541 36.0508 104.425V98.1056C36.0508 97.9745 36.0946 97.8581 36.1821 97.7707C36.2697 97.6833 36.3865 97.6396 36.5032 97.6396C36.6346 97.6396 36.7514 97.6833 36.8389 97.7707C36.9265 97.8581 36.9703 97.9745 36.9703 98.1056V100.828H40.8526V98.1056C40.8526 97.9745 40.8964 97.8581 40.984 97.7707C41.0715 97.6833 41.1883 97.6396 41.3051 97.6396C41.4364 97.6396 41.5532 97.6833 41.6407 97.7707C41.7283 97.8581 41.7721 97.9745 41.7721 98.1056V104.425C41.7721 104.556 41.7283 104.658 41.6407 104.745C41.5532 104.832 41.4364 104.876 41.3051 104.876C41.1737 104.876 41.0715 104.832 40.984 104.745C40.8964 104.658 40.8526 104.541 40.8526 104.425V101.702H36.9849V104.425C36.9849 104.556 36.9411 104.658 36.8535 104.745C36.7659 104.832 36.6492 104.876 36.5178 104.876C36.3865 104.891 36.2697 104.847 36.1821 104.745Z" fill="white"/>
<path d="M47.523 104.745C47.4354 104.658 47.3916 104.541 47.3916 104.425C47.3916 104.366 47.4062 104.308 47.45 104.221L50.0625 98.0619C50.1209 97.9454 50.1939 97.8435 50.296 97.7561C50.3982 97.6833 50.515 97.6396 50.6609 97.6396H50.7631C50.909 97.6396 51.0258 97.6833 51.128 97.7561C51.2301 97.8289 51.3031 97.9309 51.3615 98.0619L53.974 104.221C54.0032 104.308 54.0324 104.366 54.0324 104.425C54.0324 104.556 53.9886 104.658 53.9011 104.745C53.8135 104.832 53.7113 104.876 53.5654 104.876C53.4632 104.876 53.3756 104.847 53.3027 104.803C53.2297 104.745 53.1713 104.687 53.1275 104.599L52.4561 102.998H48.9679L48.2965 104.599C48.2527 104.687 48.1943 104.76 48.1214 104.803C48.0484 104.861 47.9608 104.876 47.8586 104.876C47.7127 104.891 47.6105 104.847 47.523 104.745ZM49.3182 102.153H52.0913L50.7047 98.8336L49.3182 102.153Z" fill="white"/>
<path d="M60.7895 104.498C60.2495 104.206 59.8116 103.77 59.5051 103.216C59.1986 102.663 59.0381 102.008 59.0381 101.265C59.0381 100.523 59.1986 99.8675 59.5051 99.3142C59.8116 98.7609 60.2495 98.3387 60.7895 98.0329C61.3295 97.7417 61.9425 97.5815 62.6285 97.5815C63.0956 97.5815 63.5042 97.6398 63.8691 97.7417C64.234 97.8582 64.5989 98.0038 64.9638 98.2076C65.1097 98.295 65.1827 98.426 65.1827 98.6008C65.1827 98.7027 65.1389 98.79 65.0659 98.8774C64.9929 98.9502 64.8908 98.9939 64.774 98.9939C64.701 98.9939 64.6427 98.9793 64.5843 98.9502C64.2778 98.79 63.9859 98.6736 63.7086 98.5862C63.4167 98.4988 63.0956 98.4697 62.7161 98.4697C62.1323 98.4697 61.6214 98.5862 61.2128 98.8337C60.8041 99.0812 60.483 99.4016 60.2787 99.8238C60.0743 100.246 59.9722 100.712 59.9722 101.251C59.9722 101.789 60.0743 102.255 60.2787 102.678C60.483 103.1 60.8041 103.435 61.2128 103.668C61.6214 103.915 62.1323 104.032 62.7161 104.032C63.0956 104.032 63.4167 103.988 63.7086 103.915C64.0005 103.828 64.2924 103.711 64.5843 103.551C64.6427 103.522 64.701 103.508 64.774 103.508C64.8908 103.508 64.9929 103.551 65.0659 103.624C65.1389 103.697 65.1827 103.784 65.1827 103.901C65.1827 104.075 65.1097 104.206 64.9638 104.294C64.5989 104.498 64.234 104.658 63.8691 104.76C63.5042 104.862 63.081 104.92 62.6285 104.92C61.9425 104.934 61.3295 104.789 60.7895 104.498Z" fill="white"/>
<path d="M70.8023 104.745C70.7147 104.658 70.6709 104.542 70.6709 104.425V98.106C70.6709 97.9749 70.7147 97.8584 70.8023 97.7711C70.8898 97.6837 71.0066 97.64 71.1234 97.64C71.2547 97.64 71.3715 97.6837 71.459 97.7711C71.5466 97.8584 71.5904 97.9749 71.5904 98.106V101.353L75.0933 97.7856C75.1954 97.6837 75.3122 97.6255 75.4435 97.6255C75.5603 97.6255 75.6625 97.6692 75.75 97.742C75.8376 97.8148 75.8814 97.9167 75.8814 98.0332C75.8814 98.1642 75.8376 98.2807 75.7646 98.3535L73.4148 100.727L76.1295 104.148C76.2025 104.25 76.2463 104.338 76.2463 104.44C76.2463 104.556 76.2171 104.673 76.1295 104.76C76.0419 104.847 75.9252 104.891 75.8084 104.891C75.6479 104.891 75.5311 104.833 75.4435 104.702L72.8018 101.338L71.6342 102.518V104.425C71.6342 104.556 71.5904 104.658 71.5028 104.745C71.4153 104.833 71.2985 104.876 71.1671 104.876C71.0066 104.891 70.8898 104.847 70.8023 104.745Z" fill="white"/>
<path d="M81.2378 104.76C81.1502 104.673 81.1064 104.571 81.1064 104.454C81.1064 104.352 81.1356 104.25 81.194 104.163L83.5584 101.251L81.2086 98.368C81.1502 98.2807 81.121 98.1933 81.121 98.0768C81.121 97.9458 81.1648 97.8439 81.2524 97.7565C81.34 97.6692 81.4421 97.6255 81.5735 97.6255C81.6465 97.6255 81.7194 97.64 81.7924 97.6837C81.8654 97.7128 81.9092 97.7565 81.953 97.8148L84.113 100.552L86.2731 97.7856C86.3461 97.6837 86.4629 97.6255 86.6088 97.6255C86.7256 97.6255 86.8423 97.6692 86.9299 97.7565C87.0175 97.8439 87.0613 97.9458 87.0613 98.0623C87.0613 98.1642 87.0321 98.237 86.9737 98.3244L84.6093 101.236L86.9737 104.148C87.0321 104.221 87.0613 104.309 87.0613 104.41C87.0613 104.541 87.0175 104.643 86.9299 104.731C86.8423 104.818 86.7402 104.862 86.5942 104.862C86.4483 104.862 86.3169 104.804 86.2293 104.673L84.0401 101.921L81.88 104.687C81.7778 104.804 81.6611 104.876 81.5151 104.876C81.4129 104.891 81.3254 104.847 81.2378 104.76Z" fill="#AEF9D6"/>
<path d="M92.4761 104.76C92.3885 104.673 92.3447 104.571 92.3447 104.454C92.3447 104.352 92.3739 104.25 92.4323 104.163L94.7967 101.251L92.4469 98.368C92.3885 98.2807 92.3593 98.1933 92.3593 98.0768C92.3593 97.9458 92.4031 97.8439 92.4907 97.7565C92.5783 97.6692 92.6804 97.6255 92.8118 97.6255C92.8848 97.6255 92.9577 97.64 93.0307 97.6837C93.1037 97.7128 93.1475 97.7565 93.1913 97.8148L95.3514 100.552L97.5114 97.7856C97.5844 97.6837 97.7012 97.6255 97.8471 97.6255C97.9639 97.6255 98.0807 97.6692 98.1682 97.7565C98.2558 97.8439 98.2996 97.9458 98.2996 98.0623C98.2996 98.1642 98.2704 98.237 98.212 98.3244L95.8476 101.236L98.212 104.148C98.2704 104.221 98.2996 104.309 98.2996 104.41C98.2996 104.541 98.2558 104.643 98.1682 104.731C98.0807 104.818 97.9785 104.862 97.8325 104.862C97.6866 104.862 97.5552 104.804 97.4677 104.673L95.2784 101.921L93.1183 104.687C93.0161 104.804 92.8993 104.876 92.7534 104.876C92.6658 104.891 92.5637 104.847 92.4761 104.76Z" fill="#AEF9D6"/>
</g>
<defs>
<clipPath id="clip0">
<rect width="64" height="69" fill="white" transform="translate(35 35.9341)"/>
</clipPath>
</defs>
</svg>
