<svg width="134" height="291" viewBox="0 0 134 291" fill="none" xmlns="http://www.w3.org/2000/svg">
<path d="M67 286.959C101.794 286.959 130 258.986 130 224.479C130 189.973 101.794 162 67 162C32.2061 162 4 189.973 4 224.479C4 258.986 32.2061 286.959 67 286.959Z" stroke="#AEF9D6" stroke-width="7" stroke-miterlimit="10"/>
<g clip-path="url(#clip0)">
<path d="M36.5909 194.05H35L51.3612 223.389L35.3649 252.48H36.8244L52.2661 224.568L54.3678 228.368L41.13 252.48H42.6333L55.1414 229.693L57.3891 233.756L47.0265 252.48H48.4422L58.1042 235.051L60.1621 238.764L53.1418 252.48H54.6014L60.8919 240.118L63.0958 244.079L58.761 252.48H60.1913L63.8109 245.374L66.044 249.364L64.4823 252.48H66.0002L66.7738 250.776L67.7225 252.48H69.1966L53.1127 223.389L69.1966 194.05H67.7079L66.6862 195.929L65.7667 194.05H64.2926L65.9272 197.21L63.6942 201.185L59.9724 194.05H58.5859L62.9644 202.539L60.8773 206.426L54.4554 194.05H52.8937L60.0892 207.882L57.9875 211.624L48.2962 194.05H46.7345L57.2869 212.862L55.0538 216.953L42.429 194.05H40.9257L54.2949 218.249L52.091 222.122L36.5909 194.05Z" fill="#AEF9D6"/>
<path d="M57.5352 223.389L73.6921 194.05H75.1224L59.1114 223.374L75.2829 252.48H73.7504L57.5352 223.389Z" fill="#AEF9D6"/>
<path d="M63.4609 223.389L79.6178 194.05H81.0482L65.0372 223.374L81.2087 252.48H79.6762L63.4609 223.389Z" fill="#AEF9D6"/>
<path d="M69.3867 223.389L85.5436 194.05H86.9739L70.963 223.374L87.1345 252.48H85.602L69.3867 223.389Z" fill="#AEF9D6"/>
<path d="M75.312 223.389L91.4689 194.05H92.8992L76.8883 223.374L93.0744 252.48H91.5273L75.312 223.389Z" fill="#AEF9D6"/>
<path d="M81.2378 223.389L97.3947 194.05H98.825L82.8141 223.374L99.0002 252.48H97.4531L81.2378 223.389Z" fill="#AEF9D6"/>
<path d="M36.1821 262.745C36.0946 262.658 36.0508 262.541 36.0508 262.425V256.106C36.0508 255.975 36.0946 255.858 36.1821 255.771C36.2697 255.683 36.3865 255.64 36.5032 255.64C36.6346 255.64 36.7514 255.683 36.8389 255.771C36.9265 255.858 36.9703 255.975 36.9703 256.106V258.828H40.8526V256.106C40.8526 255.975 40.8964 255.858 40.984 255.771C41.0715 255.683 41.1883 255.64 41.3051 255.64C41.4364 255.64 41.5532 255.683 41.6407 255.771C41.7283 255.858 41.7721 255.975 41.7721 256.106V262.425C41.7721 262.556 41.7283 262.658 41.6407 262.745C41.5532 262.832 41.4364 262.876 41.3051 262.876C41.1737 262.876 41.0715 262.832 40.984 262.745C40.8964 262.658 40.8526 262.541 40.8526 262.425V259.702H36.9849V262.425C36.9849 262.556 36.9411 262.658 36.8535 262.745C36.7659 262.832 36.6492 262.876 36.5178 262.876C36.3865 262.891 36.2697 262.847 36.1821 262.745Z" fill="white"/>
<path d="M47.5225 262.745C47.4349 262.658 47.3911 262.541 47.3911 262.425C47.3911 262.366 47.4057 262.308 47.4495 262.221L50.062 256.062C50.1204 255.945 50.1934 255.843 50.2956 255.756C50.3977 255.683 50.5145 255.64 50.6604 255.64H50.7626C50.9086 255.64 51.0253 255.683 51.1275 255.756C51.2297 255.829 51.3026 255.931 51.361 256.062L53.9735 262.221C54.0027 262.308 54.0319 262.366 54.0319 262.425C54.0319 262.556 53.9881 262.658 53.9006 262.745C53.813 262.832 53.7108 262.876 53.5649 262.876C53.4627 262.876 53.3751 262.847 53.3022 262.803C53.2292 262.745 53.1708 262.687 53.127 262.599L52.4556 260.998H48.9674L48.296 262.599C48.2522 262.687 48.1938 262.76 48.1209 262.803C48.0479 262.861 47.9603 262.876 47.8582 262.876C47.7122 262.891 47.61 262.847 47.5225 262.745ZM49.3177 260.153H52.0908L50.7042 256.834L49.3177 260.153Z" fill="white"/>
<path d="M60.7895 262.498C60.2495 262.206 59.8116 261.77 59.5051 261.216C59.1986 260.663 59.0381 260.008 59.0381 259.265C59.0381 258.523 59.1986 257.867 59.5051 257.314C59.8116 256.761 60.2495 256.339 60.7895 256.033C61.3295 255.742 61.9425 255.582 62.6285 255.582C63.0956 255.582 63.5042 255.64 63.8691 255.742C64.234 255.858 64.5989 256.004 64.9638 256.208C65.1097 256.295 65.1827 256.426 65.1827 256.601C65.1827 256.703 65.1389 256.79 65.0659 256.877C64.9929 256.95 64.8908 256.994 64.774 256.994C64.701 256.994 64.6427 256.979 64.5843 256.95C64.2778 256.79 63.9859 256.674 63.7086 256.586C63.4167 256.499 63.0956 256.47 62.7161 256.47C62.1323 256.47 61.6214 256.586 61.2128 256.834C60.8041 257.081 60.483 257.402 60.2787 257.824C60.0743 258.246 59.9722 258.712 59.9722 259.251C59.9722 259.789 60.0743 260.255 60.2787 260.678C60.483 261.1 60.8041 261.435 61.2128 261.668C61.6214 261.915 62.1323 262.032 62.7161 262.032C63.0956 262.032 63.4167 261.988 63.7086 261.915C64.0005 261.828 64.2924 261.711 64.5843 261.551C64.6427 261.522 64.701 261.508 64.774 261.508C64.8908 261.508 64.9929 261.551 65.0659 261.624C65.1389 261.697 65.1827 261.784 65.1827 261.901C65.1827 262.075 65.1097 262.206 64.9638 262.294C64.5989 262.498 64.234 262.658 63.8691 262.76C63.5042 262.862 63.081 262.92 62.6285 262.92C61.9425 262.934 61.3295 262.789 60.7895 262.498Z" fill="white"/>
<path d="M70.8023 262.745C70.7147 262.658 70.6709 262.542 70.6709 262.425V256.106C70.6709 255.975 70.7147 255.858 70.8023 255.771C70.8898 255.684 71.0066 255.64 71.1234 255.64C71.2547 255.64 71.3715 255.684 71.459 255.771C71.5466 255.858 71.5904 255.975 71.5904 256.106V259.353L75.0933 255.786C75.1954 255.684 75.3122 255.625 75.4435 255.625C75.5603 255.625 75.6625 255.669 75.75 255.742C75.8376 255.815 75.8814 255.917 75.8814 256.033C75.8814 256.164 75.8376 256.281 75.7646 256.353L73.4148 258.727L76.1295 262.148C76.2025 262.25 76.2463 262.338 76.2463 262.44C76.2463 262.556 76.2171 262.673 76.1295 262.76C76.0419 262.847 75.9252 262.891 75.8084 262.891C75.6479 262.891 75.5311 262.833 75.4435 262.702L72.8018 259.338L71.6342 260.518V262.425C71.6342 262.556 71.5904 262.658 71.5028 262.745C71.4153 262.833 71.2985 262.876 71.1671 262.876C71.0066 262.891 70.8898 262.847 70.8023 262.745Z" fill="white"/>
<path d="M81.2373 262.76C81.1497 262.673 81.106 262.571 81.106 262.454C81.106 262.352 81.1351 262.25 81.1935 262.163L83.5579 259.251L81.2081 256.368C81.1497 256.281 81.1206 256.193 81.1206 256.077C81.1206 255.946 81.1643 255.844 81.2519 255.757C81.3395 255.669 81.4416 255.625 81.573 255.625C81.646 255.625 81.719 255.64 81.7919 255.684C81.8649 255.713 81.9087 255.757 81.9525 255.815L84.1126 258.552L86.2726 255.786C86.3456 255.684 86.4624 255.625 86.6083 255.625C86.7251 255.625 86.8418 255.669 86.9294 255.757C87.017 255.844 87.0608 255.946 87.0608 256.062C87.0608 256.164 87.0316 256.237 86.9732 256.324L84.6088 259.236L86.9732 262.148C87.0316 262.221 87.0608 262.309 87.0608 262.41C87.0608 262.541 87.017 262.643 86.9294 262.731C86.8418 262.818 86.7397 262.862 86.5937 262.862C86.4478 262.862 86.3164 262.804 86.2289 262.673L84.0396 259.921L81.8795 262.687C81.7773 262.804 81.6606 262.876 81.5146 262.876C81.4125 262.891 81.3249 262.847 81.2373 262.76Z" fill="#AEF9D6"/>
<path d="M92.4761 262.76C92.3885 262.673 92.3447 262.571 92.3447 262.454C92.3447 262.352 92.3739 262.25 92.4323 262.163L94.7967 259.251L92.4469 256.368C92.3885 256.281 92.3593 256.193 92.3593 256.077C92.3593 255.946 92.4031 255.844 92.4907 255.757C92.5783 255.669 92.6804 255.625 92.8118 255.625C92.8848 255.625 92.9577 255.64 93.0307 255.684C93.1037 255.713 93.1475 255.757 93.1913 255.815L95.3514 258.552L97.5114 255.786C97.5844 255.684 97.7012 255.625 97.8471 255.625C97.9639 255.625 98.0807 255.669 98.1682 255.757C98.2558 255.844 98.2996 255.946 98.2996 256.062C98.2996 256.164 98.2704 256.237 98.212 256.324L95.8476 259.236L98.212 262.148C98.2704 262.221 98.2996 262.309 98.2996 262.41C98.2996 262.541 98.2558 262.643 98.1682 262.731C98.0807 262.818 97.9785 262.862 97.8325 262.862C97.6866 262.862 97.5552 262.804 97.4677 262.673L95.2784 259.921L93.1183 262.687C93.0161 262.804 92.8993 262.876 92.7534 262.876C92.6658 262.891 92.5637 262.847 92.4761 262.76Z" fill="#AEF9D6"/>
</g>
<path d="M51.4706 83.4033C50.5817 97.6739 50.732 110.802 59.3349 122.412C64.7781 129.758 78.7272 142.485 73.1695 153.387C71.7572 156.157 63.9458 160.716 65.8886 161.959C67.8313 163.202 79.5282 161.129 80.9408 158.358C86.6882 147.083 80.5151 134.547 73.8537 125.553C69.6242 119.842 64.1613 115.036 61.7299 107.97C59.051 100.183 59.9659 91.5065 60.4706 83.4033C60.8647 77.0768 51.8631 77.1035 51.4706 83.4033Z" fill="#35CC1F"/>
<path d="M43.3911 112.802C47.0207 116.731 53.733 117.858 58.5601 118.912C64.2164 120.147 66.6369 110.656 60.9527 109.415C58.8194 108.949 56.7037 108.409 54.6148 107.742C53.2074 107.293 50.7844 106.952 49.7551 105.838C45.6332 101.376 39.2655 108.336 43.3911 112.802Z" fill="#35CC1F"/>
<path d="M54.5599 127.046C56.8067 126.837 59.0529 126.773 61.3066 126.854C63.6616 126.94 65.9129 124.528 65.8066 121.93C65.6944 119.189 63.8297 117.097 61.3066 117.006C59.0528 116.924 56.8067 116.988 54.5599 117.197C52.2205 117.415 49.9446 119.306 50.0599 122.122C50.1614 124.602 52.0481 127.28 54.5599 127.046Z" fill="#35CC1F"/>
<path d="M73.981 121.924C74.7085 118.884 75.5408 115.881 76.4793 112.911C77.2734 110.397 75.5723 107.525 73.3363 106.853C70.8623 106.109 68.5978 107.77 67.8008 110.293C66.8623 113.263 66.03 116.266 65.3025 119.306C64.6872 121.877 66.0819 124.653 68.4454 125.364C70.7736 126.064 73.3629 124.507 73.981 121.924Z" fill="#35CC1F"/>
<path d="M80.9152 134.778C81.7869 131.985 83.2497 129.479 85.1512 127.345C89.1971 122.804 82.8393 115.833 78.7873 120.381C75.7817 123.754 73.6258 127.709 72.2367 132.16C71.4513 134.677 73.1375 137.544 75.3797 138.218C77.8466 138.96 80.1269 137.304 80.9152 134.778Z" fill="#35CC1F"/>
<path d="M81.3132 148.325C84.943 145.565 88.7437 143.138 92.7256 141.038C94.9147 139.883 95.497 136.465 94.34 134.3C93.0316 131.852 90.3804 131.375 88.1831 132.534C84.2012 134.634 80.4005 137.061 76.7707 139.821C74.7776 141.337 73.8612 144.135 75.1563 146.558C76.3106 148.718 79.3076 149.85 81.3132 148.325Z" fill="#35CC1F"/>
<path d="M75.2656 160.374C78.2122 159.336 81.185 158.648 84.2749 158.434C86.6995 158.267 88.7693 156.273 88.7654 153.497C88.7618 150.957 86.6899 148.415 84.2536 148.583C80.4047 148.849 76.6037 149.566 72.9313 150.861C70.6205 151.675 69.0988 154.237 69.7517 156.895C70.3597 159.37 72.9423 161.193 75.2656 160.374Z" fill="#35CC1F"/>
<path d="M59.852 8.06941C59.3956 56.8801 59.3986 105.694 59.7543 154.505C59.8313 165.063 74.8315 165.088 74.7543 154.505C74.3986 105.694 74.3956 56.8801 74.852 8.06941C74.9508 -2.49627 59.9508 -2.50443 59.852 8.06941Z" fill="#AEF9D6"/>
<path d="M76.5826 7.68855C73.617 12.0319 71.0006 16.6054 68.7259 21.4221C66.0708 27.0446 73.8344 32.0319 76.4972 26.3931C78.7718 21.5763 81.3882 17.0028 84.3538 12.6595C85.8096 10.5274 84.6702 7.15769 82.7395 5.9219C80.442 4.45138 78.0419 5.5514 76.5826 7.68855Z" fill="#35CC1F"/>
<path d="M74.8611 29.2348C72.576 24.1422 70.291 19.0497 68.006 13.9571C65.4534 8.26816 57.6888 13.2538 60.2348 18.928C62.5198 24.0206 64.8048 29.1131 67.0898 34.2057C69.6425 39.8946 77.4071 34.909 74.8611 29.2348Z" fill="#35CC1F"/>
<path d="M69.8667 41.5582C66.8009 37.2707 63.7351 32.9833 60.6692 28.6958C59.1702 26.5995 55.877 26.9758 54.3053 28.6958C52.414 30.7655 52.8024 33.5583 54.3053 35.66C57.3711 39.9475 60.437 44.2349 63.5028 48.5224C65.0018 50.6187 68.295 50.2424 69.8667 48.5224C71.758 46.4527 71.3697 43.66 69.8667 41.5582Z" fill="#35CC1F"/>
<path d="M69.8982 46.3148C74.3217 42.3721 78.5883 38.2371 82.6994 33.9084C86.881 29.5053 80.512 22.5464 76.3354 26.9442C72.2244 31.2729 67.9578 35.4079 63.5342 39.3506C61.6484 41.0313 61.939 44.569 63.5342 46.3148C65.3988 48.3552 68.0077 47.9997 69.8982 46.3148Z" fill="#35CC1F"/>
<path d="M60.0928 57.9692C58.4264 56.111 56.9296 53.7197 56.1417 51.537C55.2494 49.065 53.1298 47.3386 50.6062 48.0976C48.4551 48.7445 46.5652 51.6676 47.4632 54.1552C48.927 58.2102 50.9252 61.8072 53.7288 64.9334C57.7924 69.4645 64.1548 62.4986 60.0928 57.9692Z" fill="#35CC1F"/>
<path d="M61.4712 67.2504C66.7804 63.4226 71.8745 59.2657 76.7722 54.8299C78.6592 53.1207 78.3583 49.6398 76.7722 47.8657C74.9398 45.816 72.27 46.1794 70.4082 47.8657C66.0982 51.7692 61.6004 55.3781 56.9287 58.7462C52.1125 62.2186 56.6158 70.751 61.4712 67.2504Z" fill="#35CC1F"/>
<path d="M56.6039 75.7363C54.4064 71.8687 52.2089 68.001 50.0114 64.1333C46.9593 58.7617 39.1701 63.701 42.2401 69.1042C44.4376 72.9719 46.6352 76.8396 48.8327 80.7072C51.8847 86.0789 59.6739 81.1396 56.6039 75.7363Z" fill="#35CC1F"/>
<path d="M59.1279 84.4657C61.5967 82.5982 64.0655 80.7307 66.5343 78.8631C68.5309 77.3527 69.4417 74.5447 68.1487 72.1255C66.992 69.9616 64.0007 68.8392 61.9918 70.3589C59.523 72.2264 57.0542 74.094 54.5854 75.9615C52.5888 77.4719 51.678 80.2799 52.971 82.6991C54.1277 84.863 57.119 85.9854 59.1279 84.4657Z" fill="#35CC1F"/>
<path d="M55.8776 96.8233C52.4753 93.781 49.0729 90.7387 45.6705 87.6964C43.7901 86.0149 41.1463 85.6832 39.3066 87.6964C37.7204 89.4322 37.4152 92.9694 39.3066 94.6606C42.709 97.7029 46.1113 100.745 49.5137 103.787C51.3941 105.469 54.038 105.801 55.8776 103.787C57.4638 102.052 57.769 98.5145 55.8776 96.8233Z" fill="#35CC1F"/>
<path d="M61.7971 95.4805C61.6869 95.6456 61.1895 96.2695 61.5855 95.7819C61.7343 95.5989 61.8799 95.4153 62.0359 95.2396C62.3147 94.9255 62.6555 94.6683 62.9269 94.3519C62.7942 94.5065 62.158 94.9419 62.6633 94.6006C62.8153 94.4979 62.9622 94.3867 63.1156 94.2863C63.5 94.0347 63.9002 93.8214 64.3102 93.6255C65.2738 93.1651 66.1125 91.7386 66.3782 90.6825C66.6749 89.5037 66.5409 87.9341 65.9246 86.8879C65.3051 85.8365 64.3827 84.9109 63.2353 84.6249C61.979 84.3117 60.9384 84.5619 59.7677 85.1213C57.3805 86.2619 55.5403 88.2403 54.0259 90.5096C53.3778 91.4807 53.2931 93.1948 53.5722 94.3041C53.8597 95.4464 54.6667 96.6843 55.6402 97.2471C56.6846 97.851 57.9498 98.1536 59.1078 97.7436C60.2859 97.3263 61.0697 96.5704 61.7971 95.4805Z" fill="#35CC1F"/>
<path d="M67.8885 8.75455C67.8885 9.84887 66.7902 39.7733 59.5969 55.1237C56.1959 62.3814 51.3447 68.9046 49.2863 76.8509C47.1788 84.9869 47.7883 93.5663 49.558 101.693C50.9001 107.856 59.5805 105.247 58.2366 99.0751C56.1808 89.6345 56.5092 80.6118 60.9678 72.0668C64.6772 64.9578 68.491 58.2339 71.2843 50.5913C76.9187 35.1754 78.8885 7.66023 71.8885 0C62.8885 0 70.8885 0 60.8885 0C60.5176 0.877567 64.8885 4.37728 65.8885 5.47159C65.8885 5.47159 67.8885 7.66023 67.8885 8.75455Z" fill="#35CC1F"/>
<path d="M60.7672 5.12912C61.5355 4.01318 63.9813 4.23737 65.0927 4.29641C67.0226 4.39891 67.0177 1.11569 65.0927 1.01345C62.5796 0.879965 59.792 1.12607 58.1768 3.47214C57.0149 5.15988 59.6184 6.79775 60.7672 5.12912Z" fill="#35CC1F"/>
<path d="M60.1272 3.32199C60.4824 3.23699 60.7934 3.26185 61.2382 3.41434C61.9871 3.67111 62.9077 3.11147 63.0833 2.26786C63.2692 1.37502 62.8376 0.523597 62.0357 0.248649C61.1447 -0.0568301 60.2366 -0.0606821 59.3297 0.156299C58.538 0.345715 58.0756 1.3536 58.282 2.17551C58.5066 3.06966 59.3331 3.51196 60.1272 3.32199Z" fill="#35CC1F"/>
<defs>
<clipPath id="clip0">
<rect width="64" height="69" fill="white" transform="translate(35 193.934)"/>
</clipPath>
</defs>
</svg>
