<svg viewBox="0 0 134 134" fill="none" xmlns="http://www.w3.org/2000/svg">
<g id="SYMBOL">
<path id="Vector" d="M67 130C101.794 130 130 101.794 130 67C130 32.2061 101.794 4 67 4C32.2061 4 4 32.2061 4 67C4 101.794 32.2061 130 67 130Z" stroke="#AEF9D6" stroke-width="7" stroke-miterlimit="10"/>
<g id="Group" data-entrance="rotate-in" data-entrance-duration="500">
<path id="Vector_2"  d="M79.0894 77.1548C88.5742 74.1775 93.8495 64.075 90.8722 54.5902C87.8949 45.1054 77.7924 39.83 68.3075 42.8073C58.8227 45.7846 53.5474 55.8872 56.5247 65.372C59.502 74.8568 69.6046 80.1322 79.0894 77.1548Z" stroke="#AEF9D6" stroke-width="7" stroke-miterlimit="10"/>

<path id="Vector_3" d="M52.9436 96.3887C55.4949 93.7338 68.6994 79.3204 66.1726 76.4054C65.4065 75.505 64.1757 75.1782 63.0509 74.6756C62.301 74.3405 61.6571 73.8295 61.0132 73.3185C60.785 73.105 60.5568 72.8914 60.1818 72.7238C58.1604 71.9322 47.1403 87.6566 45.5346 89.7295C44.3527 91.0988 43.2116 92.598 42.9671 94.3861C42.7225 96.1743 43.7332 97.8537 45.2737 98.6537C46.8142 99.4537 49.072 99.458 50.7103 98.5159C51.4683 97.8501 52.2264 97.1843 52.9436 96.3887Z" fill="#AEF9D6"/>
</g>
</g>
</svg>
