<svg viewBox="0 0 134 134" fill="none" xmlns="http://www.w3.org/2000/svg">
<path d="M67 130C101.794 130 130 101.794 130 67C130 32.2061 101.794 4 67 4C32.2061 4 4 32.2061 4 67C4 101.794 32.2061 130 67 130Z" stroke="#AEF9D6" stroke-width="7" stroke-miterlimit="10"/>
<g data-entrance="rotate-in" data-entrance-duration="500">
<path d="M73.1266 46.3778C64.6586 56.0712 56.1722 65.6018 47.7043 75.2952C45.6641 77.6687 49.4685 80.7014 51.5087 78.328C59.9767 68.6345 68.463 59.104 76.9309 49.4106C78.9711 47.0371 75.1668 44.0043 73.1266 46.3778Z" fill="#AEF9D6"/>
<path d="M86.6607 58.204C78.1927 67.8974 69.7064 77.428 61.2385 87.1215C59.1983 89.4949 63.0026 92.5277 65.0428 90.1542C73.5108 80.4608 81.9971 70.9301 90.4651 61.2367C92.5053 58.8632 88.7009 55.8305 86.6607 58.204Z" fill="#AEF9D6"/>
<path d="M77.0565 49.0668C78.3562 47.4363 79.7636 45.2991 81.4441 44.1203C84.0461 42.3429 86.1648 43.5875 88.5199 45.4649C90.3499 47.0719 92.2167 49.0044 91.5339 51.7192C90.9588 53.9273 88.8451 55.6496 87.3826 57.2985C85.3424 59.6719 89.1468 62.7046 91.187 60.3311C93.6788 57.577 96.3334 54.8045 96.7248 50.9685C96.9533 47.1509 94.4512 43.9712 91.7154 41.6422C89.1608 39.4576 85.6478 37.546 82.2844 38.4202C78.4326 39.3495 75.8699 42.936 73.3965 45.8529C71.2119 48.4075 75.0163 51.4402 77.0565 49.0668Z" fill="#AEF9D6"/>
<path d="M62.1419 86.3602C58.7259 88.2295 55.2916 89.936 51.8388 91.4798C50.5916 92.1151 47.8425 92.5903 46.9577 93.5144C46.7949 93.5328 46.4877 93.7323 46.325 93.7507C47.0496 94.3284 47.7743 94.906 48.5173 95.6465C48.6801 95.6281 48.5698 94.6514 48.5514 94.4886C49.5414 91.5742 49.6255 87.9377 50.1087 84.9157C50.6471 82.382 51.0226 79.8666 51.7238 77.3146C52.5326 74.2557 47.6648 73.4863 46.856 76.5451C46.0472 79.6039 45.4195 82.8071 44.7919 86.0104C44.1458 89.0508 42.7961 93.1598 43.4708 96.2161C44.7124 102.835 60.7238 92.7851 63.8326 91.1153C66.7786 89.4639 64.9434 84.89 62.1419 86.3602Z" fill="#AEF9D6"/>
<path d="M50.2428 78.8C52.703 78.6872 55.1632 78.5744 57.6234 78.4616C57.0615 77.8655 56.3185 77.1251 55.7567 76.5291C55.6699 78.6821 55.4389 81.0162 55.3521 83.1692C55.318 84.3271 56.0794 85.2303 57.2189 85.1017C59.4979 84.8445 61.7769 84.5872 64.2004 84.1489C63.6385 83.5528 62.8955 82.8124 62.3337 82.2164C62.1734 83.7182 62.176 85.2016 62.0158 86.7035C61.7663 88.8748 65.2951 89.4657 65.3818 87.3128C65.542 85.8109 65.5395 84.3275 65.6997 82.8256C65.7522 81.8305 64.9541 80.6017 63.8329 80.8931C61.5723 81.3131 59.2932 81.5703 56.8514 81.8459C57.4133 82.442 58.1563 83.1824 58.7182 83.7784C58.8049 81.6254 59.0359 79.2913 59.1227 77.1383C59.1569 75.9804 58.3955 75.0772 57.2559 75.2058C54.7957 75.3186 52.3355 75.4315 49.8753 75.5443C47.5595 75.4759 47.9454 78.8945 50.2428 78.8Z" fill="#AEF9D6"/>
<path d="M70.826 55.2099C74.486 58.4238 78.146 61.6377 81.806 64.8515C83.4548 66.3141 85.6211 63.5966 83.9723 62.1341C80.3123 58.9202 76.6523 55.7064 72.9923 52.4925C71.3434 51.03 69.1772 53.7474 70.826 55.2099Z" fill="#AEF9D6"/>
<path d="M73.872 48.6019C78.4378 52.5379 82.8408 56.4923 87.4066 60.4283C89.0554 61.8908 91.2217 59.1734 89.5728 57.7108C85.007 53.7748 80.604 49.8204 76.0382 45.8844C74.2266 44.4403 72.2232 47.1393 73.872 48.6019Z" fill="#AEF9D6"/>
<g>
</svg>
