<svg viewBox="0 0 134 138" fill="none" xmlns="http://www.w3.org/2000/svg">
<g id="SCHEDULE__SYMBOL">
<path id="Vector"  data-entrance="rotate-in" data-entrance-duration="500" d="M19.8729 82.4574C26.2547 82.4574 34.9275 84.4778 40.6547 80.6055C47.2002 76.228 49.1638 65.1159 51.9456 58.213C49.6547 58.5497 47.5274 58.8864 45.2365 59.0548C51.4547 71.5137 55.8728 84.8145 60.1274 98.1152C61.2728 101.483 66.3455 101.819 67.1637 98.1152C71.4183 81.2788 75.6729 64.4425 79.9274 47.6061C77.4729 47.2694 75.1819 46.9327 72.7274 46.5959C73.3819 53.6672 76.982 60.9069 79.1093 67.6414C81.7274 75.7229 83.2001 84.3094 86.6365 92.0542C87.7819 94.5796 91.8729 94.5796 93.0183 92.0542C94.4911 89.0236 95.6365 85.9931 96.782 82.7942C97.4365 80.6054 97.4365 79.7636 99.2365 78.7534C101.036 77.7432 105.127 78.4167 106.927 78.5851C111.673 78.9218 111.673 71.3454 106.927 71.0087C102.673 70.672 96.1274 69.8301 92.691 73.5342C89.4183 77.0698 88.7637 84.1411 86.8001 88.3501C88.9274 88.3501 91.0547 88.3501 93.1819 88.3501C90.0728 81.2789 88.7638 73.029 86.4729 65.7894C84.5093 59.8966 80.9092 52.9937 80.4183 46.7643C80.0911 42.7235 74.3637 41.3767 73.2183 45.7541C68.9637 62.5905 64.7092 79.4269 60.4547 96.2633C62.7456 96.2633 65.2001 96.2633 67.491 96.2633C62.9092 82.2891 58.3274 68.4832 51.782 55.5192C50.1456 52.3203 46.2183 53.6672 45.0728 56.361C42.7819 62.0854 41.3092 72.6923 35.0911 75.0494C30.8365 76.733 24.4547 75.0494 20.0365 75.0494C15.1274 74.881 15.1274 82.4574 19.8729 82.4574Z" fill="#AEF9D6"/>
<path id="Vector_2" d="M67 133.64C101.794 133.64 130 104.619 130 68.82C130 33.0209 101.794 4 67 4C32.2061 4 4 33.0209 4 68.82C4 104.619 32.2061 133.64 67 133.64Z" stroke="#AEF9D6" stroke-width="7" stroke-miterlimit="10"/>
</g>
</svg>
